<?xml version="1.0" encoding="UTF-8" standalone="no"?>
<!DOCTYPE svg PUBLIC "-//W3C//DTD SVG 1.1//EN"
 "http://www.w3.org/Graphics/SVG/1.1/DTD/svg11.dtd">
<!-- Generated by graphviz version 2.44.1 (20200629.0846)
 -->
<!-- Title: machine_learning::update_weights Pages: 1 -->
<svg width="638pt" height="256pt"
 viewBox="0.00 0.00 638.00 256.00" xmlns="http://www.w3.org/2000/svg" xmlns:xlink="http://www.w3.org/1999/xlink">
<g id="graph0" class="graph" transform="scale(1 1) rotate(0) translate(4 252)">
<title>machine_learning::update_weights</title>
<polygon fill="white" stroke="transparent" points="-4,4 -4,-252 634,-252 634,4 -4,4"/>
<!-- Node1 -->
<g id="node1" class="node">
<title>Node1</title>
<g id="a_node1"><a xlink:title=" ">
<polygon fill="#bfbfbf" stroke="black" points="0,-90 0,-120 128,-120 128,-90 0,-90"/>
<text text-anchor="start" x="8" y="-108" font-family="Helvetica,sans-Serif" font-size="10.00">machine_learning::update</text>
<text text-anchor="middle" x="64" y="-97" font-family="Helvetica,sans-Serif" font-size="10.00">_weights</text>
</a>
</g>
</g>
<!-- Node2 -->
<g id="node2" class="node">
<title>Node2</title>
<g id="a_node2"><a target="_blank" xlink:href="http://en.cppreference.com/w/cpp/numeric/math/exp.html#" target="_top" xlink:title=" ">
<polygon fill="white" stroke="black" points="196.5,-190.5 196.5,-209.5 248.5,-209.5 248.5,-190.5 196.5,-190.5"/>
<text text-anchor="middle" x="222.5" y="-197.5" font-family="Helvetica,sans-Serif" font-size="10.00">std::exp</text>
</a>
</g>
</g>
<!-- Node1&#45;&gt;Node2 -->
<g id="edge1" class="edge">
<title>Node1&#45;&gt;Node2</title>
<path fill="none" stroke="midnightblue" d="M80.98,-120.03C99.63,-136.89 132.02,-164.07 164,-181 171.12,-184.77 179.13,-187.99 186.86,-190.64"/>
<polygon fill="midnightblue" stroke="midnightblue" points="185.82,-193.98 196.41,-193.7 187.96,-187.32 185.82,-193.98"/>
</g>
<!-- Node3 -->
<g id="node3" class="node">
<title>Node3</title>
<g id="a_node3"><a xlink:href="../../d9/d66/group__machine__learning.html#gab53c14440b2b2dd3172c66afc5c2f63f" target="_top" xlink:title=" ">
<polygon fill="white" stroke="black" points="189,-152.5 189,-171.5 256,-171.5 256,-152.5 189,-152.5"/>
<text text-anchor="middle" x="222.5" y="-159.5" font-family="Helvetica,sans-Serif" font-size="10.00">get_min_2d</text>
</a>
</g>
</g>
<!-- Node1&#45;&gt;Node3 -->
<g id="edge2" class="edge">
<title>Node1&#45;&gt;Node3</title>
<path fill="none" stroke="midnightblue" d="M102.92,-120.04C121.29,-127.2 143.71,-135.76 164,-143 169.71,-145.04 175.76,-147.12 181.72,-149.13"/>
<polygon fill="midnightblue" stroke="midnightblue" points="180.97,-152.57 191.56,-152.41 183.18,-145.93 180.97,-152.57"/>
</g>
<!-- Node12 -->
<g id="node12" class="node">
<title>Node12</title>
<g id="a_node12"><a target="_blank" xlink:href="http://en.cppreference.com/w/cpp/algorithm/max.html#" target="_top" xlink:title=" ">
<polygon fill="white" stroke="black" points="195,-114.5 195,-133.5 250,-133.5 250,-114.5 195,-114.5"/>
<text text-anchor="middle" x="222.5" y="-121.5" font-family="Helvetica,sans-Serif" font-size="10.00">std::max</text>
</a>
</g>
</g>
<!-- Node1&#45;&gt;Node12 -->
<g id="edge12" class="edge">
<title>Node1&#45;&gt;Node12</title>
<path fill="none" stroke="midnightblue" d="M128.2,-112.67C147.45,-115.01 167.96,-117.5 184.84,-119.55"/>
<polygon fill="midnightblue" stroke="midnightblue" points="184.48,-123.03 194.83,-120.76 185.33,-116.08 184.48,-123.03"/>
</g>
<!-- Node13 -->
<g id="node13" class="node">
<title>Node13</title>
<g id="a_node13"><a target="_blank" xlink:href="http://en.cppreference.com/w/cpp/algorithm/min.html#" target="_top" xlink:title=" ">
<polygon fill="white" stroke="black" points="196.5,-76.5 196.5,-95.5 248.5,-95.5 248.5,-76.5 196.5,-76.5"/>
<text text-anchor="middle" x="222.5" y="-83.5" font-family="Helvetica,sans-Serif" font-size="10.00">std::min</text>
</a>
</g>
</g>
<!-- Node1&#45;&gt;Node13 -->
<g id="edge13" class="edge">
<title>Node1&#45;&gt;Node13</title>
<path fill="none" stroke="midnightblue" d="M128.2,-97.33C148.01,-94.92 169.16,-92.35 186.31,-90.27"/>
<polygon fill="midnightblue" stroke="midnightblue" points="186.91,-93.73 196.42,-89.05 186.07,-86.78 186.91,-93.73"/>
</g>
<!-- Node14 -->
<g id="node14" class="node">
<title>Node14</title>
<g id="a_node14"><a target="_blank" xlink:href="http://en.cppreference.com/w/cpp/numeric/math/sqrt.html#" target="_top" xlink:title=" ">
<polygon fill="white" stroke="black" points="196,-38.5 196,-57.5 249,-57.5 249,-38.5 196,-38.5"/>
<text text-anchor="middle" x="222.5" y="-45.5" font-family="Helvetica,sans-Serif" font-size="10.00">std::sqrt</text>
</a>
</g>
</g>
<!-- Node1&#45;&gt;Node14 -->
<g id="edge14" class="edge">
<title>Node1&#45;&gt;Node14</title>
<path fill="none" stroke="midnightblue" d="M102.92,-89.96C121.29,-82.8 143.71,-74.24 164,-67 171.15,-64.45 178.84,-61.83 186.19,-59.37"/>
<polygon fill="midnightblue" stroke="midnightblue" points="187.54,-62.62 195.94,-56.16 185.34,-55.97 187.54,-62.62"/>
</g>
<!-- Node15 -->
<g id="node15" class="node">
<title>Node15</title>
<g id="a_node15"><a xlink:href="../../d8/d77/namespacemachine__learning.html#a5305cc18d11943d3dc0d66e70d7e9c44" target="_top" xlink:title=" ">
<polygon fill="white" stroke="black" points="164,-0.5 164,-19.5 281,-19.5 281,-0.5 164,-0.5"/>
<text text-anchor="middle" x="222.5" y="-7.5" font-family="Helvetica,sans-Serif" font-size="10.00">machine_learning::sum</text>
</a>
</g>
</g>
<!-- Node1&#45;&gt;Node15 -->
<g id="edge15" class="edge">
<title>Node1&#45;&gt;Node15</title>
<path fill="none" stroke="midnightblue" d="M80.98,-89.97C99.63,-73.11 132.02,-45.93 164,-29 168.03,-26.87 172.34,-24.91 176.73,-23.13"/>
<polygon fill="midnightblue" stroke="midnightblue" points="178.22,-26.31 186.36,-19.53 175.77,-19.76 178.22,-26.31"/>
</g>
<!-- Node4 -->
<g id="node4" class="node">
<title>Node4</title>
<g id="a_node4"><a target="_blank" xlink:href="http://en.cppreference.com/w/cpp/iterator/begin.html#" target="_top" xlink:title=" ">
<polygon fill="white" stroke="black" points="333.5,-228.5 333.5,-247.5 392.5,-247.5 392.5,-228.5 333.5,-228.5"/>
<text text-anchor="middle" x="363" y="-235.5" font-family="Helvetica,sans-Serif" font-size="10.00">std::begin</text>
</a>
</g>
</g>
<!-- Node3&#45;&gt;Node4 -->
<g id="edge3" class="edge">
<title>Node3&#45;&gt;Node4</title>
<path fill="none" stroke="midnightblue" d="M256.09,-169.69C264.58,-172.51 273.46,-176.21 281,-181 300.64,-193.47 297.88,-205.75 317,-219 319.57,-220.78 322.32,-222.44 325.17,-223.98"/>
<polygon fill="midnightblue" stroke="midnightblue" points="323.88,-227.24 334.4,-228.47 326.94,-220.95 323.88,-227.24"/>
</g>
<!-- Node5 -->
<g id="node5" class="node">
<title>Node5</title>
<g id="a_node5"><a target="_blank" xlink:href="http://en.cppreference.com/w/cpp/iterator/distance.html#" target="_top" xlink:title=" ">
<polygon fill="white" stroke="black" points="326.5,-190.5 326.5,-209.5 399.5,-209.5 399.5,-190.5 326.5,-190.5"/>
<text text-anchor="middle" x="363" y="-197.5" font-family="Helvetica,sans-Serif" font-size="10.00">std::distance</text>
</a>
</g>
</g>
<!-- Node3&#45;&gt;Node5 -->
<g id="edge4" class="edge">
<title>Node3&#45;&gt;Node5</title>
<path fill="none" stroke="midnightblue" d="M256.32,-171.01C274.53,-176 297.42,-182.28 317.25,-187.72"/>
<polygon fill="midnightblue" stroke="midnightblue" points="316.42,-191.12 326.99,-190.39 318.27,-184.37 316.42,-191.12"/>
</g>
<!-- Node6 -->
<g id="node6" class="node">
<title>Node6</title>
<g id="a_node6"><a target="_blank" xlink:href="http://en.cppreference.com/w/cpp/iterator/end.html#" target="_top" xlink:title=" ">
<polygon fill="white" stroke="black" points="337,-152.5 337,-171.5 389,-171.5 389,-152.5 337,-152.5"/>
<text text-anchor="middle" x="363" y="-159.5" font-family="Helvetica,sans-Serif" font-size="10.00">std::end</text>
</a>
</g>
</g>
<!-- Node3&#45;&gt;Node6 -->
<g id="edge5" class="edge">
<title>Node3&#45;&gt;Node6</title>
<path fill="none" stroke="midnightblue" d="M256.32,-162C277.5,-162 305.02,-162 326.67,-162"/>
<polygon fill="midnightblue" stroke="midnightblue" points="326.77,-165.5 336.77,-162 326.77,-158.5 326.77,-165.5"/>
</g>
<!-- Node7 -->
<g id="node7" class="node">
<title>Node7</title>
<g id="a_node7"><a target="_blank" xlink:href="http://en.cppreference.com/w/cpp/algorithm/min_element.html#" target="_top" xlink:title=" ">
<polygon fill="white" stroke="black" points="317,-114.5 317,-133.5 409,-133.5 409,-114.5 317,-114.5"/>
<text text-anchor="middle" x="363" y="-121.5" font-family="Helvetica,sans-Serif" font-size="10.00">std::min_element</text>
</a>
</g>
</g>
<!-- Node3&#45;&gt;Node7 -->
<g id="edge6" class="edge">
<title>Node3&#45;&gt;Node7</title>
<path fill="none" stroke="midnightblue" d="M256.32,-152.99C274.53,-148 297.42,-141.72 317.25,-136.28"/>
<polygon fill="midnightblue" stroke="midnightblue" points="318.27,-139.63 326.99,-133.61 316.42,-132.88 318.27,-139.63"/>
</g>
<!-- Node8 -->
<g id="node8" class="node">
<title>Node8</title>
<g id="a_node8"><a xlink:href="../../dd/d47/namespacemath.html#a8d79d452a81ed27ba095d2ecb32dc4b4" target="_top" xlink:title=" ">
<polygon fill="white" stroke="black" points="329,-76.5 329,-95.5 397,-95.5 397,-76.5 329,-76.5"/>
<text text-anchor="middle" x="363" y="-83.5" font-family="Helvetica,sans-Serif" font-size="10.00">math::result</text>
</a>
</g>
</g>
<!-- Node3&#45;&gt;Node8 -->
<g id="edge7" class="edge">
<title>Node3&#45;&gt;Node8</title>
<path fill="none" stroke="midnightblue" d="M256.09,-154.31C264.58,-151.49 273.46,-147.79 281,-143 300.64,-130.53 297.88,-118.25 317,-105 319.57,-103.22 322.32,-101.56 325.17,-100.02"/>
<polygon fill="midnightblue" stroke="midnightblue" points="326.94,-103.05 334.4,-95.53 323.88,-96.76 326.94,-103.05"/>
</g>
<!-- Node9 -->
<g id="node9" class="node">
<title>Node9</title>
<g id="a_node9"><a xlink:href="../../d7/d35/matrix__exponentiation_8cpp.html#ad8389ed58fd0ec66df248014775ad1fa" target="_top" xlink:title=" ">
<polygon fill="white" stroke="black" points="464.5,-114.5 464.5,-133.5 496.5,-133.5 496.5,-114.5 464.5,-114.5"/>
<text text-anchor="middle" x="480.5" y="-121.5" font-family="Helvetica,sans-Serif" font-size="10.00">ans</text>
</a>
</g>
</g>
<!-- Node8&#45;&gt;Node9 -->
<g id="edge8" class="edge">
<title>Node8&#45;&gt;Node9</title>
<path fill="none" stroke="midnightblue" d="M393.15,-95.59C412.12,-101.83 436.6,-109.88 454.64,-115.82"/>
<polygon fill="midnightblue" stroke="midnightblue" points="453.59,-119.16 464.18,-118.96 455.78,-112.51 453.59,-119.16"/>
</g>
<!-- Node10 -->
<g id="node10" class="node">
<title>Node10</title>
<g id="a_node10"><a xlink:href="../../dd/d47/namespacemath.html#a4a55bb9ec6c59485d3fdb18bd88ca5b6" target="_top" xlink:title=" ">
<polygon fill="white" stroke="black" points="445,-76.5 445,-95.5 516,-95.5 516,-76.5 445,-76.5"/>
<text text-anchor="middle" x="480.5" y="-83.5" font-family="Helvetica,sans-Serif" font-size="10.00">math::power</text>
</a>
</g>
</g>
<!-- Node8&#45;&gt;Node10 -->
<g id="edge9" class="edge">
<title>Node8&#45;&gt;Node10</title>
<path fill="none" stroke="midnightblue" d="M397.1,-86C408.76,-86 422.08,-86 434.56,-86"/>
<polygon fill="midnightblue" stroke="midnightblue" points="434.79,-89.5 444.79,-86 434.79,-82.5 434.79,-89.5"/>
</g>
<!-- Node11 -->
<g id="node11" class="node">
<title>Node11</title>
<g id="a_node11"><a xlink:href="../../dd/d47/namespacemath.html#ab65d9997885347702dc0c3ec09d5dc21" target="_top" xlink:title=" ">
<polygon fill="white" stroke="black" points="552,-57.5 552,-76.5 630,-76.5 630,-57.5 552,-57.5"/>
<text text-anchor="middle" x="591" y="-64.5" font-family="Helvetica,sans-Serif" font-size="10.00">math::multiply</text>
</a>
</g>
</g>
<!-- Node10&#45;&gt;Node11 -->
<g id="edge10" class="edge">
<title>Node10&#45;&gt;Node11</title>
<path fill="none" stroke="midnightblue" d="M516.13,-79.94C524.33,-78.5 533.22,-76.94 541.9,-75.42"/>
<polygon fill="midnightblue" stroke="midnightblue" points="542.7,-78.84 551.94,-73.66 541.49,-71.94 542.7,-78.84"/>
</g>
<!-- Node11&#45;&gt;Node8 -->
<g id="edge11" class="edge">
<title>Node11&#45;&gt;Node8</title>
<path fill="none" stroke="midnightblue" d="M551.7,-64.61C522.39,-63.35 481.01,-62.83 445,-67 432.45,-68.45 419.01,-71.13 406.76,-74.03"/>
<polygon fill="midnightblue" stroke="midnightblue" points="405.67,-70.7 396.8,-76.49 407.35,-77.49 405.67,-70.7"/>
</g>
</g>
</svg>
