<?xml version="1.0" encoding="UTF-8" standalone="no"?>
<!DOCTYPE svg PUBLIC "-//W3C//DTD SVG 1.1//EN"
 "http://www.w3.org/Graphics/SVG/1.1/DTD/svg11.dtd">
<!-- Generated by graphviz version 2.44.1 (20200629.0846)
 -->
<!-- Title: machine_learning::update_weights Pages: 1 -->
<svg width="485pt" height="275pt"
 viewBox="0.00 0.00 485.00 275.00" xmlns="http://www.w3.org/2000/svg" xmlns:xlink="http://www.w3.org/1999/xlink">
<g id="graph0" class="graph" transform="scale(1 1) rotate(0) translate(4 271)">
<title>machine_learning::update_weights</title>
<polygon fill="white" stroke="transparent" points="-4,4 -4,-271 481,-271 481,4 -4,4"/>
<!-- Node1 -->
<g id="node1" class="node">
<title>Node1</title>
<g id="a_node1"><a xlink:title=" ">
<polygon fill="#bfbfbf" stroke="black" points="0,-128 0,-158 128,-158 128,-128 0,-128"/>
<text text-anchor="start" x="8" y="-146" font-family="Helvetica,sans-Serif" font-size="10.00">machine_learning::update</text>
<text text-anchor="middle" x="64" y="-135" font-family="Helvetica,sans-Serif" font-size="10.00">_weights</text>
</a>
</g>
</g>
<!-- Node2 -->
<g id="node2" class="node">
<title>Node2</title>
<g id="a_node2"><a target="_blank" xlink:href="http://en.cppreference.com/w/cpp/iterator/begin.html#" target="_top" xlink:title=" ">
<polygon fill="white" stroke="black" points="180.5,-247.5 180.5,-266.5 239.5,-266.5 239.5,-247.5 180.5,-247.5"/>
<text text-anchor="middle" x="210" y="-254.5" font-family="Helvetica,sans-Serif" font-size="10.00">std::begin</text>
</a>
</g>
</g>
<!-- Node1&#45;&gt;Node2 -->
<g id="edge1" class="edge">
<title>Node1&#45;&gt;Node2</title>
<path fill="none" stroke="midnightblue" d="M77.7,-158.28C95.32,-178.69 128.98,-214.95 164,-238 166.76,-239.82 169.73,-241.52 172.77,-243.11"/>
<polygon fill="midnightblue" stroke="midnightblue" points="171.47,-246.36 182,-247.49 174.47,-240.04 171.47,-246.36"/>
</g>
<!-- Node3 -->
<g id="node3" class="node">
<title>Node3</title>
<g id="a_node3"><a target="_blank" xlink:href="http://en.cppreference.com/w/cpp/iterator/distance.html#" target="_top" xlink:title=" ">
<polygon fill="white" stroke="black" points="173.5,-209.5 173.5,-228.5 246.5,-228.5 246.5,-209.5 173.5,-209.5"/>
<text text-anchor="middle" x="210" y="-216.5" font-family="Helvetica,sans-Serif" font-size="10.00">std::distance</text>
</a>
</g>
</g>
<!-- Node1&#45;&gt;Node3 -->
<g id="edge2" class="edge">
<title>Node1&#45;&gt;Node3</title>
<path fill="none" stroke="midnightblue" d="M89.36,-158.15C109.12,-170.16 137.89,-187.03 164,-200 167.76,-201.87 171.75,-203.72 175.74,-205.5"/>
<polygon fill="midnightblue" stroke="midnightblue" points="174.36,-208.72 184.93,-209.48 177.14,-202.3 174.36,-208.72"/>
</g>
<!-- Node4 -->
<g id="node4" class="node">
<title>Node4</title>
<g id="a_node4"><a target="_blank" xlink:href="http://en.cppreference.com/w/cpp/iterator/end.html#" target="_top" xlink:title=" ">
<polygon fill="white" stroke="black" points="184,-171.5 184,-190.5 236,-190.5 236,-171.5 184,-171.5"/>
<text text-anchor="middle" x="210" y="-178.5" font-family="Helvetica,sans-Serif" font-size="10.00">std::end</text>
</a>
</g>
</g>
<!-- Node1&#45;&gt;Node4 -->
<g id="edge3" class="edge">
<title>Node1&#45;&gt;Node4</title>
<path fill="none" stroke="midnightblue" d="M121.91,-158.02C139.45,-162.65 158.25,-167.61 173.87,-171.73"/>
<polygon fill="midnightblue" stroke="midnightblue" points="173.07,-175.14 183.63,-174.3 174.85,-168.37 173.07,-175.14"/>
</g>
<!-- Node5 -->
<g id="node5" class="node">
<title>Node5</title>
<g id="a_node5"><a target="_blank" xlink:href="http://en.cppreference.com/w/cpp/algorithm/max.html#" target="_top" xlink:title=" ">
<polygon fill="white" stroke="black" points="182.5,-133.5 182.5,-152.5 237.5,-152.5 237.5,-133.5 182.5,-133.5"/>
<text text-anchor="middle" x="210" y="-140.5" font-family="Helvetica,sans-Serif" font-size="10.00">std::max</text>
</a>
</g>
</g>
<!-- Node1&#45;&gt;Node5 -->
<g id="edge4" class="edge">
<title>Node1&#45;&gt;Node5</title>
<path fill="none" stroke="midnightblue" d="M128.16,-143C143.19,-143 158.73,-143 172.13,-143"/>
<polygon fill="midnightblue" stroke="midnightblue" points="172.37,-146.5 182.37,-143 172.37,-139.5 172.37,-146.5"/>
</g>
<!-- Node6 -->
<g id="node6" class="node">
<title>Node6</title>
<g id="a_node6"><a target="_blank" xlink:href="http://en.cppreference.com/w/cpp/algorithm/min.html#" target="_top" xlink:title=" ">
<polygon fill="white" stroke="black" points="184,-95.5 184,-114.5 236,-114.5 236,-95.5 184,-95.5"/>
<text text-anchor="middle" x="210" y="-102.5" font-family="Helvetica,sans-Serif" font-size="10.00">std::min</text>
</a>
</g>
</g>
<!-- Node1&#45;&gt;Node6 -->
<g id="edge5" class="edge">
<title>Node1&#45;&gt;Node6</title>
<path fill="none" stroke="midnightblue" d="M121.91,-127.98C139.45,-123.35 158.25,-118.39 173.87,-114.27"/>
<polygon fill="midnightblue" stroke="midnightblue" points="174.85,-117.63 183.63,-111.7 173.07,-110.86 174.85,-117.63"/>
</g>
<!-- Node7 -->
<g id="node7" class="node">
<title>Node7</title>
<g id="a_node7"><a target="_blank" xlink:href="http://en.cppreference.com/w/cpp/algorithm/min_element.html#" target="_top" xlink:title=" ">
<polygon fill="white" stroke="black" points="164,-57.5 164,-76.5 256,-76.5 256,-57.5 164,-57.5"/>
<text text-anchor="middle" x="210" y="-64.5" font-family="Helvetica,sans-Serif" font-size="10.00">std::min_element</text>
</a>
</g>
</g>
<!-- Node1&#45;&gt;Node7 -->
<g id="edge6" class="edge">
<title>Node1&#45;&gt;Node7</title>
<path fill="none" stroke="midnightblue" d="M89.36,-127.85C109.12,-115.84 137.89,-98.97 164,-86 167.76,-84.13 171.75,-82.28 175.74,-80.5"/>
<polygon fill="midnightblue" stroke="midnightblue" points="177.14,-83.7 184.93,-76.52 174.36,-77.28 177.14,-83.7"/>
</g>
<!-- Node8 -->
<g id="node8" class="node">
<title>Node8</title>
<g id="a_node8"><a xlink:href="../../dd/d47/namespacemath.html#a8d79d452a81ed27ba095d2ecb32dc4b4" target="_top" xlink:title=" ">
<polygon fill="white" stroke="black" points="176,-19.5 176,-38.5 244,-38.5 244,-19.5 176,-19.5"/>
<text text-anchor="middle" x="210" y="-26.5" font-family="Helvetica,sans-Serif" font-size="10.00">math::result</text>
</a>
</g>
</g>
<!-- Node1&#45;&gt;Node8 -->
<g id="edge7" class="edge">
<title>Node1&#45;&gt;Node8</title>
<path fill="none" stroke="midnightblue" d="M77.7,-127.72C95.32,-107.31 128.98,-71.05 164,-48 166.76,-46.18 169.73,-44.48 172.77,-42.89"/>
<polygon fill="midnightblue" stroke="midnightblue" points="174.47,-45.96 182,-38.51 171.47,-39.64 174.47,-45.96"/>
</g>
<!-- Node9 -->
<g id="node9" class="node">
<title>Node9</title>
<g id="a_node9"><a xlink:href="../../d7/d35/matrix__exponentiation_8cpp.html#ad8389ed58fd0ec66df248014775ad1fa" target="_top" xlink:title=" ">
<polygon fill="white" stroke="black" points="311.5,-57.5 311.5,-76.5 343.5,-76.5 343.5,-57.5 311.5,-57.5"/>
<text text-anchor="middle" x="327.5" y="-64.5" font-family="Helvetica,sans-Serif" font-size="10.00">ans</text>
</a>
</g>
</g>
<!-- Node8&#45;&gt;Node9 -->
<g id="edge8" class="edge">
<title>Node8&#45;&gt;Node9</title>
<path fill="none" stroke="midnightblue" d="M240.15,-38.59C259.12,-44.83 283.6,-52.88 301.64,-58.82"/>
<polygon fill="midnightblue" stroke="midnightblue" points="300.59,-62.16 311.18,-61.96 302.78,-55.51 300.59,-62.16"/>
</g>
<!-- Node10 -->
<g id="node10" class="node">
<title>Node10</title>
<g id="a_node10"><a xlink:href="../../dd/d47/namespacemath.html#a4a55bb9ec6c59485d3fdb18bd88ca5b6" target="_top" xlink:title=" ">
<polygon fill="white" stroke="black" points="292,-19.5 292,-38.5 363,-38.5 363,-19.5 292,-19.5"/>
<text text-anchor="middle" x="327.5" y="-26.5" font-family="Helvetica,sans-Serif" font-size="10.00">math::power</text>
</a>
</g>
</g>
<!-- Node8&#45;&gt;Node10 -->
<g id="edge9" class="edge">
<title>Node8&#45;&gt;Node10</title>
<path fill="none" stroke="midnightblue" d="M244.1,-29C255.76,-29 269.08,-29 281.56,-29"/>
<polygon fill="midnightblue" stroke="midnightblue" points="281.79,-32.5 291.79,-29 281.79,-25.5 281.79,-32.5"/>
</g>
<!-- Node11 -->
<g id="node11" class="node">
<title>Node11</title>
<g id="a_node11"><a xlink:href="../../dd/d47/namespacemath.html#ab65d9997885347702dc0c3ec09d5dc21" target="_top" xlink:title=" ">
<polygon fill="white" stroke="black" points="399,-0.5 399,-19.5 477,-19.5 477,-0.5 399,-0.5"/>
<text text-anchor="middle" x="438" y="-7.5" font-family="Helvetica,sans-Serif" font-size="10.00">math::multiply</text>
</a>
</g>
</g>
<!-- Node10&#45;&gt;Node11 -->
<g id="edge10" class="edge">
<title>Node10&#45;&gt;Node11</title>
<path fill="none" stroke="midnightblue" d="M363.13,-22.94C371.33,-21.5 380.22,-19.94 388.9,-18.42"/>
<polygon fill="midnightblue" stroke="midnightblue" points="389.7,-21.84 398.94,-16.66 388.49,-14.94 389.7,-21.84"/>
</g>
<!-- Node11&#45;&gt;Node8 -->
<g id="edge11" class="edge">
<title>Node11&#45;&gt;Node8</title>
<path fill="none" stroke="midnightblue" d="M398.7,-7.61C369.39,-6.35 328.01,-5.83 292,-10 279.45,-11.45 266.01,-14.13 253.76,-17.03"/>
<polygon fill="midnightblue" stroke="midnightblue" points="252.67,-13.7 243.8,-19.49 254.35,-20.49 252.67,-13.7"/>
</g>
</g>
</svg>
