<?xml version="1.0" encoding="UTF-8" standalone="no"?>
<!DOCTYPE svg PUBLIC "-//W3C//DTD SVG 1.1//EN"
 "http://www.w3.org/Graphics/SVG/1.1/DTD/svg11.dtd">
<!-- Generated by graphviz version 2.44.1 (20200629.0846)
 -->
<!-- Title: machine_learning::kohonen_som Pages: 1 -->
<!--zoomable 256 -->
<svg id="main" version="1.1" xmlns="http://www.w3.org/2000/svg" xmlns:xlink="http://www.w3.org/1999/xlink" xml:space="preserve" onload="init(evt)">
<style type="text/css"><![CDATA[
.edge:hover path { stroke: red; }
.edge:hover polygon { stroke: red; fill: red; }
]]></style>
<script type="text/javascript"><![CDATA[
var edges = document.getElementsByTagName('g');
if (edges && edges.length) {
  for (var i=0;i<edges.length;i++) {
    if (edges[i].id.substr(0,4)=='edge') {
      edges[i].setAttribute('class','edge');
    }
  }
}
]]></script>
        <defs>
                <circle id="rim" cx="0" cy="0" r="7"/>
                <circle id="rim2" cx="0" cy="0" r="3.5"/>
                <g id="zoomPlus">
                        <use xlink:href="#rim" fill="#404040">
                                <set attributeName="fill" to="#808080" begin="zoomplus.mouseover" end="zoomplus.mouseout"/>
                        </use>
                        <path d="M-4,0h8M0,-4v8" fill="none" stroke="white" stroke-width="1.5" pointer-events="none"/>
                </g>
                <g id="zoomMin">
                        <use xlink:href="#rim" fill="#404040">
                                <set attributeName="fill" to="#808080" begin="zoomminus.mouseover" end="zoomminus.mouseout"/>
                        </use>
                        <path d="M-4,0h8" fill="none" stroke="white" stroke-width="1.5" pointer-events="none"/>
                </g>
                <g id="dirArrow">
                        <path fill="none" stroke="white" stroke-width="1.5" d="M0,-3.0v7 M-2.5,-0.5L0,-3.0L2.5,-0.5"/>
                </g>
               <g id="resetDef">
                       <use xlink:href="#rim2" fill="#404040">
                               <set attributeName="fill" to="#808080" begin="reset.mouseover" end="reset.mouseout"/>
                       </use>
               </g>
        </defs>

<script type="text/javascript">
var viewWidth = 833;
var viewHeight = 256;
var sectionId = 'dynsection-3';
</script>
<script xlink:href="../../svgpan.js"/>
<svg id="graph" class="graph">
<g id="viewport">
<title>machine_learning::kohonen_som</title>
<polygon fill="white" stroke="transparent" points="-4,4 -4,-252 829,-252 829,4 -4,4"/>
<!-- Node1 -->
<g id="node1" class="node">
<title>Node1</title>
<g id="a_node1"><a xlink:title=" ">
<polygon fill="#bfbfbf" stroke="black" points="0,-95.5 0,-114.5 159,-114.5 159,-95.5 0,-95.5"/>
<text text-anchor="middle" x="79.5" y="-102.5" font-family="Helvetica,sans-Serif" font-size="10.00">machine_learning::kohonen_som</text>
</a>
</g>
</g>
<!-- Node2 -->
<g id="node2" class="node">
<title>Node2</title>
<g id="a_node2"><a xlink:href="../../d8/d77/namespacemachine__learning.html#ac4010fe3a52a74e8b5b1aaadfe38b46f" target="_top" xlink:title=" ">
<polygon fill="white" stroke="black" points="195,-90 195,-120 323,-120 323,-90 195,-90"/>
<text text-anchor="start" x="203" y="-108" font-family="Helvetica,sans-Serif" font-size="10.00">machine_learning::update</text>
<text text-anchor="middle" x="259" y="-97" font-family="Helvetica,sans-Serif" font-size="10.00">_weights</text>
</a>
</g>
</g>
<!-- Node1&#45;&gt;Node2 -->
<g id="edge1" class="edge">
<title>Node1&#45;&gt;Node2</title>
<path fill="none" stroke="midnightblue" d="M159.13,-105C167.63,-105 176.26,-105 184.7,-105"/>
<polygon fill="midnightblue" stroke="midnightblue" points="184.88,-108.5 194.88,-105 184.88,-101.5 184.88,-108.5"/>
</g>
<!-- Node3 -->
<g id="node3" class="node">
<title>Node3</title>
<g id="a_node3"><a target="_blank" xlink:href="http://en.cppreference.com/w/cpp/numeric/math/exp.html#" target="_top" xlink:title=" ">
<polygon fill="white" stroke="black" points="391.5,-190.5 391.5,-209.5 443.5,-209.5 443.5,-190.5 391.5,-190.5"/>
<text text-anchor="middle" x="417.5" y="-197.5" font-family="Helvetica,sans-Serif" font-size="10.00">std::exp</text>
</a>
</g>
</g>
<!-- Node2&#45;&gt;Node3 -->
<g id="edge2" class="edge">
<title>Node2&#45;&gt;Node3</title>
<path fill="none" stroke="midnightblue" d="M275.98,-120.03C294.63,-136.89 327.02,-164.07 359,-181 366.12,-184.77 374.13,-187.99 381.86,-190.64"/>
<polygon fill="midnightblue" stroke="midnightblue" points="380.82,-193.98 391.41,-193.7 382.96,-187.32 380.82,-193.98"/>
</g>
<!-- Node4 -->
<g id="node4" class="node">
<title>Node4</title>
<g id="a_node4"><a xlink:href="../../d9/d66/group__machine__learning.html#gab53c14440b2b2dd3172c66afc5c2f63f" target="_top" xlink:title=" ">
<polygon fill="white" stroke="black" points="384,-152.5 384,-171.5 451,-171.5 451,-152.5 384,-152.5"/>
<text text-anchor="middle" x="417.5" y="-159.5" font-family="Helvetica,sans-Serif" font-size="10.00">get_min_2d</text>
</a>
</g>
</g>
<!-- Node2&#45;&gt;Node4 -->
<g id="edge3" class="edge">
<title>Node2&#45;&gt;Node4</title>
<path fill="none" stroke="midnightblue" d="M297.92,-120.04C316.29,-127.2 338.71,-135.76 359,-143 364.71,-145.04 370.76,-147.12 376.72,-149.13"/>
<polygon fill="midnightblue" stroke="midnightblue" points="375.97,-152.57 386.56,-152.41 378.18,-145.93 375.97,-152.57"/>
</g>
<!-- Node13 -->
<g id="node13" class="node">
<title>Node13</title>
<g id="a_node13"><a target="_blank" xlink:href="http://en.cppreference.com/w/cpp/algorithm/max.html#" target="_top" xlink:title=" ">
<polygon fill="white" stroke="black" points="390,-114.5 390,-133.5 445,-133.5 445,-114.5 390,-114.5"/>
<text text-anchor="middle" x="417.5" y="-121.5" font-family="Helvetica,sans-Serif" font-size="10.00">std::max</text>
</a>
</g>
</g>
<!-- Node2&#45;&gt;Node13 -->
<g id="edge13" class="edge">
<title>Node2&#45;&gt;Node13</title>
<path fill="none" stroke="midnightblue" d="M323.2,-112.67C342.45,-115.01 362.96,-117.5 379.84,-119.55"/>
<polygon fill="midnightblue" stroke="midnightblue" points="379.48,-123.03 389.83,-120.76 380.33,-116.08 379.48,-123.03"/>
</g>
<!-- Node14 -->
<g id="node14" class="node">
<title>Node14</title>
<g id="a_node14"><a target="_blank" xlink:href="http://en.cppreference.com/w/cpp/algorithm/min.html#" target="_top" xlink:title=" ">
<polygon fill="white" stroke="black" points="391.5,-76.5 391.5,-95.5 443.5,-95.5 443.5,-76.5 391.5,-76.5"/>
<text text-anchor="middle" x="417.5" y="-83.5" font-family="Helvetica,sans-Serif" font-size="10.00">std::min</text>
</a>
</g>
</g>
<!-- Node2&#45;&gt;Node14 -->
<g id="edge14" class="edge">
<title>Node2&#45;&gt;Node14</title>
<path fill="none" stroke="midnightblue" d="M323.2,-97.33C343.01,-94.92 364.16,-92.35 381.31,-90.27"/>
<polygon fill="midnightblue" stroke="midnightblue" points="381.91,-93.73 391.42,-89.05 381.07,-86.78 381.91,-93.73"/>
</g>
<!-- Node15 -->
<g id="node15" class="node">
<title>Node15</title>
<g id="a_node15"><a target="_blank" xlink:href="http://en.cppreference.com/w/cpp/numeric/math/sqrt.html#" target="_top" xlink:title=" ">
<polygon fill="white" stroke="black" points="391,-38.5 391,-57.5 444,-57.5 444,-38.5 391,-38.5"/>
<text text-anchor="middle" x="417.5" y="-45.5" font-family="Helvetica,sans-Serif" font-size="10.00">std::sqrt</text>
</a>
</g>
</g>
<!-- Node2&#45;&gt;Node15 -->
<g id="edge15" class="edge">
<title>Node2&#45;&gt;Node15</title>
<path fill="none" stroke="midnightblue" d="M297.92,-89.96C316.29,-82.8 338.71,-74.24 359,-67 366.15,-64.45 373.84,-61.83 381.19,-59.37"/>
<polygon fill="midnightblue" stroke="midnightblue" points="382.54,-62.62 390.94,-56.16 380.34,-55.97 382.54,-62.62"/>
</g>
<!-- Node16 -->
<g id="node16" class="node">
<title>Node16</title>
<g id="a_node16"><a xlink:href="../../d8/d77/namespacemachine__learning.html#a5305cc18d11943d3dc0d66e70d7e9c44" target="_top" xlink:title=" ">
<polygon fill="white" stroke="black" points="359,-0.5 359,-19.5 476,-19.5 476,-0.5 359,-0.5"/>
<text text-anchor="middle" x="417.5" y="-7.5" font-family="Helvetica,sans-Serif" font-size="10.00">machine_learning::sum</text>
</a>
</g>
</g>
<!-- Node2&#45;&gt;Node16 -->
<g id="edge16" class="edge">
<title>Node2&#45;&gt;Node16</title>
<path fill="none" stroke="midnightblue" d="M275.98,-89.97C294.63,-73.11 327.02,-45.93 359,-29 363.03,-26.87 367.34,-24.91 371.73,-23.13"/>
<polygon fill="midnightblue" stroke="midnightblue" points="373.22,-26.31 381.36,-19.53 370.77,-19.76 373.22,-26.31"/>
</g>
<!-- Node5 -->
<g id="node5" class="node">
<title>Node5</title>
<g id="a_node5"><a target="_blank" xlink:href="http://en.cppreference.com/w/cpp/iterator/begin.html#" target="_top" xlink:title=" ">
<polygon fill="white" stroke="black" points="528.5,-228.5 528.5,-247.5 587.5,-247.5 587.5,-228.5 528.5,-228.5"/>
<text text-anchor="middle" x="558" y="-235.5" font-family="Helvetica,sans-Serif" font-size="10.00">std::begin</text>
</a>
</g>
</g>
<!-- Node4&#45;&gt;Node5 -->
<g id="edge4" class="edge">
<title>Node4&#45;&gt;Node5</title>
<path fill="none" stroke="midnightblue" d="M451.09,-169.69C459.58,-172.51 468.46,-176.21 476,-181 495.64,-193.47 492.88,-205.75 512,-219 514.57,-220.78 517.32,-222.44 520.17,-223.98"/>
<polygon fill="midnightblue" stroke="midnightblue" points="518.88,-227.24 529.4,-228.47 521.94,-220.95 518.88,-227.24"/>
</g>
<!-- Node6 -->
<g id="node6" class="node">
<title>Node6</title>
<g id="a_node6"><a target="_blank" xlink:href="http://en.cppreference.com/w/cpp/iterator/distance.html#" target="_top" xlink:title=" ">
<polygon fill="white" stroke="black" points="521.5,-190.5 521.5,-209.5 594.5,-209.5 594.5,-190.5 521.5,-190.5"/>
<text text-anchor="middle" x="558" y="-197.5" font-family="Helvetica,sans-Serif" font-size="10.00">std::distance</text>
</a>
</g>
</g>
<!-- Node4&#45;&gt;Node6 -->
<g id="edge5" class="edge">
<title>Node4&#45;&gt;Node6</title>
<path fill="none" stroke="midnightblue" d="M451.32,-171.01C469.53,-176 492.42,-182.28 512.25,-187.72"/>
<polygon fill="midnightblue" stroke="midnightblue" points="511.42,-191.12 521.99,-190.39 513.27,-184.37 511.42,-191.12"/>
</g>
<!-- Node7 -->
<g id="node7" class="node">
<title>Node7</title>
<g id="a_node7"><a target="_blank" xlink:href="http://en.cppreference.com/w/cpp/iterator/end.html#" target="_top" xlink:title=" ">
<polygon fill="white" stroke="black" points="532,-152.5 532,-171.5 584,-171.5 584,-152.5 532,-152.5"/>
<text text-anchor="middle" x="558" y="-159.5" font-family="Helvetica,sans-Serif" font-size="10.00">std::end</text>
</a>
</g>
</g>
<!-- Node4&#45;&gt;Node7 -->
<g id="edge6" class="edge">
<title>Node4&#45;&gt;Node7</title>
<path fill="none" stroke="midnightblue" d="M451.32,-162C472.5,-162 500.02,-162 521.67,-162"/>
<polygon fill="midnightblue" stroke="midnightblue" points="521.77,-165.5 531.77,-162 521.77,-158.5 521.77,-165.5"/>
</g>
<!-- Node8 -->
<g id="node8" class="node">
<title>Node8</title>
<g id="a_node8"><a target="_blank" xlink:href="http://en.cppreference.com/w/cpp/algorithm/min_element.html#" target="_top" xlink:title=" ">
<polygon fill="white" stroke="black" points="512,-114.5 512,-133.5 604,-133.5 604,-114.5 512,-114.5"/>
<text text-anchor="middle" x="558" y="-121.5" font-family="Helvetica,sans-Serif" font-size="10.00">std::min_element</text>
</a>
</g>
</g>
<!-- Node4&#45;&gt;Node8 -->
<g id="edge7" class="edge">
<title>Node4&#45;&gt;Node8</title>
<path fill="none" stroke="midnightblue" d="M451.32,-152.99C469.53,-148 492.42,-141.72 512.25,-136.28"/>
<polygon fill="midnightblue" stroke="midnightblue" points="513.27,-139.63 521.99,-133.61 511.42,-132.88 513.27,-139.63"/>
</g>
<!-- Node9 -->
<g id="node9" class="node">
<title>Node9</title>
<g id="a_node9"><a xlink:href="../../dd/d47/namespacemath.html#a8d79d452a81ed27ba095d2ecb32dc4b4" target="_top" xlink:title=" ">
<polygon fill="white" stroke="black" points="524,-76.5 524,-95.5 592,-95.5 592,-76.5 524,-76.5"/>
<text text-anchor="middle" x="558" y="-83.5" font-family="Helvetica,sans-Serif" font-size="10.00">math::result</text>
</a>
</g>
</g>
<!-- Node4&#45;&gt;Node9 -->
<g id="edge8" class="edge">
<title>Node4&#45;&gt;Node9</title>
<path fill="none" stroke="midnightblue" d="M451.09,-154.31C459.58,-151.49 468.46,-147.79 476,-143 495.64,-130.53 492.88,-118.25 512,-105 514.57,-103.22 517.32,-101.56 520.17,-100.02"/>
<polygon fill="midnightblue" stroke="midnightblue" points="521.94,-103.05 529.4,-95.53 518.88,-96.76 521.94,-103.05"/>
</g>
<!-- Node10 -->
<g id="node10" class="node">
<title>Node10</title>
<g id="a_node10"><a xlink:href="../../d7/d35/matrix__exponentiation_8cpp.html#ad8389ed58fd0ec66df248014775ad1fa" target="_top" xlink:title=" ">
<polygon fill="white" stroke="black" points="659.5,-114.5 659.5,-133.5 691.5,-133.5 691.5,-114.5 659.5,-114.5"/>
<text text-anchor="middle" x="675.5" y="-121.5" font-family="Helvetica,sans-Serif" font-size="10.00">ans</text>
</a>
</g>
</g>
<!-- Node9&#45;&gt;Node10 -->
<g id="edge9" class="edge">
<title>Node9&#45;&gt;Node10</title>
<path fill="none" stroke="midnightblue" d="M588.15,-95.59C607.12,-101.83 631.6,-109.88 649.64,-115.82"/>
<polygon fill="midnightblue" stroke="midnightblue" points="648.59,-119.16 659.18,-118.96 650.78,-112.51 648.59,-119.16"/>
</g>
<!-- Node11 -->
<g id="node11" class="node">
<title>Node11</title>
<g id="a_node11"><a xlink:href="../../dd/d47/namespacemath.html#a4a55bb9ec6c59485d3fdb18bd88ca5b6" target="_top" xlink:title=" ">
<polygon fill="white" stroke="black" points="640,-76.5 640,-95.5 711,-95.5 711,-76.5 640,-76.5"/>
<text text-anchor="middle" x="675.5" y="-83.5" font-family="Helvetica,sans-Serif" font-size="10.00">math::power</text>
</a>
</g>
</g>
<!-- Node9&#45;&gt;Node11 -->
<g id="edge10" class="edge">
<title>Node9&#45;&gt;Node11</title>
<path fill="none" stroke="midnightblue" d="M592.1,-86C603.76,-86 617.08,-86 629.56,-86"/>
<polygon fill="midnightblue" stroke="midnightblue" points="629.79,-89.5 639.79,-86 629.79,-82.5 629.79,-89.5"/>
</g>
<!-- Node12 -->
<g id="node12" class="node">
<title>Node12</title>
<g id="a_node12"><a xlink:href="../../dd/d47/namespacemath.html#ab65d9997885347702dc0c3ec09d5dc21" target="_top" xlink:title=" ">
<polygon fill="white" stroke="black" points="747,-57.5 747,-76.5 825,-76.5 825,-57.5 747,-57.5"/>
<text text-anchor="middle" x="786" y="-64.5" font-family="Helvetica,sans-Serif" font-size="10.00">math::multiply</text>
</a>
</g>
</g>
<!-- Node11&#45;&gt;Node12 -->
<g id="edge11" class="edge">
<title>Node11&#45;&gt;Node12</title>
<path fill="none" stroke="midnightblue" d="M711.13,-79.94C719.33,-78.5 728.22,-76.94 736.9,-75.42"/>
<polygon fill="midnightblue" stroke="midnightblue" points="737.7,-78.84 746.94,-73.66 736.49,-71.94 737.7,-78.84"/>
</g>
<!-- Node12&#45;&gt;Node9 -->
<g id="edge12" class="edge">
<title>Node12&#45;&gt;Node9</title>
<path fill="none" stroke="midnightblue" d="M746.7,-64.61C717.39,-63.35 676.01,-62.83 640,-67 627.45,-68.45 614.01,-71.13 601.76,-74.03"/>
<polygon fill="midnightblue" stroke="midnightblue" points="600.67,-70.7 591.8,-76.49 602.35,-77.49 600.67,-70.7"/>
</g>
</g>
</svg>
        <g id="navigator" transform="translate(0 0)" fill="#404254">
                <rect fill="#f2f5e9" fill-opacity="0.5" stroke="#606060" stroke-width=".5" x="0" y="0" width="60" height="60"/>
                <use id="zoomplus" xlink:href="#zoomPlus" x="17" y="9" onmousedown="handleZoom(evt,'in')"/>
                <use id="zoomminus" xlink:href="#zoomMin" x="42" y="9" onmousedown="handleZoom(evt,'out')"/>
                <use id="reset" xlink:href="#resetDef" x="30" y="36" onmousedown="handleReset()"/>
                <g id="arrowUp" xlink:href="#dirArrow" transform="translate(30 24)" onmousedown="handlePan(0,-1)">
                  <use xlink:href="#rim" fill="#404040">
                        <set attributeName="fill" to="#808080" begin="arrowUp.mouseover" end="arrowUp.mouseout"/>
                  </use>
                  <path fill="none" stroke="white" stroke-width="1.5" d="M0,-3.0v7 M-2.5,-0.5L0,-3.0L2.5,-0.5"/>
                </g>
                <g id="arrowRight" xlink:href="#dirArrow" transform="rotate(90) translate(36 -43)" onmousedown="handlePan(1,0)">
                  <use xlink:href="#rim" fill="#404040">
                        <set attributeName="fill" to="#808080" begin="arrowRight.mouseover" end="arrowRight.mouseout"/>
                  </use>
                  <path fill="none" stroke="white" stroke-width="1.5" d="M0,-3.0v7 M-2.5,-0.5L0,-3.0L2.5,-0.5"/>
                </g>
                <g id="arrowDown" xlink:href="#dirArrow" transform="rotate(180) translate(-30 -48)" onmousedown="handlePan(0,1)">
                  <use xlink:href="#rim" fill="#404040">
                        <set attributeName="fill" to="#808080" begin="arrowDown.mouseover" end="arrowDown.mouseout"/>
                  </use>
                  <path fill="none" stroke="white" stroke-width="1.5" d="M0,-3.0v7 M-2.5,-0.5L0,-3.0L2.5,-0.5"/>
                </g>
                <g id="arrowLeft" xlink:href="#dirArrow" transform="rotate(270) translate(-36 17)" onmousedown="handlePan(-1,0)">
                  <use xlink:href="#rim" fill="#404040">
                        <set attributeName="fill" to="#808080" begin="arrowLeft.mouseover" end="arrowLeft.mouseout"/>
                  </use>
                  <path fill="none" stroke="white" stroke-width="1.5" d="M0,-3.0v7 M-2.5,-0.5L0,-3.0L2.5,-0.5"/>
                </g>
        </g>
        <svg viewBox="0 0 15 15" width="100%" height="30px" preserveAspectRatio="xMaxYMin meet">
         <g id="arrow_out" transform="scale(0.3 0.3)">
          <a xlink:href="namespacemachine__learning_adc731720947b4bc2ab047c141e7d0299_cgraph_org.svg" target="_base">
           <rect id="button" ry="5" rx="5" y="6" x="6" height="38" width="38"
                fill="#f2f5e9" fill-opacity="0.5" stroke="#606060" stroke-width="1.0"/>
           <path id="arrow"
             d="M 11.500037,31.436501 C 11.940474,20.09759 22.043105,11.32322 32.158766,21.979434 L 37.068811,17.246167 C 37.068811,17.246167 37.088388,32 37.088388,32 L 22.160133,31.978069 C 22.160133,31.978069 26.997745,27.140456 26.997745,27.140456 C 18.528582,18.264221 13.291696,25.230495 11.500037,31.436501 z"
             style="fill:#404040;"/>
          </a>
         </g>
        </svg>
</svg>
