<?xml version="1.0" encoding="UTF-8" standalone="no"?>
<!DOCTYPE svg PUBLIC "-//W3C//DTD SVG 1.1//EN"
 "http://www.w3.org/Graphics/SVG/1.1/DTD/svg11.dtd">
<!-- Generated by graphviz version 2.44.1 (20200629.0846)
 -->
<!-- Title: print Pages: 1 -->
<svg width="458pt" height="85pt"
 viewBox="0.00 0.00 458.00 85.00" xmlns="http://www.w3.org/2000/svg" xmlns:xlink="http://www.w3.org/1999/xlink">
<g id="graph0" class="graph" transform="scale(1 1) rotate(0) translate(4 81)">
<title>print</title>
<polygon fill="white" stroke="transparent" points="-4,4 -4,-81 454,-81 454,4 -4,4"/>
<!-- Node1 -->
<g id="node1" class="node">
<title>Node1</title>
<g id="a_node1"><a xlink:title=" ">
<polygon fill="#bfbfbf" stroke="black" points="0,-38.5 0,-57.5 35,-57.5 35,-38.5 0,-38.5"/>
<text text-anchor="middle" x="17.5" y="-45.5" font-family="Helvetica,sans-Serif" font-size="10.00">print</text>
</a>
</g>
</g>
<!-- Node2 -->
<g id="node2" class="node">
<title>Node2</title>
<g id="a_node2"><a target="_blank" xlink:href="http://en.cppreference.com/w/cpp/io/manip/endl.html#" target="_top" xlink:title=" ">
<polygon fill="white" stroke="black" points="71,-57.5 71,-76.5 125,-76.5 125,-57.5 71,-57.5"/>
<text text-anchor="middle" x="98" y="-64.5" font-family="Helvetica,sans-Serif" font-size="10.00">std::endl</text>
</a>
</g>
</g>
<!-- Node1&#45;&gt;Node2 -->
<g id="edge1" class="edge">
<title>Node1&#45;&gt;Node2</title>
<path fill="none" stroke="midnightblue" d="M35.15,-52.03C42.67,-53.85 51.87,-56.08 60.85,-58.25"/>
<polygon fill="midnightblue" stroke="midnightblue" points="60.26,-61.71 70.8,-60.66 61.9,-54.9 60.26,-61.71"/>
</g>
<!-- Node3 -->
<g id="node3" class="node">
<title>Node3</title>
<g id="a_node3"><a xlink:href="../../db/d93/check__prime_8cpp.html#aa18b3517017d99bb4024853bddba5532" target="_top" xlink:title=" ">
<polygon fill="white" stroke="black" points="71.5,-19.5 71.5,-38.5 124.5,-38.5 124.5,-19.5 71.5,-19.5"/>
<text text-anchor="middle" x="98" y="-26.5" font-family="Helvetica,sans-Serif" font-size="10.00">is_prime</text>
</a>
</g>
</g>
<!-- Node1&#45;&gt;Node3 -->
<g id="edge2" class="edge">
<title>Node1&#45;&gt;Node3</title>
<path fill="none" stroke="midnightblue" d="M35.15,-43.97C42.88,-42.1 52.39,-39.8 61.61,-37.56"/>
<polygon fill="midnightblue" stroke="midnightblue" points="62.52,-40.95 71.41,-35.19 60.87,-34.14 62.52,-40.95"/>
</g>
<!-- Node4 -->
<g id="node4" class="node">
<title>Node4</title>
<g id="a_node4"><a xlink:href="../../dd/d47/namespacemath.html#a8d79d452a81ed27ba095d2ecb32dc4b4" target="_top" xlink:title=" ">
<polygon fill="white" stroke="black" points="161,-19.5 161,-38.5 229,-38.5 229,-19.5 161,-19.5"/>
<text text-anchor="middle" x="195" y="-26.5" font-family="Helvetica,sans-Serif" font-size="10.00">math::result</text>
</a>
</g>
</g>
<!-- Node3&#45;&gt;Node4 -->
<g id="edge3" class="edge">
<title>Node3&#45;&gt;Node4</title>
<path fill="none" stroke="midnightblue" d="M124.96,-29C132.94,-29 141.94,-29 150.75,-29"/>
<polygon fill="midnightblue" stroke="midnightblue" points="150.92,-32.5 160.92,-29 150.92,-25.5 150.92,-32.5"/>
</g>
<!-- Node5 -->
<g id="node5" class="node">
<title>Node5</title>
<g id="a_node5"><a xlink:href="../../d7/d35/matrix__exponentiation_8cpp.html#ad8389ed58fd0ec66df248014775ad1fa" target="_top" xlink:title=" ">
<polygon fill="white" stroke="black" points="284.5,-57.5 284.5,-76.5 316.5,-76.5 316.5,-57.5 284.5,-57.5"/>
<text text-anchor="middle" x="300.5" y="-64.5" font-family="Helvetica,sans-Serif" font-size="10.00">ans</text>
</a>
</g>
</g>
<!-- Node4&#45;&gt;Node5 -->
<g id="edge4" class="edge">
<title>Node4&#45;&gt;Node5</title>
<path fill="none" stroke="midnightblue" d="M222.12,-38.59C238.23,-44.5 258.78,-52.05 274.65,-57.88"/>
<polygon fill="midnightblue" stroke="midnightblue" points="273.72,-61.26 284.31,-61.42 276.13,-54.69 273.72,-61.26"/>
</g>
<!-- Node6 -->
<g id="node6" class="node">
<title>Node6</title>
<g id="a_node6"><a xlink:href="../../dd/d47/namespacemath.html#a4a55bb9ec6c59485d3fdb18bd88ca5b6" target="_top" xlink:title=" ">
<polygon fill="white" stroke="black" points="265,-19.5 265,-38.5 336,-38.5 336,-19.5 265,-19.5"/>
<text text-anchor="middle" x="300.5" y="-26.5" font-family="Helvetica,sans-Serif" font-size="10.00">math::power</text>
</a>
</g>
</g>
<!-- Node4&#45;&gt;Node6 -->
<g id="edge5" class="edge">
<title>Node4&#45;&gt;Node6</title>
<path fill="none" stroke="midnightblue" d="M229.03,-29C237.28,-29 246.26,-29 254.97,-29"/>
<polygon fill="midnightblue" stroke="midnightblue" points="255,-32.5 265,-29 255,-25.5 255,-32.5"/>
</g>
<!-- Node7 -->
<g id="node7" class="node">
<title>Node7</title>
<g id="a_node7"><a xlink:href="../../dd/d47/namespacemath.html#ab65d9997885347702dc0c3ec09d5dc21" target="_top" xlink:title=" ">
<polygon fill="white" stroke="black" points="372,-0.5 372,-19.5 450,-19.5 450,-0.5 372,-0.5"/>
<text text-anchor="middle" x="411" y="-7.5" font-family="Helvetica,sans-Serif" font-size="10.00">math::multiply</text>
</a>
</g>
</g>
<!-- Node6&#45;&gt;Node7 -->
<g id="edge6" class="edge">
<title>Node6&#45;&gt;Node7</title>
<path fill="none" stroke="midnightblue" d="M336.13,-22.94C344.33,-21.5 353.22,-19.94 361.9,-18.42"/>
<polygon fill="midnightblue" stroke="midnightblue" points="362.7,-21.84 371.94,-16.66 361.49,-14.94 362.7,-21.84"/>
</g>
<!-- Node7&#45;&gt;Node4 -->
<g id="edge7" class="edge">
<title>Node7&#45;&gt;Node4</title>
<path fill="none" stroke="midnightblue" d="M371.96,-7.23C342.6,-5.76 301.05,-5.13 265,-10 254.66,-11.4 243.67,-13.92 233.58,-16.69"/>
<polygon fill="midnightblue" stroke="midnightblue" points="232.48,-13.36 223.84,-19.5 234.42,-20.09 232.48,-13.36"/>
</g>
</g>
</svg>
