<?xml version="1.0" encoding="UTF-8" standalone="no"?>
<!DOCTYPE svg PUBLIC "-//W3C//DTD SVG 1.1//EN"
 "http://www.w3.org/Graphics/SVG/1.1/DTD/svg11.dtd">
<!-- Generated by graphviz version 2.44.1 (20200629.0846)
 -->
<!-- Title: tests Pages: 1 -->
<svg width="536pt" height="85pt"
 viewBox="0.00 0.00 536.00 85.00" xmlns="http://www.w3.org/2000/svg" xmlns:xlink="http://www.w3.org/1999/xlink">
<g id="graph0" class="graph" transform="scale(1 1) rotate(0) translate(4 81)">
<title>tests</title>
<polygon fill="white" stroke="transparent" points="-4,4 -4,-81 532,-81 532,4 -4,4"/>
<!-- Node1 -->
<g id="node1" class="node">
<title>Node1</title>
<g id="a_node1"><a xlink:title=" ">
<polygon fill="#bfbfbf" stroke="black" points="0,-38.5 0,-57.5 38,-57.5 38,-38.5 0,-38.5"/>
<text text-anchor="middle" x="19" y="-45.5" font-family="Helvetica,sans-Serif" font-size="10.00">tests</text>
</a>
</g>
</g>
<!-- Node2 -->
<g id="node2" class="node">
<title>Node2</title>
<g id="a_node2"><a xlink:href="../../d7/d35/matrix__exponentiation_8cpp.html#ad8389ed58fd0ec66df248014775ad1fa" target="_top" xlink:title=" ">
<polygon fill="white" stroke="black" points="362.5,-57.5 362.5,-76.5 394.5,-76.5 394.5,-57.5 362.5,-57.5"/>
<text text-anchor="middle" x="378.5" y="-64.5" font-family="Helvetica,sans-Serif" font-size="10.00">ans</text>
</a>
</g>
</g>
<!-- Node1&#45;&gt;Node2 -->
<g id="edge1" class="edge">
<title>Node1&#45;&gt;Node2</title>
<path fill="none" stroke="midnightblue" d="M38.22,-48.97C97.26,-52.11 283.41,-62 351.89,-65.64"/>
<polygon fill="midnightblue" stroke="midnightblue" points="352.02,-69.15 362.19,-66.19 352.39,-62.16 352.02,-69.15"/>
</g>
<!-- Node3 -->
<g id="node3" class="node">
<title>Node3</title>
<g id="a_node3"><a xlink:href="../../d8/ddf/sieve__of__eratosthenes_8cpp.html#a60fa6579eab0db3c1c0ab1bf6d651be3" target="_top" xlink:title=" ">
<polygon fill="white" stroke="black" points="74,-19.5 74,-38.5 114,-38.5 114,-19.5 74,-19.5"/>
<text text-anchor="middle" x="94" y="-26.5" font-family="Helvetica,sans-Serif" font-size="10.00">sieve</text>
</a>
</g>
</g>
<!-- Node1&#45;&gt;Node3 -->
<g id="edge2" class="edge">
<title>Node1&#45;&gt;Node3</title>
<path fill="none" stroke="midnightblue" d="M38.04,-43.3C45.87,-41.27 55.24,-38.83 64,-36.55"/>
<polygon fill="midnightblue" stroke="midnightblue" points="65.09,-39.88 73.89,-33.97 63.33,-33.11 65.09,-39.88"/>
</g>
<!-- Node4 -->
<g id="node4" class="node">
<title>Node4</title>
<g id="a_node4"><a xlink:href="../../db/d93/check__prime_8cpp.html#aa18b3517017d99bb4024853bddba5532" target="_top" xlink:title=" ">
<polygon fill="white" stroke="black" points="150,-19.5 150,-38.5 203,-38.5 203,-19.5 150,-19.5"/>
<text text-anchor="middle" x="176.5" y="-26.5" font-family="Helvetica,sans-Serif" font-size="10.00">is_prime</text>
</a>
</g>
</g>
<!-- Node3&#45;&gt;Node4 -->
<g id="edge3" class="edge">
<title>Node3&#45;&gt;Node4</title>
<path fill="none" stroke="midnightblue" d="M114.08,-29C121.76,-29 130.89,-29 139.72,-29"/>
<polygon fill="midnightblue" stroke="midnightblue" points="139.86,-32.5 149.86,-29 139.86,-25.5 139.86,-32.5"/>
</g>
<!-- Node5 -->
<g id="node5" class="node">
<title>Node5</title>
<g id="a_node5"><a xlink:href="../../dd/d47/namespacemath.html#a8d79d452a81ed27ba095d2ecb32dc4b4" target="_top" xlink:title=" ">
<polygon fill="white" stroke="black" points="239,-19.5 239,-38.5 307,-38.5 307,-19.5 239,-19.5"/>
<text text-anchor="middle" x="273" y="-26.5" font-family="Helvetica,sans-Serif" font-size="10.00">math::result</text>
</a>
</g>
</g>
<!-- Node4&#45;&gt;Node5 -->
<g id="edge4" class="edge">
<title>Node4&#45;&gt;Node5</title>
<path fill="none" stroke="midnightblue" d="M203.32,-29C211.18,-29 220.04,-29 228.71,-29"/>
<polygon fill="midnightblue" stroke="midnightblue" points="228.75,-32.5 238.75,-29 228.75,-25.5 228.75,-32.5"/>
</g>
<!-- Node5&#45;&gt;Node2 -->
<g id="edge5" class="edge">
<title>Node5&#45;&gt;Node2</title>
<path fill="none" stroke="midnightblue" d="M300.12,-38.59C316.23,-44.5 336.78,-52.05 352.65,-57.88"/>
<polygon fill="midnightblue" stroke="midnightblue" points="351.72,-61.26 362.31,-61.42 354.13,-54.69 351.72,-61.26"/>
</g>
<!-- Node6 -->
<g id="node6" class="node">
<title>Node6</title>
<g id="a_node6"><a xlink:href="../../dd/d47/namespacemath.html#a4a55bb9ec6c59485d3fdb18bd88ca5b6" target="_top" xlink:title=" ">
<polygon fill="white" stroke="black" points="343,-19.5 343,-38.5 414,-38.5 414,-19.5 343,-19.5"/>
<text text-anchor="middle" x="378.5" y="-26.5" font-family="Helvetica,sans-Serif" font-size="10.00">math::power</text>
</a>
</g>
</g>
<!-- Node5&#45;&gt;Node6 -->
<g id="edge6" class="edge">
<title>Node5&#45;&gt;Node6</title>
<path fill="none" stroke="midnightblue" d="M307.03,-29C315.28,-29 324.26,-29 332.97,-29"/>
<polygon fill="midnightblue" stroke="midnightblue" points="333,-32.5 343,-29 333,-25.5 333,-32.5"/>
</g>
<!-- Node7 -->
<g id="node7" class="node">
<title>Node7</title>
<g id="a_node7"><a xlink:href="../../dd/d47/namespacemath.html#ab65d9997885347702dc0c3ec09d5dc21" target="_top" xlink:title=" ">
<polygon fill="white" stroke="black" points="450,-0.5 450,-19.5 528,-19.5 528,-0.5 450,-0.5"/>
<text text-anchor="middle" x="489" y="-7.5" font-family="Helvetica,sans-Serif" font-size="10.00">math::multiply</text>
</a>
</g>
</g>
<!-- Node6&#45;&gt;Node7 -->
<g id="edge7" class="edge">
<title>Node6&#45;&gt;Node7</title>
<path fill="none" stroke="midnightblue" d="M414.13,-22.94C422.33,-21.5 431.22,-19.94 439.9,-18.42"/>
<polygon fill="midnightblue" stroke="midnightblue" points="440.7,-21.84 449.94,-16.66 439.49,-14.94 440.7,-21.84"/>
</g>
<!-- Node7&#45;&gt;Node5 -->
<g id="edge8" class="edge">
<title>Node7&#45;&gt;Node5</title>
<path fill="none" stroke="midnightblue" d="M449.96,-7.23C420.6,-5.76 379.05,-5.13 343,-10 332.66,-11.4 321.67,-13.92 311.58,-16.69"/>
<polygon fill="midnightblue" stroke="midnightblue" points="310.48,-13.36 301.84,-19.5 312.42,-20.09 310.48,-13.36"/>
</g>
</g>
</svg>
