<?xml version="1.0" encoding="UTF-8" standalone="no"?>
<!DOCTYPE svg PUBLIC "-//W3C//DTD SVG 1.1//EN"
 "http://www.w3.org/Graphics/SVG/1.1/DTD/svg11.dtd">
<!-- Generated by graphviz version 2.44.1 (20200629.0846)
 -->
<!-- Title: test1 Pages: 1 -->
<svg width="371pt" height="85pt"
 viewBox="0.00 0.00 371.00 85.00" xmlns="http://www.w3.org/2000/svg" xmlns:xlink="http://www.w3.org/1999/xlink">
<g id="graph0" class="graph" transform="scale(1 1) rotate(0) translate(4 81)">
<title>test1</title>
<polygon fill="white" stroke="transparent" points="-4,4 -4,-81 367,-81 367,4 -4,4"/>
<!-- Node1 -->
<g id="node1" class="node">
<title>Node1</title>
<g id="a_node1"><a xlink:title=" ">
<polygon fill="#bfbfbf" stroke="black" points="0,-38.5 0,-57.5 38,-57.5 38,-38.5 0,-38.5"/>
<text text-anchor="middle" x="19" y="-45.5" font-family="Helvetica,sans-Serif" font-size="10.00">test1</text>
</a>
</g>
</g>
<!-- Node2 -->
<g id="node2" class="node">
<title>Node2</title>
<g id="a_node2"><a target="_blank" xlink:href="http://en.cppreference.com/w/cpp/io/manip/endl.html#" target="_top" xlink:title=" ">
<polygon fill="white" stroke="black" points="81,-57.5 81,-76.5 135,-76.5 135,-57.5 81,-57.5"/>
<text text-anchor="middle" x="108" y="-64.5" font-family="Helvetica,sans-Serif" font-size="10.00">std::endl</text>
</a>
</g>
</g>
<!-- Node1&#45;&gt;Node2 -->
<g id="edge1" class="edge">
<title>Node1&#45;&gt;Node2</title>
<path fill="none" stroke="midnightblue" d="M38.03,-51.94C47.48,-54 59.4,-56.61 70.67,-59.07"/>
<polygon fill="midnightblue" stroke="midnightblue" points="70.23,-62.55 80.74,-61.27 71.72,-55.71 70.23,-62.55"/>
</g>
<!-- Node3 -->
<g id="node3" class="node">
<title>Node3</title>
<g id="a_node3"><a xlink:href="../../dd/d47/namespacemath.html#a8d79d452a81ed27ba095d2ecb32dc4b4" target="_top" xlink:title=" ">
<polygon fill="white" stroke="black" points="74,-19.5 74,-38.5 142,-38.5 142,-19.5 74,-19.5"/>
<text text-anchor="middle" x="108" y="-26.5" font-family="Helvetica,sans-Serif" font-size="10.00">math::result</text>
</a>
</g>
</g>
<!-- Node1&#45;&gt;Node3 -->
<g id="edge2" class="edge">
<title>Node1&#45;&gt;Node3</title>
<path fill="none" stroke="midnightblue" d="M38.03,-44.06C45.63,-42.4 54.83,-40.39 64.01,-38.39"/>
<polygon fill="midnightblue" stroke="midnightblue" points="64.85,-41.79 73.88,-36.23 63.36,-34.95 64.85,-41.79"/>
</g>
<!-- Node4 -->
<g id="node4" class="node">
<title>Node4</title>
<g id="a_node4"><a xlink:href="../../d7/d35/matrix__exponentiation_8cpp.html#ad8389ed58fd0ec66df248014775ad1fa" target="_top" xlink:title=" ">
<polygon fill="white" stroke="black" points="197.5,-57.5 197.5,-76.5 229.5,-76.5 229.5,-57.5 197.5,-57.5"/>
<text text-anchor="middle" x="213.5" y="-64.5" font-family="Helvetica,sans-Serif" font-size="10.00">ans</text>
</a>
</g>
</g>
<!-- Node3&#45;&gt;Node4 -->
<g id="edge3" class="edge">
<title>Node3&#45;&gt;Node4</title>
<path fill="none" stroke="midnightblue" d="M135.12,-38.59C151.23,-44.5 171.78,-52.05 187.65,-57.88"/>
<polygon fill="midnightblue" stroke="midnightblue" points="186.72,-61.26 197.31,-61.42 189.13,-54.69 186.72,-61.26"/>
</g>
<!-- Node5 -->
<g id="node5" class="node">
<title>Node5</title>
<g id="a_node5"><a xlink:href="../../dd/d47/namespacemath.html#a4a55bb9ec6c59485d3fdb18bd88ca5b6" target="_top" xlink:title=" ">
<polygon fill="white" stroke="black" points="178,-19.5 178,-38.5 249,-38.5 249,-19.5 178,-19.5"/>
<text text-anchor="middle" x="213.5" y="-26.5" font-family="Helvetica,sans-Serif" font-size="10.00">math::power</text>
</a>
</g>
</g>
<!-- Node3&#45;&gt;Node5 -->
<g id="edge4" class="edge">
<title>Node3&#45;&gt;Node5</title>
<path fill="none" stroke="midnightblue" d="M142.03,-29C150.28,-29 159.26,-29 167.97,-29"/>
<polygon fill="midnightblue" stroke="midnightblue" points="168,-32.5 178,-29 168,-25.5 168,-32.5"/>
</g>
<!-- Node6 -->
<g id="node6" class="node">
<title>Node6</title>
<g id="a_node6"><a xlink:href="../../dd/d47/namespacemath.html#ab65d9997885347702dc0c3ec09d5dc21" target="_top" xlink:title=" ">
<polygon fill="white" stroke="black" points="285,-0.5 285,-19.5 363,-19.5 363,-0.5 285,-0.5"/>
<text text-anchor="middle" x="324" y="-7.5" font-family="Helvetica,sans-Serif" font-size="10.00">math::multiply</text>
</a>
</g>
</g>
<!-- Node5&#45;&gt;Node6 -->
<g id="edge5" class="edge">
<title>Node5&#45;&gt;Node6</title>
<path fill="none" stroke="midnightblue" d="M249.13,-22.94C257.33,-21.5 266.22,-19.94 274.9,-18.42"/>
<polygon fill="midnightblue" stroke="midnightblue" points="275.7,-21.84 284.94,-16.66 274.49,-14.94 275.7,-21.84"/>
</g>
<!-- Node6&#45;&gt;Node3 -->
<g id="edge6" class="edge">
<title>Node6&#45;&gt;Node3</title>
<path fill="none" stroke="midnightblue" d="M284.96,-7.23C255.6,-5.76 214.05,-5.13 178,-10 167.66,-11.4 156.67,-13.92 146.58,-16.69"/>
<polygon fill="midnightblue" stroke="midnightblue" points="145.48,-13.36 136.84,-19.5 147.42,-20.09 145.48,-13.36"/>
</g>
</g>
</svg>
