<?xml version="1.0" encoding="UTF-8" standalone="no"?>
<!DOCTYPE svg PUBLIC "-//W3C//DTD SVG 1.1//EN"
 "http://www.w3.org/Graphics/SVG/1.1/DTD/svg11.dtd">
<!-- Generated by graphviz version 2.44.1 (20200629.0846)
 -->
<!-- Title: main Pages: 1 -->
<svg width="482pt" height="218pt"
 viewBox="0.00 0.00 482.00 218.00" xmlns="http://www.w3.org/2000/svg" xmlns:xlink="http://www.w3.org/1999/xlink">
<g id="graph0" class="graph" transform="scale(1 1) rotate(0) translate(4 214)">
<title>main</title>
<polygon fill="white" stroke="transparent" points="-4,4 -4,-214 478,-214 478,4 -4,4"/>
<!-- Node1 -->
<g id="node1" class="node">
<title>Node1</title>
<g id="a_node1"><a xlink:title=" ">
<polygon fill="#bfbfbf" stroke="black" points="0,-95.5 0,-114.5 38,-114.5 38,-95.5 0,-95.5"/>
<text text-anchor="middle" x="19" y="-102.5" font-family="Helvetica,sans-Serif" font-size="10.00">main</text>
</a>
</g>
</g>
<!-- Node2 -->
<g id="node2" class="node">
<title>Node2</title>
<g id="a_node2"><a target="_blank" xlink:href="http://en.cppreference.com/w/cpp/chrono/c/clock.html#" target="_top" xlink:title=" ">
<polygon fill="white" stroke="black" points="82,-190.5 82,-209.5 141,-209.5 141,-190.5 82,-190.5"/>
<text text-anchor="middle" x="111.5" y="-197.5" font-family="Helvetica,sans-Serif" font-size="10.00">std::clock</text>
</a>
</g>
</g>
<!-- Node1&#45;&gt;Node2 -->
<g id="edge1" class="edge">
<title>Node1&#45;&gt;Node2</title>
<path fill="none" stroke="midnightblue" d="M25.76,-114.55C34.8,-128.99 53.4,-156.76 74,-176 77.33,-179.11 81.11,-182.09 84.95,-184.82"/>
<polygon fill="midnightblue" stroke="midnightblue" points="83.01,-187.73 93.27,-190.36 86.89,-181.9 83.01,-187.73"/>
</g>
<!-- Node3 -->
<g id="node3" class="node">
<title>Node3</title>
<g id="a_node3"><a target="_blank" xlink:href="http://en.cppreference.com/w/cpp/io/manip/endl.html#" target="_top" xlink:title=" ">
<polygon fill="white" stroke="black" points="192,-114.5 192,-133.5 246,-133.5 246,-114.5 192,-114.5"/>
<text text-anchor="middle" x="219" y="-121.5" font-family="Helvetica,sans-Serif" font-size="10.00">std::endl</text>
</a>
</g>
</g>
<!-- Node1&#45;&gt;Node3 -->
<g id="edge2" class="edge">
<title>Node1&#45;&gt;Node3</title>
<path fill="none" stroke="midnightblue" d="M29.71,-114.69C39.79,-124 56.51,-137.46 74,-143 110.34,-154.51 153.98,-145.8 183.62,-136.74"/>
<polygon fill="midnightblue" stroke="midnightblue" points="185.05,-139.95 193.49,-133.55 182.9,-133.29 185.05,-139.95"/>
</g>
<!-- Node4 -->
<g id="node4" class="node">
<title>Node4</title>
<g id="a_node4"><a xlink:href="../../dd/d47/namespacemath.html#a8d79d452a81ed27ba095d2ecb32dc4b4" target="_top" xlink:title=" ">
<polygon fill="white" stroke="black" points="185,-76.5 185,-95.5 253,-95.5 253,-76.5 185,-76.5"/>
<text text-anchor="middle" x="219" y="-83.5" font-family="Helvetica,sans-Serif" font-size="10.00">math::result</text>
</a>
</g>
</g>
<!-- Node1&#45;&gt;Node4 -->
<g id="edge3" class="edge">
<title>Node1&#45;&gt;Node4</title>
<path fill="none" stroke="midnightblue" d="M29.71,-95.31C39.79,-86 56.51,-72.54 74,-67 110.34,-55.49 153.98,-64.2 183.62,-73.26"/>
<polygon fill="midnightblue" stroke="midnightblue" points="182.9,-76.71 193.49,-76.45 185.05,-70.05 182.9,-76.71"/>
</g>
<!-- Node8 -->
<g id="node8" class="node">
<title>Node8</title>
<g id="a_node8"><a target="_blank" xlink:href="http://en.cppreference.com/w/cpp/io/manip/fixed.html#" target="_top" xlink:title=" ">
<polygon fill="white" stroke="black" points="74,-0.5 74,-19.5 149,-19.5 149,-0.5 74,-0.5"/>
<text text-anchor="middle" x="111.5" y="-7.5" font-family="Helvetica,sans-Serif" font-size="10.00">std::scientific</text>
</a>
</g>
</g>
<!-- Node1&#45;&gt;Node8 -->
<g id="edge8" class="edge">
<title>Node1&#45;&gt;Node8</title>
<path fill="none" stroke="midnightblue" d="M25.76,-95.45C34.8,-81.01 53.4,-53.24 74,-34 77.33,-30.89 81.11,-27.91 84.95,-25.18"/>
<polygon fill="midnightblue" stroke="midnightblue" points="86.89,-28.1 93.27,-19.64 83.01,-22.27 86.89,-28.1"/>
</g>
<!-- Node9 -->
<g id="node9" class="node">
<title>Node9</title>
<g id="a_node9"><a xlink:href="../../d6/d9d/large__factorial_8cpp.html#a3f93b60e229b6683e24c4754a7106ee8" target="_top" xlink:title=" ">
<polygon fill="white" stroke="black" points="92.5,-114.5 92.5,-133.5 130.5,-133.5 130.5,-114.5 92.5,-114.5"/>
<text text-anchor="middle" x="111.5" y="-121.5" font-family="Helvetica,sans-Serif" font-size="10.00">test1</text>
</a>
</g>
</g>
<!-- Node1&#45;&gt;Node9 -->
<g id="edge9" class="edge">
<title>Node1&#45;&gt;Node9</title>
<path fill="none" stroke="midnightblue" d="M38.31,-108.84C50.95,-111.5 67.99,-115.07 82.34,-118.09"/>
<polygon fill="midnightblue" stroke="midnightblue" points="81.71,-121.53 92.21,-120.16 83.15,-114.68 81.71,-121.53"/>
</g>
<!-- Node10 -->
<g id="node10" class="node">
<title>Node10</title>
<g id="a_node10"><a xlink:href="../../d6/d9d/large__factorial_8cpp.html#a76aae4778fbe89a3d59fd61fbc050cfa" target="_top" xlink:title=" ">
<polygon fill="white" stroke="black" points="92.5,-76.5 92.5,-95.5 130.5,-95.5 130.5,-76.5 92.5,-76.5"/>
<text text-anchor="middle" x="111.5" y="-83.5" font-family="Helvetica,sans-Serif" font-size="10.00">test2</text>
</a>
</g>
</g>
<!-- Node1&#45;&gt;Node10 -->
<g id="edge12" class="edge">
<title>Node1&#45;&gt;Node10</title>
<path fill="none" stroke="midnightblue" d="M38.31,-101.16C50.95,-98.5 67.99,-94.93 82.34,-91.91"/>
<polygon fill="midnightblue" stroke="midnightblue" points="83.15,-95.32 92.21,-89.84 81.71,-88.47 83.15,-95.32"/>
</g>
<!-- Node5 -->
<g id="node5" class="node">
<title>Node5</title>
<g id="a_node5"><a xlink:href="../../d7/d35/matrix__exponentiation_8cpp.html#ad8389ed58fd0ec66df248014775ad1fa" target="_top" xlink:title=" ">
<polygon fill="white" stroke="black" points="308.5,-114.5 308.5,-133.5 340.5,-133.5 340.5,-114.5 308.5,-114.5"/>
<text text-anchor="middle" x="324.5" y="-121.5" font-family="Helvetica,sans-Serif" font-size="10.00">ans</text>
</a>
</g>
</g>
<!-- Node4&#45;&gt;Node5 -->
<g id="edge4" class="edge">
<title>Node4&#45;&gt;Node5</title>
<path fill="none" stroke="midnightblue" d="M246.12,-95.59C262.23,-101.5 282.78,-109.05 298.65,-114.88"/>
<polygon fill="midnightblue" stroke="midnightblue" points="297.72,-118.26 308.31,-118.42 300.13,-111.69 297.72,-118.26"/>
</g>
<!-- Node6 -->
<g id="node6" class="node">
<title>Node6</title>
<g id="a_node6"><a xlink:href="../../dd/d47/namespacemath.html#a4a55bb9ec6c59485d3fdb18bd88ca5b6" target="_top" xlink:title=" ">
<polygon fill="white" stroke="black" points="289,-38.5 289,-57.5 360,-57.5 360,-38.5 289,-38.5"/>
<text text-anchor="middle" x="324.5" y="-45.5" font-family="Helvetica,sans-Serif" font-size="10.00">math::power</text>
</a>
</g>
</g>
<!-- Node4&#45;&gt;Node6 -->
<g id="edge5" class="edge">
<title>Node4&#45;&gt;Node6</title>
<path fill="none" stroke="midnightblue" d="M246.12,-76.41C258.74,-71.78 274.09,-66.14 287.78,-61.11"/>
<polygon fill="midnightblue" stroke="midnightblue" points="289.21,-64.32 297.39,-57.59 286.8,-57.75 289.21,-64.32"/>
</g>
<!-- Node7 -->
<g id="node7" class="node">
<title>Node7</title>
<g id="a_node7"><a xlink:href="../../dd/d47/namespacemath.html#ab65d9997885347702dc0c3ec09d5dc21" target="_top" xlink:title=" ">
<polygon fill="white" stroke="black" points="396,-57.5 396,-76.5 474,-76.5 474,-57.5 396,-57.5"/>
<text text-anchor="middle" x="435" y="-64.5" font-family="Helvetica,sans-Serif" font-size="10.00">math::multiply</text>
</a>
</g>
</g>
<!-- Node6&#45;&gt;Node7 -->
<g id="edge6" class="edge">
<title>Node6&#45;&gt;Node7</title>
<path fill="none" stroke="midnightblue" d="M360.13,-54.06C368.33,-55.5 377.22,-57.06 385.9,-58.58"/>
<polygon fill="midnightblue" stroke="midnightblue" points="385.49,-62.06 395.94,-60.34 386.7,-55.16 385.49,-62.06"/>
</g>
<!-- Node7&#45;&gt;Node4 -->
<g id="edge7" class="edge">
<title>Node7&#45;&gt;Node4</title>
<path fill="none" stroke="midnightblue" d="M395.74,-70.4C358.57,-73.7 302.22,-78.7 263.4,-82.15"/>
<polygon fill="midnightblue" stroke="midnightblue" points="263.09,-78.66 253.44,-83.03 263.71,-85.63 263.09,-78.66"/>
</g>
<!-- Node9&#45;&gt;Node3 -->
<g id="edge10" class="edge">
<title>Node9&#45;&gt;Node3</title>
<path fill="none" stroke="midnightblue" d="M130.88,-124C144.86,-124 164.55,-124 181.67,-124"/>
<polygon fill="midnightblue" stroke="midnightblue" points="181.93,-127.5 191.93,-124 181.93,-120.5 181.93,-127.5"/>
</g>
<!-- Node9&#45;&gt;Node4 -->
<g id="edge11" class="edge">
<title>Node9&#45;&gt;Node4</title>
<path fill="none" stroke="midnightblue" d="M130.88,-117.38C144.89,-112.33 164.64,-105.22 181.79,-99.04"/>
<polygon fill="midnightblue" stroke="midnightblue" points="183.31,-102.22 191.53,-95.53 180.94,-95.63 183.31,-102.22"/>
</g>
<!-- Node10&#45;&gt;Node3 -->
<g id="edge13" class="edge">
<title>Node10&#45;&gt;Node3</title>
<path fill="none" stroke="midnightblue" d="M130.88,-92.62C144.99,-97.7 164.92,-104.88 182.16,-111.09"/>
<polygon fill="midnightblue" stroke="midnightblue" points="181.34,-114.51 191.93,-114.61 183.71,-107.93 181.34,-114.51"/>
</g>
<!-- Node10&#45;&gt;Node4 -->
<g id="edge14" class="edge">
<title>Node10&#45;&gt;Node4</title>
<path fill="none" stroke="midnightblue" d="M130.88,-86C142.96,-86 159.32,-86 174.59,-86"/>
<polygon fill="midnightblue" stroke="midnightblue" points="174.93,-89.5 184.93,-86 174.93,-82.5 174.93,-89.5"/>
</g>
</g>
</svg>
