<?xml version="1.0" encoding="UTF-8" standalone="no"?>
<!DOCTYPE svg PUBLIC "-//W3C//DTD SVG 1.1//EN"
 "http://www.w3.org/Graphics/SVG/1.1/DTD/svg11.dtd">
<!-- Generated by graphviz version 2.44.1 (20200629.0846)
 -->
<!-- Title: main Pages: 1 -->
<svg width="674pt" height="161pt"
 viewBox="0.00 0.00 674.00 161.00" xmlns="http://www.w3.org/2000/svg" xmlns:xlink="http://www.w3.org/1999/xlink">
<g id="graph0" class="graph" transform="scale(1 1) rotate(0) translate(4 157)">
<title>main</title>
<polygon fill="white" stroke="transparent" points="-4,4 -4,-157 670,-157 670,4 -4,4"/>
<!-- Node1 -->
<g id="node1" class="node">
<title>Node1</title>
<g id="a_node1"><a xlink:title="Main function.">
<polygon fill="#bfbfbf" stroke="black" points="0,-95.5 0,-114.5 38,-114.5 38,-95.5 0,-95.5"/>
<text text-anchor="middle" x="19" y="-102.5" font-family="Helvetica,sans-Serif" font-size="10.00">main</text>
</a>
</g>
</g>
<!-- Node2 -->
<g id="node2" class="node">
<title>Node2</title>
<g id="a_node2"><a xlink:href="../../d8/d69/classgraph_1_1_h_k_graph.html#a3b49011c09cf90a116ab53bef61cd95a" target="_top" xlink:title="function to add edge from u to v">
<polygon fill="white" stroke="black" points="148,-133.5 148,-152.5 279,-152.5 279,-133.5 148,-133.5"/>
<text text-anchor="middle" x="213.5" y="-140.5" font-family="Helvetica,sans-Serif" font-size="10.00">graph::HKGraph::addEdge</text>
</a>
</g>
</g>
<!-- Node1&#45;&gt;Node2 -->
<g id="edge1" class="edge">
<title>Node1&#45;&gt;Node2</title>
<path fill="none" stroke="midnightblue" d="M38.22,-112.45C48.56,-116.41 61.83,-121.06 74,-124 94.48,-128.95 116.99,-132.73 137.8,-135.56"/>
<polygon fill="midnightblue" stroke="midnightblue" points="137.5,-139.05 147.87,-136.88 138.4,-132.11 137.5,-139.05"/>
</g>
<!-- Node4 -->
<g id="node4" class="node">
<title>Node4</title>
<g id="a_node4"><a xlink:href="../../d8/d69/classgraph_1_1_h_k_graph.html#a9dbda80d02bdc26c3e8ff7330c9be75d" target="_top" xlink:title="This function counts the number of augmenting paths between left and right sides of the Bipartite gra...">
<polygon fill="white" stroke="black" points="149.5,-52 149.5,-82 277.5,-82 277.5,-52 149.5,-52"/>
<text text-anchor="start" x="157.5" y="-70" font-family="Helvetica,sans-Serif" font-size="10.00">graph::HKGraph::hopcroft</text>
<text text-anchor="middle" x="213.5" y="-59" font-family="Helvetica,sans-Serif" font-size="10.00">KarpAlgorithm</text>
</a>
</g>
</g>
<!-- Node1&#45;&gt;Node4 -->
<g id="edge3" class="edge">
<title>Node1&#45;&gt;Node4</title>
<path fill="none" stroke="midnightblue" d="M38.22,-97.55C48.56,-93.59 61.83,-88.94 74,-86 94.98,-80.93 118.09,-77.08 139.32,-74.23"/>
<polygon fill="midnightblue" stroke="midnightblue" points="139.79,-77.7 149.26,-72.95 138.89,-70.76 139.79,-77.7"/>
</g>
<!-- Node12 -->
<g id="node12" class="node">
<title>Node12</title>
<g id="a_node12"><a xlink:href="../../d1/d9a/hopcroft__karp_8cpp.html#a88ec9ad42717780d6caaff9d3d6977f9" target="_top" xlink:title=" ">
<polygon fill="white" stroke="black" points="74,-95.5 74,-114.5 112,-114.5 112,-95.5 74,-95.5"/>
<text text-anchor="middle" x="93" y="-102.5" font-family="Helvetica,sans-Serif" font-size="10.00">tests</text>
</a>
</g>
</g>
<!-- Node1&#45;&gt;Node12 -->
<g id="edge13" class="edge">
<title>Node1&#45;&gt;Node12</title>
<path fill="none" stroke="midnightblue" d="M38.17,-105C45.87,-105 55.03,-105 63.58,-105"/>
<polygon fill="midnightblue" stroke="midnightblue" points="63.59,-108.5 73.59,-105 63.59,-101.5 63.59,-108.5"/>
</g>
<!-- Node3 -->
<g id="node3" class="node">
<title>Node3</title>
<g id="a_node3"><a target="_blank" xlink:href="http://en.cppreference.com/w/cpp/container/vector/push_back.html#" target="_top" xlink:title=" ">
<polygon fill="white" stroke="black" points="315,-133.5 315,-152.5 431,-152.5 431,-133.5 315,-133.5"/>
<text text-anchor="middle" x="373" y="-140.5" font-family="Helvetica,sans-Serif" font-size="10.00">std::vector::push_back</text>
</a>
</g>
</g>
<!-- Node2&#45;&gt;Node3 -->
<g id="edge2" class="edge">
<title>Node2&#45;&gt;Node3</title>
<path fill="none" stroke="midnightblue" d="M279.02,-143C287.47,-143 296.15,-143 304.65,-143"/>
<polygon fill="midnightblue" stroke="midnightblue" points="304.91,-146.5 314.91,-143 304.91,-139.5 304.91,-146.5"/>
</g>
<!-- Node5 -->
<g id="node5" class="node">
<title>Node5</title>
<g id="a_node5"><a xlink:href="../../d8/d69/classgraph_1_1_h_k_graph.html#a7491add14d9fc04f679114ca6d6f0f93" target="_top" xlink:title="This function checks for the possibility of augmented path availability.">
<polygon fill="white" stroke="black" points="319.5,-95.5 319.5,-114.5 426.5,-114.5 426.5,-95.5 319.5,-95.5"/>
<text text-anchor="middle" x="373" y="-102.5" font-family="Helvetica,sans-Serif" font-size="10.00">graph::HKGraph::bfs</text>
</a>
</g>
</g>
<!-- Node4&#45;&gt;Node5 -->
<g id="edge4" class="edge">
<title>Node4&#45;&gt;Node5</title>
<path fill="none" stroke="midnightblue" d="M276.75,-82.02C291.98,-85.69 308.07,-89.58 322.61,-93.08"/>
<polygon fill="midnightblue" stroke="midnightblue" points="321.85,-96.5 332.39,-95.44 323.49,-89.7 321.85,-96.5"/>
</g>
<!-- Node7 -->
<g id="node7" class="node">
<title>Node7</title>
<g id="a_node7"><a xlink:href="../../d8/d69/classgraph_1_1_h_k_graph.html#ae794950cb3407b6b47d3dc986cf714c0" target="_top" xlink:title="This functions checks whether an augmenting path is available exists beginning with free vertex u.">
<polygon fill="white" stroke="black" points="319.5,-57.5 319.5,-76.5 426.5,-76.5 426.5,-57.5 319.5,-57.5"/>
<text text-anchor="middle" x="373" y="-64.5" font-family="Helvetica,sans-Serif" font-size="10.00">graph::HKGraph::dfs</text>
</a>
</g>
</g>
<!-- Node4&#45;&gt;Node7 -->
<g id="edge6" class="edge">
<title>Node4&#45;&gt;Node7</title>
<path fill="none" stroke="midnightblue" d="M277.65,-67C288.05,-67 298.83,-67 309.22,-67"/>
<polygon fill="midnightblue" stroke="midnightblue" points="309.45,-70.5 319.45,-67 309.45,-63.5 309.45,-70.5"/>
</g>
<!-- Node8 -->
<g id="node8" class="node">
<title>Node8</title>
<g id="a_node8"><a xlink:href="../../dd/d47/namespacemath.html#a8d79d452a81ed27ba095d2ecb32dc4b4" target="_top" xlink:title=" ">
<polygon fill="white" stroke="black" points="339,-19.5 339,-38.5 407,-38.5 407,-19.5 339,-19.5"/>
<text text-anchor="middle" x="373" y="-26.5" font-family="Helvetica,sans-Serif" font-size="10.00">math::result</text>
</a>
</g>
</g>
<!-- Node4&#45;&gt;Node8 -->
<g id="edge8" class="edge">
<title>Node4&#45;&gt;Node8</title>
<path fill="none" stroke="midnightblue" d="M276.75,-51.98C294.1,-47.8 312.57,-43.34 328.58,-39.48"/>
<polygon fill="midnightblue" stroke="midnightblue" points="329.81,-42.78 338.71,-37.03 328.17,-35.97 329.81,-42.78"/>
</g>
<!-- Node6 -->
<g id="node6" class="node">
<title>Node6</title>
<g id="a_node6"><a target="_blank" xlink:href="http://en.cppreference.com/w/cpp/container/vector/end.html#" target="_top" xlink:title=" ">
<polygon fill="white" stroke="black" points="467,-95.5 467,-114.5 552,-114.5 552,-95.5 467,-95.5"/>
<text text-anchor="middle" x="509.5" y="-102.5" font-family="Helvetica,sans-Serif" font-size="10.00">std::vector::end</text>
</a>
</g>
</g>
<!-- Node5&#45;&gt;Node6 -->
<g id="edge5" class="edge">
<title>Node5&#45;&gt;Node6</title>
<path fill="none" stroke="midnightblue" d="M426.77,-105C436.6,-105 446.87,-105 456.67,-105"/>
<polygon fill="midnightblue" stroke="midnightblue" points="456.68,-108.5 466.68,-105 456.68,-101.5 456.68,-108.5"/>
</g>
<!-- Node7&#45;&gt;Node6 -->
<g id="edge7" class="edge">
<title>Node7&#45;&gt;Node6</title>
<path fill="none" stroke="midnightblue" d="M407.94,-76.59C425.22,-81.47 446.43,-87.46 464.91,-92.68"/>
<polygon fill="midnightblue" stroke="midnightblue" points="464,-96.06 474.57,-95.41 465.9,-89.33 464,-96.06"/>
</g>
<!-- Node9 -->
<g id="node9" class="node">
<title>Node9</title>
<g id="a_node9"><a xlink:href="../../d7/d35/matrix__exponentiation_8cpp.html#ad8389ed58fd0ec66df248014775ad1fa" target="_top" xlink:title=" ">
<polygon fill="white" stroke="black" points="493.5,-57.5 493.5,-76.5 525.5,-76.5 525.5,-57.5 493.5,-57.5"/>
<text text-anchor="middle" x="509.5" y="-64.5" font-family="Helvetica,sans-Serif" font-size="10.00">ans</text>
</a>
</g>
</g>
<!-- Node8&#45;&gt;Node9 -->
<g id="edge9" class="edge">
<title>Node8&#45;&gt;Node9</title>
<path fill="none" stroke="midnightblue" d="M407.25,-38.39C430.91,-45.08 462.2,-53.92 483.7,-59.99"/>
<polygon fill="midnightblue" stroke="midnightblue" points="482.82,-63.38 493.39,-62.73 484.72,-56.64 482.82,-63.38"/>
</g>
<!-- Node10 -->
<g id="node10" class="node">
<title>Node10</title>
<g id="a_node10"><a xlink:href="../../dd/d47/namespacemath.html#a4a55bb9ec6c59485d3fdb18bd88ca5b6" target="_top" xlink:title=" ">
<polygon fill="white" stroke="black" points="474,-19.5 474,-38.5 545,-38.5 545,-19.5 474,-19.5"/>
<text text-anchor="middle" x="509.5" y="-26.5" font-family="Helvetica,sans-Serif" font-size="10.00">math::power</text>
</a>
</g>
</g>
<!-- Node8&#45;&gt;Node10 -->
<g id="edge10" class="edge">
<title>Node8&#45;&gt;Node10</title>
<path fill="none" stroke="midnightblue" d="M407.25,-29C424.23,-29 445.15,-29 463.55,-29"/>
<polygon fill="midnightblue" stroke="midnightblue" points="463.76,-32.5 473.76,-29 463.76,-25.5 463.76,-32.5"/>
</g>
<!-- Node11 -->
<g id="node11" class="node">
<title>Node11</title>
<g id="a_node11"><a xlink:href="../../dd/d47/namespacemath.html#ab65d9997885347702dc0c3ec09d5dc21" target="_top" xlink:title=" ">
<polygon fill="white" stroke="black" points="588,-0.5 588,-19.5 666,-19.5 666,-0.5 588,-0.5"/>
<text text-anchor="middle" x="627" y="-7.5" font-family="Helvetica,sans-Serif" font-size="10.00">math::multiply</text>
</a>
</g>
</g>
<!-- Node10&#45;&gt;Node11 -->
<g id="edge11" class="edge">
<title>Node10&#45;&gt;Node11</title>
<path fill="none" stroke="midnightblue" d="M545.15,-23.3C555.43,-21.61 566.88,-19.73 577.84,-17.92"/>
<polygon fill="midnightblue" stroke="midnightblue" points="578.44,-21.37 587.74,-16.29 577.3,-14.46 578.44,-21.37"/>
</g>
<!-- Node11&#45;&gt;Node8 -->
<g id="edge12" class="edge">
<title>Node11&#45;&gt;Node8</title>
<path fill="none" stroke="midnightblue" d="M587.98,-7.86C555.7,-6.55 508.2,-5.83 467,-10 450.59,-11.66 432.8,-14.92 417.21,-18.29"/>
<polygon fill="midnightblue" stroke="midnightblue" points="416.32,-14.9 407.33,-20.49 417.85,-21.73 416.32,-14.9"/>
</g>
<!-- Node12&#45;&gt;Node2 -->
<g id="edge14" class="edge">
<title>Node12&#45;&gt;Node2</title>
<path fill="none" stroke="midnightblue" d="M112.26,-110.85C128.32,-116.01 152.28,-123.69 172.75,-130.25"/>
<polygon fill="midnightblue" stroke="midnightblue" points="171.87,-133.65 182.46,-133.37 174.01,-126.98 171.87,-133.65"/>
</g>
<!-- Node12&#45;&gt;Node4 -->
<g id="edge15" class="edge">
<title>Node12&#45;&gt;Node4</title>
<path fill="none" stroke="midnightblue" d="M112.26,-99.15C124.03,-95.37 140.04,-90.24 155.81,-85.18"/>
<polygon fill="midnightblue" stroke="midnightblue" points="157.1,-88.44 165.56,-82.05 154.96,-81.77 157.1,-88.44"/>
</g>
</g>
</svg>
