<?xml version="1.0" encoding="UTF-8" standalone="no"?>
<!DOCTYPE svg PUBLIC "-//W3C//DTD SVG 1.1//EN"
 "http://www.w3.org/Graphics/SVG/1.1/DTD/svg11.dtd">
<!-- Generated by graphviz version 2.44.1 (20200629.0846)
 -->
<!-- Title: main Pages: 1 -->
<svg width="517pt" height="306pt"
 viewBox="0.00 0.00 517.00 306.00" xmlns="http://www.w3.org/2000/svg" xmlns:xlink="http://www.w3.org/1999/xlink">
<g id="graph0" class="graph" transform="scale(1 1) rotate(0) translate(4 302)">
<title>main</title>
<polygon fill="white" stroke="transparent" points="-4,4 -4,-302 513,-302 513,4 -4,4"/>
<!-- Node1 -->
<g id="node1" class="node">
<title>Node1</title>
<g id="a_node1"><a xlink:title=" ">
<polygon fill="#bfbfbf" stroke="black" points="0,-145.5 0,-164.5 38,-164.5 38,-145.5 0,-145.5"/>
<text text-anchor="middle" x="19" y="-152.5" font-family="Helvetica,sans-Serif" font-size="10.00">main</text>
</a>
</g>
</g>
<!-- Node2 -->
<g id="node2" class="node">
<title>Node2</title>
<g id="a_node2"><a target="_blank" xlink:href="http://en.cppreference.com/w/cpp/io/manip/endl.html#" target="_top" xlink:title=" ">
<polygon fill="white" stroke="black" points="102,-278.5 102,-297.5 156,-297.5 156,-278.5 102,-278.5"/>
<text text-anchor="middle" x="129" y="-285.5" font-family="Helvetica,sans-Serif" font-size="10.00">std::endl</text>
</a>
</g>
</g>
<!-- Node1&#45;&gt;Node2 -->
<g id="edge1" class="edge">
<title>Node1&#45;&gt;Node2</title>
<path fill="none" stroke="midnightblue" d="M21.95,-164.77C26.8,-186.59 41.46,-239.68 74,-269 79.21,-273.69 85.65,-277.24 92.24,-279.92"/>
<polygon fill="midnightblue" stroke="midnightblue" points="91.3,-283.3 101.89,-283.26 93.58,-276.68 91.3,-283.3"/>
</g>
<!-- Node3 -->
<g id="node3" class="node">
<title>Node3</title>
<g id="a_node3"><a xlink:href="../../d2/d0b/fast__power_8cpp.html#a0d4e3f0099a6975b74a314a35bd0f94d" target="_top" xlink:title=" ">
<polygon fill="white" stroke="black" points="82.5,-240.5 82.5,-259.5 175.5,-259.5 175.5,-240.5 82.5,-240.5"/>
<text text-anchor="middle" x="129" y="-247.5" font-family="Helvetica,sans-Serif" font-size="10.00">fast_power_linear</text>
</a>
</g>
</g>
<!-- Node1&#45;&gt;Node3 -->
<g id="edge2" class="edge">
<title>Node1&#45;&gt;Node3</title>
<path fill="none" stroke="midnightblue" d="M24.39,-164.62C32.15,-180.63 49.83,-212.79 74,-231 76.46,-232.85 79.12,-234.54 81.89,-236.06"/>
<polygon fill="midnightblue" stroke="midnightblue" points="80.48,-239.27 91.01,-240.43 83.5,-232.96 80.48,-239.27"/>
</g>
<!-- Node8 -->
<g id="node8" class="node">
<title>Node8</title>
<g id="a_node8"><a xlink:href="../../d2/d0b/fast__power_8cpp.html#a8399b847626e5bba983cab7c7918b445" target="_top" xlink:title=" ">
<polygon fill="white" stroke="black" points="74,-202.5 74,-221.5 184,-221.5 184,-202.5 74,-202.5"/>
<text text-anchor="middle" x="129" y="-209.5" font-family="Helvetica,sans-Serif" font-size="10.00">fast_power_recursive</text>
</a>
</g>
</g>
<!-- Node1&#45;&gt;Node8 -->
<g id="edge8" class="edge">
<title>Node1&#45;&gt;Node8</title>
<path fill="none" stroke="midnightblue" d="M31.83,-164.77C42.38,-173.12 58.51,-185.02 74,-193 78.03,-195.08 82.35,-197.02 86.71,-198.81"/>
<polygon fill="midnightblue" stroke="midnightblue" points="85.67,-202.16 96.26,-202.47 88.18,-195.62 85.67,-202.16"/>
</g>
<!-- Node9 -->
<g id="node9" class="node">
<title>Node9</title>
<g id="a_node9"><a target="_blank" xlink:href="http://en.cppreference.com/w/cpp/numeric/math/pow.html#" target="_top" xlink:title=" ">
<polygon fill="white" stroke="black" points="102,-164.5 102,-183.5 156,-183.5 156,-164.5 102,-164.5"/>
<text text-anchor="middle" x="129" y="-171.5" font-family="Helvetica,sans-Serif" font-size="10.00">std::pow</text>
</a>
</g>
</g>
<!-- Node1&#45;&gt;Node9 -->
<g id="edge10" class="edge">
<title>Node1&#45;&gt;Node9</title>
<path fill="none" stroke="midnightblue" d="M38.32,-158.22C52.98,-160.8 73.98,-164.5 91.98,-167.66"/>
<polygon fill="midnightblue" stroke="midnightblue" points="91.43,-171.12 101.88,-169.41 92.64,-164.23 91.43,-171.12"/>
</g>
<!-- Node10 -->
<g id="node10" class="node">
<title>Node10</title>
<g id="a_node10"><a target="_blank" xlink:href="http://en.cppreference.com/w/cpp/numeric/random/rand.html#" target="_top" xlink:title=" ">
<polygon fill="white" stroke="black" points="101.5,-126.5 101.5,-145.5 156.5,-145.5 156.5,-126.5 101.5,-126.5"/>
<text text-anchor="middle" x="129" y="-133.5" font-family="Helvetica,sans-Serif" font-size="10.00">std::rand</text>
</a>
</g>
</g>
<!-- Node1&#45;&gt;Node10 -->
<g id="edge11" class="edge">
<title>Node1&#45;&gt;Node10</title>
<path fill="none" stroke="midnightblue" d="M38.32,-151.78C52.88,-149.22 73.69,-145.55 91.61,-142.4"/>
<polygon fill="midnightblue" stroke="midnightblue" points="92.23,-145.85 101.48,-140.67 91.02,-138.95 92.23,-145.85"/>
</g>
<!-- Node11 -->
<g id="node11" class="node">
<title>Node11</title>
<g id="a_node11"><a target="_blank" xlink:href="http://en.cppreference.com/w/cpp/numeric/random/srand.html#" target="_top" xlink:title=" ">
<polygon fill="white" stroke="black" points="99,-88.5 99,-107.5 159,-107.5 159,-88.5 99,-88.5"/>
<text text-anchor="middle" x="129" y="-95.5" font-family="Helvetica,sans-Serif" font-size="10.00">std::srand</text>
</a>
</g>
</g>
<!-- Node1&#45;&gt;Node11 -->
<g id="edge12" class="edge">
<title>Node1&#45;&gt;Node11</title>
<path fill="none" stroke="midnightblue" d="M31.83,-145.23C42.38,-136.88 58.51,-124.98 74,-117 78.86,-114.5 84.12,-112.19 89.39,-110.12"/>
<polygon fill="midnightblue" stroke="midnightblue" points="90.64,-113.39 98.8,-106.63 88.21,-106.82 90.64,-113.39"/>
</g>
<!-- Node12 -->
<g id="node12" class="node">
<title>Node12</title>
<g id="a_node12"><a target="_blank" xlink:href="http://en.cppreference.com/w/cpp/io/ios_base/sync_with_stdio.html#" target="_top" xlink:title=" ">
<polygon fill="white" stroke="black" points="78,-39 78,-69 180,-69 180,-39 78,-39"/>
<text text-anchor="start" x="86" y="-57" font-family="Helvetica,sans-Serif" font-size="10.00">std::ios_base::sync</text>
<text text-anchor="middle" x="129" y="-46" font-family="Helvetica,sans-Serif" font-size="10.00">_with_stdio</text>
</a>
</g>
</g>
<!-- Node1&#45;&gt;Node12 -->
<g id="edge13" class="edge">
<title>Node1&#45;&gt;Node12</title>
<path fill="none" stroke="midnightblue" d="M24.71,-145.38C32.83,-129.64 50.84,-98.24 74,-79 75.98,-77.35 78.09,-75.79 80.28,-74.31"/>
<polygon fill="midnightblue" stroke="midnightblue" points="82.3,-77.18 89.05,-69.01 78.68,-71.19 82.3,-77.18"/>
</g>
<!-- Node13 -->
<g id="node13" class="node">
<title>Node13</title>
<g id="a_node13"><a target="_blank" xlink:href="http://en.cppreference.com/w/cpp/chrono/c/time.html#" target="_top" xlink:title=" ">
<polygon fill="white" stroke="black" points="101.5,-0.5 101.5,-19.5 156.5,-19.5 156.5,-0.5 101.5,-0.5"/>
<text text-anchor="middle" x="129" y="-7.5" font-family="Helvetica,sans-Serif" font-size="10.00">std::time</text>
</a>
</g>
</g>
<!-- Node1&#45;&gt;Node13 -->
<g id="edge14" class="edge">
<title>Node1&#45;&gt;Node13</title>
<path fill="none" stroke="midnightblue" d="M21.51,-145.39C25.63,-122.27 39.18,-63.02 74,-30 79.07,-25.19 85.39,-21.52 91.91,-18.72"/>
<polygon fill="midnightblue" stroke="midnightblue" points="93.29,-21.94 101.47,-15.21 90.88,-15.37 93.29,-21.94"/>
</g>
<!-- Node4 -->
<g id="node4" class="node">
<title>Node4</title>
<g id="a_node4"><a xlink:href="../../dd/d47/namespacemath.html#a8d79d452a81ed27ba095d2ecb32dc4b4" target="_top" xlink:title=" ">
<polygon fill="white" stroke="black" points="220,-221.5 220,-240.5 288,-240.5 288,-221.5 220,-221.5"/>
<text text-anchor="middle" x="254" y="-228.5" font-family="Helvetica,sans-Serif" font-size="10.00">math::result</text>
</a>
</g>
</g>
<!-- Node3&#45;&gt;Node4 -->
<g id="edge3" class="edge">
<title>Node3&#45;&gt;Node4</title>
<path fill="none" stroke="midnightblue" d="M175.8,-242.93C186.88,-241.21 198.68,-239.39 209.64,-237.7"/>
<polygon fill="midnightblue" stroke="midnightblue" points="210.49,-241.11 219.84,-236.12 209.42,-234.19 210.49,-241.11"/>
</g>
<!-- Node5 -->
<g id="node5" class="node">
<title>Node5</title>
<g id="a_node5"><a xlink:href="../../d7/d35/matrix__exponentiation_8cpp.html#ad8389ed58fd0ec66df248014775ad1fa" target="_top" xlink:title=" ">
<polygon fill="white" stroke="black" points="343.5,-259.5 343.5,-278.5 375.5,-278.5 375.5,-259.5 343.5,-259.5"/>
<text text-anchor="middle" x="359.5" y="-266.5" font-family="Helvetica,sans-Serif" font-size="10.00">ans</text>
</a>
</g>
</g>
<!-- Node4&#45;&gt;Node5 -->
<g id="edge4" class="edge">
<title>Node4&#45;&gt;Node5</title>
<path fill="none" stroke="midnightblue" d="M281.12,-240.59C297.23,-246.5 317.78,-254.05 333.65,-259.88"/>
<polygon fill="midnightblue" stroke="midnightblue" points="332.72,-263.26 343.31,-263.42 335.13,-256.69 332.72,-263.26"/>
</g>
<!-- Node6 -->
<g id="node6" class="node">
<title>Node6</title>
<g id="a_node6"><a xlink:href="../../dd/d47/namespacemath.html#a4a55bb9ec6c59485d3fdb18bd88ca5b6" target="_top" xlink:title=" ">
<polygon fill="white" stroke="black" points="324,-221.5 324,-240.5 395,-240.5 395,-221.5 324,-221.5"/>
<text text-anchor="middle" x="359.5" y="-228.5" font-family="Helvetica,sans-Serif" font-size="10.00">math::power</text>
</a>
</g>
</g>
<!-- Node4&#45;&gt;Node6 -->
<g id="edge5" class="edge">
<title>Node4&#45;&gt;Node6</title>
<path fill="none" stroke="midnightblue" d="M288.03,-231C296.28,-231 305.26,-231 313.97,-231"/>
<polygon fill="midnightblue" stroke="midnightblue" points="314,-234.5 324,-231 314,-227.5 314,-234.5"/>
</g>
<!-- Node7 -->
<g id="node7" class="node">
<title>Node7</title>
<g id="a_node7"><a xlink:href="../../dd/d47/namespacemath.html#ab65d9997885347702dc0c3ec09d5dc21" target="_top" xlink:title=" ">
<polygon fill="white" stroke="black" points="431,-202.5 431,-221.5 509,-221.5 509,-202.5 431,-202.5"/>
<text text-anchor="middle" x="470" y="-209.5" font-family="Helvetica,sans-Serif" font-size="10.00">math::multiply</text>
</a>
</g>
</g>
<!-- Node6&#45;&gt;Node7 -->
<g id="edge6" class="edge">
<title>Node6&#45;&gt;Node7</title>
<path fill="none" stroke="midnightblue" d="M395.13,-224.94C403.33,-223.5 412.22,-221.94 420.9,-220.42"/>
<polygon fill="midnightblue" stroke="midnightblue" points="421.7,-223.84 430.94,-218.66 420.49,-216.94 421.7,-223.84"/>
</g>
<!-- Node7&#45;&gt;Node4 -->
<g id="edge7" class="edge">
<title>Node7&#45;&gt;Node4</title>
<path fill="none" stroke="midnightblue" d="M430.96,-209.23C401.6,-207.76 360.05,-207.13 324,-212 313.66,-213.4 302.67,-215.92 292.58,-218.69"/>
<polygon fill="midnightblue" stroke="midnightblue" points="291.48,-215.36 282.84,-221.5 293.42,-222.09 291.48,-215.36"/>
</g>
<!-- Node8&#45;&gt;Node4 -->
<g id="edge9" class="edge">
<title>Node8&#45;&gt;Node4</title>
<path fill="none" stroke="midnightblue" d="M184.31,-220.39C192.81,-221.7 201.51,-223.05 209.72,-224.32"/>
<polygon fill="midnightblue" stroke="midnightblue" points="209.41,-227.81 219.83,-225.88 210.48,-220.89 209.41,-227.81"/>
</g>
</g>
</svg>
