<?xml version="1.0" encoding="UTF-8" standalone="no"?>
<!DOCTYPE svg PUBLIC "-//W3C//DTD SVG 1.1//EN"
 "http://www.w3.org/Graphics/SVG/1.1/DTD/svg11.dtd">
<!-- Generated by graphviz version 2.44.1 (20200629.0846)
 -->
<!-- Title: test1 Pages: 1 -->
<svg width="469pt" height="427pt"
 viewBox="0.00 0.00 469.00 427.00" xmlns="http://www.w3.org/2000/svg" xmlns:xlink="http://www.w3.org/1999/xlink">
<g id="graph0" class="graph" transform="scale(1 1) rotate(0) translate(4 423)">
<title>test1</title>
<polygon fill="white" stroke="transparent" points="-4,4 -4,-423 465,-423 465,4 -4,4"/>
<!-- Node1 -->
<g id="node1" class="node">
<title>Node1</title>
<g id="a_node1"><a xlink:title=" ">
<polygon fill="#bfbfbf" stroke="black" points="0,-114.5 0,-133.5 38,-133.5 38,-114.5 0,-114.5"/>
<text text-anchor="middle" x="19" y="-121.5" font-family="Helvetica,sans-Serif" font-size="10.00">test1</text>
</a>
</g>
</g>
<!-- Node2 -->
<g id="node2" class="node">
<title>Node2</title>
<g id="a_node2"><a xlink:href="../../da/df2/durand__kerner__roots_8cpp.html#ac38b9cfd2a39d856e0feba3b5d241ded" target="_top" xlink:title=" ">
<polygon fill="white" stroke="black" points="74,-228.5 74,-247.5 175,-247.5 175,-228.5 74,-228.5"/>
<text text-anchor="middle" x="124.5" y="-235.5" font-family="Helvetica,sans-Serif" font-size="10.00">durand_kerner_algo</text>
</a>
</g>
</g>
<!-- Node1&#45;&gt;Node2 -->
<g id="edge1" class="edge">
<title>Node1&#45;&gt;Node2</title>
<path fill="none" stroke="midnightblue" d="M28.82,-133.72C46.39,-153.07 85.94,-196.63 107.96,-220.88"/>
<polygon fill="midnightblue" stroke="midnightblue" points="105.38,-223.25 114.7,-228.31 110.57,-218.55 105.38,-223.25"/>
</g>
<!-- Node15 -->
<g id="node15" class="node">
<title>Node15</title>
<g id="a_node15"><a target="_blank" xlink:href="http://en.cppreference.com/w/cpp/numeric/random/rand.html#" target="_top" xlink:title=" ">
<polygon fill="white" stroke="black" points="97,-114.5 97,-133.5 152,-133.5 152,-114.5 97,-114.5"/>
<text text-anchor="middle" x="124.5" y="-121.5" font-family="Helvetica,sans-Serif" font-size="10.00">std::rand</text>
</a>
</g>
</g>
<!-- Node1&#45;&gt;Node15 -->
<g id="edge14" class="edge">
<title>Node1&#45;&gt;Node15</title>
<path fill="none" stroke="midnightblue" d="M38.03,-124C51.33,-124 69.9,-124 86.33,-124"/>
<polygon fill="midnightblue" stroke="midnightblue" points="86.75,-127.5 96.75,-124 86.75,-120.5 86.75,-127.5"/>
</g>
<!-- Node16 -->
<g id="node16" class="node">
<title>Node16</title>
<g id="a_node16"><a xlink:href="../../dd/d47/namespacemath.html#a8d79d452a81ed27ba095d2ecb32dc4b4" target="_top" xlink:title=" ">
<polygon fill="white" stroke="black" points="90.5,-38.5 90.5,-57.5 158.5,-57.5 158.5,-38.5 90.5,-38.5"/>
<text text-anchor="middle" x="124.5" y="-45.5" font-family="Helvetica,sans-Serif" font-size="10.00">math::result</text>
</a>
</g>
</g>
<!-- Node1&#45;&gt;Node16 -->
<g id="edge15" class="edge">
<title>Node1&#45;&gt;Node16</title>
<path fill="none" stroke="midnightblue" d="M33.11,-114.37C50.53,-101.58 81.52,-78.83 102.29,-63.57"/>
<polygon fill="midnightblue" stroke="midnightblue" points="104.51,-66.29 110.5,-57.55 100.37,-60.64 104.51,-66.29"/>
</g>
<!-- Node3 -->
<g id="node3" class="node">
<title>Node3</title>
<g id="a_node3"><a xlink:href="../../da/df2/durand__kerner__roots_8cpp.html#a024b8bc4755863315456d573a6732377" target="_top" xlink:title=" ">
<polygon fill="white" stroke="black" points="220,-399.5 220,-418.5 316,-418.5 316,-399.5 220,-399.5"/>
<text text-anchor="middle" x="268" y="-406.5" font-family="Helvetica,sans-Serif" font-size="10.00">check_termination</text>
</a>
</g>
</g>
<!-- Node2&#45;&gt;Node3 -->
<g id="edge2" class="edge">
<title>Node2&#45;&gt;Node3</title>
<path fill="none" stroke="midnightblue" d="M128.28,-247.79C136.38,-274.57 162.54,-349.78 211,-390 213.04,-391.69 215.24,-393.24 217.54,-394.65"/>
<polygon fill="midnightblue" stroke="midnightblue" points="216.34,-397.97 226.83,-399.43 219.55,-391.74 216.34,-397.97"/>
</g>
<!-- Node4 -->
<g id="node4" class="node">
<title>Node4</title>
<g id="a_node4"><a xlink:href="../../da/df2/durand__kerner__roots_8cpp.html#a3bada3e58ad8d1b00918db2ffe83a740" target="_top" xlink:title=" ">
<polygon fill="white" stroke="black" points="233,-361.5 233,-380.5 303,-380.5 303,-361.5 233,-361.5"/>
<text text-anchor="middle" x="268" y="-368.5" font-family="Helvetica,sans-Serif" font-size="10.00">complex_str</text>
</a>
</g>
</g>
<!-- Node2&#45;&gt;Node4 -->
<g id="edge3" class="edge">
<title>Node2&#45;&gt;Node4</title>
<path fill="none" stroke="midnightblue" d="M130.23,-247.81C141.29,-269.72 170.94,-322.96 211,-352 214.75,-354.72 218.91,-357.07 223.23,-359.09"/>
<polygon fill="midnightblue" stroke="midnightblue" points="222.25,-362.47 232.83,-363.03 224.91,-356 222.25,-362.47"/>
</g>
<!-- Node5 -->
<g id="node5" class="node">
<title>Node5</title>
<g id="a_node5"><a target="_blank" xlink:href="http://en.cppreference.com/w/cpp/utility/program/exit.html#" target="_top" xlink:title=" ">
<polygon fill="white" stroke="black" points="242,-323.5 242,-342.5 294,-342.5 294,-323.5 242,-323.5"/>
<text text-anchor="middle" x="268" y="-330.5" font-family="Helvetica,sans-Serif" font-size="10.00">std::exit</text>
</a>
</g>
</g>
<!-- Node2&#45;&gt;Node5 -->
<g id="edge4" class="edge">
<title>Node2&#45;&gt;Node5</title>
<path fill="none" stroke="midnightblue" d="M133.79,-247.52C148.07,-263.38 178.9,-295.33 211,-314 217.53,-317.8 224.93,-320.98 232.16,-323.59"/>
<polygon fill="midnightblue" stroke="midnightblue" points="231.23,-326.97 241.82,-326.8 233.43,-320.33 231.23,-326.97"/>
</g>
<!-- Node6 -->
<g id="node6" class="node">
<title>Node6</title>
<g id="a_node6"><a target="_blank" xlink:href="http://en.cppreference.com/w/cpp/io/basic_ofstream/is_open.html#" target="_top" xlink:title=" ">
<polygon fill="white" stroke="black" points="211,-285.5 211,-304.5 325,-304.5 325,-285.5 211,-285.5"/>
<text text-anchor="middle" x="268" y="-292.5" font-family="Helvetica,sans-Serif" font-size="10.00">std::ofstream::is_open</text>
</a>
</g>
</g>
<!-- Node2&#45;&gt;Node6 -->
<g id="edge5" class="edge">
<title>Node2&#45;&gt;Node6</title>
<path fill="none" stroke="midnightblue" d="M145.66,-247.59C162.85,-255.61 188.31,-267.13 211,-276 216.26,-278.06 221.84,-280.11 227.37,-282.06"/>
<polygon fill="midnightblue" stroke="midnightblue" points="226.58,-285.49 237.17,-285.44 228.86,-278.87 226.58,-285.49"/>
</g>
<!-- Node7 -->
<g id="node7" class="node">
<title>Node7</title>
<g id="a_node7"><a target="_blank" xlink:href="http://en.cppreference.com/w/cpp/numeric/math/isinf.html#" target="_top" xlink:title=" ">
<polygon fill="white" stroke="black" points="241,-247.5 241,-266.5 295,-266.5 295,-247.5 241,-247.5"/>
<text text-anchor="middle" x="268" y="-254.5" font-family="Helvetica,sans-Serif" font-size="10.00">std::isinf</text>
</a>
</g>
</g>
<!-- Node2&#45;&gt;Node7 -->
<g id="edge6" class="edge">
<title>Node2&#45;&gt;Node7</title>
<path fill="none" stroke="midnightblue" d="M175.39,-244.7C193.71,-247.16 214.07,-249.89 230.94,-252.16"/>
<polygon fill="midnightblue" stroke="midnightblue" points="230.57,-255.64 240.94,-253.5 231.5,-248.7 230.57,-255.64"/>
</g>
<!-- Node8 -->
<g id="node8" class="node">
<title>Node8</title>
<g id="a_node8"><a target="_blank" xlink:href="http://en.cppreference.com/w/cpp/numeric/math/isnan.html#" target="_top" xlink:title=" ">
<polygon fill="white" stroke="black" points="238.5,-209.5 238.5,-228.5 297.5,-228.5 297.5,-209.5 238.5,-209.5"/>
<text text-anchor="middle" x="268" y="-216.5" font-family="Helvetica,sans-Serif" font-size="10.00">std::isnan</text>
</a>
</g>
</g>
<!-- Node2&#45;&gt;Node8 -->
<g id="edge7" class="edge">
<title>Node2&#45;&gt;Node8</title>
<path fill="none" stroke="midnightblue" d="M175.39,-231.3C192.62,-228.99 211.66,-226.43 227.9,-224.25"/>
<polygon fill="midnightblue" stroke="midnightblue" points="228.68,-227.68 238.13,-222.88 227.75,-220.74 228.68,-227.68"/>
</g>
<!-- Node9 -->
<g id="node9" class="node">
<title>Node9</title>
<g id="a_node9"><a target="_blank" xlink:href="http://en.cppreference.com/w/cpp/algorithm/max.html#" target="_top" xlink:title=" ">
<polygon fill="white" stroke="black" points="240.5,-171.5 240.5,-190.5 295.5,-190.5 295.5,-171.5 240.5,-171.5"/>
<text text-anchor="middle" x="268" y="-178.5" font-family="Helvetica,sans-Serif" font-size="10.00">std::max</text>
</a>
</g>
</g>
<!-- Node2&#45;&gt;Node9 -->
<g id="edge8" class="edge">
<title>Node2&#45;&gt;Node9</title>
<path fill="none" stroke="midnightblue" d="M145.66,-228.41C162.85,-220.39 188.31,-208.87 211,-200 217.36,-197.51 224.2,-195.04 230.83,-192.73"/>
<polygon fill="midnightblue" stroke="midnightblue" points="231.99,-196.03 240.33,-189.5 229.73,-189.41 231.99,-196.03"/>
</g>
<!-- Node10 -->
<g id="node10" class="node">
<title>Node10</title>
<g id="a_node10"><a target="_blank" xlink:href="http://en.cppreference.com/w/cpp/io/basic_ofstream/open.html#" target="_top" xlink:title=" ">
<polygon fill="white" stroke="black" points="217.5,-133.5 217.5,-152.5 318.5,-152.5 318.5,-133.5 217.5,-133.5"/>
<text text-anchor="middle" x="268" y="-140.5" font-family="Helvetica,sans-Serif" font-size="10.00">std::ofstream::open</text>
</a>
</g>
</g>
<!-- Node2&#45;&gt;Node10 -->
<g id="edge9" class="edge">
<title>Node2&#45;&gt;Node10</title>
<path fill="none" stroke="midnightblue" d="M133.79,-228.48C148.07,-212.62 178.9,-180.67 211,-162 214.59,-159.91 218.45,-158 222.4,-156.28"/>
<polygon fill="midnightblue" stroke="midnightblue" points="223.7,-159.53 231.7,-152.58 221.11,-153.02 223.7,-159.53"/>
</g>
<!-- Node11 -->
<g id="node11" class="node">
<title>Node11</title>
<g id="a_node11"><a xlink:href="../../da/df2/durand__kerner__roots_8cpp.html#a51637ff89e55ca749993d3e84b95d153" target="_top" xlink:title=" ">
<polygon fill="white" stroke="black" points="231,-95.5 231,-114.5 305,-114.5 305,-95.5 231,-95.5"/>
<text text-anchor="middle" x="268" y="-102.5" font-family="Helvetica,sans-Serif" font-size="10.00">poly_function</text>
</a>
</g>
</g>
<!-- Node2&#45;&gt;Node11 -->
<g id="edge10" class="edge">
<title>Node2&#45;&gt;Node11</title>
<path fill="none" stroke="midnightblue" d="M130.23,-228.19C141.29,-206.28 170.94,-153.04 211,-124 214.23,-121.66 217.76,-119.59 221.44,-117.77"/>
<polygon fill="midnightblue" stroke="midnightblue" points="223,-120.91 230.78,-113.72 220.21,-114.49 223,-120.91"/>
</g>
<!-- Node12 -->
<g id="node12" class="node">
<title>Node12</title>
<g id="a_node12"><a target="_blank" xlink:href="http://en.cppreference.com/w/cpp/numeric/complex/imag.html#" target="_top" xlink:title=" ">
<polygon fill="white" stroke="black" points="361,-133.5 361,-152.5 461,-152.5 461,-133.5 361,-133.5"/>
<text text-anchor="middle" x="411" y="-140.5" font-family="Helvetica,sans-Serif" font-size="10.00">std::complex::imag</text>
</a>
</g>
</g>
<!-- Node11&#45;&gt;Node12 -->
<g id="edge11" class="edge">
<title>Node11&#45;&gt;Node12</title>
<path fill="none" stroke="midnightblue" d="M304.58,-114.59C322.78,-119.49 345.14,-125.52 364.57,-130.76"/>
<polygon fill="midnightblue" stroke="midnightblue" points="363.86,-134.19 374.43,-133.41 365.69,-127.43 363.86,-134.19"/>
</g>
<!-- Node13 -->
<g id="node13" class="node">
<title>Node13</title>
<g id="a_node13"><a target="_blank" xlink:href="http://en.cppreference.com/w/cpp/numeric/math/pow.html#" target="_top" xlink:title=" ">
<polygon fill="white" stroke="black" points="384,-95.5 384,-114.5 438,-114.5 438,-95.5 384,-95.5"/>
<text text-anchor="middle" x="411" y="-102.5" font-family="Helvetica,sans-Serif" font-size="10.00">std::pow</text>
</a>
</g>
</g>
<!-- Node11&#45;&gt;Node13 -->
<g id="edge12" class="edge">
<title>Node11&#45;&gt;Node13</title>
<path fill="none" stroke="midnightblue" d="M305.31,-105C326.25,-105 352.5,-105 373.48,-105"/>
<polygon fill="midnightblue" stroke="midnightblue" points="373.61,-108.5 383.61,-105 373.61,-101.5 373.61,-108.5"/>
</g>
<!-- Node14 -->
<g id="node14" class="node">
<title>Node14</title>
<g id="a_node14"><a target="_blank" xlink:href="http://en.cppreference.com/w/cpp/numeric/complex/real.html#" target="_top" xlink:title=" ">
<polygon fill="white" stroke="black" points="363.5,-57.5 363.5,-76.5 458.5,-76.5 458.5,-57.5 363.5,-57.5"/>
<text text-anchor="middle" x="411" y="-64.5" font-family="Helvetica,sans-Serif" font-size="10.00">std::complex::real</text>
</a>
</g>
</g>
<!-- Node11&#45;&gt;Node14 -->
<g id="edge13" class="edge">
<title>Node11&#45;&gt;Node14</title>
<path fill="none" stroke="midnightblue" d="M304.58,-95.41C322.78,-90.51 345.14,-84.48 364.57,-79.24"/>
<polygon fill="midnightblue" stroke="midnightblue" points="365.69,-82.57 374.43,-76.59 363.86,-75.81 365.69,-82.57"/>
</g>
<!-- Node17 -->
<g id="node17" class="node">
<title>Node17</title>
<g id="a_node17"><a xlink:href="../../d7/d35/matrix__exponentiation_8cpp.html#ad8389ed58fd0ec66df248014775ad1fa" target="_top" xlink:title=" ">
<polygon fill="white" stroke="black" points="252,-57.5 252,-76.5 284,-76.5 284,-57.5 252,-57.5"/>
<text text-anchor="middle" x="268" y="-64.5" font-family="Helvetica,sans-Serif" font-size="10.00">ans</text>
</a>
</g>
</g>
<!-- Node16&#45;&gt;Node17 -->
<g id="edge16" class="edge">
<title>Node16&#45;&gt;Node17</title>
<path fill="none" stroke="midnightblue" d="M158.68,-52.45C184.06,-55.86 218.54,-60.49 241.72,-63.61"/>
<polygon fill="midnightblue" stroke="midnightblue" points="241.43,-67.1 251.8,-64.96 242.36,-60.16 241.43,-67.1"/>
</g>
<!-- Node18 -->
<g id="node18" class="node">
<title>Node18</title>
<g id="a_node18"><a xlink:href="../../dd/d47/namespacemath.html#a4a55bb9ec6c59485d3fdb18bd88ca5b6" target="_top" xlink:title=" ">
<polygon fill="white" stroke="black" points="232.5,-19.5 232.5,-38.5 303.5,-38.5 303.5,-19.5 232.5,-19.5"/>
<text text-anchor="middle" x="268" y="-26.5" font-family="Helvetica,sans-Serif" font-size="10.00">math::power</text>
</a>
</g>
</g>
<!-- Node16&#45;&gt;Node18 -->
<g id="edge17" class="edge">
<title>Node16&#45;&gt;Node18</title>
<path fill="none" stroke="midnightblue" d="M158.68,-43.55C177.54,-41.01 201.43,-37.8 221.97,-35.05"/>
<polygon fill="midnightblue" stroke="midnightblue" points="222.61,-38.49 232.06,-33.69 221.68,-31.55 222.61,-38.49"/>
</g>
<!-- Node19 -->
<g id="node19" class="node">
<title>Node19</title>
<g id="a_node19"><a xlink:href="../../dd/d47/namespacemath.html#ab65d9997885347702dc0c3ec09d5dc21" target="_top" xlink:title=" ">
<polygon fill="white" stroke="black" points="372,-0.5 372,-19.5 450,-19.5 450,-0.5 372,-0.5"/>
<text text-anchor="middle" x="411" y="-7.5" font-family="Helvetica,sans-Serif" font-size="10.00">math::multiply</text>
</a>
</g>
</g>
<!-- Node18&#45;&gt;Node19 -->
<g id="edge18" class="edge">
<title>Node18&#45;&gt;Node19</title>
<path fill="none" stroke="midnightblue" d="M303.85,-24.3C321.34,-21.95 342.8,-19.05 361.84,-16.49"/>
<polygon fill="midnightblue" stroke="midnightblue" points="362.39,-19.95 371.83,-15.14 361.46,-13.01 362.39,-19.95"/>
</g>
<!-- Node19&#45;&gt;Node16 -->
<g id="edge19" class="edge">
<title>Node19&#45;&gt;Node16</title>
<path fill="none" stroke="midnightblue" d="M371.73,-5.34C331.3,-1.49 265.92,1.65 211,-10 189.61,-14.54 167.08,-24.81 150.52,-33.53"/>
<polygon fill="midnightblue" stroke="midnightblue" points="148.63,-30.57 141.52,-38.43 151.97,-36.72 148.63,-30.57"/>
</g>
</g>
</svg>
