<?xml version="1.0" encoding="UTF-8" standalone="no"?>
<!DOCTYPE svg PUBLIC "-//W3C//DTD SVG 1.1//EN"
 "http://www.w3.org/Graphics/SVG/1.1/DTD/svg11.dtd">
<!-- Generated by graphviz version 2.44.1 (20200629.0846)
 -->
<!-- Title: test Pages: 1 -->
<!--zoomable 752 -->
<svg id="main" version="1.1" xmlns="http://www.w3.org/2000/svg" xmlns:xlink="http://www.w3.org/1999/xlink" xml:space="preserve" onload="init(evt)">
<style type="text/css"><![CDATA[
.edge:hover path { stroke: red; }
.edge:hover polygon { stroke: red; fill: red; }
]]></style>
<script type="text/javascript"><![CDATA[
var edges = document.getElementsByTagName('g');
if (edges && edges.length) {
  for (var i=0;i<edges.length;i++) {
    if (edges[i].id.substr(0,4)=='edge') {
      edges[i].setAttribute('class','edge');
    }
  }
}
]]></script>
        <defs>
                <circle id="rim" cx="0" cy="0" r="7"/>
                <circle id="rim2" cx="0" cy="0" r="3.5"/>
                <g id="zoomPlus">
                        <use xlink:href="#rim" fill="#404040">
                                <set attributeName="fill" to="#808080" begin="zoomplus.mouseover" end="zoomplus.mouseout"/>
                        </use>
                        <path d="M-4,0h8M0,-4v8" fill="none" stroke="white" stroke-width="1.5" pointer-events="none"/>
                </g>
                <g id="zoomMin">
                        <use xlink:href="#rim" fill="#404040">
                                <set attributeName="fill" to="#808080" begin="zoomminus.mouseover" end="zoomminus.mouseout"/>
                        </use>
                        <path d="M-4,0h8" fill="none" stroke="white" stroke-width="1.5" pointer-events="none"/>
                </g>
                <g id="dirArrow">
                        <path fill="none" stroke="white" stroke-width="1.5" d="M0,-3.0v7 M-2.5,-0.5L0,-3.0L2.5,-0.5"/>
                </g>
               <g id="resetDef">
                       <use xlink:href="#rim2" fill="#404040">
                               <set attributeName="fill" to="#808080" begin="reset.mouseover" end="reset.mouseout"/>
                       </use>
               </g>
        </defs>

<script type="text/javascript">
var viewWidth = 601;
var viewHeight = 752;
var sectionId = 'dynsection-2';
</script>
<script xlink:href="../../svgpan.js"/>
<svg id="graph" class="graph">
<g id="viewport">
<title>test</title>
<polygon fill="white" stroke="transparent" points="-4,4 -4,-748 597,-748 597,4 -4,4"/>
<!-- Node1 -->
<g id="node1" class="node">
<title>Node1</title>
<g id="a_node1"><a xlink:title=" ">
<polygon fill="#bfbfbf" stroke="black" points="0,-445.5 0,-464.5 33,-464.5 33,-445.5 0,-445.5"/>
<text text-anchor="middle" x="16.5" y="-452.5" font-family="Helvetica,sans-Serif" font-size="10.00">test</text>
</a>
</g>
</g>
<!-- Node2 -->
<g id="node2" class="node">
<title>Node2</title>
<g id="a_node2"><a target="_blank" xlink:href="http://en.cppreference.com/w/cpp/io/manip/endl.html#" target="_top" xlink:title=" ">
<polygon fill="white" stroke="black" points="82,-521.5 82,-540.5 136,-540.5 136,-521.5 82,-521.5"/>
<text text-anchor="middle" x="109" y="-528.5" font-family="Helvetica,sans-Serif" font-size="10.00">std::endl</text>
</a>
</g>
</g>
<!-- Node1&#45;&gt;Node2 -->
<g id="edge1" class="edge">
<title>Node1&#45;&gt;Node2</title>
<path fill="none" stroke="midnightblue" d="M24.26,-464.51C33.33,-476.73 50.45,-498.05 69,-512 71.05,-513.54 73.25,-515.01 75.52,-516.4"/>
<polygon fill="midnightblue" stroke="midnightblue" points="74.02,-519.57 84.47,-521.34 77.4,-513.44 74.02,-519.57"/>
</g>
<!-- Node3 -->
<g id="node3" class="node">
<title>Node3</title>
<g id="a_node3"><a xlink:href="../../dd/d47/namespacemath.html#a54edfd0b9daac1602b16e4c7e251ae2d" target="_top" xlink:title=" ">
<polygon fill="white" stroke="black" points="69,-483.5 69,-502.5 149,-502.5 149,-483.5 69,-483.5"/>
<text text-anchor="middle" x="109" y="-490.5" font-family="Helvetica,sans-Serif" font-size="10.00">math::fiboSum</text>
</a>
</g>
</g>
<!-- Node1&#45;&gt;Node3 -->
<g id="edge2" class="edge">
<title>Node1&#45;&gt;Node3</title>
<path fill="none" stroke="midnightblue" d="M33.26,-461.62C44.95,-466.53 61.28,-473.38 75.7,-479.44"/>
<polygon fill="midnightblue" stroke="midnightblue" points="74.72,-482.82 85.29,-483.47 77.43,-476.37 74.72,-482.82"/>
</g>
<!-- Node8 -->
<g id="node8" class="node">
<title>Node8</title>
<g id="a_node8"><a xlink:href="../../d2/de9/heavy__light__decomposition_8cpp.html#a34b8683a2b429de5cce57e6d733ec817" target="_top" xlink:title=" ">
<polygon fill="white" stroke="black" points="87,-389.5 87,-408.5 131,-408.5 131,-389.5 87,-389.5"/>
<text text-anchor="middle" x="109" y="-396.5" font-family="Helvetica,sans-Serif" font-size="10.00">test_1</text>
</a>
</g>
</g>
<!-- Node1&#45;&gt;Node8 -->
<g id="edge8" class="edge">
<title>Node1&#45;&gt;Node8</title>
<path fill="none" stroke="midnightblue" d="M33.26,-445.25C47.15,-436.65 67.6,-424 83.59,-414.1"/>
<polygon fill="midnightblue" stroke="midnightblue" points="85.75,-416.88 92.42,-408.64 82.07,-410.93 85.75,-416.88"/>
</g>
<!-- Node27 -->
<g id="node27" class="node">
<title>Node27</title>
<g id="a_node27"><a xlink:href="../../d2/de9/heavy__light__decomposition_8cpp.html#a458410412185a5f09199deaff7157a8d" target="_top" xlink:title=" ">
<polygon fill="white" stroke="black" points="87,-321.5 87,-340.5 131,-340.5 131,-321.5 87,-321.5"/>
<text text-anchor="middle" x="109" y="-328.5" font-family="Helvetica,sans-Serif" font-size="10.00">test_2</text>
</a>
</g>
</g>
<!-- Node1&#45;&gt;Node27 -->
<g id="edge29" class="edge">
<title>Node1&#45;&gt;Node27</title>
<path fill="none" stroke="midnightblue" d="M23.95,-445.14C33.5,-430.65 52.09,-402.86 69,-380 76.84,-369.4 86,-357.85 93.48,-348.63"/>
<polygon fill="midnightblue" stroke="midnightblue" points="96.41,-350.56 100.03,-340.6 90.99,-346.14 96.41,-350.56"/>
</g>
<!-- Node28 -->
<g id="node28" class="node">
<title>Node28</title>
<g id="a_node28"><a xlink:href="../../d2/de9/heavy__light__decomposition_8cpp.html#af31ec5409537703d9c8a47350386b32a" target="_top" xlink:title=" ">
<polygon fill="white" stroke="black" points="87,-445.5 87,-464.5 131,-464.5 131,-445.5 87,-445.5"/>
<text text-anchor="middle" x="109" y="-452.5" font-family="Helvetica,sans-Serif" font-size="10.00">test_3</text>
</a>
</g>
</g>
<!-- Node1&#45;&gt;Node28 -->
<g id="edge37" class="edge">
<title>Node1&#45;&gt;Node28</title>
<path fill="none" stroke="midnightblue" d="M33.26,-455C45.24,-455 62.11,-455 76.79,-455"/>
<polygon fill="midnightblue" stroke="midnightblue" points="76.99,-458.5 86.99,-455 76.99,-451.5 76.99,-458.5"/>
</g>
<!-- Node4 -->
<g id="node4" class="node">
<title>Node4</title>
<g id="a_node4"><a xlink:href="../../dd/d47/namespacemath.html#a8d79d452a81ed27ba095d2ecb32dc4b4" target="_top" xlink:title=" ">
<polygon fill="white" stroke="black" points="206,-667.5 206,-686.5 274,-686.5 274,-667.5 206,-667.5"/>
<text text-anchor="middle" x="240" y="-674.5" font-family="Helvetica,sans-Serif" font-size="10.00">math::result</text>
</a>
</g>
</g>
<!-- Node3&#45;&gt;Node4 -->
<g id="edge3" class="edge">
<title>Node3&#45;&gt;Node4</title>
<path fill="none" stroke="midnightblue" d="M137.29,-502.56C141.67,-505.08 145.81,-508.19 149,-512 186.65,-556.99 151.06,-591.15 185,-639 191.58,-648.28 201.18,-656.08 210.47,-662.15"/>
<polygon fill="midnightblue" stroke="midnightblue" points="208.8,-665.23 219.16,-667.43 212.43,-659.25 208.8,-665.23"/>
</g>
<!-- Node5 -->
<g id="node5" class="node">
<title>Node5</title>
<g id="a_node5"><a xlink:href="../../d7/d35/matrix__exponentiation_8cpp.html#ad8389ed58fd0ec66df248014775ad1fa" target="_top" xlink:title=" ">
<polygon fill="white" stroke="black" points="373,-686.5 373,-705.5 405,-705.5 405,-686.5 373,-686.5"/>
<text text-anchor="middle" x="389" y="-693.5" font-family="Helvetica,sans-Serif" font-size="10.00">ans</text>
</a>
</g>
</g>
<!-- Node4&#45;&gt;Node5 -->
<g id="edge4" class="edge">
<title>Node4&#45;&gt;Node5</title>
<path fill="none" stroke="midnightblue" d="M274.36,-681.31C301.22,-684.78 338.39,-689.59 362.81,-692.74"/>
<polygon fill="midnightblue" stroke="midnightblue" points="362.37,-696.22 372.73,-694.03 363.26,-689.27 362.37,-696.22"/>
</g>
<!-- Node6 -->
<g id="node6" class="node">
<title>Node6</title>
<g id="a_node6"><a xlink:href="../../dd/d47/namespacemath.html#a4a55bb9ec6c59485d3fdb18bd88ca5b6" target="_top" xlink:title=" ">
<polygon fill="white" stroke="black" points="353.5,-724.5 353.5,-743.5 424.5,-743.5 424.5,-724.5 353.5,-724.5"/>
<text text-anchor="middle" x="389" y="-731.5" font-family="Helvetica,sans-Serif" font-size="10.00">math::power</text>
</a>
</g>
</g>
<!-- Node4&#45;&gt;Node6 -->
<g id="edge5" class="edge">
<title>Node4&#45;&gt;Node6</title>
<path fill="none" stroke="midnightblue" d="M262.27,-686.53C280.39,-694.52 307.2,-706.02 331,-715 336.56,-717.1 342.48,-719.2 348.31,-721.21"/>
<polygon fill="midnightblue" stroke="midnightblue" points="347.37,-724.59 357.97,-724.47 349.61,-717.96 347.37,-724.59"/>
</g>
<!-- Node7 -->
<g id="node7" class="node">
<title>Node7</title>
<g id="a_node7"><a xlink:href="../../dd/d47/namespacemath.html#ab65d9997885347702dc0c3ec09d5dc21" target="_top" xlink:title=" ">
<polygon fill="white" stroke="black" points="499,-686.5 499,-705.5 577,-705.5 577,-686.5 499,-686.5"/>
<text text-anchor="middle" x="538" y="-693.5" font-family="Helvetica,sans-Serif" font-size="10.00">math::multiply</text>
</a>
</g>
</g>
<!-- Node6&#45;&gt;Node7 -->
<g id="edge6" class="edge">
<title>Node6&#45;&gt;Node7</title>
<path fill="none" stroke="midnightblue" d="M424.84,-724.99C444.41,-719.94 469.09,-713.56 490.31,-708.07"/>
<polygon fill="midnightblue" stroke="midnightblue" points="491.3,-711.43 500.1,-705.54 489.55,-704.65 491.3,-711.43"/>
</g>
<!-- Node7&#45;&gt;Node4 -->
<g id="edge7" class="edge">
<title>Node7&#45;&gt;Node4</title>
<path fill="none" stroke="midnightblue" d="M500.49,-686.49C484.24,-682.73 464.79,-678.86 447,-677 391.09,-671.16 326.18,-672.49 284.4,-674.39"/>
<polygon fill="midnightblue" stroke="midnightblue" points="284.11,-670.9 274.29,-674.88 284.45,-677.89 284.11,-670.9"/>
</g>
<!-- Node9 -->
<g id="node9" class="node">
<title>Node9</title>
<g id="a_node9"><a xlink:href="../../d1/d51/classrange__queries_1_1heavy__light__decomposition_1_1_tree.html#a79ab4601c4a95c0902ac04e779e5f54d" target="_top" xlink:title="Adds an undirected edge from node u to node v in the tree.">
<polygon fill="white" stroke="black" points="185,-256.5 185,-297.5 295,-297.5 295,-256.5 185,-256.5"/>
<text text-anchor="start" x="193" y="-285.5" font-family="Helvetica,sans-Serif" font-size="10.00">range_queries::heavy</text>
<text text-anchor="start" x="193" y="-274.5" font-family="Helvetica,sans-Serif" font-size="10.00">_light_decomposition</text>
<text text-anchor="middle" x="240" y="-263.5" font-family="Helvetica,sans-Serif" font-size="10.00">::Tree::add_edge</text>
</a>
</g>
</g>
<!-- Node8&#45;&gt;Node9 -->
<g id="edge9" class="edge">
<title>Node8&#45;&gt;Node9</title>
<path fill="none" stroke="midnightblue" d="M117.76,-389.32C133.76,-369.47 170.2,-324.91 185,-312 188.36,-309.07 191.98,-306.2 195.71,-303.45"/>
<polygon fill="midnightblue" stroke="midnightblue" points="197.8,-306.26 203.95,-297.63 193.77,-300.54 197.8,-306.26"/>
</g>
<!-- Node10 -->
<g id="node10" class="node">
<title>Node10</title>
<g id="a_node10"><a target="_blank" xlink:href="http://en.cppreference.com/w/cpp/container/vector/push_back.html#" target="_top" xlink:title=" ">
<polygon fill="white" stroke="black" points="331,-308.5 331,-327.5 447,-327.5 447,-308.5 331,-308.5"/>
<text text-anchor="middle" x="389" y="-315.5" font-family="Helvetica,sans-Serif" font-size="10.00">std::vector::push_back</text>
</a>
</g>
</g>
<!-- Node8&#45;&gt;Node10 -->
<g id="edge19" class="edge">
<title>Node8&#45;&gt;Node10</title>
<path fill="none" stroke="midnightblue" d="M120.17,-389.1C133.73,-376.55 159.05,-355.31 185,-345 228.25,-327.82 280.35,-321.15 320.94,-318.73"/>
<polygon fill="midnightblue" stroke="midnightblue" points="321.2,-322.22 331,-318.21 320.83,-315.23 321.2,-322.22"/>
</g>
<!-- Node11 -->
<g id="node11" class="node">
<title>Node11</title>
<g id="a_node11"><a xlink:href="../../d2/d8a/classrange__queries_1_1heavy__light__decomposition_1_1_h_l_d.html#ae9e979edd69678b85665c01e2ee97828" target="_top" xlink:title="This function must be called after the tree adjacency list and node values are populated The function...">
<polygon fill="white" stroke="black" points="185,-120.5 185,-161.5 295,-161.5 295,-120.5 185,-120.5"/>
<text text-anchor="start" x="193" y="-149.5" font-family="Helvetica,sans-Serif" font-size="10.00">range_queries::heavy</text>
<text text-anchor="start" x="193" y="-138.5" font-family="Helvetica,sans-Serif" font-size="10.00">_light_decomposition</text>
<text text-anchor="middle" x="240" y="-127.5" font-family="Helvetica,sans-Serif" font-size="10.00">::HLD::init</text>
</a>
</g>
</g>
<!-- Node8&#45;&gt;Node11 -->
<g id="edge11" class="edge">
<title>Node8&#45;&gt;Node11</title>
<path fill="none" stroke="midnightblue" d="M119.45,-389.21C128.12,-379.8 140.81,-364.85 149,-350 172.43,-307.54 165.95,-291.6 185,-247 196.26,-220.65 211.17,-191.72 222.48,-170.75"/>
<polygon fill="midnightblue" stroke="midnightblue" points="225.69,-172.18 227.39,-161.72 219.54,-168.83 225.69,-172.18"/>
</g>
<!-- Node19 -->
<g id="node19" class="node">
<title>Node19</title>
<g id="a_node19"><a xlink:href="../../d2/d8a/classrange__queries_1_1heavy__light__decomposition_1_1_h_l_d.html#a4dfbf5d9df825eeb63b294c6849bdcab" target="_top" xlink:title="This function returns the sum of node values in the simple path from from node_1 to node_2.">
<polygon fill="white" stroke="black" points="185,-588.5 185,-629.5 295,-629.5 295,-588.5 185,-588.5"/>
<text text-anchor="start" x="193" y="-617.5" font-family="Helvetica,sans-Serif" font-size="10.00">range_queries::heavy</text>
<text text-anchor="start" x="193" y="-606.5" font-family="Helvetica,sans-Serif" font-size="10.00">_light_decomposition</text>
<text text-anchor="middle" x="240" y="-595.5" font-family="Helvetica,sans-Serif" font-size="10.00">::HLD::query</text>
</a>
</g>
</g>
<!-- Node8&#45;&gt;Node19 -->
<g id="edge20" class="edge">
<title>Node8&#45;&gt;Node19</title>
<path fill="none" stroke="midnightblue" d="M122.28,-408.78C130.52,-415.77 141.25,-425.71 149,-436 153.76,-442.32 199.61,-531.75 223.96,-579.47"/>
<polygon fill="midnightblue" stroke="midnightblue" points="220.86,-581.11 228.53,-588.42 227.1,-577.93 220.86,-581.11"/>
</g>
<!-- Node23 -->
<g id="node23" class="node">
<title>Node23</title>
<g id="a_node23"><a xlink:href="../../d1/d51/classrange__queries_1_1heavy__light__decomposition_1_1_tree.html#a04cd96efaba147b19d3afc769b90ff70" target="_top" xlink:title="Set the values for all the nodes.">
<polygon fill="white" stroke="black" points="185,-354.5 185,-395.5 295,-395.5 295,-354.5 185,-354.5"/>
<text text-anchor="start" x="193" y="-383.5" font-family="Helvetica,sans-Serif" font-size="10.00">range_queries::heavy</text>
<text text-anchor="start" x="193" y="-372.5" font-family="Helvetica,sans-Serif" font-size="10.00">_light_decomposition</text>
<text text-anchor="middle" x="240" y="-361.5" font-family="Helvetica,sans-Serif" font-size="10.00">::Tree::set_node_val</text>
</a>
</g>
</g>
<!-- Node8&#45;&gt;Node23 -->
<g id="edge24" class="edge">
<title>Node8&#45;&gt;Node23</title>
<path fill="none" stroke="midnightblue" d="M131.01,-395.09C143.13,-392.84 159.09,-389.87 175,-386.91"/>
<polygon fill="midnightblue" stroke="midnightblue" points="175.68,-390.34 184.87,-385.07 174.4,-383.46 175.68,-390.34"/>
</g>
<!-- Node24 -->
<g id="node24" class="node">
<title>Node24</title>
<g id="a_node24"><a target="_blank" xlink:href="http://en.cppreference.com/w/cpp/container/vector/size.html#" target="_top" xlink:title=" ">
<polygon fill="white" stroke="black" points="345.5,-390.5 345.5,-409.5 432.5,-409.5 432.5,-390.5 345.5,-390.5"/>
<text text-anchor="middle" x="389" y="-397.5" font-family="Helvetica,sans-Serif" font-size="10.00">std::vector::size</text>
</a>
</g>
</g>
<!-- Node8&#45;&gt;Node24 -->
<g id="edge26" class="edge">
<title>Node8&#45;&gt;Node24</title>
<path fill="none" stroke="midnightblue" d="M131.31,-401.16C146.31,-402.57 166.86,-404.28 185,-405 233.85,-406.95 246.13,-406.31 295,-405 308.01,-404.65 322.03,-404.03 335.14,-403.34"/>
<polygon fill="midnightblue" stroke="midnightblue" points="335.63,-406.81 345.43,-402.77 335.25,-399.82 335.63,-406.81"/>
</g>
<!-- Node25 -->
<g id="node25" class="node">
<title>Node25</title>
<g id="a_node25"><a xlink:href="../../d2/d8a/classrange__queries_1_1heavy__light__decomposition_1_1_h_l_d.html#a9f1cb54ed09fde931bf3220d75ee4c57" target="_top" xlink:title="This function updates the value at node with val.">
<polygon fill="white" stroke="black" points="185,-452.5 185,-493.5 295,-493.5 295,-452.5 185,-452.5"/>
<text text-anchor="start" x="193" y="-481.5" font-family="Helvetica,sans-Serif" font-size="10.00">range_queries::heavy</text>
<text text-anchor="start" x="193" y="-470.5" font-family="Helvetica,sans-Serif" font-size="10.00">_light_decomposition</text>
<text text-anchor="middle" x="240" y="-459.5" font-family="Helvetica,sans-Serif" font-size="10.00">::HLD::update</text>
</a>
</g>
</g>
<!-- Node8&#45;&gt;Node25 -->
<g id="edge27" class="edge">
<title>Node8&#45;&gt;Node25</title>
<path fill="none" stroke="midnightblue" d="M126.6,-408.52C143.68,-418.32 171.01,-434 194.45,-447.45"/>
<polygon fill="midnightblue" stroke="midnightblue" points="192.8,-450.53 203.22,-452.47 196.28,-444.46 192.8,-450.53"/>
</g>
<!-- Node9&#45;&gt;Node10 -->
<g id="edge10" class="edge">
<title>Node9&#45;&gt;Node10</title>
<path fill="none" stroke="midnightblue" d="M295.32,-292.15C311.29,-296.6 328.55,-301.42 343.81,-305.67"/>
<polygon fill="midnightblue" stroke="midnightblue" points="342.93,-309.06 353.5,-308.38 344.81,-302.32 342.93,-309.06"/>
</g>
<!-- Node12 -->
<g id="node12" class="node">
<title>Node12</title>
<g id="a_node12"><a xlink:href="../../d9/d35/classrange__queries_1_1heavy__light__decomposition_1_1_s_g.html#a41c733f5f5e262b308f7cb95c88c1e74" target="_top" xlink:title="Function that specifies the type of operation involved when segments are combined.">
<polygon fill="white" stroke="black" points="334,-0.5 334,-41.5 444,-41.5 444,-0.5 334,-0.5"/>
<text text-anchor="start" x="342" y="-29.5" font-family="Helvetica,sans-Serif" font-size="10.00">range_queries::heavy</text>
<text text-anchor="start" x="342" y="-18.5" font-family="Helvetica,sans-Serif" font-size="10.00">_light_decomposition</text>
<text text-anchor="middle" x="389" y="-7.5" font-family="Helvetica,sans-Serif" font-size="10.00">::SG::combine</text>
</a>
</g>
</g>
<!-- Node11&#45;&gt;Node12 -->
<g id="edge12" class="edge">
<title>Node11&#45;&gt;Node12</title>
<path fill="none" stroke="midnightblue" d="M258.44,-120.26C275.55,-100.77 303.07,-71.58 331,-51 332.83,-49.65 334.73,-48.33 336.67,-47.04"/>
<polygon fill="midnightblue" stroke="midnightblue" points="338.79,-49.84 345.42,-41.57 335.08,-43.9 338.79,-49.84"/>
</g>
<!-- Node13 -->
<g id="node13" class="node">
<title>Node13</title>
<g id="a_node13"><a xlink:href="../../d2/d8a/classrange__queries_1_1heavy__light__decomposition_1_1_h_l_d.html#af64848d6630c39d0f09ce2359cc7c4f8" target="_top" xlink:title="Utility function to assign heavy child to each node (&#45;1 for a leaf node)">
<polygon fill="white" stroke="black" points="334,-240.5 334,-281.5 444,-281.5 444,-240.5 334,-240.5"/>
<text text-anchor="start" x="342" y="-269.5" font-family="Helvetica,sans-Serif" font-size="10.00">range_queries::heavy</text>
<text text-anchor="start" x="342" y="-258.5" font-family="Helvetica,sans-Serif" font-size="10.00">_light_decomposition</text>
<text text-anchor="middle" x="389" y="-247.5" font-family="Helvetica,sans-Serif" font-size="10.00">::HLD::dfs_hc</text>
</a>
</g>
</g>
<!-- Node11&#45;&gt;Node13 -->
<g id="edge13" class="edge">
<title>Node11&#45;&gt;Node13</title>
<path fill="none" stroke="midnightblue" d="M277.45,-161.62C283.65,-165.95 289.77,-170.8 295,-176 315.7,-196.61 309.38,-211.35 331,-231 332.28,-232.16 333.61,-233.3 334.99,-234.4"/>
<polygon fill="midnightblue" stroke="midnightblue" points="333.09,-237.35 343.25,-240.35 337.19,-231.67 333.09,-237.35"/>
</g>
<!-- Node14 -->
<g id="node14" class="node">
<title>Node14</title>
<g id="a_node14"><a xlink:href="../../d2/d8a/classrange__queries_1_1heavy__light__decomposition_1_1_h_l_d.html#a0579062b384e54b611b80c6337c7f2c8" target="_top" xlink:title="Utility function to lable the nodes so that heavy chains have a contigous lable.">
<polygon fill="white" stroke="black" points="334,-180.5 334,-221.5 444,-221.5 444,-180.5 334,-180.5"/>
<text text-anchor="start" x="342" y="-209.5" font-family="Helvetica,sans-Serif" font-size="10.00">range_queries::heavy</text>
<text text-anchor="start" x="342" y="-198.5" font-family="Helvetica,sans-Serif" font-size="10.00">_light_decomposition</text>
<text text-anchor="middle" x="389" y="-187.5" font-family="Helvetica,sans-Serif" font-size="10.00">::HLD::dfs_labels</text>
</a>
</g>
</g>
<!-- Node11&#45;&gt;Node14 -->
<g id="edge14" class="edge">
<title>Node11&#45;&gt;Node14</title>
<path fill="none" stroke="midnightblue" d="M291.59,-161.65C303.25,-166.41 315.77,-171.52 327.8,-176.43"/>
<polygon fill="midnightblue" stroke="midnightblue" points="326.74,-179.77 337.32,-180.31 329.38,-173.29 326.74,-179.77"/>
</g>
<!-- Node15 -->
<g id="node15" class="node">
<title>Node15</title>
<g id="a_node15"><a xlink:href="../../d2/d8a/classrange__queries_1_1heavy__light__decomposition_1_1_h_l_d.html#a2dfbda148aad0bfaba2ebfda9ebc915a" target="_top" xlink:title="Utility function to assign highest parent that can be reached though heavy chains.">
<polygon fill="white" stroke="black" points="334,-120.5 334,-161.5 444,-161.5 444,-120.5 334,-120.5"/>
<text text-anchor="start" x="342" y="-149.5" font-family="Helvetica,sans-Serif" font-size="10.00">range_queries::heavy</text>
<text text-anchor="start" x="342" y="-138.5" font-family="Helvetica,sans-Serif" font-size="10.00">_light_decomposition</text>
<text text-anchor="middle" x="389" y="-127.5" font-family="Helvetica,sans-Serif" font-size="10.00">::HLD::dfs_par</text>
</a>
</g>
</g>
<!-- Node11&#45;&gt;Node15 -->
<g id="edge15" class="edge">
<title>Node11&#45;&gt;Node15</title>
<path fill="none" stroke="midnightblue" d="M295.32,-141C304.57,-141 314.25,-141 323.73,-141"/>
<polygon fill="midnightblue" stroke="midnightblue" points="323.9,-144.5 333.9,-141 323.9,-137.5 323.9,-144.5"/>
</g>
<!-- Node16 -->
<g id="node16" class="node">
<title>Node16</title>
<g id="a_node16"><a xlink:href="../../d1/d51/classrange__queries_1_1heavy__light__decomposition_1_1_tree.html#ad22d760a5a33545a70e7ea5e1786c8dc" target="_top" xlink:title="This function must be called after the tree adjacency list and node values are populated The function...">
<polygon fill="white" stroke="black" points="334,-60.5 334,-101.5 444,-101.5 444,-60.5 334,-60.5"/>
<text text-anchor="start" x="342" y="-89.5" font-family="Helvetica,sans-Serif" font-size="10.00">range_queries::heavy</text>
<text text-anchor="start" x="342" y="-78.5" font-family="Helvetica,sans-Serif" font-size="10.00">_light_decomposition</text>
<text text-anchor="middle" x="389" y="-67.5" font-family="Helvetica,sans-Serif" font-size="10.00">::Tree::init</text>
</a>
</g>
</g>
<!-- Node11&#45;&gt;Node16 -->
<g id="edge16" class="edge">
<title>Node11&#45;&gt;Node16</title>
<path fill="none" stroke="midnightblue" d="M291.59,-120.35C303.25,-115.59 315.77,-110.48 327.8,-105.57"/>
<polygon fill="midnightblue" stroke="midnightblue" points="329.38,-108.71 337.32,-101.69 326.74,-102.23 329.38,-108.71"/>
</g>
<!-- Node17 -->
<g id="node17" class="node">
<title>Node17</title>
<g id="a_node17"><a xlink:href="../../d1/d51/classrange__queries_1_1heavy__light__decomposition_1_1_tree.html#ae8de7aefcb6635d3dacdd174cd4890c4" target="_top" xlink:title="Utility function to populate the t_par vector.">
<polygon fill="white" stroke="black" points="483,-30.5 483,-71.5 593,-71.5 593,-30.5 483,-30.5"/>
<text text-anchor="start" x="491" y="-59.5" font-family="Helvetica,sans-Serif" font-size="10.00">range_queries::heavy</text>
<text text-anchor="start" x="491" y="-48.5" font-family="Helvetica,sans-Serif" font-size="10.00">_light_decomposition</text>
<text text-anchor="middle" x="538" y="-37.5" font-family="Helvetica,sans-Serif" font-size="10.00">::Tree::dfs_lca</text>
</a>
</g>
</g>
<!-- Node16&#45;&gt;Node17 -->
<g id="edge17" class="edge">
<title>Node16&#45;&gt;Node17</title>
<path fill="none" stroke="midnightblue" d="M444.32,-69.91C453.67,-68.01 463.46,-66.01 473.03,-64.05"/>
<polygon fill="midnightblue" stroke="midnightblue" points="473.81,-67.47 482.9,-62.04 472.41,-60.61 473.81,-67.47"/>
</g>
<!-- Node18 -->
<g id="node18" class="node">
<title>Node18</title>
<g id="a_node18"><a xlink:href="../../d1/d51/classrange__queries_1_1heavy__light__decomposition_1_1_tree.html#aa339c31ec74cd86a4842a8b09653d460" target="_top" xlink:title="Utility function to compute sub&#45;tree sizes.">
<polygon fill="white" stroke="black" points="483,-90.5 483,-131.5 593,-131.5 593,-90.5 483,-90.5"/>
<text text-anchor="start" x="491" y="-119.5" font-family="Helvetica,sans-Serif" font-size="10.00">range_queries::heavy</text>
<text text-anchor="start" x="491" y="-108.5" font-family="Helvetica,sans-Serif" font-size="10.00">_light_decomposition</text>
<text text-anchor="middle" x="538" y="-97.5" font-family="Helvetica,sans-Serif" font-size="10.00">::Tree::dfs_size</text>
</a>
</g>
</g>
<!-- Node16&#45;&gt;Node18 -->
<g id="edge18" class="edge">
<title>Node16&#45;&gt;Node18</title>
<path fill="none" stroke="midnightblue" d="M444.32,-92.09C453.67,-93.99 463.46,-95.99 473.03,-97.95"/>
<polygon fill="midnightblue" stroke="midnightblue" points="472.41,-101.39 482.9,-99.96 473.81,-94.53 472.41,-101.39"/>
</g>
<!-- Node20 -->
<g id="node20" class="node">
<title>Node20</title>
<g id="a_node20"><a xlink:href="../../d2/d8a/classrange__queries_1_1heavy__light__decomposition_1_1_h_l_d.html#a7d5b40c076347a6aabfb37a0590f2f24" target="_top" xlink:title="Utility function to break down a path query into two chain queries.">
<polygon fill="white" stroke="black" points="334,-528.5 334,-569.5 444,-569.5 444,-528.5 334,-528.5"/>
<text text-anchor="start" x="342" y="-557.5" font-family="Helvetica,sans-Serif" font-size="10.00">range_queries::heavy</text>
<text text-anchor="start" x="342" y="-546.5" font-family="Helvetica,sans-Serif" font-size="10.00">_light_decomposition</text>
<text text-anchor="middle" x="389" y="-535.5" font-family="Helvetica,sans-Serif" font-size="10.00">::HLD::chain_query</text>
</a>
</g>
</g>
<!-- Node19&#45;&gt;Node20 -->
<g id="edge21" class="edge">
<title>Node19&#45;&gt;Node20</title>
<path fill="none" stroke="midnightblue" d="M291.59,-588.35C303.25,-583.59 315.77,-578.48 327.8,-573.57"/>
<polygon fill="midnightblue" stroke="midnightblue" points="329.38,-576.71 337.32,-569.69 326.74,-570.23 329.38,-576.71"/>
</g>
<!-- Node21 -->
<g id="node21" class="node">
<title>Node21</title>
<g id="a_node21"><a xlink:href="../../d1/d51/classrange__queries_1_1heavy__light__decomposition_1_1_tree.html#ae2b407e64aaf9878fbee7ee6efe9c7d4" target="_top" xlink:title="The function returns the least common ancestor of two nodes.">
<polygon fill="white" stroke="black" points="334,-588.5 334,-629.5 444,-629.5 444,-588.5 334,-588.5"/>
<text text-anchor="start" x="342" y="-617.5" font-family="Helvetica,sans-Serif" font-size="10.00">range_queries::heavy</text>
<text text-anchor="start" x="342" y="-606.5" font-family="Helvetica,sans-Serif" font-size="10.00">_light_decomposition</text>
<text text-anchor="middle" x="389" y="-595.5" font-family="Helvetica,sans-Serif" font-size="10.00">::Tree::lca</text>
</a>
</g>
</g>
<!-- Node19&#45;&gt;Node21 -->
<g id="edge22" class="edge">
<title>Node19&#45;&gt;Node21</title>
<path fill="none" stroke="midnightblue" d="M295.32,-609C304.57,-609 314.25,-609 323.73,-609"/>
<polygon fill="midnightblue" stroke="midnightblue" points="323.9,-612.5 333.9,-609 323.9,-605.5 323.9,-612.5"/>
</g>
<!-- Node22 -->
<g id="node22" class="node">
<title>Node22</title>
<g id="a_node22"><a xlink:href="../../d1/d51/classrange__queries_1_1heavy__light__decomposition_1_1_tree.html#ac7761255f2ba06b398b9aae5e4dce5f3" target="_top" xlink:title="The function lifts a node, k units up the tree. The lifting is done in place, and the result is store...">
<polygon fill="white" stroke="black" points="483,-588.5 483,-629.5 593,-629.5 593,-588.5 483,-588.5"/>
<text text-anchor="start" x="491" y="-617.5" font-family="Helvetica,sans-Serif" font-size="10.00">range_queries::heavy</text>
<text text-anchor="start" x="491" y="-606.5" font-family="Helvetica,sans-Serif" font-size="10.00">_light_decomposition</text>
<text text-anchor="middle" x="538" y="-595.5" font-family="Helvetica,sans-Serif" font-size="10.00">::Tree::lift</text>
</a>
</g>
</g>
<!-- Node21&#45;&gt;Node22 -->
<g id="edge23" class="edge">
<title>Node21&#45;&gt;Node22</title>
<path fill="none" stroke="midnightblue" d="M444.32,-609C453.57,-609 463.25,-609 472.73,-609"/>
<polygon fill="midnightblue" stroke="midnightblue" points="472.9,-612.5 482.9,-609 472.9,-605.5 472.9,-612.5"/>
</g>
<!-- Node23&#45;&gt;Node24 -->
<g id="edge25" class="edge">
<title>Node23&#45;&gt;Node24</title>
<path fill="none" stroke="midnightblue" d="M295.32,-384.24C308.36,-386.46 322.26,-388.82 335.22,-391.02"/>
<polygon fill="midnightblue" stroke="midnightblue" points="334.94,-394.53 345.38,-392.75 336.11,-387.63 334.94,-394.53"/>
</g>
<!-- Node26 -->
<g id="node26" class="node">
<title>Node26</title>
<g id="a_node26"><a xlink:href="../../d9/d35/classrange__queries_1_1heavy__light__decomposition_1_1_s_g.html#a3c75bf5770790f8eba8cc92227b5400c" target="_top" xlink:title="Update the value at a node.">
<polygon fill="white" stroke="black" points="334,-452.5 334,-493.5 444,-493.5 444,-452.5 334,-452.5"/>
<text text-anchor="start" x="342" y="-481.5" font-family="Helvetica,sans-Serif" font-size="10.00">range_queries::heavy</text>
<text text-anchor="start" x="342" y="-470.5" font-family="Helvetica,sans-Serif" font-size="10.00">_light_decomposition</text>
<text text-anchor="middle" x="389" y="-459.5" font-family="Helvetica,sans-Serif" font-size="10.00">::SG::update</text>
</a>
</g>
</g>
<!-- Node25&#45;&gt;Node26 -->
<g id="edge28" class="edge">
<title>Node25&#45;&gt;Node26</title>
<path fill="none" stroke="midnightblue" d="M295.32,-473C304.57,-473 314.25,-473 323.73,-473"/>
<polygon fill="midnightblue" stroke="midnightblue" points="323.9,-476.5 333.9,-473 323.9,-469.5 323.9,-476.5"/>
</g>
<!-- Node27&#45;&gt;Node9 -->
<g id="edge30" class="edge">
<title>Node27&#45;&gt;Node9</title>
<path fill="none" stroke="midnightblue" d="M131.01,-322.2C144.45,-316.58 162.59,-308.99 180.17,-301.63"/>
<polygon fill="midnightblue" stroke="midnightblue" points="181.97,-304.67 189.84,-297.58 179.27,-298.21 181.97,-304.67"/>
</g>
<!-- Node27&#45;&gt;Node10 -->
<g id="edge32" class="edge">
<title>Node27&#45;&gt;Node10</title>
<path fill="none" stroke="midnightblue" d="M112.68,-321.4C119.83,-297.89 141.81,-237.61 185,-214 227.9,-190.55 253.75,-187.75 295,-214 326.87,-234.28 304.35,-264.22 331,-291 336.03,-296.06 342.2,-300.29 348.59,-303.79"/>
<polygon fill="midnightblue" stroke="midnightblue" points="347.5,-307.15 358.02,-308.41 350.58,-300.87 347.5,-307.15"/>
</g>
<!-- Node27&#45;&gt;Node11 -->
<g id="edge31" class="edge">
<title>Node27&#45;&gt;Node11</title>
<path fill="none" stroke="midnightblue" d="M112.69,-321.24C120.29,-295.1 144.05,-222.39 185,-176 187.47,-173.2 190.22,-170.53 193.14,-168.01"/>
<polygon fill="midnightblue" stroke="midnightblue" points="195.46,-170.63 201.14,-161.69 191.13,-165.14 195.46,-170.63"/>
</g>
<!-- Node27&#45;&gt;Node19 -->
<g id="edge33" class="edge">
<title>Node27&#45;&gt;Node19</title>
<path fill="none" stroke="midnightblue" d="M119.63,-340.7C128.42,-350.04 141.19,-364.94 149,-380 175.23,-430.56 163.98,-450.06 185,-503 195.57,-529.63 210.55,-558.54 222.05,-579.42"/>
<polygon fill="midnightblue" stroke="midnightblue" points="219.13,-581.38 227.06,-588.42 225.25,-577.98 219.13,-581.38"/>
</g>
<!-- Node27&#45;&gt;Node23 -->
<g id="edge34" class="edge">
<title>Node27&#45;&gt;Node23</title>
<path fill="none" stroke="midnightblue" d="M131.01,-338.17C143.13,-342.3 159.09,-347.74 175,-353.17"/>
<polygon fill="midnightblue" stroke="midnightblue" points="174.28,-356.62 184.87,-356.54 176.54,-350 174.28,-356.62"/>
</g>
<!-- Node27&#45;&gt;Node24 -->
<g id="edge35" class="edge">
<title>Node27&#45;&gt;Node24</title>
<path fill="none" stroke="midnightblue" d="M114.98,-321.33C125.16,-302.75 150.38,-262.5 185,-247 229.62,-227.02 254.52,-219.59 295,-247 330.67,-271.15 308.19,-300.45 331,-337 341.76,-354.24 357.46,-371.18 369.65,-383.14"/>
<polygon fill="midnightblue" stroke="midnightblue" points="367.43,-385.86 377.08,-390.24 372.27,-380.8 367.43,-385.86"/>
</g>
<!-- Node27&#45;&gt;Node25 -->
<g id="edge36" class="edge">
<title>Node27&#45;&gt;Node25</title>
<path fill="none" stroke="midnightblue" d="M118.87,-340.76C138.07,-361.9 184.14,-412.61 213.32,-444.73"/>
<polygon fill="midnightblue" stroke="midnightblue" points="211.03,-447.42 220.35,-452.47 216.21,-442.71 211.03,-447.42"/>
</g>
<!-- Node28&#45;&gt;Node9 -->
<g id="edge38" class="edge">
<title>Node28&#45;&gt;Node9</title>
<path fill="none" stroke="midnightblue" d="M122.35,-445.27C130.62,-438.31 141.36,-428.37 149,-418 170.46,-388.87 165.64,-375.56 185,-345 193.65,-331.34 204.53,-317.19 214.26,-305.36"/>
<polygon fill="midnightblue" stroke="midnightblue" points="217.03,-307.49 220.76,-297.57 211.66,-303 217.03,-307.49"/>
</g>
<!-- Node28&#45;&gt;Node10 -->
<g id="edge40" class="edge">
<title>Node28&#45;&gt;Node10</title>
<path fill="none" stroke="midnightblue" d="M131.11,-464.22C137.05,-467.09 143.4,-470.45 149,-474 166.34,-485.01 165.62,-496.17 185,-503 231.11,-519.26 255.84,-532.27 295,-503 340.28,-469.15 303.34,-430.31 331,-381 340.94,-363.27 356.7,-346.37 369.13,-334.55"/>
<polygon fill="midnightblue" stroke="midnightblue" points="371.74,-336.9 376.72,-327.55 367,-331.76 371.74,-336.9"/>
</g>
<!-- Node28&#45;&gt;Node11 -->
<g id="edge39" class="edge">
<title>Node28&#45;&gt;Node11</title>
<path fill="none" stroke="midnightblue" d="M123.97,-445.24C132.5,-438.54 142.9,-428.92 149,-418 186.89,-350.2 159.15,-320.24 185,-247 194.48,-220.15 209.41,-191.47 221.17,-170.72"/>
<polygon fill="midnightblue" stroke="midnightblue" points="224.37,-172.2 226.32,-161.79 218.3,-168.7 224.37,-172.2"/>
</g>
<!-- Node28&#45;&gt;Node19 -->
<g id="edge41" class="edge">
<title>Node28&#45;&gt;Node19</title>
<path fill="none" stroke="midnightblue" d="M131,-461.68C137.48,-464.6 144.17,-468.62 149,-474 180.55,-509.15 155.64,-536.99 185,-574 187.12,-576.67 189.5,-579.2 192.05,-581.59"/>
<polygon fill="midnightblue" stroke="midnightblue" points="190.19,-584.59 200.11,-588.31 194.67,-579.22 190.19,-584.59"/>
</g>
<!-- Node28&#45;&gt;Node23 -->
<g id="edge42" class="edge">
<title>Node28&#45;&gt;Node23</title>
<path fill="none" stroke="midnightblue" d="M125.56,-445.35C143.17,-434.43 172.58,-416.19 197.04,-401.02"/>
<polygon fill="midnightblue" stroke="midnightblue" points="199.14,-403.84 205.79,-395.59 195.45,-397.89 199.14,-403.84"/>
</g>
<!-- Node28&#45;&gt;Node24 -->
<g id="edge43" class="edge">
<title>Node28&#45;&gt;Node24</title>
<path fill="none" stroke="midnightblue" d="M131.26,-462.59C137.46,-465.5 143.93,-469.28 149,-474 172.34,-495.7 157.39,-520.1 185,-536 227.37,-560.39 254.67,-563.63 295,-536 331.56,-510.95 304.29,-478.37 331,-443 339.29,-432.03 351.1,-422.49 361.82,-415.2"/>
<polygon fill="midnightblue" stroke="midnightblue" points="363.96,-417.99 370.47,-409.63 360.17,-412.1 363.96,-417.99"/>
</g>
<!-- Node28&#45;&gt;Node25 -->
<g id="edge44" class="edge">
<title>Node28&#45;&gt;Node25</title>
<path fill="none" stroke="midnightblue" d="M131.01,-457.93C143.02,-459.61 158.79,-461.81 174.55,-464.01"/>
<polygon fill="midnightblue" stroke="midnightblue" points="174.48,-467.53 184.87,-465.45 175.45,-460.6 174.48,-467.53"/>
</g>
</g>
</svg>
        <g id="navigator" transform="translate(0 0)" fill="#404254">
                <rect fill="#f2f5e9" fill-opacity="0.5" stroke="#606060" stroke-width=".5" x="0" y="0" width="60" height="60"/>
                <use id="zoomplus" xlink:href="#zoomPlus" x="17" y="9" onmousedown="handleZoom(evt,'in')"/>
                <use id="zoomminus" xlink:href="#zoomMin" x="42" y="9" onmousedown="handleZoom(evt,'out')"/>
                <use id="reset" xlink:href="#resetDef" x="30" y="36" onmousedown="handleReset()"/>
                <g id="arrowUp" xlink:href="#dirArrow" transform="translate(30 24)" onmousedown="handlePan(0,-1)">
                  <use xlink:href="#rim" fill="#404040">
                        <set attributeName="fill" to="#808080" begin="arrowUp.mouseover" end="arrowUp.mouseout"/>
                  </use>
                  <path fill="none" stroke="white" stroke-width="1.5" d="M0,-3.0v7 M-2.5,-0.5L0,-3.0L2.5,-0.5"/>
                </g>
                <g id="arrowRight" xlink:href="#dirArrow" transform="rotate(90) translate(36 -43)" onmousedown="handlePan(1,0)">
                  <use xlink:href="#rim" fill="#404040">
                        <set attributeName="fill" to="#808080" begin="arrowRight.mouseover" end="arrowRight.mouseout"/>
                  </use>
                  <path fill="none" stroke="white" stroke-width="1.5" d="M0,-3.0v7 M-2.5,-0.5L0,-3.0L2.5,-0.5"/>
                </g>
                <g id="arrowDown" xlink:href="#dirArrow" transform="rotate(180) translate(-30 -48)" onmousedown="handlePan(0,1)">
                  <use xlink:href="#rim" fill="#404040">
                        <set attributeName="fill" to="#808080" begin="arrowDown.mouseover" end="arrowDown.mouseout"/>
                  </use>
                  <path fill="none" stroke="white" stroke-width="1.5" d="M0,-3.0v7 M-2.5,-0.5L0,-3.0L2.5,-0.5"/>
                </g>
                <g id="arrowLeft" xlink:href="#dirArrow" transform="rotate(270) translate(-36 17)" onmousedown="handlePan(-1,0)">
                  <use xlink:href="#rim" fill="#404040">
                        <set attributeName="fill" to="#808080" begin="arrowLeft.mouseover" end="arrowLeft.mouseout"/>
                  </use>
                  <path fill="none" stroke="white" stroke-width="1.5" d="M0,-3.0v7 M-2.5,-0.5L0,-3.0L2.5,-0.5"/>
                </g>
        </g>
        <svg viewBox="0 0 15 15" width="100%" height="30px" preserveAspectRatio="xMaxYMin meet">
         <g id="arrow_out" transform="scale(0.3 0.3)">
          <a xlink:href="fibonacci__sum_8cpp_aa8dca7b867074164d5f45b0f3851269d_cgraph_org.svg" target="_base">
           <rect id="button" ry="5" rx="5" y="6" x="6" height="38" width="38"
                fill="#f2f5e9" fill-opacity="0.5" stroke="#606060" stroke-width="1.0"/>
           <path id="arrow"
             d="M 11.500037,31.436501 C 11.940474,20.09759 22.043105,11.32322 32.158766,21.979434 L 37.068811,17.246167 C 37.068811,17.246167 37.088388,32 37.088388,32 L 22.160133,31.978069 C 22.160133,31.978069 26.997745,27.140456 26.997745,27.140456 C 18.528582,18.264221 13.291696,25.230495 11.500037,31.436501 z"
             style="fill:#404040;"/>
          </a>
         </g>
        </svg>
</svg>
