<?xml version="1.0" encoding="UTF-8" standalone="no"?>
<!DOCTYPE svg PUBLIC "-//W3C//DTD SVG 1.1//EN"
 "http://www.w3.org/Graphics/SVG/1.1/DTD/svg11.dtd">
<!-- Generated by graphviz version 2.44.1 (20200629.0846)
 -->
<!-- Title: math::fibonacci_sum::fiboSum Pages: 1 -->
<svg width="401pt" height="96pt"
 viewBox="0.00 0.00 401.00 95.50" xmlns="http://www.w3.org/2000/svg" xmlns:xlink="http://www.w3.org/1999/xlink">
<g id="graph0" class="graph" transform="scale(1 1) rotate(0) translate(4 91.5)">
<title>math::fibonacci_sum::fiboSum</title>
<polygon fill="white" stroke="transparent" points="-4,4 -4,-91.5 397,-91.5 397,4 -4,4"/>
<!-- Node1 -->
<g id="node1" class="node">
<title>Node1</title>
<g id="a_node1"><a xlink:title=" ">
<polygon fill="#bfbfbf" stroke="black" points="0,-31.5 0,-61.5 107,-61.5 107,-31.5 0,-31.5"/>
<text text-anchor="start" x="8" y="-49.5" font-family="Helvetica,sans-Serif" font-size="10.00">math::fibonacci_sum</text>
<text text-anchor="middle" x="53.5" y="-38.5" font-family="Helvetica,sans-Serif" font-size="10.00">::fiboSum</text>
</a>
</g>
</g>
<!-- Node1&#45;&gt;Node1 -->
<g id="edge1" class="edge">
<title>Node1&#45;&gt;Node1</title>
<path fill="none" stroke="midnightblue" d="M28.75,-61.66C22.79,-71.06 31.04,-80 53.5,-80 67.19,-80 75.6,-76.68 78.73,-71.96"/>
<polygon fill="midnightblue" stroke="midnightblue" points="82.21,-71.48 78.25,-61.66 75.22,-71.81 82.21,-71.48"/>
</g>
<!-- Node2 -->
<g id="node2" class="node">
<title>Node2</title>
<g id="a_node2"><a xlink:href="../../de/dc3/fibonacci__sum_8cpp.html#aadb40ac4c74a7efc0680b83eeee138aa" target="_top" xlink:title=" ">
<polygon fill="white" stroke="black" points="143,-31.5 143,-61.5 250,-61.5 250,-31.5 143,-31.5"/>
<text text-anchor="start" x="151" y="-49.5" font-family="Helvetica,sans-Serif" font-size="10.00">math::fibonacci_sum</text>
<text text-anchor="middle" x="196.5" y="-38.5" font-family="Helvetica,sans-Serif" font-size="10.00">::result</text>
</a>
</g>
</g>
<!-- Node1&#45;&gt;Node2 -->
<g id="edge2" class="edge">
<title>Node1&#45;&gt;Node2</title>
<path fill="none" stroke="midnightblue" d="M107,-46.5C115.44,-46.5 124.26,-46.5 132.9,-46.5"/>
<polygon fill="midnightblue" stroke="midnightblue" points="132.95,-50 142.95,-46.5 132.95,-43 132.95,-50"/>
</g>
<!-- Node2&#45;&gt;Node2 -->
<g id="edge6" class="edge">
<title>Node2&#45;&gt;Node2</title>
<path fill="none" stroke="midnightblue" d="M171.75,-61.66C165.79,-71.06 174.04,-80 196.5,-80 210.19,-80 218.6,-76.68 221.73,-71.96"/>
<polygon fill="midnightblue" stroke="midnightblue" points="225.21,-71.48 221.25,-61.66 218.22,-71.81 225.21,-71.48"/>
</g>
<!-- Node3 -->
<g id="node3" class="node">
<title>Node3</title>
<g id="a_node3"><a xlink:href="../../d7/d35/matrix__exponentiation_8cpp.html#ad8389ed58fd0ec66df248014775ad1fa" target="_top" xlink:title=" ">
<polygon fill="white" stroke="black" points="323.5,-68 323.5,-87 355.5,-87 355.5,-68 323.5,-68"/>
<text text-anchor="middle" x="339.5" y="-75" font-family="Helvetica,sans-Serif" font-size="10.00">ans</text>
</a>
</g>
</g>
<!-- Node2&#45;&gt;Node3 -->
<g id="edge3" class="edge">
<title>Node2&#45;&gt;Node3</title>
<path fill="none" stroke="midnightblue" d="M250,-58.04C271.66,-62.8 295.74,-68.1 313.31,-71.96"/>
<polygon fill="midnightblue" stroke="midnightblue" points="312.81,-75.44 323.33,-74.16 314.32,-68.6 312.81,-75.44"/>
</g>
<!-- Node4 -->
<g id="node4" class="node">
<title>Node4</title>
<g id="a_node4"><a xlink:href="../../de/dc3/fibonacci__sum_8cpp.html#a910fe71558549e27b98b032799c5347a" target="_top" xlink:title=" ">
<polygon fill="white" stroke="black" points="286,-0.5 286,-30.5 393,-30.5 393,-0.5 286,-0.5"/>
<text text-anchor="start" x="294" y="-18.5" font-family="Helvetica,sans-Serif" font-size="10.00">math::fibonacci_sum</text>
<text text-anchor="middle" x="339.5" y="-7.5" font-family="Helvetica,sans-Serif" font-size="10.00">::power</text>
</a>
</g>
</g>
<!-- Node2&#45;&gt;Node4 -->
<g id="edge4" class="edge">
<title>Node2&#45;&gt;Node4</title>
<path fill="none" stroke="midnightblue" d="M250,-34.96C258.44,-33.1 267.26,-31.16 275.9,-29.26"/>
<polygon fill="midnightblue" stroke="midnightblue" points="276.94,-32.62 285.95,-27.05 275.43,-25.78 276.94,-32.62"/>
</g>
<!-- Node4&#45;&gt;Node4 -->
<g id="edge5" class="edge">
<title>Node4&#45;&gt;Node4</title>
<path fill="none" stroke="midnightblue" d="M314.75,-30.66C308.79,-40.06 317.04,-49 339.5,-49 353.19,-49 361.6,-45.68 364.73,-40.96"/>
<polygon fill="midnightblue" stroke="midnightblue" points="368.21,-40.48 364.25,-30.66 361.22,-40.81 368.21,-40.48"/>
</g>
</g>
</svg>
