<?xml version="1.0" encoding="UTF-8" standalone="no"?>
<!DOCTYPE svg PUBLIC "-//W3C//DTD SVG 1.1//EN"
 "http://www.w3.org/Graphics/SVG/1.1/DTD/svg11.dtd">
<!-- Generated by graphviz version 2.44.1 (20200629.0846)
 -->
<!-- Title: main Pages: 1 -->
<svg width="675pt" height="752pt"
 viewBox="0.00 0.00 675.00 752.00" xmlns="http://www.w3.org/2000/svg" xmlns:xlink="http://www.w3.org/1999/xlink">
<g id="graph0" class="graph" transform="scale(1 1) rotate(0) translate(4 748)">
<title>main</title>
<polygon fill="white" stroke="transparent" points="-4,4 -4,-748 671,-748 671,4 -4,4"/>
<!-- Node1 -->
<g id="node1" class="node">
<title>Node1</title>
<g id="a_node1"><a xlink:title="Main function.">
<polygon fill="#bfbfbf" stroke="black" points="0,-445.5 0,-464.5 38,-464.5 38,-445.5 0,-445.5"/>
<text text-anchor="middle" x="19" y="-452.5" font-family="Helvetica,sans-Serif" font-size="10.00">main</text>
</a>
</g>
</g>
<!-- Node2 -->
<g id="node2" class="node">
<title>Node2</title>
<g id="a_node2"><a xlink:href="../../de/dc3/fibonacci__sum_8cpp.html#aa8dca7b867074164d5f45b0f3851269d" target="_top" xlink:title=" ">
<polygon fill="white" stroke="black" points="74,-445.5 74,-464.5 107,-464.5 107,-445.5 74,-445.5"/>
<text text-anchor="middle" x="90.5" y="-452.5" font-family="Helvetica,sans-Serif" font-size="10.00">test</text>
</a>
</g>
</g>
<!-- Node1&#45;&gt;Node2 -->
<g id="edge1" class="edge">
<title>Node1&#45;&gt;Node2</title>
<path fill="none" stroke="midnightblue" d="M38.26,-455C46.07,-455 55.31,-455 63.79,-455"/>
<polygon fill="midnightblue" stroke="midnightblue" points="63.95,-458.5 73.95,-455 63.95,-451.5 63.95,-458.5"/>
</g>
<!-- Node3 -->
<g id="node3" class="node">
<title>Node3</title>
<g id="a_node3"><a target="_blank" xlink:href="http://en.cppreference.com/w/cpp/io/manip/endl.html#" target="_top" xlink:title=" ">
<polygon fill="white" stroke="black" points="156,-521.5 156,-540.5 210,-540.5 210,-521.5 156,-521.5"/>
<text text-anchor="middle" x="183" y="-528.5" font-family="Helvetica,sans-Serif" font-size="10.00">std::endl</text>
</a>
</g>
</g>
<!-- Node2&#45;&gt;Node3 -->
<g id="edge2" class="edge">
<title>Node2&#45;&gt;Node3</title>
<path fill="none" stroke="midnightblue" d="M98.26,-464.51C107.33,-476.73 124.45,-498.05 143,-512 145.05,-513.54 147.25,-515.01 149.52,-516.4"/>
<polygon fill="midnightblue" stroke="midnightblue" points="148.02,-519.57 158.47,-521.34 151.4,-513.44 148.02,-519.57"/>
</g>
<!-- Node4 -->
<g id="node4" class="node">
<title>Node4</title>
<g id="a_node4"><a xlink:href="../../dd/d47/namespacemath.html#a54edfd0b9daac1602b16e4c7e251ae2d" target="_top" xlink:title=" ">
<polygon fill="white" stroke="black" points="143,-483.5 143,-502.5 223,-502.5 223,-483.5 143,-483.5"/>
<text text-anchor="middle" x="183" y="-490.5" font-family="Helvetica,sans-Serif" font-size="10.00">math::fiboSum</text>
</a>
</g>
</g>
<!-- Node2&#45;&gt;Node4 -->
<g id="edge3" class="edge">
<title>Node2&#45;&gt;Node4</title>
<path fill="none" stroke="midnightblue" d="M107.26,-461.62C118.95,-466.53 135.28,-473.38 149.7,-479.44"/>
<polygon fill="midnightblue" stroke="midnightblue" points="148.72,-482.82 159.29,-483.47 151.43,-476.37 148.72,-482.82"/>
</g>
<!-- Node9 -->
<g id="node9" class="node">
<title>Node9</title>
<g id="a_node9"><a xlink:href="../../d2/de9/heavy__light__decomposition_8cpp.html#a34b8683a2b429de5cce57e6d733ec817" target="_top" xlink:title=" ">
<polygon fill="white" stroke="black" points="161,-389.5 161,-408.5 205,-408.5 205,-389.5 161,-389.5"/>
<text text-anchor="middle" x="183" y="-396.5" font-family="Helvetica,sans-Serif" font-size="10.00">test_1</text>
</a>
</g>
</g>
<!-- Node2&#45;&gt;Node9 -->
<g id="edge9" class="edge">
<title>Node2&#45;&gt;Node9</title>
<path fill="none" stroke="midnightblue" d="M107.26,-445.25C121.15,-436.65 141.6,-424 157.59,-414.1"/>
<polygon fill="midnightblue" stroke="midnightblue" points="159.75,-416.88 166.42,-408.64 156.07,-410.93 159.75,-416.88"/>
</g>
<!-- Node28 -->
<g id="node28" class="node">
<title>Node28</title>
<g id="a_node28"><a xlink:href="../../d2/de9/heavy__light__decomposition_8cpp.html#a458410412185a5f09199deaff7157a8d" target="_top" xlink:title=" ">
<polygon fill="white" stroke="black" points="161,-321.5 161,-340.5 205,-340.5 205,-321.5 161,-321.5"/>
<text text-anchor="middle" x="183" y="-328.5" font-family="Helvetica,sans-Serif" font-size="10.00">test_2</text>
</a>
</g>
</g>
<!-- Node2&#45;&gt;Node28 -->
<g id="edge30" class="edge">
<title>Node2&#45;&gt;Node28</title>
<path fill="none" stroke="midnightblue" d="M97.95,-445.14C107.5,-430.65 126.09,-402.86 143,-380 150.84,-369.4 160,-357.85 167.48,-348.63"/>
<polygon fill="midnightblue" stroke="midnightblue" points="170.41,-350.56 174.03,-340.6 164.99,-346.14 170.41,-350.56"/>
</g>
<!-- Node29 -->
<g id="node29" class="node">
<title>Node29</title>
<g id="a_node29"><a xlink:href="../../d2/de9/heavy__light__decomposition_8cpp.html#af31ec5409537703d9c8a47350386b32a" target="_top" xlink:title=" ">
<polygon fill="white" stroke="black" points="161,-445.5 161,-464.5 205,-464.5 205,-445.5 161,-445.5"/>
<text text-anchor="middle" x="183" y="-452.5" font-family="Helvetica,sans-Serif" font-size="10.00">test_3</text>
</a>
</g>
</g>
<!-- Node2&#45;&gt;Node29 -->
<g id="edge38" class="edge">
<title>Node2&#45;&gt;Node29</title>
<path fill="none" stroke="midnightblue" d="M107.26,-455C119.24,-455 136.11,-455 150.79,-455"/>
<polygon fill="midnightblue" stroke="midnightblue" points="150.99,-458.5 160.99,-455 150.99,-451.5 150.99,-458.5"/>
</g>
<!-- Node5 -->
<g id="node5" class="node">
<title>Node5</title>
<g id="a_node5"><a xlink:href="../../dd/d47/namespacemath.html#a8d79d452a81ed27ba095d2ecb32dc4b4" target="_top" xlink:title=" ">
<polygon fill="white" stroke="black" points="280,-667.5 280,-686.5 348,-686.5 348,-667.5 280,-667.5"/>
<text text-anchor="middle" x="314" y="-674.5" font-family="Helvetica,sans-Serif" font-size="10.00">math::result</text>
</a>
</g>
</g>
<!-- Node4&#45;&gt;Node5 -->
<g id="edge4" class="edge">
<title>Node4&#45;&gt;Node5</title>
<path fill="none" stroke="midnightblue" d="M211.29,-502.56C215.67,-505.08 219.81,-508.19 223,-512 260.65,-556.99 225.06,-591.15 259,-639 265.58,-648.28 275.18,-656.08 284.47,-662.15"/>
<polygon fill="midnightblue" stroke="midnightblue" points="282.8,-665.23 293.16,-667.43 286.43,-659.25 282.8,-665.23"/>
</g>
<!-- Node6 -->
<g id="node6" class="node">
<title>Node6</title>
<g id="a_node6"><a xlink:href="../../d7/d35/matrix__exponentiation_8cpp.html#ad8389ed58fd0ec66df248014775ad1fa" target="_top" xlink:title=" ">
<polygon fill="white" stroke="black" points="447,-686.5 447,-705.5 479,-705.5 479,-686.5 447,-686.5"/>
<text text-anchor="middle" x="463" y="-693.5" font-family="Helvetica,sans-Serif" font-size="10.00">ans</text>
</a>
</g>
</g>
<!-- Node5&#45;&gt;Node6 -->
<g id="edge5" class="edge">
<title>Node5&#45;&gt;Node6</title>
<path fill="none" stroke="midnightblue" d="M348.36,-681.31C375.22,-684.78 412.39,-689.59 436.81,-692.74"/>
<polygon fill="midnightblue" stroke="midnightblue" points="436.37,-696.22 446.73,-694.03 437.26,-689.27 436.37,-696.22"/>
</g>
<!-- Node7 -->
<g id="node7" class="node">
<title>Node7</title>
<g id="a_node7"><a xlink:href="../../dd/d47/namespacemath.html#a4a55bb9ec6c59485d3fdb18bd88ca5b6" target="_top" xlink:title=" ">
<polygon fill="white" stroke="black" points="427.5,-724.5 427.5,-743.5 498.5,-743.5 498.5,-724.5 427.5,-724.5"/>
<text text-anchor="middle" x="463" y="-731.5" font-family="Helvetica,sans-Serif" font-size="10.00">math::power</text>
</a>
</g>
</g>
<!-- Node5&#45;&gt;Node7 -->
<g id="edge6" class="edge">
<title>Node5&#45;&gt;Node7</title>
<path fill="none" stroke="midnightblue" d="M336.27,-686.53C354.39,-694.52 381.2,-706.02 405,-715 410.56,-717.1 416.48,-719.2 422.31,-721.21"/>
<polygon fill="midnightblue" stroke="midnightblue" points="421.37,-724.59 431.97,-724.47 423.61,-717.96 421.37,-724.59"/>
</g>
<!-- Node8 -->
<g id="node8" class="node">
<title>Node8</title>
<g id="a_node8"><a xlink:href="../../dd/d47/namespacemath.html#ab65d9997885347702dc0c3ec09d5dc21" target="_top" xlink:title=" ">
<polygon fill="white" stroke="black" points="573,-686.5 573,-705.5 651,-705.5 651,-686.5 573,-686.5"/>
<text text-anchor="middle" x="612" y="-693.5" font-family="Helvetica,sans-Serif" font-size="10.00">math::multiply</text>
</a>
</g>
</g>
<!-- Node7&#45;&gt;Node8 -->
<g id="edge7" class="edge">
<title>Node7&#45;&gt;Node8</title>
<path fill="none" stroke="midnightblue" d="M498.84,-724.99C518.41,-719.94 543.09,-713.56 564.31,-708.07"/>
<polygon fill="midnightblue" stroke="midnightblue" points="565.3,-711.43 574.1,-705.54 563.55,-704.65 565.3,-711.43"/>
</g>
<!-- Node8&#45;&gt;Node5 -->
<g id="edge8" class="edge">
<title>Node8&#45;&gt;Node5</title>
<path fill="none" stroke="midnightblue" d="M574.49,-686.49C558.24,-682.73 538.79,-678.86 521,-677 465.09,-671.16 400.18,-672.49 358.4,-674.39"/>
<polygon fill="midnightblue" stroke="midnightblue" points="358.11,-670.9 348.29,-674.88 358.45,-677.89 358.11,-670.9"/>
</g>
<!-- Node10 -->
<g id="node10" class="node">
<title>Node10</title>
<g id="a_node10"><a xlink:href="../../d1/d51/classrange__queries_1_1heavy__light__decomposition_1_1_tree.html#a79ab4601c4a95c0902ac04e779e5f54d" target="_top" xlink:title="Adds an undirected edge from node u to node v in the tree.">
<polygon fill="white" stroke="black" points="259,-256.5 259,-297.5 369,-297.5 369,-256.5 259,-256.5"/>
<text text-anchor="start" x="267" y="-285.5" font-family="Helvetica,sans-Serif" font-size="10.00">range_queries::heavy</text>
<text text-anchor="start" x="267" y="-274.5" font-family="Helvetica,sans-Serif" font-size="10.00">_light_decomposition</text>
<text text-anchor="middle" x="314" y="-263.5" font-family="Helvetica,sans-Serif" font-size="10.00">::Tree::add_edge</text>
</a>
</g>
</g>
<!-- Node9&#45;&gt;Node10 -->
<g id="edge10" class="edge">
<title>Node9&#45;&gt;Node10</title>
<path fill="none" stroke="midnightblue" d="M191.76,-389.32C207.76,-369.47 244.2,-324.91 259,-312 262.36,-309.07 265.98,-306.2 269.71,-303.45"/>
<polygon fill="midnightblue" stroke="midnightblue" points="271.8,-306.26 277.95,-297.63 267.77,-300.54 271.8,-306.26"/>
</g>
<!-- Node11 -->
<g id="node11" class="node">
<title>Node11</title>
<g id="a_node11"><a target="_blank" xlink:href="http://en.cppreference.com/w/cpp/container/vector/push_back.html#" target="_top" xlink:title=" ">
<polygon fill="white" stroke="black" points="405,-308.5 405,-327.5 521,-327.5 521,-308.5 405,-308.5"/>
<text text-anchor="middle" x="463" y="-315.5" font-family="Helvetica,sans-Serif" font-size="10.00">std::vector::push_back</text>
</a>
</g>
</g>
<!-- Node9&#45;&gt;Node11 -->
<g id="edge20" class="edge">
<title>Node9&#45;&gt;Node11</title>
<path fill="none" stroke="midnightblue" d="M194.17,-389.1C207.73,-376.55 233.05,-355.31 259,-345 302.25,-327.82 354.35,-321.15 394.94,-318.73"/>
<polygon fill="midnightblue" stroke="midnightblue" points="395.2,-322.22 405,-318.21 394.83,-315.23 395.2,-322.22"/>
</g>
<!-- Node12 -->
<g id="node12" class="node">
<title>Node12</title>
<g id="a_node12"><a xlink:href="../../d2/d8a/classrange__queries_1_1heavy__light__decomposition_1_1_h_l_d.html#ae9e979edd69678b85665c01e2ee97828" target="_top" xlink:title="This function must be called after the tree adjacency list and node values are populated The function...">
<polygon fill="white" stroke="black" points="259,-120.5 259,-161.5 369,-161.5 369,-120.5 259,-120.5"/>
<text text-anchor="start" x="267" y="-149.5" font-family="Helvetica,sans-Serif" font-size="10.00">range_queries::heavy</text>
<text text-anchor="start" x="267" y="-138.5" font-family="Helvetica,sans-Serif" font-size="10.00">_light_decomposition</text>
<text text-anchor="middle" x="314" y="-127.5" font-family="Helvetica,sans-Serif" font-size="10.00">::HLD::init</text>
</a>
</g>
</g>
<!-- Node9&#45;&gt;Node12 -->
<g id="edge12" class="edge">
<title>Node9&#45;&gt;Node12</title>
<path fill="none" stroke="midnightblue" d="M193.45,-389.21C202.12,-379.8 214.81,-364.85 223,-350 246.43,-307.54 239.95,-291.6 259,-247 270.26,-220.65 285.17,-191.72 296.48,-170.75"/>
<polygon fill="midnightblue" stroke="midnightblue" points="299.69,-172.18 301.39,-161.72 293.54,-168.83 299.69,-172.18"/>
</g>
<!-- Node20 -->
<g id="node20" class="node">
<title>Node20</title>
<g id="a_node20"><a xlink:href="../../d2/d8a/classrange__queries_1_1heavy__light__decomposition_1_1_h_l_d.html#a4dfbf5d9df825eeb63b294c6849bdcab" target="_top" xlink:title="This function returns the sum of node values in the simple path from from node_1 to node_2.">
<polygon fill="white" stroke="black" points="259,-588.5 259,-629.5 369,-629.5 369,-588.5 259,-588.5"/>
<text text-anchor="start" x="267" y="-617.5" font-family="Helvetica,sans-Serif" font-size="10.00">range_queries::heavy</text>
<text text-anchor="start" x="267" y="-606.5" font-family="Helvetica,sans-Serif" font-size="10.00">_light_decomposition</text>
<text text-anchor="middle" x="314" y="-595.5" font-family="Helvetica,sans-Serif" font-size="10.00">::HLD::query</text>
</a>
</g>
</g>
<!-- Node9&#45;&gt;Node20 -->
<g id="edge21" class="edge">
<title>Node9&#45;&gt;Node20</title>
<path fill="none" stroke="midnightblue" d="M196.28,-408.78C204.52,-415.77 215.25,-425.71 223,-436 227.76,-442.32 273.61,-531.75 297.96,-579.47"/>
<polygon fill="midnightblue" stroke="midnightblue" points="294.86,-581.11 302.53,-588.42 301.1,-577.93 294.86,-581.11"/>
</g>
<!-- Node24 -->
<g id="node24" class="node">
<title>Node24</title>
<g id="a_node24"><a xlink:href="../../d1/d51/classrange__queries_1_1heavy__light__decomposition_1_1_tree.html#a04cd96efaba147b19d3afc769b90ff70" target="_top" xlink:title="Set the values for all the nodes.">
<polygon fill="white" stroke="black" points="259,-354.5 259,-395.5 369,-395.5 369,-354.5 259,-354.5"/>
<text text-anchor="start" x="267" y="-383.5" font-family="Helvetica,sans-Serif" font-size="10.00">range_queries::heavy</text>
<text text-anchor="start" x="267" y="-372.5" font-family="Helvetica,sans-Serif" font-size="10.00">_light_decomposition</text>
<text text-anchor="middle" x="314" y="-361.5" font-family="Helvetica,sans-Serif" font-size="10.00">::Tree::set_node_val</text>
</a>
</g>
</g>
<!-- Node9&#45;&gt;Node24 -->
<g id="edge25" class="edge">
<title>Node9&#45;&gt;Node24</title>
<path fill="none" stroke="midnightblue" d="M205.01,-395.09C217.13,-392.84 233.09,-389.87 249,-386.91"/>
<polygon fill="midnightblue" stroke="midnightblue" points="249.68,-390.34 258.87,-385.07 248.4,-383.46 249.68,-390.34"/>
</g>
<!-- Node25 -->
<g id="node25" class="node">
<title>Node25</title>
<g id="a_node25"><a target="_blank" xlink:href="http://en.cppreference.com/w/cpp/container/vector/size.html#" target="_top" xlink:title=" ">
<polygon fill="white" stroke="black" points="419.5,-390.5 419.5,-409.5 506.5,-409.5 506.5,-390.5 419.5,-390.5"/>
<text text-anchor="middle" x="463" y="-397.5" font-family="Helvetica,sans-Serif" font-size="10.00">std::vector::size</text>
</a>
</g>
</g>
<!-- Node9&#45;&gt;Node25 -->
<g id="edge27" class="edge">
<title>Node9&#45;&gt;Node25</title>
<path fill="none" stroke="midnightblue" d="M205.31,-401.16C220.31,-402.57 240.86,-404.28 259,-405 307.85,-406.95 320.13,-406.31 369,-405 382.01,-404.65 396.03,-404.03 409.14,-403.34"/>
<polygon fill="midnightblue" stroke="midnightblue" points="409.63,-406.81 419.43,-402.77 409.25,-399.82 409.63,-406.81"/>
</g>
<!-- Node26 -->
<g id="node26" class="node">
<title>Node26</title>
<g id="a_node26"><a xlink:href="../../d2/d8a/classrange__queries_1_1heavy__light__decomposition_1_1_h_l_d.html#a9f1cb54ed09fde931bf3220d75ee4c57" target="_top" xlink:title="This function updates the value at node with val.">
<polygon fill="white" stroke="black" points="259,-452.5 259,-493.5 369,-493.5 369,-452.5 259,-452.5"/>
<text text-anchor="start" x="267" y="-481.5" font-family="Helvetica,sans-Serif" font-size="10.00">range_queries::heavy</text>
<text text-anchor="start" x="267" y="-470.5" font-family="Helvetica,sans-Serif" font-size="10.00">_light_decomposition</text>
<text text-anchor="middle" x="314" y="-459.5" font-family="Helvetica,sans-Serif" font-size="10.00">::HLD::update</text>
</a>
</g>
</g>
<!-- Node9&#45;&gt;Node26 -->
<g id="edge28" class="edge">
<title>Node9&#45;&gt;Node26</title>
<path fill="none" stroke="midnightblue" d="M200.6,-408.52C217.68,-418.32 245.01,-434 268.45,-447.45"/>
<polygon fill="midnightblue" stroke="midnightblue" points="266.8,-450.53 277.22,-452.47 270.28,-444.46 266.8,-450.53"/>
</g>
<!-- Node10&#45;&gt;Node11 -->
<g id="edge11" class="edge">
<title>Node10&#45;&gt;Node11</title>
<path fill="none" stroke="midnightblue" d="M369.32,-292.15C385.29,-296.6 402.55,-301.42 417.81,-305.67"/>
<polygon fill="midnightblue" stroke="midnightblue" points="416.93,-309.06 427.5,-308.38 418.81,-302.32 416.93,-309.06"/>
</g>
<!-- Node13 -->
<g id="node13" class="node">
<title>Node13</title>
<g id="a_node13"><a xlink:href="../../d9/d35/classrange__queries_1_1heavy__light__decomposition_1_1_s_g.html#a41c733f5f5e262b308f7cb95c88c1e74" target="_top" xlink:title="Function that specifies the type of operation involved when segments are combined.">
<polygon fill="white" stroke="black" points="408,-0.5 408,-41.5 518,-41.5 518,-0.5 408,-0.5"/>
<text text-anchor="start" x="416" y="-29.5" font-family="Helvetica,sans-Serif" font-size="10.00">range_queries::heavy</text>
<text text-anchor="start" x="416" y="-18.5" font-family="Helvetica,sans-Serif" font-size="10.00">_light_decomposition</text>
<text text-anchor="middle" x="463" y="-7.5" font-family="Helvetica,sans-Serif" font-size="10.00">::SG::combine</text>
</a>
</g>
</g>
<!-- Node12&#45;&gt;Node13 -->
<g id="edge13" class="edge">
<title>Node12&#45;&gt;Node13</title>
<path fill="none" stroke="midnightblue" d="M332.44,-120.26C349.55,-100.77 377.07,-71.58 405,-51 406.83,-49.65 408.73,-48.33 410.67,-47.04"/>
<polygon fill="midnightblue" stroke="midnightblue" points="412.79,-49.84 419.42,-41.57 409.08,-43.9 412.79,-49.84"/>
</g>
<!-- Node14 -->
<g id="node14" class="node">
<title>Node14</title>
<g id="a_node14"><a xlink:href="../../d2/d8a/classrange__queries_1_1heavy__light__decomposition_1_1_h_l_d.html#af64848d6630c39d0f09ce2359cc7c4f8" target="_top" xlink:title="Utility function to assign heavy child to each node (&#45;1 for a leaf node)">
<polygon fill="white" stroke="black" points="408,-240.5 408,-281.5 518,-281.5 518,-240.5 408,-240.5"/>
<text text-anchor="start" x="416" y="-269.5" font-family="Helvetica,sans-Serif" font-size="10.00">range_queries::heavy</text>
<text text-anchor="start" x="416" y="-258.5" font-family="Helvetica,sans-Serif" font-size="10.00">_light_decomposition</text>
<text text-anchor="middle" x="463" y="-247.5" font-family="Helvetica,sans-Serif" font-size="10.00">::HLD::dfs_hc</text>
</a>
</g>
</g>
<!-- Node12&#45;&gt;Node14 -->
<g id="edge14" class="edge">
<title>Node12&#45;&gt;Node14</title>
<path fill="none" stroke="midnightblue" d="M351.45,-161.62C357.65,-165.95 363.77,-170.8 369,-176 389.7,-196.61 383.38,-211.35 405,-231 406.28,-232.16 407.61,-233.3 408.99,-234.4"/>
<polygon fill="midnightblue" stroke="midnightblue" points="407.09,-237.35 417.25,-240.35 411.19,-231.67 407.09,-237.35"/>
</g>
<!-- Node15 -->
<g id="node15" class="node">
<title>Node15</title>
<g id="a_node15"><a xlink:href="../../d2/d8a/classrange__queries_1_1heavy__light__decomposition_1_1_h_l_d.html#a0579062b384e54b611b80c6337c7f2c8" target="_top" xlink:title="Utility function to lable the nodes so that heavy chains have a contigous lable.">
<polygon fill="white" stroke="black" points="408,-180.5 408,-221.5 518,-221.5 518,-180.5 408,-180.5"/>
<text text-anchor="start" x="416" y="-209.5" font-family="Helvetica,sans-Serif" font-size="10.00">range_queries::heavy</text>
<text text-anchor="start" x="416" y="-198.5" font-family="Helvetica,sans-Serif" font-size="10.00">_light_decomposition</text>
<text text-anchor="middle" x="463" y="-187.5" font-family="Helvetica,sans-Serif" font-size="10.00">::HLD::dfs_labels</text>
</a>
</g>
</g>
<!-- Node12&#45;&gt;Node15 -->
<g id="edge15" class="edge">
<title>Node12&#45;&gt;Node15</title>
<path fill="none" stroke="midnightblue" d="M365.59,-161.65C377.25,-166.41 389.77,-171.52 401.8,-176.43"/>
<polygon fill="midnightblue" stroke="midnightblue" points="400.74,-179.77 411.32,-180.31 403.38,-173.29 400.74,-179.77"/>
</g>
<!-- Node16 -->
<g id="node16" class="node">
<title>Node16</title>
<g id="a_node16"><a xlink:href="../../d2/d8a/classrange__queries_1_1heavy__light__decomposition_1_1_h_l_d.html#a2dfbda148aad0bfaba2ebfda9ebc915a" target="_top" xlink:title="Utility function to assign highest parent that can be reached though heavy chains.">
<polygon fill="white" stroke="black" points="408,-120.5 408,-161.5 518,-161.5 518,-120.5 408,-120.5"/>
<text text-anchor="start" x="416" y="-149.5" font-family="Helvetica,sans-Serif" font-size="10.00">range_queries::heavy</text>
<text text-anchor="start" x="416" y="-138.5" font-family="Helvetica,sans-Serif" font-size="10.00">_light_decomposition</text>
<text text-anchor="middle" x="463" y="-127.5" font-family="Helvetica,sans-Serif" font-size="10.00">::HLD::dfs_par</text>
</a>
</g>
</g>
<!-- Node12&#45;&gt;Node16 -->
<g id="edge16" class="edge">
<title>Node12&#45;&gt;Node16</title>
<path fill="none" stroke="midnightblue" d="M369.32,-141C378.57,-141 388.25,-141 397.73,-141"/>
<polygon fill="midnightblue" stroke="midnightblue" points="397.9,-144.5 407.9,-141 397.9,-137.5 397.9,-144.5"/>
</g>
<!-- Node17 -->
<g id="node17" class="node">
<title>Node17</title>
<g id="a_node17"><a xlink:href="../../d1/d51/classrange__queries_1_1heavy__light__decomposition_1_1_tree.html#ad22d760a5a33545a70e7ea5e1786c8dc" target="_top" xlink:title="This function must be called after the tree adjacency list and node values are populated The function...">
<polygon fill="white" stroke="black" points="408,-60.5 408,-101.5 518,-101.5 518,-60.5 408,-60.5"/>
<text text-anchor="start" x="416" y="-89.5" font-family="Helvetica,sans-Serif" font-size="10.00">range_queries::heavy</text>
<text text-anchor="start" x="416" y="-78.5" font-family="Helvetica,sans-Serif" font-size="10.00">_light_decomposition</text>
<text text-anchor="middle" x="463" y="-67.5" font-family="Helvetica,sans-Serif" font-size="10.00">::Tree::init</text>
</a>
</g>
</g>
<!-- Node12&#45;&gt;Node17 -->
<g id="edge17" class="edge">
<title>Node12&#45;&gt;Node17</title>
<path fill="none" stroke="midnightblue" d="M365.59,-120.35C377.25,-115.59 389.77,-110.48 401.8,-105.57"/>
<polygon fill="midnightblue" stroke="midnightblue" points="403.38,-108.71 411.32,-101.69 400.74,-102.23 403.38,-108.71"/>
</g>
<!-- Node18 -->
<g id="node18" class="node">
<title>Node18</title>
<g id="a_node18"><a xlink:href="../../d1/d51/classrange__queries_1_1heavy__light__decomposition_1_1_tree.html#ae8de7aefcb6635d3dacdd174cd4890c4" target="_top" xlink:title="Utility function to populate the t_par vector.">
<polygon fill="white" stroke="black" points="557,-30.5 557,-71.5 667,-71.5 667,-30.5 557,-30.5"/>
<text text-anchor="start" x="565" y="-59.5" font-family="Helvetica,sans-Serif" font-size="10.00">range_queries::heavy</text>
<text text-anchor="start" x="565" y="-48.5" font-family="Helvetica,sans-Serif" font-size="10.00">_light_decomposition</text>
<text text-anchor="middle" x="612" y="-37.5" font-family="Helvetica,sans-Serif" font-size="10.00">::Tree::dfs_lca</text>
</a>
</g>
</g>
<!-- Node17&#45;&gt;Node18 -->
<g id="edge18" class="edge">
<title>Node17&#45;&gt;Node18</title>
<path fill="none" stroke="midnightblue" d="M518.32,-69.91C527.67,-68.01 537.46,-66.01 547.03,-64.05"/>
<polygon fill="midnightblue" stroke="midnightblue" points="547.81,-67.47 556.9,-62.04 546.41,-60.61 547.81,-67.47"/>
</g>
<!-- Node19 -->
<g id="node19" class="node">
<title>Node19</title>
<g id="a_node19"><a xlink:href="../../d1/d51/classrange__queries_1_1heavy__light__decomposition_1_1_tree.html#aa339c31ec74cd86a4842a8b09653d460" target="_top" xlink:title="Utility function to compute sub&#45;tree sizes.">
<polygon fill="white" stroke="black" points="557,-90.5 557,-131.5 667,-131.5 667,-90.5 557,-90.5"/>
<text text-anchor="start" x="565" y="-119.5" font-family="Helvetica,sans-Serif" font-size="10.00">range_queries::heavy</text>
<text text-anchor="start" x="565" y="-108.5" font-family="Helvetica,sans-Serif" font-size="10.00">_light_decomposition</text>
<text text-anchor="middle" x="612" y="-97.5" font-family="Helvetica,sans-Serif" font-size="10.00">::Tree::dfs_size</text>
</a>
</g>
</g>
<!-- Node17&#45;&gt;Node19 -->
<g id="edge19" class="edge">
<title>Node17&#45;&gt;Node19</title>
<path fill="none" stroke="midnightblue" d="M518.32,-92.09C527.67,-93.99 537.46,-95.99 547.03,-97.95"/>
<polygon fill="midnightblue" stroke="midnightblue" points="546.41,-101.39 556.9,-99.96 547.81,-94.53 546.41,-101.39"/>
</g>
<!-- Node21 -->
<g id="node21" class="node">
<title>Node21</title>
<g id="a_node21"><a xlink:href="../../d2/d8a/classrange__queries_1_1heavy__light__decomposition_1_1_h_l_d.html#a7d5b40c076347a6aabfb37a0590f2f24" target="_top" xlink:title="Utility function to break down a path query into two chain queries.">
<polygon fill="white" stroke="black" points="408,-528.5 408,-569.5 518,-569.5 518,-528.5 408,-528.5"/>
<text text-anchor="start" x="416" y="-557.5" font-family="Helvetica,sans-Serif" font-size="10.00">range_queries::heavy</text>
<text text-anchor="start" x="416" y="-546.5" font-family="Helvetica,sans-Serif" font-size="10.00">_light_decomposition</text>
<text text-anchor="middle" x="463" y="-535.5" font-family="Helvetica,sans-Serif" font-size="10.00">::HLD::chain_query</text>
</a>
</g>
</g>
<!-- Node20&#45;&gt;Node21 -->
<g id="edge22" class="edge">
<title>Node20&#45;&gt;Node21</title>
<path fill="none" stroke="midnightblue" d="M365.59,-588.35C377.25,-583.59 389.77,-578.48 401.8,-573.57"/>
<polygon fill="midnightblue" stroke="midnightblue" points="403.38,-576.71 411.32,-569.69 400.74,-570.23 403.38,-576.71"/>
</g>
<!-- Node22 -->
<g id="node22" class="node">
<title>Node22</title>
<g id="a_node22"><a xlink:href="../../d1/d51/classrange__queries_1_1heavy__light__decomposition_1_1_tree.html#ae2b407e64aaf9878fbee7ee6efe9c7d4" target="_top" xlink:title="The function returns the least common ancestor of two nodes.">
<polygon fill="white" stroke="black" points="408,-588.5 408,-629.5 518,-629.5 518,-588.5 408,-588.5"/>
<text text-anchor="start" x="416" y="-617.5" font-family="Helvetica,sans-Serif" font-size="10.00">range_queries::heavy</text>
<text text-anchor="start" x="416" y="-606.5" font-family="Helvetica,sans-Serif" font-size="10.00">_light_decomposition</text>
<text text-anchor="middle" x="463" y="-595.5" font-family="Helvetica,sans-Serif" font-size="10.00">::Tree::lca</text>
</a>
</g>
</g>
<!-- Node20&#45;&gt;Node22 -->
<g id="edge23" class="edge">
<title>Node20&#45;&gt;Node22</title>
<path fill="none" stroke="midnightblue" d="M369.32,-609C378.57,-609 388.25,-609 397.73,-609"/>
<polygon fill="midnightblue" stroke="midnightblue" points="397.9,-612.5 407.9,-609 397.9,-605.5 397.9,-612.5"/>
</g>
<!-- Node23 -->
<g id="node23" class="node">
<title>Node23</title>
<g id="a_node23"><a xlink:href="../../d1/d51/classrange__queries_1_1heavy__light__decomposition_1_1_tree.html#ac7761255f2ba06b398b9aae5e4dce5f3" target="_top" xlink:title="The function lifts a node, k units up the tree. The lifting is done in place, and the result is store...">
<polygon fill="white" stroke="black" points="557,-588.5 557,-629.5 667,-629.5 667,-588.5 557,-588.5"/>
<text text-anchor="start" x="565" y="-617.5" font-family="Helvetica,sans-Serif" font-size="10.00">range_queries::heavy</text>
<text text-anchor="start" x="565" y="-606.5" font-family="Helvetica,sans-Serif" font-size="10.00">_light_decomposition</text>
<text text-anchor="middle" x="612" y="-595.5" font-family="Helvetica,sans-Serif" font-size="10.00">::Tree::lift</text>
</a>
</g>
</g>
<!-- Node22&#45;&gt;Node23 -->
<g id="edge24" class="edge">
<title>Node22&#45;&gt;Node23</title>
<path fill="none" stroke="midnightblue" d="M518.32,-609C527.57,-609 537.25,-609 546.73,-609"/>
<polygon fill="midnightblue" stroke="midnightblue" points="546.9,-612.5 556.9,-609 546.9,-605.5 546.9,-612.5"/>
</g>
<!-- Node24&#45;&gt;Node25 -->
<g id="edge26" class="edge">
<title>Node24&#45;&gt;Node25</title>
<path fill="none" stroke="midnightblue" d="M369.32,-384.24C382.36,-386.46 396.26,-388.82 409.22,-391.02"/>
<polygon fill="midnightblue" stroke="midnightblue" points="408.94,-394.53 419.38,-392.75 410.11,-387.63 408.94,-394.53"/>
</g>
<!-- Node27 -->
<g id="node27" class="node">
<title>Node27</title>
<g id="a_node27"><a xlink:href="../../d9/d35/classrange__queries_1_1heavy__light__decomposition_1_1_s_g.html#a3c75bf5770790f8eba8cc92227b5400c" target="_top" xlink:title="Update the value at a node.">
<polygon fill="white" stroke="black" points="408,-452.5 408,-493.5 518,-493.5 518,-452.5 408,-452.5"/>
<text text-anchor="start" x="416" y="-481.5" font-family="Helvetica,sans-Serif" font-size="10.00">range_queries::heavy</text>
<text text-anchor="start" x="416" y="-470.5" font-family="Helvetica,sans-Serif" font-size="10.00">_light_decomposition</text>
<text text-anchor="middle" x="463" y="-459.5" font-family="Helvetica,sans-Serif" font-size="10.00">::SG::update</text>
</a>
</g>
</g>
<!-- Node26&#45;&gt;Node27 -->
<g id="edge29" class="edge">
<title>Node26&#45;&gt;Node27</title>
<path fill="none" stroke="midnightblue" d="M369.32,-473C378.57,-473 388.25,-473 397.73,-473"/>
<polygon fill="midnightblue" stroke="midnightblue" points="397.9,-476.5 407.9,-473 397.9,-469.5 397.9,-476.5"/>
</g>
<!-- Node28&#45;&gt;Node10 -->
<g id="edge31" class="edge">
<title>Node28&#45;&gt;Node10</title>
<path fill="none" stroke="midnightblue" d="M205.01,-322.2C218.45,-316.58 236.59,-308.99 254.17,-301.63"/>
<polygon fill="midnightblue" stroke="midnightblue" points="255.97,-304.67 263.84,-297.58 253.27,-298.21 255.97,-304.67"/>
</g>
<!-- Node28&#45;&gt;Node11 -->
<g id="edge33" class="edge">
<title>Node28&#45;&gt;Node11</title>
<path fill="none" stroke="midnightblue" d="M186.68,-321.4C193.83,-297.89 215.81,-237.61 259,-214 301.9,-190.55 327.75,-187.75 369,-214 400.87,-234.28 378.35,-264.22 405,-291 410.03,-296.06 416.2,-300.29 422.59,-303.79"/>
<polygon fill="midnightblue" stroke="midnightblue" points="421.5,-307.15 432.02,-308.41 424.58,-300.87 421.5,-307.15"/>
</g>
<!-- Node28&#45;&gt;Node12 -->
<g id="edge32" class="edge">
<title>Node28&#45;&gt;Node12</title>
<path fill="none" stroke="midnightblue" d="M186.69,-321.24C194.29,-295.1 218.05,-222.39 259,-176 261.47,-173.2 264.22,-170.53 267.14,-168.01"/>
<polygon fill="midnightblue" stroke="midnightblue" points="269.46,-170.63 275.14,-161.69 265.13,-165.14 269.46,-170.63"/>
</g>
<!-- Node28&#45;&gt;Node20 -->
<g id="edge34" class="edge">
<title>Node28&#45;&gt;Node20</title>
<path fill="none" stroke="midnightblue" d="M193.63,-340.7C202.42,-350.04 215.19,-364.94 223,-380 249.23,-430.56 237.98,-450.06 259,-503 269.57,-529.63 284.55,-558.54 296.05,-579.42"/>
<polygon fill="midnightblue" stroke="midnightblue" points="293.13,-581.38 301.06,-588.42 299.25,-577.98 293.13,-581.38"/>
</g>
<!-- Node28&#45;&gt;Node24 -->
<g id="edge35" class="edge">
<title>Node28&#45;&gt;Node24</title>
<path fill="none" stroke="midnightblue" d="M205.01,-338.17C217.13,-342.3 233.09,-347.74 249,-353.17"/>
<polygon fill="midnightblue" stroke="midnightblue" points="248.28,-356.62 258.87,-356.54 250.54,-350 248.28,-356.62"/>
</g>
<!-- Node28&#45;&gt;Node25 -->
<g id="edge36" class="edge">
<title>Node28&#45;&gt;Node25</title>
<path fill="none" stroke="midnightblue" d="M188.98,-321.33C199.16,-302.75 224.38,-262.5 259,-247 303.62,-227.02 328.52,-219.59 369,-247 404.67,-271.15 382.19,-300.45 405,-337 415.76,-354.24 431.46,-371.18 443.65,-383.14"/>
<polygon fill="midnightblue" stroke="midnightblue" points="441.43,-385.86 451.08,-390.24 446.27,-380.8 441.43,-385.86"/>
</g>
<!-- Node28&#45;&gt;Node26 -->
<g id="edge37" class="edge">
<title>Node28&#45;&gt;Node26</title>
<path fill="none" stroke="midnightblue" d="M192.87,-340.76C212.07,-361.9 258.14,-412.61 287.32,-444.73"/>
<polygon fill="midnightblue" stroke="midnightblue" points="285.03,-447.42 294.35,-452.47 290.21,-442.71 285.03,-447.42"/>
</g>
<!-- Node29&#45;&gt;Node10 -->
<g id="edge39" class="edge">
<title>Node29&#45;&gt;Node10</title>
<path fill="none" stroke="midnightblue" d="M196.35,-445.27C204.62,-438.31 215.36,-428.37 223,-418 244.46,-388.87 239.64,-375.56 259,-345 267.65,-331.34 278.53,-317.19 288.26,-305.36"/>
<polygon fill="midnightblue" stroke="midnightblue" points="291.03,-307.49 294.76,-297.57 285.66,-303 291.03,-307.49"/>
</g>
<!-- Node29&#45;&gt;Node11 -->
<g id="edge41" class="edge">
<title>Node29&#45;&gt;Node11</title>
<path fill="none" stroke="midnightblue" d="M205.11,-464.22C211.05,-467.09 217.4,-470.45 223,-474 240.34,-485.01 239.62,-496.17 259,-503 305.11,-519.26 329.84,-532.27 369,-503 414.28,-469.15 377.34,-430.31 405,-381 414.94,-363.27 430.7,-346.37 443.13,-334.55"/>
<polygon fill="midnightblue" stroke="midnightblue" points="445.74,-336.9 450.72,-327.55 441,-331.76 445.74,-336.9"/>
</g>
<!-- Node29&#45;&gt;Node12 -->
<g id="edge40" class="edge">
<title>Node29&#45;&gt;Node12</title>
<path fill="none" stroke="midnightblue" d="M197.97,-445.24C206.5,-438.54 216.9,-428.92 223,-418 260.89,-350.2 233.15,-320.24 259,-247 268.48,-220.15 283.41,-191.47 295.17,-170.72"/>
<polygon fill="midnightblue" stroke="midnightblue" points="298.37,-172.2 300.32,-161.79 292.3,-168.7 298.37,-172.2"/>
</g>
<!-- Node29&#45;&gt;Node20 -->
<g id="edge42" class="edge">
<title>Node29&#45;&gt;Node20</title>
<path fill="none" stroke="midnightblue" d="M205,-461.68C211.48,-464.6 218.17,-468.62 223,-474 254.55,-509.15 229.64,-536.99 259,-574 261.12,-576.67 263.5,-579.2 266.05,-581.59"/>
<polygon fill="midnightblue" stroke="midnightblue" points="264.19,-584.59 274.11,-588.31 268.67,-579.22 264.19,-584.59"/>
</g>
<!-- Node29&#45;&gt;Node24 -->
<g id="edge43" class="edge">
<title>Node29&#45;&gt;Node24</title>
<path fill="none" stroke="midnightblue" d="M199.56,-445.35C217.17,-434.43 246.58,-416.19 271.04,-401.02"/>
<polygon fill="midnightblue" stroke="midnightblue" points="273.14,-403.84 279.79,-395.59 269.45,-397.89 273.14,-403.84"/>
</g>
<!-- Node29&#45;&gt;Node25 -->
<g id="edge44" class="edge">
<title>Node29&#45;&gt;Node25</title>
<path fill="none" stroke="midnightblue" d="M205.26,-462.59C211.46,-465.5 217.93,-469.28 223,-474 246.34,-495.7 231.39,-520.1 259,-536 301.37,-560.39 328.67,-563.63 369,-536 405.56,-510.95 378.29,-478.37 405,-443 413.29,-432.03 425.1,-422.49 435.82,-415.2"/>
<polygon fill="midnightblue" stroke="midnightblue" points="437.96,-417.99 444.47,-409.63 434.17,-412.1 437.96,-417.99"/>
</g>
<!-- Node29&#45;&gt;Node26 -->
<g id="edge45" class="edge">
<title>Node29&#45;&gt;Node26</title>
<path fill="none" stroke="midnightblue" d="M205.01,-457.93C217.02,-459.61 232.79,-461.81 248.55,-464.01"/>
<polygon fill="midnightblue" stroke="midnightblue" points="248.48,-467.53 258.87,-465.45 249.45,-460.6 248.48,-467.53"/>
</g>
</g>
</svg>
