<?xml version="1.0" encoding="UTF-8" standalone="no"?>
<!DOCTYPE svg PUBLIC "-//W3C//DTD SVG 1.1//EN"
 "http://www.w3.org/Graphics/SVG/1.1/DTD/svg11.dtd">
<!-- Generated by graphviz version 2.44.1 (20200629.0846)
 -->
<!-- Title: math::fibonacci_sum::result Pages: 1 -->
<svg width="258pt" height="96pt"
 viewBox="0.00 0.00 258.00 95.50" xmlns="http://www.w3.org/2000/svg" xmlns:xlink="http://www.w3.org/1999/xlink">
<g id="graph0" class="graph" transform="scale(1 1) rotate(0) translate(4 91.5)">
<title>math::fibonacci_sum::result</title>
<polygon fill="white" stroke="transparent" points="-4,4 -4,-91.5 254,-91.5 254,4 -4,4"/>
<!-- Node1 -->
<g id="node1" class="node">
<title>Node1</title>
<g id="a_node1"><a xlink:title=" ">
<polygon fill="#bfbfbf" stroke="black" points="0,-31.5 0,-61.5 107,-61.5 107,-31.5 0,-31.5"/>
<text text-anchor="start" x="8" y="-49.5" font-family="Helvetica,sans-Serif" font-size="10.00">math::fibonacci_sum</text>
<text text-anchor="middle" x="53.5" y="-38.5" font-family="Helvetica,sans-Serif" font-size="10.00">::result</text>
</a>
</g>
</g>
<!-- Node1&#45;&gt;Node1 -->
<g id="edge4" class="edge">
<title>Node1&#45;&gt;Node1</title>
<path fill="none" stroke="midnightblue" d="M28.75,-61.66C22.79,-71.06 31.04,-80 53.5,-80 67.19,-80 75.6,-76.68 78.73,-71.96"/>
<polygon fill="midnightblue" stroke="midnightblue" points="82.21,-71.48 78.25,-61.66 75.22,-71.81 82.21,-71.48"/>
</g>
<!-- Node2 -->
<g id="node2" class="node">
<title>Node2</title>
<g id="a_node2"><a xlink:href="../../d7/d35/matrix__exponentiation_8cpp.html#ad8389ed58fd0ec66df248014775ad1fa" target="_top" xlink:title=" ">
<polygon fill="white" stroke="black" points="180.5,-68 180.5,-87 212.5,-87 212.5,-68 180.5,-68"/>
<text text-anchor="middle" x="196.5" y="-75" font-family="Helvetica,sans-Serif" font-size="10.00">ans</text>
</a>
</g>
</g>
<!-- Node1&#45;&gt;Node2 -->
<g id="edge1" class="edge">
<title>Node1&#45;&gt;Node2</title>
<path fill="none" stroke="midnightblue" d="M107,-58.04C128.66,-62.8 152.74,-68.1 170.31,-71.96"/>
<polygon fill="midnightblue" stroke="midnightblue" points="169.81,-75.44 180.33,-74.16 171.32,-68.6 169.81,-75.44"/>
</g>
<!-- Node3 -->
<g id="node3" class="node">
<title>Node3</title>
<g id="a_node3"><a xlink:href="../../de/dc3/fibonacci__sum_8cpp.html#a8dc4dd084de7d4fcec87650d17ba1cb4" target="_top" xlink:title=" ">
<polygon fill="white" stroke="black" points="143,-0.5 143,-30.5 250,-30.5 250,-0.5 143,-0.5"/>
<text text-anchor="start" x="151" y="-18.5" font-family="Helvetica,sans-Serif" font-size="10.00">math::fibonacci_sum</text>
<text text-anchor="middle" x="196.5" y="-7.5" font-family="Helvetica,sans-Serif" font-size="10.00">::power</text>
</a>
</g>
</g>
<!-- Node1&#45;&gt;Node3 -->
<g id="edge2" class="edge">
<title>Node1&#45;&gt;Node3</title>
<path fill="none" stroke="midnightblue" d="M107,-34.96C115.44,-33.1 124.26,-31.16 132.9,-29.26"/>
<polygon fill="midnightblue" stroke="midnightblue" points="133.94,-32.62 142.95,-27.05 132.43,-25.78 133.94,-32.62"/>
</g>
<!-- Node3&#45;&gt;Node3 -->
<g id="edge3" class="edge">
<title>Node3&#45;&gt;Node3</title>
<path fill="none" stroke="midnightblue" d="M171.75,-30.66C165.79,-40.06 174.04,-49 196.5,-49 210.19,-49 218.6,-45.68 221.73,-40.96"/>
<polygon fill="midnightblue" stroke="midnightblue" points="225.21,-40.48 221.25,-30.66 218.22,-40.81 225.21,-40.48"/>
</g>
</g>
</svg>
