<?xml version="1.0" encoding="UTF-8" standalone="no"?>
<!DOCTYPE svg PUBLIC "-//W3C//DTD SVG 1.1//EN"
 "http://www.w3.org/Graphics/SVG/1.1/DTD/svg11.dtd">
<!-- Generated by graphviz version 2.44.1 (20200629.0846)
 -->
<!-- Title: main Pages: 1 -->
<svg width="623pt" height="180pt"
 viewBox="0.00 0.00 623.00 180.00" xmlns="http://www.w3.org/2000/svg" xmlns:xlink="http://www.w3.org/1999/xlink">
<g id="graph0" class="graph" transform="scale(1 1) rotate(0) translate(4 176)">
<title>main</title>
<polygon fill="white" stroke="transparent" points="-4,4 -4,-176 619,-176 619,4 -4,4"/>
<!-- Node1 -->
<g id="node1" class="node">
<title>Node1</title>
<g id="a_node1"><a xlink:title=" ">
<polygon fill="#bfbfbf" stroke="black" points="0,-76.5 0,-95.5 38,-95.5 38,-76.5 0,-76.5"/>
<text text-anchor="middle" x="19" y="-83.5" font-family="Helvetica,sans-Serif" font-size="10.00">main</text>
</a>
</g>
</g>
<!-- Node2 -->
<g id="node2" class="node">
<title>Node2</title>
<g id="a_node2"><a target="_blank" xlink:href="http://en.cppreference.com/w/cpp/numeric/random/srand.html#" target="_top" xlink:title=" ">
<polygon fill="white" stroke="black" points="74,-133.5 74,-152.5 134,-152.5 134,-133.5 74,-133.5"/>
<text text-anchor="middle" x="104" y="-140.5" font-family="Helvetica,sans-Serif" font-size="10.00">std::srand</text>
</a>
</g>
</g>
<!-- Node1&#45;&gt;Node2 -->
<g id="edge1" class="edge">
<title>Node1&#45;&gt;Node2</title>
<path fill="none" stroke="midnightblue" d="M33.67,-95.81C44.54,-103.56 60.15,-114.6 74,-124 75.86,-125.26 77.8,-126.56 79.75,-127.86"/>
<polygon fill="midnightblue" stroke="midnightblue" points="77.91,-130.84 88.18,-133.43 81.76,-125 77.91,-130.84"/>
</g>
<!-- Node3 -->
<g id="node3" class="node">
<title>Node3</title>
<g id="a_node3"><a xlink:href="../../dd/d65/lu__decompose_8cpp.html#a1440a7779ac56f47a3f355ce4a8c7da0" target="_top" xlink:title=" ">
<polygon fill="white" stroke="black" points="85,-95.5 85,-114.5 123,-114.5 123,-95.5 85,-95.5"/>
<text text-anchor="middle" x="104" y="-102.5" font-family="Helvetica,sans-Serif" font-size="10.00">test1</text>
</a>
</g>
</g>
<!-- Node1&#45;&gt;Node3 -->
<g id="edge2" class="edge">
<title>Node1&#45;&gt;Node3</title>
<path fill="none" stroke="midnightblue" d="M38.01,-90.12C48.7,-92.57 62.5,-95.73 74.63,-98.51"/>
<polygon fill="midnightblue" stroke="midnightblue" points="74.21,-102 84.74,-100.82 75.77,-95.18 74.21,-102"/>
</g>
<!-- Node8 -->
<g id="node8" class="node">
<title>Node8</title>
<g id="a_node8"><a xlink:href="../../dd/d65/lu__decompose_8cpp.html#a0283886819c7c140a023582b7269e2d0" target="_top" xlink:title=" ">
<polygon fill="white" stroke="black" points="85,-57.5 85,-76.5 123,-76.5 123,-57.5 85,-57.5"/>
<text text-anchor="middle" x="104" y="-64.5" font-family="Helvetica,sans-Serif" font-size="10.00">test2</text>
</a>
</g>
</g>
<!-- Node1&#45;&gt;Node8 -->
<g id="edge7" class="edge">
<title>Node1&#45;&gt;Node8</title>
<path fill="none" stroke="midnightblue" d="M38.01,-81.88C48.7,-79.43 62.5,-76.27 74.63,-73.49"/>
<polygon fill="midnightblue" stroke="midnightblue" points="75.77,-76.82 84.74,-71.18 74.21,-70 75.77,-76.82"/>
</g>
<!-- Node14 -->
<g id="node14" class="node">
<title>Node14</title>
<g id="a_node14"><a target="_blank" xlink:href="http://en.cppreference.com/w/cpp/chrono/c/time.html#" target="_top" xlink:title=" ">
<polygon fill="white" stroke="black" points="76.5,-19.5 76.5,-38.5 131.5,-38.5 131.5,-19.5 76.5,-19.5"/>
<text text-anchor="middle" x="104" y="-26.5" font-family="Helvetica,sans-Serif" font-size="10.00">std::time</text>
</a>
</g>
</g>
<!-- Node1&#45;&gt;Node14 -->
<g id="edge16" class="edge">
<title>Node1&#45;&gt;Node14</title>
<path fill="none" stroke="midnightblue" d="M33.67,-76.19C44.54,-68.44 60.15,-57.4 74,-48 75.86,-46.74 77.8,-45.44 79.75,-44.14"/>
<polygon fill="midnightblue" stroke="midnightblue" points="81.76,-47 88.18,-38.57 77.91,-41.16 81.76,-47"/>
</g>
<!-- Node4 -->
<g id="node4" class="node">
<title>Node4</title>
<g id="a_node4"><a target="_blank" xlink:href="http://en.cppreference.com/w/cpp/chrono/c/clock.html#" target="_top" xlink:title=" ">
<polygon fill="white" stroke="black" points="180.5,-152.5 180.5,-171.5 239.5,-171.5 239.5,-152.5 180.5,-152.5"/>
<text text-anchor="middle" x="210" y="-159.5" font-family="Helvetica,sans-Serif" font-size="10.00">std::clock</text>
</a>
</g>
</g>
<!-- Node3&#45;&gt;Node4 -->
<g id="edge3" class="edge">
<title>Node3&#45;&gt;Node4</title>
<path fill="none" stroke="midnightblue" d="M122.64,-114.67C139.1,-123.69 163.87,-137.27 182.67,-147.57"/>
<polygon fill="midnightblue" stroke="midnightblue" points="181.17,-150.74 191.62,-152.47 184.53,-144.6 181.17,-150.74"/>
</g>
<!-- Node5 -->
<g id="node5" class="node">
<title>Node5</title>
<g id="a_node5"><a xlink:href="../../d1/dbe/lu__decomposition_8h.html#a75b8a228c6419ecda6077255d6d60509" target="_top" xlink:title=" ">
<polygon fill="white" stroke="black" points="286,-95.5 286,-114.5 378,-114.5 378,-95.5 286,-95.5"/>
<text text-anchor="middle" x="332" y="-102.5" font-family="Helvetica,sans-Serif" font-size="10.00">lu_decomposition</text>
</a>
</g>
</g>
<!-- Node3&#45;&gt;Node5 -->
<g id="edge4" class="edge">
<title>Node3&#45;&gt;Node5</title>
<path fill="none" stroke="midnightblue" d="M123.11,-105C155.77,-105 225.76,-105 275.49,-105"/>
<polygon fill="midnightblue" stroke="midnightblue" points="275.78,-108.5 285.78,-105 275.78,-101.5 275.78,-108.5"/>
</g>
<!-- Node7 -->
<g id="node7" class="node">
<title>Node7</title>
<g id="a_node7"><a target="_blank" xlink:href="http://en.cppreference.com/w/cpp/numeric/random/rand.html#" target="_top" xlink:title=" ">
<polygon fill="white" stroke="black" points="182.5,-76.5 182.5,-95.5 237.5,-95.5 237.5,-76.5 182.5,-76.5"/>
<text text-anchor="middle" x="210" y="-83.5" font-family="Helvetica,sans-Serif" font-size="10.00">std::rand</text>
</a>
</g>
</g>
<!-- Node3&#45;&gt;Node7 -->
<g id="edge6" class="edge">
<title>Node3&#45;&gt;Node7</title>
<path fill="none" stroke="midnightblue" d="M123.12,-101.69C136.61,-99.23 155.5,-95.77 172.12,-92.74"/>
<polygon fill="midnightblue" stroke="midnightblue" points="172.91,-96.15 182.12,-90.91 171.65,-89.27 172.91,-96.15"/>
</g>
<!-- Node6 -->
<g id="node6" class="node">
<title>Node6</title>
<g id="a_node6"><a target="_blank" xlink:href="http://en.cppreference.com/w/cpp/container/vector/size.html#" target="_top" xlink:title=" ">
<polygon fill="white" stroke="black" points="414,-95.5 414,-114.5 501,-114.5 501,-95.5 414,-95.5"/>
<text text-anchor="middle" x="457.5" y="-102.5" font-family="Helvetica,sans-Serif" font-size="10.00">std::vector::size</text>
</a>
</g>
</g>
<!-- Node5&#45;&gt;Node6 -->
<g id="edge5" class="edge">
<title>Node5&#45;&gt;Node6</title>
<path fill="none" stroke="midnightblue" d="M378.29,-105C386.51,-105 395.15,-105 403.57,-105"/>
<polygon fill="midnightblue" stroke="midnightblue" points="403.68,-108.5 413.68,-105 403.68,-101.5 403.68,-108.5"/>
</g>
<!-- Node9 -->
<g id="node9" class="node">
<title>Node9</title>
<g id="a_node9"><a xlink:href="../../d1/dbe/lu__decomposition_8h.html#a3108d43bd32c6fb3b3c158476c51ba7f" target="_top" xlink:title=" ">
<polygon fill="white" stroke="black" points="170,-38.5 170,-57.5 250,-57.5 250,-38.5 170,-38.5"/>
<text text-anchor="middle" x="210" y="-45.5" font-family="Helvetica,sans-Serif" font-size="10.00">determinant_lu</text>
</a>
</g>
</g>
<!-- Node8&#45;&gt;Node9 -->
<g id="edge8" class="edge">
<title>Node8&#45;&gt;Node9</title>
<path fill="none" stroke="midnightblue" d="M123.12,-63.69C133.41,-61.81 146.84,-59.36 160.02,-56.95"/>
<polygon fill="midnightblue" stroke="midnightblue" points="160.78,-60.37 169.99,-55.13 159.52,-53.48 160.78,-60.37"/>
</g>
<!-- Node9&#45;&gt;Node5 -->
<g id="edge9" class="edge">
<title>Node9&#45;&gt;Node5</title>
<path fill="none" stroke="midnightblue" d="M231.09,-57.54C250.38,-66.71 279.76,-80.66 301.67,-91.07"/>
<polygon fill="midnightblue" stroke="midnightblue" points="300.31,-94.3 310.85,-95.43 303.32,-87.98 300.31,-94.3"/>
</g>
<!-- Node9&#45;&gt;Node6 -->
<g id="edge15" class="edge">
<title>Node9&#45;&gt;Node6</title>
<path fill="none" stroke="midnightblue" d="M250.18,-56.75C284.04,-64.36 334.29,-75.74 378,-86 387.52,-88.24 397.69,-90.66 407.43,-93.01"/>
<polygon fill="midnightblue" stroke="midnightblue" points="406.85,-96.47 417.39,-95.42 408.5,-89.67 406.85,-96.47"/>
</g>
<!-- Node10 -->
<g id="node10" class="node">
<title>Node10</title>
<g id="a_node10"><a xlink:href="../../dd/d47/namespacemath.html#a8d79d452a81ed27ba095d2ecb32dc4b4" target="_top" xlink:title=" ">
<polygon fill="white" stroke="black" points="298,-19.5 298,-38.5 366,-38.5 366,-19.5 298,-19.5"/>
<text text-anchor="middle" x="332" y="-26.5" font-family="Helvetica,sans-Serif" font-size="10.00">math::result</text>
</a>
</g>
</g>
<!-- Node9&#45;&gt;Node10 -->
<g id="edge10" class="edge">
<title>Node9&#45;&gt;Node10</title>
<path fill="none" stroke="midnightblue" d="M250.29,-41.78C262.25,-39.88 275.47,-37.79 287.68,-35.86"/>
<polygon fill="midnightblue" stroke="midnightblue" points="288.32,-39.3 297.65,-34.28 287.23,-32.39 288.32,-39.3"/>
</g>
<!-- Node11 -->
<g id="node11" class="node">
<title>Node11</title>
<g id="a_node11"><a xlink:href="../../d7/d35/matrix__exponentiation_8cpp.html#ad8389ed58fd0ec66df248014775ad1fa" target="_top" xlink:title=" ">
<polygon fill="white" stroke="black" points="441.5,-57.5 441.5,-76.5 473.5,-76.5 473.5,-57.5 441.5,-57.5"/>
<text text-anchor="middle" x="457.5" y="-64.5" font-family="Helvetica,sans-Serif" font-size="10.00">ans</text>
</a>
</g>
</g>
<!-- Node10&#45;&gt;Node11 -->
<g id="edge11" class="edge">
<title>Node10&#45;&gt;Node11</title>
<path fill="none" stroke="midnightblue" d="M364.16,-38.59C385.12,-45.04 412.37,-53.42 431.82,-59.41"/>
<polygon fill="midnightblue" stroke="midnightblue" points="430.89,-62.78 441.47,-62.38 432.94,-56.09 430.89,-62.78"/>
</g>
<!-- Node12 -->
<g id="node12" class="node">
<title>Node12</title>
<g id="a_node12"><a xlink:href="../../dd/d47/namespacemath.html#a4a55bb9ec6c59485d3fdb18bd88ca5b6" target="_top" xlink:title=" ">
<polygon fill="white" stroke="black" points="422,-19.5 422,-38.5 493,-38.5 493,-19.5 422,-19.5"/>
<text text-anchor="middle" x="457.5" y="-26.5" font-family="Helvetica,sans-Serif" font-size="10.00">math::power</text>
</a>
</g>
</g>
<!-- Node10&#45;&gt;Node12 -->
<g id="edge12" class="edge">
<title>Node10&#45;&gt;Node12</title>
<path fill="none" stroke="midnightblue" d="M366.1,-29C380.03,-29 396.46,-29 411.47,-29"/>
<polygon fill="midnightblue" stroke="midnightblue" points="411.58,-32.5 421.58,-29 411.58,-25.5 411.58,-32.5"/>
</g>
<!-- Node13 -->
<g id="node13" class="node">
<title>Node13</title>
<g id="a_node13"><a xlink:href="../../dd/d47/namespacemath.html#ab65d9997885347702dc0c3ec09d5dc21" target="_top" xlink:title=" ">
<polygon fill="white" stroke="black" points="537,-0.5 537,-19.5 615,-19.5 615,-0.5 537,-0.5"/>
<text text-anchor="middle" x="576" y="-7.5" font-family="Helvetica,sans-Serif" font-size="10.00">math::multiply</text>
</a>
</g>
</g>
<!-- Node12&#45;&gt;Node13 -->
<g id="edge13" class="edge">
<title>Node12&#45;&gt;Node13</title>
<path fill="none" stroke="midnightblue" d="M493.14,-23.35C503.61,-21.64 515.32,-19.73 526.52,-17.91"/>
<polygon fill="midnightblue" stroke="midnightblue" points="527.32,-21.32 536.62,-16.26 526.19,-14.41 527.32,-21.32"/>
</g>
<!-- Node13&#45;&gt;Node10 -->
<g id="edge14" class="edge">
<title>Node13&#45;&gt;Node10</title>
<path fill="none" stroke="midnightblue" d="M536.8,-7.54C504.09,-6.01 455.79,-5.16 414,-10 401.45,-11.45 388.01,-14.13 375.76,-17.03"/>
<polygon fill="midnightblue" stroke="midnightblue" points="374.67,-13.7 365.8,-19.49 376.35,-20.49 374.67,-13.7"/>
</g>
</g>
</svg>
