<?xml version="1.0" encoding="UTF-8" standalone="no"?>
<!DOCTYPE svg PUBLIC "-//W3C//DTD SVG 1.1//EN"
 "http://www.w3.org/Graphics/SVG/1.1/DTD/svg11.dtd">
<!-- Generated by graphviz version 2.44.1 (20200629.0846)
 -->
<!-- Title: main Pages: 1 -->
<!--zoomable 635 -->
<svg id="main" version="1.1" xmlns="http://www.w3.org/2000/svg" xmlns:xlink="http://www.w3.org/1999/xlink" xml:space="preserve" onload="init(evt)">
<style type="text/css"><![CDATA[
.edge:hover path { stroke: red; }
.edge:hover polygon { stroke: red; fill: red; }
]]></style>
<script type="text/javascript"><![CDATA[
var edges = document.getElementsByTagName('g');
if (edges && edges.length) {
  for (var i=0;i<edges.length;i++) {
    if (edges[i].id.substr(0,4)=='edge') {
      edges[i].setAttribute('class','edge');
    }
  }
}
]]></script>
        <defs>
                <circle id="rim" cx="0" cy="0" r="7"/>
                <circle id="rim2" cx="0" cy="0" r="3.5"/>
                <g id="zoomPlus">
                        <use xlink:href="#rim" fill="#404040">
                                <set attributeName="fill" to="#808080" begin="zoomplus.mouseover" end="zoomplus.mouseout"/>
                        </use>
                        <path d="M-4,0h8M0,-4v8" fill="none" stroke="white" stroke-width="1.5" pointer-events="none"/>
                </g>
                <g id="zoomMin">
                        <use xlink:href="#rim" fill="#404040">
                                <set attributeName="fill" to="#808080" begin="zoomminus.mouseover" end="zoomminus.mouseout"/>
                        </use>
                        <path d="M-4,0h8" fill="none" stroke="white" stroke-width="1.5" pointer-events="none"/>
                </g>
                <g id="dirArrow">
                        <path fill="none" stroke="white" stroke-width="1.5" d="M0,-3.0v7 M-2.5,-0.5L0,-3.0L2.5,-0.5"/>
                </g>
               <g id="resetDef">
                       <use xlink:href="#rim2" fill="#404040">
                               <set attributeName="fill" to="#808080" begin="reset.mouseover" end="reset.mouseout"/>
                       </use>
               </g>
        </defs>

<script type="text/javascript">
var viewWidth = 996;
var viewHeight = 635;
var sectionId = 'dynsection-1';
</script>
<script xlink:href="../../svgpan.js"/>
<svg id="graph" class="graph">
<g id="viewport">
<title>main</title>
<polygon fill="white" stroke="transparent" points="-4,4 -4,-631 992,-631 992,4 -4,4"/>
<!-- Node1 -->
<g id="node1" class="node">
<title>Node1</title>
<g id="a_node1"><a xlink:title=" ">
<polygon fill="#bfbfbf" stroke="black" points="0,-455.5 0,-474.5 38,-474.5 38,-455.5 0,-455.5"/>
<text text-anchor="middle" x="19" y="-462.5" font-family="Helvetica,sans-Serif" font-size="10.00">main</text>
</a>
</g>
</g>
<!-- Node2 -->
<g id="node2" class="node">
<title>Node2</title>
<g id="a_node2"><a target="_blank" xlink:href="http://en.cppreference.com/w/cpp/chrono/c/clock.html#" target="_top" xlink:title=" ">
<polygon fill="white" stroke="black" points="83,-569.5 83,-588.5 142,-588.5 142,-569.5 83,-569.5"/>
<text text-anchor="middle" x="112.5" y="-576.5" font-family="Helvetica,sans-Serif" font-size="10.00">std::clock</text>
</a>
</g>
</g>
<!-- Node1&#45;&gt;Node2 -->
<g id="edge1" class="edge">
<title>Node1&#45;&gt;Node2</title>
<path fill="none" stroke="midnightblue" d="M23.28,-474.55C30.08,-493.14 47.36,-534.61 74,-560 75.47,-561.4 77.05,-562.72 78.72,-563.95"/>
<polygon fill="midnightblue" stroke="midnightblue" points="77.19,-567.13 87.52,-569.5 80.92,-561.2 77.19,-567.13"/>
</g>
<!-- Node3 -->
<g id="node3" class="node">
<title>Node3</title>
<g id="a_node3"><a xlink:href="../../d9/d49/kohonen__som__trace_8cpp.html#a2256c10b16edba377b64a44b6c656908" target="_top" xlink:title=" ">
<polygon fill="white" stroke="black" points="74,-531.5 74,-550.5 151,-550.5 151,-531.5 74,-531.5"/>
<text text-anchor="middle" x="112.5" y="-538.5" font-family="Helvetica,sans-Serif" font-size="10.00">get_clock_diff</text>
</a>
</g>
</g>
<!-- Node1&#45;&gt;Node3 -->
<g id="edge2" class="edge">
<title>Node1&#45;&gt;Node3</title>
<path fill="none" stroke="midnightblue" d="M27.56,-474.86C37.29,-487.07 55.2,-507.99 74,-522 76.05,-523.53 78.24,-524.99 80.49,-526.38"/>
<polygon fill="midnightblue" stroke="midnightblue" points="78.9,-529.51 89.33,-531.36 82.33,-523.4 78.9,-529.51"/>
</g>
<!-- Node4 -->
<g id="node4" class="node">
<title>Node4</title>
<g id="a_node4"><a target="_blank" xlink:href="http://en.cppreference.com/w/cpp/numeric/random/srand.html#" target="_top" xlink:title=" ">
<polygon fill="white" stroke="black" points="82.5,-493.5 82.5,-512.5 142.5,-512.5 142.5,-493.5 82.5,-493.5"/>
<text text-anchor="middle" x="112.5" y="-500.5" font-family="Helvetica,sans-Serif" font-size="10.00">std::srand</text>
</a>
</g>
</g>
<!-- Node1&#45;&gt;Node4 -->
<g id="edge3" class="edge">
<title>Node1&#45;&gt;Node4</title>
<path fill="none" stroke="midnightblue" d="M38.08,-472.51C49.73,-477.35 65.21,-483.78 78.96,-489.49"/>
<polygon fill="midnightblue" stroke="midnightblue" points="78,-492.88 88.58,-493.48 80.69,-486.41 78,-492.88"/>
</g>
<!-- Node5 -->
<g id="node5" class="node">
<title>Node5</title>
<g id="a_node5"><a xlink:href="../../d9/d49/kohonen__som__trace_8cpp.html#a1440a7779ac56f47a3f355ce4a8c7da0" target="_top" xlink:title=" ">
<polygon fill="white" stroke="black" points="93.5,-335.5 93.5,-354.5 131.5,-354.5 131.5,-335.5 93.5,-335.5"/>
<text text-anchor="middle" x="112.5" y="-342.5" font-family="Helvetica,sans-Serif" font-size="10.00">test1</text>
</a>
</g>
</g>
<!-- Node1&#45;&gt;Node5 -->
<g id="edge4" class="edge">
<title>Node1&#45;&gt;Node5</title>
<path fill="none" stroke="midnightblue" d="M27.49,-455.18C42.91,-434.95 78.42,-388.39 97.97,-362.74"/>
<polygon fill="midnightblue" stroke="midnightblue" points="100.88,-364.69 104.16,-354.62 95.32,-360.45 100.88,-364.69"/>
</g>
<!-- Node29 -->
<g id="node29" class="node">
<title>Node29</title>
<g id="a_node29"><a xlink:href="../../d9/d49/kohonen__som__trace_8cpp.html#a0283886819c7c140a023582b7269e2d0" target="_top" xlink:title=" ">
<polygon fill="white" stroke="black" points="93.5,-417.5 93.5,-436.5 131.5,-436.5 131.5,-417.5 93.5,-417.5"/>
<text text-anchor="middle" x="112.5" y="-424.5" font-family="Helvetica,sans-Serif" font-size="10.00">test2</text>
</a>
</g>
</g>
<!-- Node1&#45;&gt;Node29 -->
<g id="edge31" class="edge">
<title>Node1&#45;&gt;Node29</title>
<path fill="none" stroke="midnightblue" d="M38.08,-457.49C51.24,-452.03 69.29,-444.53 84.2,-438.34"/>
<polygon fill="midnightblue" stroke="midnightblue" points="85.57,-441.56 93.46,-434.49 82.88,-435.1 85.57,-441.56"/>
</g>
<!-- Node31 -->
<g id="node31" class="node">
<title>Node31</title>
<g id="a_node31"><a xlink:href="../../d9/d49/kohonen__som__trace_8cpp.html#a6d0455dd5c30adda100e95f0423c786e" target="_top" xlink:title=" ">
<polygon fill="white" stroke="black" points="93.5,-455.5 93.5,-474.5 131.5,-474.5 131.5,-455.5 93.5,-455.5"/>
<text text-anchor="middle" x="112.5" y="-462.5" font-family="Helvetica,sans-Serif" font-size="10.00">test3</text>
</a>
</g>
</g>
<!-- Node1&#45;&gt;Node31 -->
<g id="edge38" class="edge">
<title>Node1&#45;&gt;Node31</title>
<path fill="none" stroke="midnightblue" d="M38.08,-465C50.99,-465 68.6,-465 83.34,-465"/>
<polygon fill="midnightblue" stroke="midnightblue" points="83.46,-468.5 93.46,-465 83.46,-461.5 83.46,-468.5"/>
</g>
<!-- Node33 -->
<g id="node33" class="node">
<title>Node33</title>
<g id="a_node33"><a target="_blank" xlink:href="http://en.cppreference.com/w/cpp/chrono/c/time.html#" target="_top" xlink:title=" ">
<polygon fill="white" stroke="black" points="85,-297.5 85,-316.5 140,-316.5 140,-297.5 85,-297.5"/>
<text text-anchor="middle" x="112.5" y="-304.5" font-family="Helvetica,sans-Serif" font-size="10.00">std::time</text>
</a>
</g>
</g>
<!-- Node1&#45;&gt;Node33 -->
<g id="edge46" class="edge">
<title>Node1&#45;&gt;Node33</title>
<path fill="none" stroke="midnightblue" d="M21.33,-455.33C25.17,-430.8 38.36,-365.33 74,-326 75.18,-324.7 76.47,-323.47 77.84,-322.32"/>
<polygon fill="midnightblue" stroke="midnightblue" points="80.04,-325.06 86.31,-316.52 76.08,-319.28 80.04,-325.06"/>
</g>
<!-- Node6 -->
<g id="node6" class="node">
<title>Node6</title>
<g id="a_node6"><a xlink:href="../../d9/d66/group__machine__learning.html#gaf5ce14f026d6d231bef29161bac2b485" target="_top" xlink:title=" ">
<polygon fill="white" stroke="black" points="395,-341.5 395,-360.5 449,-360.5 449,-341.5 395,-341.5"/>
<text text-anchor="middle" x="422" y="-348.5" font-family="Helvetica,sans-Serif" font-size="10.00">_random</text>
</a>
</g>
</g>
<!-- Node5&#45;&gt;Node6 -->
<g id="edge5" class="edge">
<title>Node5&#45;&gt;Node6</title>
<path fill="none" stroke="midnightblue" d="M131.8,-336.9C146.41,-330.89 167.59,-323.21 187,-320 246.2,-310.21 262.69,-310.93 322,-320 344.59,-323.45 369.11,-331.1 388.09,-337.93"/>
<polygon fill="midnightblue" stroke="midnightblue" points="386.88,-341.22 397.48,-341.41 389.31,-334.65 386.88,-341.22"/>
</g>
<!-- Node8 -->
<g id="node8" class="node">
<title>Node8</title>
<g id="a_node8"><a xlink:href="../../d8/d77/namespacemachine__learning.html#acc6a28f40512dbda75ab1a3969248898" target="_top" xlink:title=" ">
<polygon fill="white" stroke="black" points="187,-330 187,-360 322,-360 322,-330 187,-330"/>
<text text-anchor="start" x="195" y="-348" font-family="Helvetica,sans-Serif" font-size="10.00">machine_learning::kohonen</text>
<text text-anchor="middle" x="254.5" y="-337" font-family="Helvetica,sans-Serif" font-size="10.00">_som_tracer</text>
</a>
</g>
</g>
<!-- Node5&#45;&gt;Node8 -->
<g id="edge7" class="edge">
<title>Node5&#45;&gt;Node8</title>
<path fill="none" stroke="midnightblue" d="M131.52,-345C143.37,-345 159.78,-345 176.72,-345"/>
<polygon fill="midnightblue" stroke="midnightblue" points="176.73,-348.5 186.73,-345 176.73,-341.5 176.73,-348.5"/>
</g>
<!-- Node20 -->
<g id="node20" class="node">
<title>Node20</title>
<g id="a_node20"><a target="_blank" xlink:href="http://en.cppreference.com/w/cpp/algorithm/max.html#" target="_top" xlink:title=" ">
<polygon fill="white" stroke="black" points="553,-342.5 553,-361.5 608,-361.5 608,-342.5 553,-342.5"/>
<text text-anchor="middle" x="580.5" y="-349.5" font-family="Helvetica,sans-Serif" font-size="10.00">std::max</text>
</a>
</g>
</g>
<!-- Node5&#45;&gt;Node20 -->
<g id="edge24" class="edge">
<title>Node5&#45;&gt;Node20</title>
<path fill="none" stroke="midnightblue" d="M131.56,-338.86C138.34,-335.84 145.68,-331.62 151,-326 178.36,-297.09 153.68,-265.76 187,-244 237.24,-211.19 263.18,-232.16 322,-244 411.85,-262.08 509.42,-312.35 554.31,-337.41"/>
<polygon fill="midnightblue" stroke="midnightblue" points="552.64,-340.49 563.07,-342.36 556.08,-334.39 552.64,-340.49"/>
</g>
<!-- Node24 -->
<g id="node24" class="node">
<title>Node24</title>
<g id="a_node24"><a xlink:href="../../d9/d66/group__machine__learning.html#ga72699c805c19a6cc47a937a6f3378afa" target="_top" xlink:title=" ">
<polygon fill="white" stroke="black" points="216,-455.5 216,-474.5 293,-474.5 293,-455.5 216,-455.5"/>
<text text-anchor="middle" x="254.5" y="-462.5" font-family="Helvetica,sans-Serif" font-size="10.00">save_nd_data</text>
</a>
</g>
</g>
<!-- Node5&#45;&gt;Node24 -->
<g id="edge25" class="edge">
<title>Node5&#45;&gt;Node24</title>
<path fill="none" stroke="midnightblue" d="M124.96,-354.82C148.97,-375.4 204.79,-423.25 234.35,-448.58"/>
<polygon fill="midnightblue" stroke="midnightblue" points="232.41,-451.53 242.28,-455.38 236.96,-446.21 232.41,-451.53"/>
</g>
<!-- Node28 -->
<g id="node28" class="node">
<title>Node28</title>
<g id="a_node28"><a xlink:href="../../d9/d49/kohonen__som__trace_8cpp.html#ab47fb569e63648bd76e7edfdacc02dbd" target="_top" xlink:title=" ">
<polygon fill="white" stroke="black" points="223.5,-253.5 223.5,-272.5 285.5,-272.5 285.5,-253.5 223.5,-253.5"/>
<text text-anchor="middle" x="254.5" y="-260.5" font-family="Helvetica,sans-Serif" font-size="10.00">test_circle</text>
</a>
</g>
</g>
<!-- Node5&#45;&gt;Node28 -->
<g id="edge29" class="edge">
<title>Node5&#45;&gt;Node28</title>
<path fill="none" stroke="midnightblue" d="M131.82,-337.33C138.18,-334.26 145.18,-330.4 151,-326 169.82,-311.78 167.34,-300.04 187,-287 195.04,-281.67 204.4,-277.35 213.53,-273.92"/>
<polygon fill="midnightblue" stroke="midnightblue" points="214.96,-277.13 223.26,-270.55 212.67,-270.52 214.96,-277.13"/>
</g>
<!-- Node7 -->
<g id="node7" class="node">
<title>Node7</title>
<g id="a_node7"><a target="_blank" xlink:href="http://en.cppreference.com/w/cpp/numeric/random/rand.html#" target="_top" xlink:title=" ">
<polygon fill="white" stroke="black" points="553,-436.5 553,-455.5 608,-455.5 608,-436.5 553,-436.5"/>
<text text-anchor="middle" x="580.5" y="-443.5" font-family="Helvetica,sans-Serif" font-size="10.00">std::rand</text>
</a>
</g>
</g>
<!-- Node6&#45;&gt;Node7 -->
<g id="edge6" class="edge">
<title>Node6&#45;&gt;Node7</title>
<path fill="none" stroke="midnightblue" d="M449.03,-356.42C460.74,-359.46 474.5,-363.9 486,-370 515.97,-385.9 545.49,-412.15 563.1,-429.26"/>
<polygon fill="midnightblue" stroke="midnightblue" points="560.75,-431.86 570.32,-436.41 565.68,-426.88 560.75,-431.86"/>
</g>
<!-- Node9 -->
<g id="node9" class="node">
<title>Node9</title>
<g id="a_node9"><a xlink:href="../../d8/d77/namespacemachine__learning.html#ac4010fe3a52a74e8b5b1aaadfe38b46f" target="_top" xlink:title=" ">
<polygon fill="white" stroke="black" points="358,-166 358,-196 486,-196 486,-166 358,-166"/>
<text text-anchor="start" x="366" y="-184" font-family="Helvetica,sans-Serif" font-size="10.00">machine_learning::update</text>
<text text-anchor="middle" x="422" y="-173" font-family="Helvetica,sans-Serif" font-size="10.00">_weights</text>
</a>
</g>
</g>
<!-- Node8&#45;&gt;Node9 -->
<g id="edge8" class="edge">
<title>Node8&#45;&gt;Node9</title>
<path fill="none" stroke="midnightblue" d="M271.78,-329.89C285.35,-317.23 305.1,-298.61 322,-282 349.01,-255.44 379.43,-224.21 399.33,-203.58"/>
<polygon fill="midnightblue" stroke="midnightblue" points="402,-205.86 406.41,-196.23 396.95,-201 402,-205.86"/>
</g>
<!-- Node10 -->
<g id="node10" class="node">
<title>Node10</title>
<g id="a_node10"><a target="_blank" xlink:href="http://en.cppreference.com/w/cpp/numeric/math/exp.html#" target="_top" xlink:title=" ">
<polygon fill="white" stroke="black" points="554.5,-133.5 554.5,-152.5 606.5,-152.5 606.5,-133.5 554.5,-133.5"/>
<text text-anchor="middle" x="580.5" y="-140.5" font-family="Helvetica,sans-Serif" font-size="10.00">std::exp</text>
</a>
</g>
</g>
<!-- Node9&#45;&gt;Node10 -->
<g id="edge9" class="edge">
<title>Node9&#45;&gt;Node10</title>
<path fill="none" stroke="midnightblue" d="M484.85,-165.98C505.14,-161.06 526.96,-155.76 544.53,-151.49"/>
<polygon fill="midnightblue" stroke="midnightblue" points="545.45,-154.87 554.34,-149.11 543.8,-148.07 545.45,-154.87"/>
</g>
<!-- Node11 -->
<g id="node11" class="node">
<title>Node11</title>
<g id="a_node11"><a xlink:href="../../d9/d66/group__machine__learning.html#gab53c14440b2b2dd3172c66afc5c2f63f" target="_top" xlink:title=" ">
<polygon fill="white" stroke="black" points="547,-95.5 547,-114.5 614,-114.5 614,-95.5 547,-95.5"/>
<text text-anchor="middle" x="580.5" y="-102.5" font-family="Helvetica,sans-Serif" font-size="10.00">get_min_2d</text>
</a>
</g>
</g>
<!-- Node9&#45;&gt;Node11 -->
<g id="edge10" class="edge">
<title>Node9&#45;&gt;Node11</title>
<path fill="none" stroke="midnightblue" d="M446.29,-165.78C465.91,-153.4 495.03,-136.07 522,-124 526.8,-121.85 531.91,-119.82 537.03,-117.94"/>
<polygon fill="midnightblue" stroke="midnightblue" points="538.54,-121.12 546.83,-114.52 536.23,-114.51 538.54,-121.12"/>
</g>
<!-- Node9&#45;&gt;Node20 -->
<g id="edge20" class="edge">
<title>Node9&#45;&gt;Node20</title>
<path fill="none" stroke="midnightblue" d="M464.33,-196.13C472.1,-200.18 479.73,-205.11 486,-211 510.06,-233.62 503.99,-248.32 522,-276 535.58,-296.87 553.06,-319.46 565.16,-334.54"/>
<polygon fill="midnightblue" stroke="midnightblue" points="562.58,-336.92 571.6,-342.48 568.02,-332.51 562.58,-336.92"/>
</g>
<!-- Node21 -->
<g id="node21" class="node">
<title>Node21</title>
<g id="a_node21"><a target="_blank" xlink:href="http://en.cppreference.com/w/cpp/algorithm/min.html#" target="_top" xlink:title=" ">
<polygon fill="white" stroke="black" points="554.5,-247.5 554.5,-266.5 606.5,-266.5 606.5,-247.5 554.5,-247.5"/>
<text text-anchor="middle" x="580.5" y="-254.5" font-family="Helvetica,sans-Serif" font-size="10.00">std::min</text>
</a>
</g>
</g>
<!-- Node9&#45;&gt;Node21 -->
<g id="edge21" class="edge">
<title>Node9&#45;&gt;Node21</title>
<path fill="none" stroke="midnightblue" d="M457.98,-196.14C467.28,-200.57 477.19,-205.67 486,-211 503.11,-221.35 504.27,-228.74 522,-238 529.14,-241.73 537.16,-244.93 544.89,-247.58"/>
<polygon fill="midnightblue" stroke="midnightblue" points="543.85,-250.92 554.44,-250.65 545.99,-244.26 543.85,-250.92"/>
</g>
<!-- Node22 -->
<g id="node22" class="node">
<title>Node22</title>
<g id="a_node22"><a target="_blank" xlink:href="http://en.cppreference.com/w/cpp/numeric/math/sqrt.html#" target="_top" xlink:title=" ">
<polygon fill="white" stroke="black" points="554,-209.5 554,-228.5 607,-228.5 607,-209.5 554,-209.5"/>
<text text-anchor="middle" x="580.5" y="-216.5" font-family="Helvetica,sans-Serif" font-size="10.00">std::sqrt</text>
</a>
</g>
</g>
<!-- Node9&#45;&gt;Node22 -->
<g id="edge22" class="edge">
<title>Node9&#45;&gt;Node22</title>
<path fill="none" stroke="midnightblue" d="M484.85,-196.02C504.99,-200.91 526.65,-206.17 544.16,-210.42"/>
<polygon fill="midnightblue" stroke="midnightblue" points="543.4,-213.84 553.95,-212.8 545.06,-207.03 543.4,-213.84"/>
</g>
<!-- Node23 -->
<g id="node23" class="node">
<title>Node23</title>
<g id="a_node23"><a xlink:href="../../d8/d77/namespacemachine__learning.html#a5305cc18d11943d3dc0d66e70d7e9c44" target="_top" xlink:title=" ">
<polygon fill="white" stroke="black" points="522,-171.5 522,-190.5 639,-190.5 639,-171.5 522,-171.5"/>
<text text-anchor="middle" x="580.5" y="-178.5" font-family="Helvetica,sans-Serif" font-size="10.00">machine_learning::sum</text>
</a>
</g>
</g>
<!-- Node9&#45;&gt;Node23 -->
<g id="edge23" class="edge">
<title>Node9&#45;&gt;Node23</title>
<path fill="none" stroke="midnightblue" d="M486.2,-181C494.59,-181 503.21,-181 511.67,-181"/>
<polygon fill="midnightblue" stroke="midnightblue" points="511.87,-184.5 521.87,-181 511.87,-177.5 511.87,-184.5"/>
</g>
<!-- Node12 -->
<g id="node12" class="node">
<title>Node12</title>
<g id="a_node12"><a target="_blank" xlink:href="http://en.cppreference.com/w/cpp/iterator/begin.html#" target="_top" xlink:title=" ">
<polygon fill="white" stroke="black" points="691.5,-171.5 691.5,-190.5 750.5,-190.5 750.5,-171.5 691.5,-171.5"/>
<text text-anchor="middle" x="721" y="-178.5" font-family="Helvetica,sans-Serif" font-size="10.00">std::begin</text>
</a>
</g>
</g>
<!-- Node11&#45;&gt;Node12 -->
<g id="edge11" class="edge">
<title>Node11&#45;&gt;Node12</title>
<path fill="none" stroke="midnightblue" d="M614.09,-112.69C622.58,-115.51 631.46,-119.21 639,-124 658.64,-136.47 655.88,-148.75 675,-162 677.57,-163.78 680.32,-165.44 683.17,-166.98"/>
<polygon fill="midnightblue" stroke="midnightblue" points="681.88,-170.24 692.4,-171.47 684.94,-163.95 681.88,-170.24"/>
</g>
<!-- Node13 -->
<g id="node13" class="node">
<title>Node13</title>
<g id="a_node13"><a target="_blank" xlink:href="http://en.cppreference.com/w/cpp/iterator/distance.html#" target="_top" xlink:title=" ">
<polygon fill="white" stroke="black" points="684.5,-133.5 684.5,-152.5 757.5,-152.5 757.5,-133.5 684.5,-133.5"/>
<text text-anchor="middle" x="721" y="-140.5" font-family="Helvetica,sans-Serif" font-size="10.00">std::distance</text>
</a>
</g>
</g>
<!-- Node11&#45;&gt;Node13 -->
<g id="edge12" class="edge">
<title>Node11&#45;&gt;Node13</title>
<path fill="none" stroke="midnightblue" d="M614.32,-114.01C632.53,-119 655.42,-125.28 675.25,-130.72"/>
<polygon fill="midnightblue" stroke="midnightblue" points="674.42,-134.12 684.99,-133.39 676.27,-127.37 674.42,-134.12"/>
</g>
<!-- Node14 -->
<g id="node14" class="node">
<title>Node14</title>
<g id="a_node14"><a target="_blank" xlink:href="http://en.cppreference.com/w/cpp/iterator/end.html#" target="_top" xlink:title=" ">
<polygon fill="white" stroke="black" points="695,-95.5 695,-114.5 747,-114.5 747,-95.5 695,-95.5"/>
<text text-anchor="middle" x="721" y="-102.5" font-family="Helvetica,sans-Serif" font-size="10.00">std::end</text>
</a>
</g>
</g>
<!-- Node11&#45;&gt;Node14 -->
<g id="edge13" class="edge">
<title>Node11&#45;&gt;Node14</title>
<path fill="none" stroke="midnightblue" d="M614.32,-105C635.5,-105 663.02,-105 684.67,-105"/>
<polygon fill="midnightblue" stroke="midnightblue" points="684.77,-108.5 694.77,-105 684.77,-101.5 684.77,-108.5"/>
</g>
<!-- Node15 -->
<g id="node15" class="node">
<title>Node15</title>
<g id="a_node15"><a target="_blank" xlink:href="http://en.cppreference.com/w/cpp/algorithm/min_element.html#" target="_top" xlink:title=" ">
<polygon fill="white" stroke="black" points="675,-57.5 675,-76.5 767,-76.5 767,-57.5 675,-57.5"/>
<text text-anchor="middle" x="721" y="-64.5" font-family="Helvetica,sans-Serif" font-size="10.00">std::min_element</text>
</a>
</g>
</g>
<!-- Node11&#45;&gt;Node15 -->
<g id="edge14" class="edge">
<title>Node11&#45;&gt;Node15</title>
<path fill="none" stroke="midnightblue" d="M614.32,-95.99C632.53,-91 655.42,-84.72 675.25,-79.28"/>
<polygon fill="midnightblue" stroke="midnightblue" points="676.27,-82.63 684.99,-76.61 674.42,-75.88 676.27,-82.63"/>
</g>
<!-- Node16 -->
<g id="node16" class="node">
<title>Node16</title>
<g id="a_node16"><a xlink:href="../../dd/d47/namespacemath.html#a8d79d452a81ed27ba095d2ecb32dc4b4" target="_top" xlink:title=" ">
<polygon fill="white" stroke="black" points="687,-19.5 687,-38.5 755,-38.5 755,-19.5 687,-19.5"/>
<text text-anchor="middle" x="721" y="-26.5" font-family="Helvetica,sans-Serif" font-size="10.00">math::result</text>
</a>
</g>
</g>
<!-- Node11&#45;&gt;Node16 -->
<g id="edge15" class="edge">
<title>Node11&#45;&gt;Node16</title>
<path fill="none" stroke="midnightblue" d="M595.69,-95.43C613.69,-83.52 645.9,-62.91 675,-48 678.55,-46.18 682.31,-44.39 686.09,-42.68"/>
<polygon fill="midnightblue" stroke="midnightblue" points="687.65,-45.82 695.41,-38.61 684.84,-39.4 687.65,-45.82"/>
</g>
<!-- Node17 -->
<g id="node17" class="node">
<title>Node17</title>
<g id="a_node17"><a xlink:href="../../d7/d35/matrix__exponentiation_8cpp.html#ad8389ed58fd0ec66df248014775ad1fa" target="_top" xlink:title=" ">
<polygon fill="white" stroke="black" points="822.5,-57.5 822.5,-76.5 854.5,-76.5 854.5,-57.5 822.5,-57.5"/>
<text text-anchor="middle" x="838.5" y="-64.5" font-family="Helvetica,sans-Serif" font-size="10.00">ans</text>
</a>
</g>
</g>
<!-- Node16&#45;&gt;Node17 -->
<g id="edge16" class="edge">
<title>Node16&#45;&gt;Node17</title>
<path fill="none" stroke="midnightblue" d="M751.15,-38.59C770.12,-44.83 794.6,-52.88 812.64,-58.82"/>
<polygon fill="midnightblue" stroke="midnightblue" points="811.59,-62.16 822.18,-61.96 813.78,-55.51 811.59,-62.16"/>
</g>
<!-- Node18 -->
<g id="node18" class="node">
<title>Node18</title>
<g id="a_node18"><a xlink:href="../../dd/d47/namespacemath.html#a4a55bb9ec6c59485d3fdb18bd88ca5b6" target="_top" xlink:title=" ">
<polygon fill="white" stroke="black" points="803,-19.5 803,-38.5 874,-38.5 874,-19.5 803,-19.5"/>
<text text-anchor="middle" x="838.5" y="-26.5" font-family="Helvetica,sans-Serif" font-size="10.00">math::power</text>
</a>
</g>
</g>
<!-- Node16&#45;&gt;Node18 -->
<g id="edge17" class="edge">
<title>Node16&#45;&gt;Node18</title>
<path fill="none" stroke="midnightblue" d="M755.1,-29C766.76,-29 780.08,-29 792.56,-29"/>
<polygon fill="midnightblue" stroke="midnightblue" points="792.79,-32.5 802.79,-29 792.79,-25.5 792.79,-32.5"/>
</g>
<!-- Node19 -->
<g id="node19" class="node">
<title>Node19</title>
<g id="a_node19"><a xlink:href="../../dd/d47/namespacemath.html#ab65d9997885347702dc0c3ec09d5dc21" target="_top" xlink:title=" ">
<polygon fill="white" stroke="black" points="910,-0.5 910,-19.5 988,-19.5 988,-0.5 910,-0.5"/>
<text text-anchor="middle" x="949" y="-7.5" font-family="Helvetica,sans-Serif" font-size="10.00">math::multiply</text>
</a>
</g>
</g>
<!-- Node18&#45;&gt;Node19 -->
<g id="edge18" class="edge">
<title>Node18&#45;&gt;Node19</title>
<path fill="none" stroke="midnightblue" d="M874.13,-22.94C882.33,-21.5 891.22,-19.94 899.9,-18.42"/>
<polygon fill="midnightblue" stroke="midnightblue" points="900.7,-21.84 909.94,-16.66 899.49,-14.94 900.7,-21.84"/>
</g>
<!-- Node19&#45;&gt;Node16 -->
<g id="edge19" class="edge">
<title>Node19&#45;&gt;Node16</title>
<path fill="none" stroke="midnightblue" d="M909.7,-7.61C880.39,-6.35 839.01,-5.83 803,-10 790.45,-11.45 777.01,-14.13 764.76,-17.03"/>
<polygon fill="midnightblue" stroke="midnightblue" points="763.67,-13.7 754.8,-19.49 765.35,-20.49 763.67,-13.7"/>
</g>
<!-- Node25 -->
<g id="node25" class="node">
<title>Node25</title>
<g id="a_node25"><a target="_blank" xlink:href="http://en.cppreference.com/w/cpp/io/basic_ofstream/close.html#" target="_top" xlink:title=" ">
<polygon fill="white" stroke="black" points="370,-417.5 370,-436.5 474,-436.5 474,-417.5 370,-417.5"/>
<text text-anchor="middle" x="422" y="-424.5" font-family="Helvetica,sans-Serif" font-size="10.00">std::ofstream::close</text>
</a>
</g>
</g>
<!-- Node24&#45;&gt;Node25 -->
<g id="edge26" class="edge">
<title>Node24&#45;&gt;Node25</title>
<path fill="none" stroke="midnightblue" d="M293.05,-456.38C315.69,-451.18 344.82,-444.49 369.58,-438.81"/>
<polygon fill="midnightblue" stroke="midnightblue" points="370.56,-442.17 379.53,-436.52 369,-435.35 370.56,-442.17"/>
</g>
<!-- Node26 -->
<g id="node26" class="node">
<title>Node26</title>
<g id="a_node26"><a target="_blank" xlink:href="http://en.cppreference.com/w/cpp/io/basic_ofstream/is_open.html#" target="_top" xlink:title=" ">
<polygon fill="white" stroke="black" points="365,-379.5 365,-398.5 479,-398.5 479,-379.5 365,-379.5"/>
<text text-anchor="middle" x="422" y="-386.5" font-family="Helvetica,sans-Serif" font-size="10.00">std::ofstream::is_open</text>
</a>
</g>
</g>
<!-- Node24&#45;&gt;Node26 -->
<g id="edge27" class="edge">
<title>Node24&#45;&gt;Node26</title>
<path fill="none" stroke="midnightblue" d="M290.17,-455.39C300.79,-451.69 312.23,-446.91 322,-441 340.57,-429.76 339.14,-418.74 358,-408 361.85,-405.81 365.97,-403.85 370.2,-402.1"/>
<polygon fill="midnightblue" stroke="midnightblue" points="371.43,-405.37 379.56,-398.59 368.97,-398.82 371.43,-405.37"/>
</g>
<!-- Node27 -->
<g id="node27" class="node">
<title>Node27</title>
<g id="a_node27"><a target="_blank" xlink:href="http://en.cppreference.com/w/cpp/io/basic_ofstream/open.html#" target="_top" xlink:title=" ">
<polygon fill="white" stroke="black" points="371.5,-455.5 371.5,-474.5 472.5,-474.5 472.5,-455.5 371.5,-455.5"/>
<text text-anchor="middle" x="422" y="-462.5" font-family="Helvetica,sans-Serif" font-size="10.00">std::ofstream::open</text>
</a>
</g>
</g>
<!-- Node24&#45;&gt;Node27 -->
<g id="edge28" class="edge">
<title>Node24&#45;&gt;Node27</title>
<path fill="none" stroke="midnightblue" d="M293.05,-465C313.15,-465 338.38,-465 361.11,-465"/>
<polygon fill="midnightblue" stroke="midnightblue" points="361.35,-468.5 371.35,-465 361.35,-461.5 361.35,-468.5"/>
</g>
<!-- Node28&#45;&gt;Node6 -->
<g id="edge30" class="edge">
<title>Node28&#45;&gt;Node6</title>
<path fill="none" stroke="midnightblue" d="M285.56,-272.23C297.19,-276.21 310.45,-281.28 322,-287 350.31,-301.03 380.47,-321.41 399.96,-335.38"/>
<polygon fill="midnightblue" stroke="midnightblue" points="397.97,-338.26 408.12,-341.3 402.08,-332.59 397.97,-338.26"/>
</g>
<!-- Node29&#45;&gt;Node6 -->
<g id="edge32" class="edge">
<title>Node29&#45;&gt;Node6</title>
<path fill="none" stroke="midnightblue" d="M131.64,-429.45C169.29,-433.68 257.74,-439.17 322,-408 342.93,-397.85 338.2,-382.21 358,-370 366.21,-364.94 375.86,-361.14 385.11,-358.34"/>
<polygon fill="midnightblue" stroke="midnightblue" points="386.17,-361.68 394.89,-355.67 384.33,-354.92 386.17,-361.68"/>
</g>
<!-- Node29&#45;&gt;Node8 -->
<g id="edge33" class="edge">
<title>Node29&#45;&gt;Node8</title>
<path fill="none" stroke="midnightblue" d="M123.74,-417.42C137.33,-405.11 162.47,-383.71 187,-370 190.69,-367.94 194.59,-365.98 198.57,-364.13"/>
<polygon fill="midnightblue" stroke="midnightblue" points="200.2,-367.24 207.96,-360.03 197.39,-360.82 200.2,-367.24"/>
</g>
<!-- Node29&#45;&gt;Node20 -->
<g id="edge34" class="edge">
<title>Node29&#45;&gt;Node20</title>
<path fill="none" stroke="midnightblue" d="M131.79,-434.71C138.15,-437.78 145.15,-441.64 151,-446 169.65,-459.91 165.63,-474.81 187,-484 309.08,-536.51 369.62,-548.15 486,-484 512.24,-469.54 504.87,-451.58 522,-427 535.96,-406.97 553.12,-384.89 565.04,-369.9"/>
<polygon fill="midnightblue" stroke="midnightblue" points="567.87,-371.97 571.39,-361.97 562.41,-367.59 567.87,-371.97"/>
</g>
<!-- Node29&#45;&gt;Node24 -->
<g id="edge35" class="edge">
<title>Node29&#45;&gt;Node24</title>
<path fill="none" stroke="midnightblue" d="M131.52,-431.89C150.9,-437.15 182.47,-445.72 208.63,-452.82"/>
<polygon fill="midnightblue" stroke="midnightblue" points="207.79,-456.22 218.36,-455.46 209.62,-449.46 207.79,-456.22"/>
</g>
<!-- Node30 -->
<g id="node30" class="node">
<title>Node30</title>
<g id="a_node30"><a xlink:href="../../d9/d49/kohonen__som__trace_8cpp.html#a412b7afa156306b1f8788643c91a1c60" target="_top" xlink:title=" ">
<polygon fill="white" stroke="black" points="211.5,-379.5 211.5,-398.5 297.5,-398.5 297.5,-379.5 211.5,-379.5"/>
<text text-anchor="middle" x="254.5" y="-386.5" font-family="Helvetica,sans-Serif" font-size="10.00">test_lamniscate</text>
</a>
</g>
</g>
<!-- Node29&#45;&gt;Node30 -->
<g id="edge36" class="edge">
<title>Node29&#45;&gt;Node30</title>
<path fill="none" stroke="midnightblue" d="M131.52,-422.11C150.9,-416.85 182.47,-408.28 208.63,-401.18"/>
<polygon fill="midnightblue" stroke="midnightblue" points="209.62,-404.54 218.36,-398.54 207.79,-397.78 209.62,-404.54"/>
</g>
<!-- Node30&#45;&gt;Node6 -->
<g id="edge37" class="edge">
<title>Node30&#45;&gt;Node6</title>
<path fill="none" stroke="midnightblue" d="M297.26,-379.41C324.31,-373.2 359.18,-365.19 385.01,-359.26"/>
<polygon fill="midnightblue" stroke="midnightblue" points="385.81,-362.67 394.78,-357.02 384.25,-355.85 385.81,-362.67"/>
</g>
<!-- Node31&#45;&gt;Node6 -->
<g id="edge39" class="edge">
<title>Node31&#45;&gt;Node6</title>
<path fill="none" stroke="midnightblue" d="M131.52,-473.9C170.5,-491.74 263.81,-526.65 322,-484 364.86,-452.59 320.19,-407.33 358,-370 365.24,-362.85 375.07,-358.38 384.81,-355.58"/>
<polygon fill="midnightblue" stroke="midnightblue" points="385.88,-358.93 394.81,-353.24 384.28,-352.11 385.88,-358.93"/>
</g>
<!-- Node31&#45;&gt;Node8 -->
<g id="edge40" class="edge">
<title>Node31&#45;&gt;Node8</title>
<path fill="none" stroke="midnightblue" d="M131.86,-458.61C138.52,-455.59 145.7,-451.44 151,-446 177.07,-419.22 159.5,-395.31 187,-370 188.7,-368.44 190.5,-366.97 192.38,-365.6"/>
<polygon fill="midnightblue" stroke="midnightblue" points="194.5,-368.4 201.1,-360.11 190.77,-362.48 194.5,-368.4"/>
</g>
<!-- Node31&#45;&gt;Node20 -->
<g id="edge41" class="edge">
<title>Node31&#45;&gt;Node20</title>
<path fill="none" stroke="midnightblue" d="M131.66,-473.66C137.88,-476.76 144.82,-480.39 151,-484 167.61,-493.7 168.78,-501.84 187,-508 312.97,-550.6 376.17,-593.97 486,-519 522.27,-494.25 500.43,-465.24 522,-427 533.99,-405.74 551.47,-383.85 564,-369.25"/>
<polygon fill="midnightblue" stroke="midnightblue" points="566.79,-371.39 570.73,-361.56 561.52,-366.78 566.79,-371.39"/>
</g>
<!-- Node31&#45;&gt;Node24 -->
<g id="edge42" class="edge">
<title>Node31&#45;&gt;Node24</title>
<path fill="none" stroke="midnightblue" d="M131.52,-465C150.14,-465 180.03,-465 205.55,-465"/>
<polygon fill="midnightblue" stroke="midnightblue" points="205.81,-468.5 215.81,-465 205.81,-461.5 205.81,-468.5"/>
</g>
<!-- Node32 -->
<g id="node32" class="node">
<title>Node32</title>
<g id="a_node32"><a xlink:href="../../d9/d49/kohonen__som__trace_8cpp.html#a9ab8c79ffb674a63f151f282faeb723b" target="_top" xlink:title=" ">
<polygon fill="white" stroke="black" points="210.5,-607.5 210.5,-626.5 298.5,-626.5 298.5,-607.5 210.5,-607.5"/>
<text text-anchor="middle" x="254.5" y="-614.5" font-family="Helvetica,sans-Serif" font-size="10.00">test_3d_classes</text>
</a>
</g>
</g>
<!-- Node31&#45;&gt;Node32 -->
<g id="edge43" class="edge">
<title>Node31&#45;&gt;Node32</title>
<path fill="none" stroke="midnightblue" d="M131.84,-470.88C138.66,-473.87 145.95,-478.14 151,-484 184.27,-522.68 151.42,-556.43 187,-593 191.11,-597.23 196.02,-600.71 201.29,-603.59"/>
<polygon fill="midnightblue" stroke="midnightblue" points="199.87,-606.78 210.41,-607.87 202.84,-600.45 199.87,-606.78"/>
</g>
<!-- Node32&#45;&gt;Node6 -->
<g id="edge44" class="edge">
<title>Node32&#45;&gt;Node6</title>
<path fill="none" stroke="midnightblue" d="M270.51,-607.31C285.97,-596.48 309.52,-577.5 322,-555 362.62,-481.74 301.83,-432.14 358,-370 365.01,-362.25 375.06,-357.61 385.07,-354.85"/>
<polygon fill="midnightblue" stroke="midnightblue" points="385.96,-358.24 394.97,-352.67 384.45,-351.4 385.96,-358.24"/>
</g>
<!-- Node32&#45;&gt;Node7 -->
<g id="edge45" class="edge">
<title>Node32&#45;&gt;Node7</title>
<path fill="none" stroke="midnightblue" d="M298.55,-623.09C347.7,-627.79 428.69,-628.46 486,-593 534.3,-563.12 562.05,-497.99 573.41,-465.39"/>
<polygon fill="midnightblue" stroke="midnightblue" points="576.8,-466.28 576.64,-455.68 570.16,-464.07 576.8,-466.28"/>
</g>
</g>
</svg>
        <g id="navigator" transform="translate(0 0)" fill="#404254">
                <rect fill="#f2f5e9" fill-opacity="0.5" stroke="#606060" stroke-width=".5" x="0" y="0" width="60" height="60"/>
                <use id="zoomplus" xlink:href="#zoomPlus" x="17" y="9" onmousedown="handleZoom(evt,'in')"/>
                <use id="zoomminus" xlink:href="#zoomMin" x="42" y="9" onmousedown="handleZoom(evt,'out')"/>
                <use id="reset" xlink:href="#resetDef" x="30" y="36" onmousedown="handleReset()"/>
                <g id="arrowUp" xlink:href="#dirArrow" transform="translate(30 24)" onmousedown="handlePan(0,-1)">
                  <use xlink:href="#rim" fill="#404040">
                        <set attributeName="fill" to="#808080" begin="arrowUp.mouseover" end="arrowUp.mouseout"/>
                  </use>
                  <path fill="none" stroke="white" stroke-width="1.5" d="M0,-3.0v7 M-2.5,-0.5L0,-3.0L2.5,-0.5"/>
                </g>
                <g id="arrowRight" xlink:href="#dirArrow" transform="rotate(90) translate(36 -43)" onmousedown="handlePan(1,0)">
                  <use xlink:href="#rim" fill="#404040">
                        <set attributeName="fill" to="#808080" begin="arrowRight.mouseover" end="arrowRight.mouseout"/>
                  </use>
                  <path fill="none" stroke="white" stroke-width="1.5" d="M0,-3.0v7 M-2.5,-0.5L0,-3.0L2.5,-0.5"/>
                </g>
                <g id="arrowDown" xlink:href="#dirArrow" transform="rotate(180) translate(-30 -48)" onmousedown="handlePan(0,1)">
                  <use xlink:href="#rim" fill="#404040">
                        <set attributeName="fill" to="#808080" begin="arrowDown.mouseover" end="arrowDown.mouseout"/>
                  </use>
                  <path fill="none" stroke="white" stroke-width="1.5" d="M0,-3.0v7 M-2.5,-0.5L0,-3.0L2.5,-0.5"/>
                </g>
                <g id="arrowLeft" xlink:href="#dirArrow" transform="rotate(270) translate(-36 17)" onmousedown="handlePan(-1,0)">
                  <use xlink:href="#rim" fill="#404040">
                        <set attributeName="fill" to="#808080" begin="arrowLeft.mouseover" end="arrowLeft.mouseout"/>
                  </use>
                  <path fill="none" stroke="white" stroke-width="1.5" d="M0,-3.0v7 M-2.5,-0.5L0,-3.0L2.5,-0.5"/>
                </g>
        </g>
        <svg viewBox="0 0 15 15" width="100%" height="30px" preserveAspectRatio="xMaxYMin meet">
         <g id="arrow_out" transform="scale(0.3 0.3)">
          <a xlink:href="kohonen__som__trace_8cpp_a3c04138a5bfe5d72780bb7e82a18e627_cgraph_org.svg" target="_base">
           <rect id="button" ry="5" rx="5" y="6" x="6" height="38" width="38"
                fill="#f2f5e9" fill-opacity="0.5" stroke="#606060" stroke-width="1.0"/>
           <path id="arrow"
             d="M 11.500037,31.436501 C 11.940474,20.09759 22.043105,11.32322 32.158766,21.979434 L 37.068811,17.246167 C 37.068811,17.246167 37.088388,32 37.088388,32 L 22.160133,31.978069 C 22.160133,31.978069 26.997745,27.140456 26.997745,27.140456 C 18.528582,18.264221 13.291696,25.230495 11.500037,31.436501 z"
             style="fill:#404040;"/>
          </a>
         </g>
        </svg>
</svg>
