<?xml version="1.0" encoding="UTF-8" standalone="no"?>
<!DOCTYPE svg PUBLIC "-//W3C//DTD SVG 1.1//EN"
 "http://www.w3.org/Graphics/SVG/1.1/DTD/svg11.dtd">
<!-- Generated by graphviz version 2.44.1 (20200629.0846)
 -->
<!-- Title: test3 Pages: 1 -->
<!--zoomable 402 -->
<svg id="main" version="1.1" xmlns="http://www.w3.org/2000/svg" xmlns:xlink="http://www.w3.org/1999/xlink" xml:space="preserve" onload="init(evt)">
<style type="text/css"><![CDATA[
.edge:hover path { stroke: red; }
.edge:hover polygon { stroke: red; fill: red; }
]]></style>
<script type="text/javascript"><![CDATA[
var edges = document.getElementsByTagName('g');
if (edges && edges.length) {
  for (var i=0;i<edges.length;i++) {
    if (edges[i].id.substr(0,4)=='edge') {
      edges[i].setAttribute('class','edge');
    }
  }
}
]]></script>
        <defs>
                <circle id="rim" cx="0" cy="0" r="7"/>
                <circle id="rim2" cx="0" cy="0" r="3.5"/>
                <g id="zoomPlus">
                        <use xlink:href="#rim" fill="#404040">
                                <set attributeName="fill" to="#808080" begin="zoomplus.mouseover" end="zoomplus.mouseout"/>
                        </use>
                        <path d="M-4,0h8M0,-4v8" fill="none" stroke="white" stroke-width="1.5" pointer-events="none"/>
                </g>
                <g id="zoomMin">
                        <use xlink:href="#rim" fill="#404040">
                                <set attributeName="fill" to="#808080" begin="zoomminus.mouseover" end="zoomminus.mouseout"/>
                        </use>
                        <path d="M-4,0h8" fill="none" stroke="white" stroke-width="1.5" pointer-events="none"/>
                </g>
                <g id="dirArrow">
                        <path fill="none" stroke="white" stroke-width="1.5" d="M0,-3.0v7 M-2.5,-0.5L0,-3.0L2.5,-0.5"/>
                </g>
               <g id="resetDef">
                       <use xlink:href="#rim2" fill="#404040">
                               <set attributeName="fill" to="#808080" begin="reset.mouseover" end="reset.mouseout"/>
                       </use>
               </g>
        </defs>

<script type="text/javascript">
var viewWidth = 883;
var viewHeight = 402;
var sectionId = 'dynsection-4';
</script>
<script xlink:href="../../svgpan.js"/>
<svg id="graph" class="graph">
<g id="viewport">
<title>test3</title>
<polygon fill="white" stroke="transparent" points="-4,4 -4,-398.38 879,-398.38 879,4 -4,4"/>
<!-- Node1 -->
<g id="node1" class="node">
<title>Node1</title>
<g id="a_node1"><a xlink:title=" ">
<polygon fill="#bfbfbf" stroke="black" points="0,-116.88 0,-135.88 38,-135.88 38,-116.88 0,-116.88"/>
<text text-anchor="middle" x="19" y="-123.88" font-family="Helvetica,sans-Serif" font-size="10.00">test3</text>
</a>
</g>
</g>
<!-- Node2 -->
<g id="node2" class="node">
<title>Node2</title>
<g id="a_node2"><a xlink:href="../../d9/d66/group__machine__learning.html#gaf5ce14f026d6d231bef29161bac2b485" target="_top" xlink:title=" ">
<polygon fill="white" stroke="black" points="282,-2.88 282,-21.88 336,-21.88 336,-2.88 282,-2.88"/>
<text text-anchor="middle" x="309" y="-9.88" font-family="Helvetica,sans-Serif" font-size="10.00">_random</text>
</a>
</g>
</g>
<!-- Node1&#45;&gt;Node2 -->
<g id="edge1" class="edge">
<title>Node1&#45;&gt;Node2</title>
<path fill="none" stroke="midnightblue" d="M22.26,-116.77C27.5,-96.89 42.48,-51.47 74,-31.38 134.52,7.2 222.49,1.7 271.52,-5.5"/>
<polygon fill="midnightblue" stroke="midnightblue" points="271.23,-9 281.65,-7.09 272.32,-2.08 271.23,-9"/>
</g>
<!-- Node4 -->
<g id="node4" class="node">
<title>Node4</title>
<g id="a_node4"><a xlink:href="../../d8/d77/namespacemachine__learning.html#acc6a28f40512dbda75ab1a3969248898" target="_top" xlink:title=" ">
<polygon fill="white" stroke="black" points="74,-239.38 74,-269.38 209,-269.38 209,-239.38 74,-239.38"/>
<text text-anchor="start" x="82" y="-257.38" font-family="Helvetica,sans-Serif" font-size="10.00">machine_learning::kohonen</text>
<text text-anchor="middle" x="141.5" y="-246.38" font-family="Helvetica,sans-Serif" font-size="10.00">_som_tracer</text>
</a>
</g>
</g>
<!-- Node1&#45;&gt;Node4 -->
<g id="edge3" class="edge">
<title>Node1&#45;&gt;Node4</title>
<path fill="none" stroke="midnightblue" d="M23.87,-136.13C31.31,-153.91 49.13,-192.03 74,-216.38 80.91,-223.14 89.26,-229.13 97.68,-234.24"/>
<polygon fill="midnightblue" stroke="midnightblue" points="96,-237.31 106.42,-239.24 99.47,-231.23 96,-237.31"/>
</g>
<!-- Node16 -->
<g id="node16" class="node">
<title>Node16</title>
<g id="a_node16"><a target="_blank" xlink:href="http://en.cppreference.com/w/cpp/algorithm/max.html#" target="_top" xlink:title=" ">
<polygon fill="white" stroke="black" points="440,-184.88 440,-203.88 495,-203.88 495,-184.88 440,-184.88"/>
<text text-anchor="middle" x="467.5" y="-191.88" font-family="Helvetica,sans-Serif" font-size="10.00">std::max</text>
</a>
</g>
</g>
<!-- Node1&#45;&gt;Node16 -->
<g id="edge20" class="edge">
<title>Node1&#45;&gt;Node16</title>
<path fill="none" stroke="midnightblue" d="M38.32,-133.44C48.69,-137.28 61.96,-141.93 74,-145.38 148.85,-166.78 167.85,-172.96 245,-183.38 309.51,-192.08 385.41,-194.09 429.53,-194.44"/>
<polygon fill="midnightblue" stroke="midnightblue" points="429.75,-197.95 439.77,-194.5 429.79,-190.95 429.75,-197.95"/>
</g>
<!-- Node20 -->
<g id="node20" class="node">
<title>Node20</title>
<g id="a_node20"><a xlink:href="../../d9/d66/group__machine__learning.html#ga72699c805c19a6cc47a937a6f3378afa" target="_top" xlink:title=" ">
<polygon fill="white" stroke="black" points="103,-116.88 103,-135.88 180,-135.88 180,-116.88 103,-116.88"/>
<text text-anchor="middle" x="141.5" y="-123.88" font-family="Helvetica,sans-Serif" font-size="10.00">save_nd_data</text>
</a>
</g>
</g>
<!-- Node1&#45;&gt;Node20 -->
<g id="edge21" class="edge">
<title>Node1&#45;&gt;Node20</title>
<path fill="none" stroke="midnightblue" d="M38.04,-126.38C52.51,-126.38 73.51,-126.38 92.73,-126.38"/>
<polygon fill="midnightblue" stroke="midnightblue" points="92.88,-129.88 102.88,-126.38 92.88,-122.88 92.88,-129.88"/>
</g>
<!-- Node24 -->
<g id="node24" class="node">
<title>Node24</title>
<g id="a_node24"><a xlink:href="../../d9/d49/kohonen__som__trace_8cpp.html#a9ab8c79ffb674a63f151f282faeb723b" target="_top" xlink:title=" ">
<polygon fill="white" stroke="black" points="97.5,-40.88 97.5,-59.88 185.5,-59.88 185.5,-40.88 97.5,-40.88"/>
<text text-anchor="middle" x="141.5" y="-47.88" font-family="Helvetica,sans-Serif" font-size="10.00">test_3d_classes</text>
</a>
</g>
</g>
<!-- Node1&#45;&gt;Node24 -->
<g id="edge25" class="edge">
<title>Node1&#45;&gt;Node24</title>
<path fill="none" stroke="midnightblue" d="M35.26,-116.75C55.81,-103.79 92.6,-80.59 116.77,-65.34"/>
<polygon fill="midnightblue" stroke="midnightblue" points="118.77,-68.22 125.36,-59.92 115.04,-62.3 118.77,-68.22"/>
</g>
<!-- Node3 -->
<g id="node3" class="node">
<title>Node3</title>
<g id="a_node3"><a target="_blank" xlink:href="http://en.cppreference.com/w/cpp/numeric/random/rand.html#" target="_top" xlink:title=" ">
<polygon fill="white" stroke="black" points="440,-21.88 440,-40.88 495,-40.88 495,-21.88 440,-21.88"/>
<text text-anchor="middle" x="467.5" y="-28.88" font-family="Helvetica,sans-Serif" font-size="10.00">std::rand</text>
</a>
</g>
</g>
<!-- Node2&#45;&gt;Node3 -->
<g id="edge2" class="edge">
<title>Node2&#45;&gt;Node3</title>
<path fill="none" stroke="midnightblue" d="M336.19,-15.56C361.85,-18.67 401.16,-23.44 429.89,-26.93"/>
<polygon fill="midnightblue" stroke="midnightblue" points="429.61,-30.42 439.96,-28.15 430.45,-23.47 429.61,-30.42"/>
</g>
<!-- Node5 -->
<g id="node5" class="node">
<title>Node5</title>
<g id="a_node5"><a xlink:href="../../d8/d77/namespacemachine__learning.html#ac4010fe3a52a74e8b5b1aaadfe38b46f" target="_top" xlink:title=" ">
<polygon fill="white" stroke="black" points="245,-255.38 245,-285.38 373,-285.38 373,-255.38 245,-255.38"/>
<text text-anchor="start" x="253" y="-273.38" font-family="Helvetica,sans-Serif" font-size="10.00">machine_learning::update</text>
<text text-anchor="middle" x="309" y="-262.38" font-family="Helvetica,sans-Serif" font-size="10.00">_weights</text>
</a>
</g>
</g>
<!-- Node4&#45;&gt;Node5 -->
<g id="edge4" class="edge">
<title>Node4&#45;&gt;Node5</title>
<path fill="none" stroke="midnightblue" d="M209.34,-260.84C217.69,-261.65 226.27,-262.48 234.72,-263.29"/>
<polygon fill="midnightblue" stroke="midnightblue" points="234.64,-266.8 244.93,-264.28 235.32,-259.83 234.64,-266.8"/>
</g>
<!-- Node6 -->
<g id="node6" class="node">
<title>Node6</title>
<g id="a_node6"><a target="_blank" xlink:href="http://en.cppreference.com/w/cpp/numeric/math/exp.html#" target="_top" xlink:title=" ">
<polygon fill="white" stroke="black" points="441.5,-298.88 441.5,-317.88 493.5,-317.88 493.5,-298.88 441.5,-298.88"/>
<text text-anchor="middle" x="467.5" y="-305.88" font-family="Helvetica,sans-Serif" font-size="10.00">std::exp</text>
</a>
</g>
</g>
<!-- Node5&#45;&gt;Node6 -->
<g id="edge5" class="edge">
<title>Node5&#45;&gt;Node6</title>
<path fill="none" stroke="midnightblue" d="M371.85,-285.4C392.14,-290.32 413.96,-295.62 431.53,-299.89"/>
<polygon fill="midnightblue" stroke="midnightblue" points="430.8,-303.31 441.34,-302.27 432.45,-296.51 430.8,-303.31"/>
</g>
<!-- Node7 -->
<g id="node7" class="node">
<title>Node7</title>
<g id="a_node7"><a xlink:href="../../d9/d66/group__machine__learning.html#gab53c14440b2b2dd3172c66afc5c2f63f" target="_top" xlink:title=" ">
<polygon fill="white" stroke="black" points="434,-260.88 434,-279.88 501,-279.88 501,-260.88 434,-260.88"/>
<text text-anchor="middle" x="467.5" y="-267.88" font-family="Helvetica,sans-Serif" font-size="10.00">get_min_2d</text>
</a>
</g>
</g>
<!-- Node5&#45;&gt;Node7 -->
<g id="edge6" class="edge">
<title>Node5&#45;&gt;Node7</title>
<path fill="none" stroke="midnightblue" d="M373.2,-270.38C390.02,-270.38 407.8,-270.38 423.28,-270.38"/>
<polygon fill="midnightblue" stroke="midnightblue" points="423.59,-273.88 433.59,-270.38 423.59,-266.88 423.59,-273.88"/>
</g>
<!-- Node5&#45;&gt;Node16 -->
<g id="edge16" class="edge">
<title>Node5&#45;&gt;Node16</title>
<path fill="none" stroke="midnightblue" d="M333.29,-255.15C352.91,-242.78 382.03,-225.45 409,-213.38 415.73,-210.37 423.09,-207.58 430.22,-205.12"/>
<polygon fill="midnightblue" stroke="midnightblue" points="431.34,-208.44 439.74,-201.98 429.14,-201.79 431.34,-208.44"/>
</g>
<!-- Node17 -->
<g id="node17" class="node">
<title>Node17</title>
<g id="a_node17"><a target="_blank" xlink:href="http://en.cppreference.com/w/cpp/algorithm/min.html#" target="_top" xlink:title=" ">
<polygon fill="white" stroke="black" points="441.5,-222.88 441.5,-241.88 493.5,-241.88 493.5,-222.88 441.5,-222.88"/>
<text text-anchor="middle" x="467.5" y="-229.88" font-family="Helvetica,sans-Serif" font-size="10.00">std::min</text>
</a>
</g>
</g>
<!-- Node5&#45;&gt;Node17 -->
<g id="edge17" class="edge">
<title>Node5&#45;&gt;Node17</title>
<path fill="none" stroke="midnightblue" d="M371.85,-255.36C392.14,-250.43 413.96,-245.13 431.53,-240.87"/>
<polygon fill="midnightblue" stroke="midnightblue" points="432.45,-244.25 441.34,-238.49 430.8,-237.44 432.45,-244.25"/>
</g>
<!-- Node18 -->
<g id="node18" class="node">
<title>Node18</title>
<g id="a_node18"><a target="_blank" xlink:href="http://en.cppreference.com/w/cpp/numeric/math/sqrt.html#" target="_top" xlink:title=" ">
<polygon fill="white" stroke="black" points="441,-374.88 441,-393.88 494,-393.88 494,-374.88 441,-374.88"/>
<text text-anchor="middle" x="467.5" y="-381.88" font-family="Helvetica,sans-Serif" font-size="10.00">std::sqrt</text>
</a>
</g>
</g>
<!-- Node5&#45;&gt;Node18 -->
<g id="edge18" class="edge">
<title>Node5&#45;&gt;Node18</title>
<path fill="none" stroke="midnightblue" d="M322.15,-285.72C339.38,-306.54 372.88,-343.63 409,-365.38 415.76,-369.45 423.51,-372.77 431.07,-375.42"/>
<polygon fill="midnightblue" stroke="midnightblue" points="430.23,-378.83 440.82,-378.54 432.36,-372.16 430.23,-378.83"/>
</g>
<!-- Node19 -->
<g id="node19" class="node">
<title>Node19</title>
<g id="a_node19"><a xlink:href="../../d8/d77/namespacemachine__learning.html#a5305cc18d11943d3dc0d66e70d7e9c44" target="_top" xlink:title=" ">
<polygon fill="white" stroke="black" points="409,-336.88 409,-355.88 526,-355.88 526,-336.88 409,-336.88"/>
<text text-anchor="middle" x="467.5" y="-343.88" font-family="Helvetica,sans-Serif" font-size="10.00">machine_learning::sum</text>
</a>
</g>
</g>
<!-- Node5&#45;&gt;Node19 -->
<g id="edge19" class="edge">
<title>Node5&#45;&gt;Node19</title>
<path fill="none" stroke="midnightblue" d="M333.29,-285.6C352.91,-297.98 382.03,-315.31 409,-327.38 413.8,-329.52 418.91,-331.56 424.03,-333.44"/>
<polygon fill="midnightblue" stroke="midnightblue" points="423.23,-336.86 433.83,-336.86 425.54,-330.25 423.23,-336.86"/>
</g>
<!-- Node8 -->
<g id="node8" class="node">
<title>Node8</title>
<g id="a_node8"><a target="_blank" xlink:href="http://en.cppreference.com/w/cpp/iterator/begin.html#" target="_top" xlink:title=" ">
<polygon fill="white" stroke="black" points="578.5,-336.88 578.5,-355.88 637.5,-355.88 637.5,-336.88 578.5,-336.88"/>
<text text-anchor="middle" x="608" y="-343.88" font-family="Helvetica,sans-Serif" font-size="10.00">std::begin</text>
</a>
</g>
</g>
<!-- Node7&#45;&gt;Node8 -->
<g id="edge7" class="edge">
<title>Node7&#45;&gt;Node8</title>
<path fill="none" stroke="midnightblue" d="M501.09,-278.07C509.58,-280.88 518.46,-284.59 526,-289.38 545.64,-301.85 542.88,-314.13 562,-327.38 564.57,-329.16 567.32,-330.81 570.17,-332.35"/>
<polygon fill="midnightblue" stroke="midnightblue" points="568.88,-335.62 579.4,-336.85 571.94,-329.33 568.88,-335.62"/>
</g>
<!-- Node9 -->
<g id="node9" class="node">
<title>Node9</title>
<g id="a_node9"><a target="_blank" xlink:href="http://en.cppreference.com/w/cpp/iterator/distance.html#" target="_top" xlink:title=" ">
<polygon fill="white" stroke="black" points="571.5,-298.88 571.5,-317.88 644.5,-317.88 644.5,-298.88 571.5,-298.88"/>
<text text-anchor="middle" x="608" y="-305.88" font-family="Helvetica,sans-Serif" font-size="10.00">std::distance</text>
</a>
</g>
</g>
<!-- Node7&#45;&gt;Node9 -->
<g id="edge8" class="edge">
<title>Node7&#45;&gt;Node9</title>
<path fill="none" stroke="midnightblue" d="M501.32,-279.38C519.53,-284.38 542.42,-290.66 562.25,-296.1"/>
<polygon fill="midnightblue" stroke="midnightblue" points="561.42,-299.5 571.99,-298.77 563.27,-292.75 561.42,-299.5"/>
</g>
<!-- Node10 -->
<g id="node10" class="node">
<title>Node10</title>
<g id="a_node10"><a target="_blank" xlink:href="http://en.cppreference.com/w/cpp/iterator/end.html#" target="_top" xlink:title=" ">
<polygon fill="white" stroke="black" points="582,-260.88 582,-279.88 634,-279.88 634,-260.88 582,-260.88"/>
<text text-anchor="middle" x="608" y="-267.88" font-family="Helvetica,sans-Serif" font-size="10.00">std::end</text>
</a>
</g>
</g>
<!-- Node7&#45;&gt;Node10 -->
<g id="edge9" class="edge">
<title>Node7&#45;&gt;Node10</title>
<path fill="none" stroke="midnightblue" d="M501.32,-270.38C522.5,-270.38 550.02,-270.38 571.67,-270.38"/>
<polygon fill="midnightblue" stroke="midnightblue" points="571.77,-273.88 581.77,-270.38 571.77,-266.88 571.77,-273.88"/>
</g>
<!-- Node11 -->
<g id="node11" class="node">
<title>Node11</title>
<g id="a_node11"><a target="_blank" xlink:href="http://en.cppreference.com/w/cpp/algorithm/min_element.html#" target="_top" xlink:title=" ">
<polygon fill="white" stroke="black" points="562,-222.88 562,-241.88 654,-241.88 654,-222.88 562,-222.88"/>
<text text-anchor="middle" x="608" y="-229.88" font-family="Helvetica,sans-Serif" font-size="10.00">std::min_element</text>
</a>
</g>
</g>
<!-- Node7&#45;&gt;Node11 -->
<g id="edge10" class="edge">
<title>Node7&#45;&gt;Node11</title>
<path fill="none" stroke="midnightblue" d="M501.32,-261.37C519.53,-256.38 542.42,-250.1 562.25,-244.66"/>
<polygon fill="midnightblue" stroke="midnightblue" points="563.27,-248 571.99,-241.98 561.42,-241.25 563.27,-248"/>
</g>
<!-- Node12 -->
<g id="node12" class="node">
<title>Node12</title>
<g id="a_node12"><a xlink:href="../../dd/d47/namespacemath.html#a8d79d452a81ed27ba095d2ecb32dc4b4" target="_top" xlink:title=" ">
<polygon fill="white" stroke="black" points="574,-184.88 574,-203.88 642,-203.88 642,-184.88 574,-184.88"/>
<text text-anchor="middle" x="608" y="-191.88" font-family="Helvetica,sans-Serif" font-size="10.00">math::result</text>
</a>
</g>
</g>
<!-- Node7&#45;&gt;Node12 -->
<g id="edge11" class="edge">
<title>Node7&#45;&gt;Node12</title>
<path fill="none" stroke="midnightblue" d="M501.09,-262.68C509.58,-259.87 518.46,-256.17 526,-251.38 545.64,-238.91 542.88,-226.63 562,-213.38 564.57,-211.6 567.32,-209.94 570.17,-208.4"/>
<polygon fill="midnightblue" stroke="midnightblue" points="571.94,-211.43 579.4,-203.9 568.88,-205.14 571.94,-211.43"/>
</g>
<!-- Node13 -->
<g id="node13" class="node">
<title>Node13</title>
<g id="a_node13"><a xlink:href="../../d7/d35/matrix__exponentiation_8cpp.html#ad8389ed58fd0ec66df248014775ad1fa" target="_top" xlink:title=" ">
<polygon fill="white" stroke="black" points="709.5,-222.88 709.5,-241.88 741.5,-241.88 741.5,-222.88 709.5,-222.88"/>
<text text-anchor="middle" x="725.5" y="-229.88" font-family="Helvetica,sans-Serif" font-size="10.00">ans</text>
</a>
</g>
</g>
<!-- Node12&#45;&gt;Node13 -->
<g id="edge12" class="edge">
<title>Node12&#45;&gt;Node13</title>
<path fill="none" stroke="midnightblue" d="M638.15,-203.97C657.12,-210.21 681.6,-218.26 699.64,-224.2"/>
<polygon fill="midnightblue" stroke="midnightblue" points="698.59,-227.54 709.18,-227.34 700.78,-220.89 698.59,-227.54"/>
</g>
<!-- Node14 -->
<g id="node14" class="node">
<title>Node14</title>
<g id="a_node14"><a xlink:href="../../dd/d47/namespacemath.html#a4a55bb9ec6c59485d3fdb18bd88ca5b6" target="_top" xlink:title=" ">
<polygon fill="white" stroke="black" points="690,-146.88 690,-165.88 761,-165.88 761,-146.88 690,-146.88"/>
<text text-anchor="middle" x="725.5" y="-153.88" font-family="Helvetica,sans-Serif" font-size="10.00">math::power</text>
</a>
</g>
</g>
<!-- Node12&#45;&gt;Node14 -->
<g id="edge13" class="edge">
<title>Node12&#45;&gt;Node14</title>
<path fill="none" stroke="midnightblue" d="M638.15,-184.79C652.51,-180.06 670.03,-174.3 685.53,-169.2"/>
<polygon fill="midnightblue" stroke="midnightblue" points="686.96,-172.41 695.36,-165.96 684.77,-165.76 686.96,-172.41"/>
</g>
<!-- Node15 -->
<g id="node15" class="node">
<title>Node15</title>
<g id="a_node15"><a xlink:href="../../dd/d47/namespacemath.html#ab65d9997885347702dc0c3ec09d5dc21" target="_top" xlink:title=" ">
<polygon fill="white" stroke="black" points="797,-165.88 797,-184.88 875,-184.88 875,-165.88 797,-165.88"/>
<text text-anchor="middle" x="836" y="-172.88" font-family="Helvetica,sans-Serif" font-size="10.00">math::multiply</text>
</a>
</g>
</g>
<!-- Node14&#45;&gt;Node15 -->
<g id="edge14" class="edge">
<title>Node14&#45;&gt;Node15</title>
<path fill="none" stroke="midnightblue" d="M761.13,-162.44C769.33,-163.88 778.22,-165.43 786.9,-166.95"/>
<polygon fill="midnightblue" stroke="midnightblue" points="786.49,-170.44 796.94,-168.71 787.7,-163.54 786.49,-170.44"/>
</g>
<!-- Node15&#45;&gt;Node12 -->
<g id="edge15" class="edge">
<title>Node15&#45;&gt;Node12</title>
<path fill="none" stroke="midnightblue" d="M796.98,-178.57C757.06,-181.93 694.39,-187.2 652.52,-190.72"/>
<polygon fill="midnightblue" stroke="midnightblue" points="652.02,-187.25 642.35,-191.57 652.61,-194.22 652.02,-187.25"/>
</g>
<!-- Node21 -->
<g id="node21" class="node">
<title>Node21</title>
<g id="a_node21"><a target="_blank" xlink:href="http://en.cppreference.com/w/cpp/io/basic_ofstream/close.html#" target="_top" xlink:title=" ">
<polygon fill="white" stroke="black" points="257,-116.88 257,-135.88 361,-135.88 361,-116.88 257,-116.88"/>
<text text-anchor="middle" x="309" y="-123.88" font-family="Helvetica,sans-Serif" font-size="10.00">std::ofstream::close</text>
</a>
</g>
</g>
<!-- Node20&#45;&gt;Node21 -->
<g id="edge22" class="edge">
<title>Node20&#45;&gt;Node21</title>
<path fill="none" stroke="midnightblue" d="M180.05,-126.38C199.74,-126.38 224.34,-126.38 246.7,-126.38"/>
<polygon fill="midnightblue" stroke="midnightblue" points="246.79,-129.88 256.79,-126.38 246.79,-122.88 246.79,-129.88"/>
</g>
<!-- Node22 -->
<g id="node22" class="node">
<title>Node22</title>
<g id="a_node22"><a target="_blank" xlink:href="http://en.cppreference.com/w/cpp/io/basic_ofstream/is_open.html#" target="_top" xlink:title=" ">
<polygon fill="white" stroke="black" points="252,-78.88 252,-97.88 366,-97.88 366,-78.88 252,-78.88"/>
<text text-anchor="middle" x="309" y="-85.88" font-family="Helvetica,sans-Serif" font-size="10.00">std::ofstream::is_open</text>
</a>
</g>
</g>
<!-- Node20&#45;&gt;Node22 -->
<g id="edge23" class="edge">
<title>Node20&#45;&gt;Node22</title>
<path fill="none" stroke="midnightblue" d="M180.05,-117.75C202.69,-112.56 231.82,-105.87 256.58,-100.18"/>
<polygon fill="midnightblue" stroke="midnightblue" points="257.56,-103.55 266.53,-97.9 256,-96.73 257.56,-103.55"/>
</g>
<!-- Node23 -->
<g id="node23" class="node">
<title>Node23</title>
<g id="a_node23"><a target="_blank" xlink:href="http://en.cppreference.com/w/cpp/io/basic_ofstream/open.html#" target="_top" xlink:title=" ">
<polygon fill="white" stroke="black" points="258.5,-154.88 258.5,-173.88 359.5,-173.88 359.5,-154.88 258.5,-154.88"/>
<text text-anchor="middle" x="309" y="-161.88" font-family="Helvetica,sans-Serif" font-size="10.00">std::ofstream::open</text>
</a>
</g>
</g>
<!-- Node20&#45;&gt;Node23 -->
<g id="edge24" class="edge">
<title>Node20&#45;&gt;Node23</title>
<path fill="none" stroke="midnightblue" d="M180.05,-135C202.69,-140.2 231.82,-146.89 256.58,-152.57"/>
<polygon fill="midnightblue" stroke="midnightblue" points="256,-156.03 266.53,-154.85 257.56,-149.21 256,-156.03"/>
</g>
<!-- Node24&#45;&gt;Node2 -->
<g id="edge26" class="edge">
<title>Node24&#45;&gt;Node2</title>
<path fill="none" stroke="midnightblue" d="M184.26,-40.79C211.31,-34.58 246.18,-26.57 272.01,-20.64"/>
<polygon fill="midnightblue" stroke="midnightblue" points="272.81,-24.05 281.78,-18.4 271.25,-17.23 272.81,-24.05"/>
</g>
<!-- Node24&#45;&gt;Node3 -->
<g id="edge27" class="edge">
<title>Node24&#45;&gt;Node3</title>
<path fill="none" stroke="midnightblue" d="M185.52,-47.85C249.67,-44.09 369.27,-37.08 429.63,-33.54"/>
<polygon fill="midnightblue" stroke="midnightblue" points="430.06,-37.02 439.84,-32.94 429.65,-30.03 430.06,-37.02"/>
</g>
</g>
</svg>
        <g id="navigator" transform="translate(0 0)" fill="#404254">
                <rect fill="#f2f5e9" fill-opacity="0.5" stroke="#606060" stroke-width=".5" x="0" y="0" width="60" height="60"/>
                <use id="zoomplus" xlink:href="#zoomPlus" x="17" y="9" onmousedown="handleZoom(evt,'in')"/>
                <use id="zoomminus" xlink:href="#zoomMin" x="42" y="9" onmousedown="handleZoom(evt,'out')"/>
                <use id="reset" xlink:href="#resetDef" x="30" y="36" onmousedown="handleReset()"/>
                <g id="arrowUp" xlink:href="#dirArrow" transform="translate(30 24)" onmousedown="handlePan(0,-1)">
                  <use xlink:href="#rim" fill="#404040">
                        <set attributeName="fill" to="#808080" begin="arrowUp.mouseover" end="arrowUp.mouseout"/>
                  </use>
                  <path fill="none" stroke="white" stroke-width="1.5" d="M0,-3.0v7 M-2.5,-0.5L0,-3.0L2.5,-0.5"/>
                </g>
                <g id="arrowRight" xlink:href="#dirArrow" transform="rotate(90) translate(36 -43)" onmousedown="handlePan(1,0)">
                  <use xlink:href="#rim" fill="#404040">
                        <set attributeName="fill" to="#808080" begin="arrowRight.mouseover" end="arrowRight.mouseout"/>
                  </use>
                  <path fill="none" stroke="white" stroke-width="1.5" d="M0,-3.0v7 M-2.5,-0.5L0,-3.0L2.5,-0.5"/>
                </g>
                <g id="arrowDown" xlink:href="#dirArrow" transform="rotate(180) translate(-30 -48)" onmousedown="handlePan(0,1)">
                  <use xlink:href="#rim" fill="#404040">
                        <set attributeName="fill" to="#808080" begin="arrowDown.mouseover" end="arrowDown.mouseout"/>
                  </use>
                  <path fill="none" stroke="white" stroke-width="1.5" d="M0,-3.0v7 M-2.5,-0.5L0,-3.0L2.5,-0.5"/>
                </g>
                <g id="arrowLeft" xlink:href="#dirArrow" transform="rotate(270) translate(-36 17)" onmousedown="handlePan(-1,0)">
                  <use xlink:href="#rim" fill="#404040">
                        <set attributeName="fill" to="#808080" begin="arrowLeft.mouseover" end="arrowLeft.mouseout"/>
                  </use>
                  <path fill="none" stroke="white" stroke-width="1.5" d="M0,-3.0v7 M-2.5,-0.5L0,-3.0L2.5,-0.5"/>
                </g>
        </g>
        <svg viewBox="0 0 15 15" width="100%" height="30px" preserveAspectRatio="xMaxYMin meet">
         <g id="arrow_out" transform="scale(0.3 0.3)">
          <a xlink:href="kohonen__som__trace_8cpp_a6d0455dd5c30adda100e95f0423c786e_cgraph_org.svg" target="_base">
           <rect id="button" ry="5" rx="5" y="6" x="6" height="38" width="38"
                fill="#f2f5e9" fill-opacity="0.5" stroke="#606060" stroke-width="1.0"/>
           <path id="arrow"
             d="M 11.500037,31.436501 C 11.940474,20.09759 22.043105,11.32322 32.158766,21.979434 L 37.068811,17.246167 C 37.068811,17.246167 37.088388,32 37.088388,32 L 22.160133,31.978069 C 22.160133,31.978069 26.997745,27.140456 26.997745,27.140456 C 18.528582,18.264221 13.291696,25.230495 11.500037,31.436501 z"
             style="fill:#404040;"/>
          </a>
         </g>
        </svg>
</svg>
