<?xml version="1.0" encoding="UTF-8" standalone="no"?>
<!DOCTYPE svg PUBLIC "-//W3C//DTD SVG 1.1//EN"
 "http://www.w3.org/Graphics/SVG/1.1/DTD/svg11.dtd">
<!-- Generated by graphviz version 2.44.1 (20200629.0846)
 -->
<!-- Title: test2 Pages: 1 -->
<svg width="883pt" height="319pt"
 viewBox="0.00 0.00 883.00 319.00" xmlns="http://www.w3.org/2000/svg" xmlns:xlink="http://www.w3.org/1999/xlink">
<g id="graph0" class="graph" transform="scale(1 1) rotate(0) translate(4 315)">
<title>test2</title>
<polygon fill="white" stroke="transparent" points="-4,4 -4,-315 879,-315 879,4 -4,4"/>
<!-- Node1 -->
<g id="node1" class="node">
<title>Node1</title>
<g id="a_node1"><a xlink:title=" ">
<polygon fill="#bfbfbf" stroke="black" points="0,-158.5 0,-177.5 38,-177.5 38,-158.5 0,-158.5"/>
<text text-anchor="middle" x="19" y="-165.5" font-family="Helvetica,sans-Serif" font-size="10.00">test2</text>
</a>
</g>
</g>
<!-- Node2 -->
<g id="node2" class="node">
<title>Node2</title>
<g id="a_node2"><a xlink:href="../../d9/d66/group__machine__learning.html#gaf5ce14f026d6d231bef29161bac2b485" target="_top" xlink:title=" ">
<polygon fill="white" stroke="black" points="282,-240.5 282,-259.5 336,-259.5 336,-240.5 282,-240.5"/>
<text text-anchor="middle" x="309" y="-247.5" font-family="Helvetica,sans-Serif" font-size="10.00">_random</text>
</a>
</g>
</g>
<!-- Node1&#45;&gt;Node2 -->
<g id="edge1" class="edge">
<title>Node1&#45;&gt;Node2</title>
<path fill="none" stroke="midnightblue" d="M25.07,-177.76C33.2,-192.27 50.64,-219.09 74,-231 137.6,-263.43 223.7,-260.38 271.75,-255.22"/>
<polygon fill="midnightblue" stroke="midnightblue" points="272.16,-258.69 281.69,-254.06 271.35,-251.74 272.16,-258.69"/>
</g>
<!-- Node4 -->
<g id="node4" class="node">
<title>Node4</title>
<g id="a_node4"><a xlink:href="../../d8/d77/namespacemachine__learning.html#acc6a28f40512dbda75ab1a3969248898" target="_top" xlink:title=" ">
<polygon fill="white" stroke="black" points="74,-153 74,-183 209,-183 209,-153 74,-153"/>
<text text-anchor="start" x="82" y="-171" font-family="Helvetica,sans-Serif" font-size="10.00">machine_learning::kohonen</text>
<text text-anchor="middle" x="141.5" y="-160" font-family="Helvetica,sans-Serif" font-size="10.00">_som_tracer</text>
</a>
</g>
</g>
<!-- Node1&#45;&gt;Node4 -->
<g id="edge3" class="edge">
<title>Node1&#45;&gt;Node4</title>
<path fill="none" stroke="midnightblue" d="M38.04,-168C45.3,-168 54.2,-168 63.7,-168"/>
<polygon fill="midnightblue" stroke="midnightblue" points="63.77,-171.5 73.77,-168 63.77,-164.5 63.77,-171.5"/>
</g>
<!-- Node16 -->
<g id="node16" class="node">
<title>Node16</title>
<g id="a_node16"><a target="_blank" xlink:href="http://en.cppreference.com/w/cpp/algorithm/max.html#" target="_top" xlink:title=" ">
<polygon fill="white" stroke="black" points="440,-63.5 440,-82.5 495,-82.5 495,-63.5 440,-63.5"/>
<text text-anchor="middle" x="467.5" y="-70.5" font-family="Helvetica,sans-Serif" font-size="10.00">std::max</text>
</a>
</g>
</g>
<!-- Node1&#45;&gt;Node16 -->
<g id="edge20" class="edge">
<title>Node1&#45;&gt;Node16</title>
<path fill="none" stroke="midnightblue" d="M38.01,-158.42C48.28,-153.37 61.56,-147.5 74,-144 203.02,-107.74 242.77,-136.61 373,-105 389.53,-100.99 392.92,-97.56 409,-92 415.74,-89.67 422.95,-87.24 429.9,-84.93"/>
<polygon fill="midnightblue" stroke="midnightblue" points="431.43,-88.11 439.83,-81.65 429.23,-81.46 431.43,-88.11"/>
</g>
<!-- Node20 -->
<g id="node20" class="node">
<title>Node20</title>
<g id="a_node20"><a xlink:href="../../d9/d66/group__machine__learning.html#ga72699c805c19a6cc47a937a6f3378afa" target="_top" xlink:title=" ">
<polygon fill="white" stroke="black" points="103,-57.5 103,-76.5 180,-76.5 180,-57.5 103,-57.5"/>
<text text-anchor="middle" x="141.5" y="-64.5" font-family="Helvetica,sans-Serif" font-size="10.00">save_nd_data</text>
</a>
</g>
</g>
<!-- Node1&#45;&gt;Node20 -->
<g id="edge21" class="edge">
<title>Node1&#45;&gt;Node20</title>
<path fill="none" stroke="midnightblue" d="M27.77,-158.27C37.72,-146.16 55.86,-125.2 74,-110 86.55,-99.48 101.81,-89.44 114.55,-81.72"/>
<polygon fill="midnightblue" stroke="midnightblue" points="116.49,-84.64 123.31,-76.52 112.92,-78.62 116.49,-84.64"/>
</g>
<!-- Node24 -->
<g id="node24" class="node">
<title>Node24</title>
<g id="a_node24"><a xlink:href="../../d9/d49/kohonen__som__trace_8cpp.html#a412b7afa156306b1f8788643c91a1c60" target="_top" xlink:title=" ">
<polygon fill="white" stroke="black" points="98.5,-202.5 98.5,-221.5 184.5,-221.5 184.5,-202.5 98.5,-202.5"/>
<text text-anchor="middle" x="141.5" y="-209.5" font-family="Helvetica,sans-Serif" font-size="10.00">test_lamniscate</text>
</a>
</g>
</g>
<!-- Node1&#45;&gt;Node24 -->
<g id="edge25" class="edge">
<title>Node1&#45;&gt;Node24</title>
<path fill="none" stroke="midnightblue" d="M38.19,-177.28C48.53,-182.34 61.8,-188.46 74,-193 80.28,-195.33 86.97,-197.55 93.61,-199.59"/>
<polygon fill="midnightblue" stroke="midnightblue" points="92.65,-202.96 103.24,-202.45 94.65,-196.25 92.65,-202.96"/>
</g>
<!-- Node3 -->
<g id="node3" class="node">
<title>Node3</title>
<g id="a_node3"><a target="_blank" xlink:href="http://en.cppreference.com/w/cpp/numeric/random/rand.html#" target="_top" xlink:title=" ">
<polygon fill="white" stroke="black" points="440,-291.5 440,-310.5 495,-310.5 495,-291.5 440,-291.5"/>
<text text-anchor="middle" x="467.5" y="-298.5" font-family="Helvetica,sans-Serif" font-size="10.00">std::rand</text>
</a>
</g>
</g>
<!-- Node2&#45;&gt;Node3 -->
<g id="edge2" class="edge">
<title>Node2&#45;&gt;Node3</title>
<path fill="none" stroke="midnightblue" d="M336.19,-258.54C361.96,-266.93 401.5,-279.82 430.27,-289.19"/>
<polygon fill="midnightblue" stroke="midnightblue" points="429.37,-292.58 439.96,-292.35 431.53,-285.92 429.37,-292.58"/>
</g>
<!-- Node5 -->
<g id="node5" class="node">
<title>Node5</title>
<g id="a_node5"><a xlink:href="../../d8/d77/namespacemachine__learning.html#ac4010fe3a52a74e8b5b1aaadfe38b46f" target="_top" xlink:title=" ">
<polygon fill="white" stroke="black" points="245,-153 245,-183 373,-183 373,-153 245,-153"/>
<text text-anchor="start" x="253" y="-171" font-family="Helvetica,sans-Serif" font-size="10.00">machine_learning::update</text>
<text text-anchor="middle" x="309" y="-160" font-family="Helvetica,sans-Serif" font-size="10.00">_weights</text>
</a>
</g>
</g>
<!-- Node4&#45;&gt;Node5 -->
<g id="edge4" class="edge">
<title>Node4&#45;&gt;Node5</title>
<path fill="none" stroke="midnightblue" d="M209.34,-168C217.69,-168 226.27,-168 234.72,-168"/>
<polygon fill="midnightblue" stroke="midnightblue" points="234.93,-171.5 244.93,-168 234.93,-164.5 234.93,-171.5"/>
</g>
<!-- Node6 -->
<g id="node6" class="node">
<title>Node6</title>
<g id="a_node6"><a target="_blank" xlink:href="http://en.cppreference.com/w/cpp/numeric/math/exp.html#" target="_top" xlink:title=" ">
<polygon fill="white" stroke="black" points="441.5,-253.5 441.5,-272.5 493.5,-272.5 493.5,-253.5 441.5,-253.5"/>
<text text-anchor="middle" x="467.5" y="-260.5" font-family="Helvetica,sans-Serif" font-size="10.00">std::exp</text>
</a>
</g>
</g>
<!-- Node5&#45;&gt;Node6 -->
<g id="edge5" class="edge">
<title>Node5&#45;&gt;Node6</title>
<path fill="none" stroke="midnightblue" d="M325.98,-183.03C344.63,-199.89 377.02,-227.07 409,-244 416.12,-247.77 424.13,-250.99 431.86,-253.64"/>
<polygon fill="midnightblue" stroke="midnightblue" points="430.82,-256.98 441.41,-256.7 432.96,-250.32 430.82,-256.98"/>
</g>
<!-- Node7 -->
<g id="node7" class="node">
<title>Node7</title>
<g id="a_node7"><a xlink:href="../../d9/d66/group__machine__learning.html#gab53c14440b2b2dd3172c66afc5c2f63f" target="_top" xlink:title=" ">
<polygon fill="white" stroke="black" points="434,-215.5 434,-234.5 501,-234.5 501,-215.5 434,-215.5"/>
<text text-anchor="middle" x="467.5" y="-222.5" font-family="Helvetica,sans-Serif" font-size="10.00">get_min_2d</text>
</a>
</g>
</g>
<!-- Node5&#45;&gt;Node7 -->
<g id="edge6" class="edge">
<title>Node5&#45;&gt;Node7</title>
<path fill="none" stroke="midnightblue" d="M347.92,-183.04C366.29,-190.2 388.71,-198.76 409,-206 414.71,-208.04 420.76,-210.12 426.72,-212.13"/>
<polygon fill="midnightblue" stroke="midnightblue" points="425.97,-215.57 436.56,-215.41 428.18,-208.93 425.97,-215.57"/>
</g>
<!-- Node5&#45;&gt;Node16 -->
<g id="edge16" class="edge">
<title>Node5&#45;&gt;Node16</title>
<path fill="none" stroke="midnightblue" d="M348.98,-152.9C357.34,-148.74 365.82,-143.76 373,-138 393.26,-121.77 387.76,-106.93 409,-92 415.27,-87.59 422.63,-84.15 429.95,-81.49"/>
<polygon fill="midnightblue" stroke="midnightblue" points="431.35,-84.72 439.8,-78.32 429.21,-78.05 431.35,-84.72"/>
</g>
<!-- Node17 -->
<g id="node17" class="node">
<title>Node17</title>
<g id="a_node17"><a target="_blank" xlink:href="http://en.cppreference.com/w/cpp/algorithm/min.html#" target="_top" xlink:title=" ">
<polygon fill="white" stroke="black" points="441.5,-177.5 441.5,-196.5 493.5,-196.5 493.5,-177.5 441.5,-177.5"/>
<text text-anchor="middle" x="467.5" y="-184.5" font-family="Helvetica,sans-Serif" font-size="10.00">std::min</text>
</a>
</g>
</g>
<!-- Node5&#45;&gt;Node17 -->
<g id="edge17" class="edge">
<title>Node5&#45;&gt;Node17</title>
<path fill="none" stroke="midnightblue" d="M373.2,-175.67C393.01,-178.08 414.16,-180.65 431.31,-182.73"/>
<polygon fill="midnightblue" stroke="midnightblue" points="431.07,-186.22 441.42,-183.95 431.91,-179.27 431.07,-186.22"/>
</g>
<!-- Node18 -->
<g id="node18" class="node">
<title>Node18</title>
<g id="a_node18"><a target="_blank" xlink:href="http://en.cppreference.com/w/cpp/numeric/math/sqrt.html#" target="_top" xlink:title=" ">
<polygon fill="white" stroke="black" points="441,-139.5 441,-158.5 494,-158.5 494,-139.5 441,-139.5"/>
<text text-anchor="middle" x="467.5" y="-146.5" font-family="Helvetica,sans-Serif" font-size="10.00">std::sqrt</text>
</a>
</g>
</g>
<!-- Node5&#45;&gt;Node18 -->
<g id="edge18" class="edge">
<title>Node5&#45;&gt;Node18</title>
<path fill="none" stroke="midnightblue" d="M373.2,-160.33C392.73,-157.96 413.56,-155.43 430.58,-153.36"/>
<polygon fill="midnightblue" stroke="midnightblue" points="431.12,-156.82 440.63,-152.14 430.28,-149.87 431.12,-156.82"/>
</g>
<!-- Node19 -->
<g id="node19" class="node">
<title>Node19</title>
<g id="a_node19"><a xlink:href="../../d8/d77/namespacemachine__learning.html#a5305cc18d11943d3dc0d66e70d7e9c44" target="_top" xlink:title=" ">
<polygon fill="white" stroke="black" points="409,-101.5 409,-120.5 526,-120.5 526,-101.5 409,-101.5"/>
<text text-anchor="middle" x="467.5" y="-108.5" font-family="Helvetica,sans-Serif" font-size="10.00">machine_learning::sum</text>
</a>
</g>
</g>
<!-- Node5&#45;&gt;Node19 -->
<g id="edge19" class="edge">
<title>Node5&#45;&gt;Node19</title>
<path fill="none" stroke="midnightblue" d="M347.92,-152.96C366.29,-145.8 388.71,-137.24 409,-130 414.71,-127.96 420.76,-125.88 426.72,-123.87"/>
<polygon fill="midnightblue" stroke="midnightblue" points="428.18,-127.07 436.56,-120.59 425.97,-120.43 428.18,-127.07"/>
</g>
<!-- Node8 -->
<g id="node8" class="node">
<title>Node8</title>
<g id="a_node8"><a target="_blank" xlink:href="http://en.cppreference.com/w/cpp/iterator/begin.html#" target="_top" xlink:title=" ">
<polygon fill="white" stroke="black" points="578.5,-291.5 578.5,-310.5 637.5,-310.5 637.5,-291.5 578.5,-291.5"/>
<text text-anchor="middle" x="608" y="-298.5" font-family="Helvetica,sans-Serif" font-size="10.00">std::begin</text>
</a>
</g>
</g>
<!-- Node7&#45;&gt;Node8 -->
<g id="edge7" class="edge">
<title>Node7&#45;&gt;Node8</title>
<path fill="none" stroke="midnightblue" d="M501.09,-232.69C509.58,-235.51 518.46,-239.21 526,-244 545.64,-256.47 542.88,-268.75 562,-282 564.57,-283.78 567.32,-285.44 570.17,-286.98"/>
<polygon fill="midnightblue" stroke="midnightblue" points="568.88,-290.24 579.4,-291.47 571.94,-283.95 568.88,-290.24"/>
</g>
<!-- Node9 -->
<g id="node9" class="node">
<title>Node9</title>
<g id="a_node9"><a target="_blank" xlink:href="http://en.cppreference.com/w/cpp/iterator/distance.html#" target="_top" xlink:title=" ">
<polygon fill="white" stroke="black" points="571.5,-253.5 571.5,-272.5 644.5,-272.5 644.5,-253.5 571.5,-253.5"/>
<text text-anchor="middle" x="608" y="-260.5" font-family="Helvetica,sans-Serif" font-size="10.00">std::distance</text>
</a>
</g>
</g>
<!-- Node7&#45;&gt;Node9 -->
<g id="edge8" class="edge">
<title>Node7&#45;&gt;Node9</title>
<path fill="none" stroke="midnightblue" d="M501.32,-234.01C519.53,-239 542.42,-245.28 562.25,-250.72"/>
<polygon fill="midnightblue" stroke="midnightblue" points="561.42,-254.12 571.99,-253.39 563.27,-247.37 561.42,-254.12"/>
</g>
<!-- Node10 -->
<g id="node10" class="node">
<title>Node10</title>
<g id="a_node10"><a target="_blank" xlink:href="http://en.cppreference.com/w/cpp/iterator/end.html#" target="_top" xlink:title=" ">
<polygon fill="white" stroke="black" points="582,-215.5 582,-234.5 634,-234.5 634,-215.5 582,-215.5"/>
<text text-anchor="middle" x="608" y="-222.5" font-family="Helvetica,sans-Serif" font-size="10.00">std::end</text>
</a>
</g>
</g>
<!-- Node7&#45;&gt;Node10 -->
<g id="edge9" class="edge">
<title>Node7&#45;&gt;Node10</title>
<path fill="none" stroke="midnightblue" d="M501.32,-225C522.5,-225 550.02,-225 571.67,-225"/>
<polygon fill="midnightblue" stroke="midnightblue" points="571.77,-228.5 581.77,-225 571.77,-221.5 571.77,-228.5"/>
</g>
<!-- Node11 -->
<g id="node11" class="node">
<title>Node11</title>
<g id="a_node11"><a target="_blank" xlink:href="http://en.cppreference.com/w/cpp/algorithm/min_element.html#" target="_top" xlink:title=" ">
<polygon fill="white" stroke="black" points="562,-177.5 562,-196.5 654,-196.5 654,-177.5 562,-177.5"/>
<text text-anchor="middle" x="608" y="-184.5" font-family="Helvetica,sans-Serif" font-size="10.00">std::min_element</text>
</a>
</g>
</g>
<!-- Node7&#45;&gt;Node11 -->
<g id="edge10" class="edge">
<title>Node7&#45;&gt;Node11</title>
<path fill="none" stroke="midnightblue" d="M501.32,-215.99C519.53,-211 542.42,-204.72 562.25,-199.28"/>
<polygon fill="midnightblue" stroke="midnightblue" points="563.27,-202.63 571.99,-196.61 561.42,-195.88 563.27,-202.63"/>
</g>
<!-- Node12 -->
<g id="node12" class="node">
<title>Node12</title>
<g id="a_node12"><a xlink:href="../../dd/d47/namespacemath.html#a8d79d452a81ed27ba095d2ecb32dc4b4" target="_top" xlink:title=" ">
<polygon fill="white" stroke="black" points="574,-139.5 574,-158.5 642,-158.5 642,-139.5 574,-139.5"/>
<text text-anchor="middle" x="608" y="-146.5" font-family="Helvetica,sans-Serif" font-size="10.00">math::result</text>
</a>
</g>
</g>
<!-- Node7&#45;&gt;Node12 -->
<g id="edge11" class="edge">
<title>Node7&#45;&gt;Node12</title>
<path fill="none" stroke="midnightblue" d="M501.09,-217.31C509.58,-214.49 518.46,-210.79 526,-206 545.64,-193.53 542.88,-181.25 562,-168 564.57,-166.22 567.32,-164.56 570.17,-163.02"/>
<polygon fill="midnightblue" stroke="midnightblue" points="571.94,-166.05 579.4,-158.53 568.88,-159.76 571.94,-166.05"/>
</g>
<!-- Node13 -->
<g id="node13" class="node">
<title>Node13</title>
<g id="a_node13"><a xlink:href="../../d7/d35/matrix__exponentiation_8cpp.html#ad8389ed58fd0ec66df248014775ad1fa" target="_top" xlink:title=" ">
<polygon fill="white" stroke="black" points="709.5,-177.5 709.5,-196.5 741.5,-196.5 741.5,-177.5 709.5,-177.5"/>
<text text-anchor="middle" x="725.5" y="-184.5" font-family="Helvetica,sans-Serif" font-size="10.00">ans</text>
</a>
</g>
</g>
<!-- Node12&#45;&gt;Node13 -->
<g id="edge12" class="edge">
<title>Node12&#45;&gt;Node13</title>
<path fill="none" stroke="midnightblue" d="M638.15,-158.59C657.12,-164.83 681.6,-172.88 699.64,-178.82"/>
<polygon fill="midnightblue" stroke="midnightblue" points="698.59,-182.16 709.18,-181.96 700.78,-175.51 698.59,-182.16"/>
</g>
<!-- Node14 -->
<g id="node14" class="node">
<title>Node14</title>
<g id="a_node14"><a xlink:href="../../dd/d47/namespacemath.html#a4a55bb9ec6c59485d3fdb18bd88ca5b6" target="_top" xlink:title=" ">
<polygon fill="white" stroke="black" points="690,-139.5 690,-158.5 761,-158.5 761,-139.5 690,-139.5"/>
<text text-anchor="middle" x="725.5" y="-146.5" font-family="Helvetica,sans-Serif" font-size="10.00">math::power</text>
</a>
</g>
</g>
<!-- Node12&#45;&gt;Node14 -->
<g id="edge13" class="edge">
<title>Node12&#45;&gt;Node14</title>
<path fill="none" stroke="midnightblue" d="M642.1,-149C653.76,-149 667.08,-149 679.56,-149"/>
<polygon fill="midnightblue" stroke="midnightblue" points="679.79,-152.5 689.79,-149 679.79,-145.5 679.79,-152.5"/>
</g>
<!-- Node15 -->
<g id="node15" class="node">
<title>Node15</title>
<g id="a_node15"><a xlink:href="../../dd/d47/namespacemath.html#ab65d9997885347702dc0c3ec09d5dc21" target="_top" xlink:title=" ">
<polygon fill="white" stroke="black" points="797,-120.5 797,-139.5 875,-139.5 875,-120.5 797,-120.5"/>
<text text-anchor="middle" x="836" y="-127.5" font-family="Helvetica,sans-Serif" font-size="10.00">math::multiply</text>
</a>
</g>
</g>
<!-- Node14&#45;&gt;Node15 -->
<g id="edge14" class="edge">
<title>Node14&#45;&gt;Node15</title>
<path fill="none" stroke="midnightblue" d="M761.13,-142.94C769.33,-141.5 778.22,-139.94 786.9,-138.42"/>
<polygon fill="midnightblue" stroke="midnightblue" points="787.7,-141.84 796.94,-136.66 786.49,-134.94 787.7,-141.84"/>
</g>
<!-- Node15&#45;&gt;Node12 -->
<g id="edge15" class="edge">
<title>Node15&#45;&gt;Node12</title>
<path fill="none" stroke="midnightblue" d="M796.7,-127.61C767.39,-126.35 726.01,-125.83 690,-130 677.45,-131.45 664.01,-134.13 651.76,-137.03"/>
<polygon fill="midnightblue" stroke="midnightblue" points="650.67,-133.7 641.8,-139.49 652.35,-140.49 650.67,-133.7"/>
</g>
<!-- Node21 -->
<g id="node21" class="node">
<title>Node21</title>
<g id="a_node21"><a target="_blank" xlink:href="http://en.cppreference.com/w/cpp/io/basic_ofstream/close.html#" target="_top" xlink:title=" ">
<polygon fill="white" stroke="black" points="257,-76.5 257,-95.5 361,-95.5 361,-76.5 257,-76.5"/>
<text text-anchor="middle" x="309" y="-83.5" font-family="Helvetica,sans-Serif" font-size="10.00">std::ofstream::close</text>
</a>
</g>
</g>
<!-- Node20&#45;&gt;Node21 -->
<g id="edge22" class="edge">
<title>Node20&#45;&gt;Node21</title>
<path fill="none" stroke="midnightblue" d="M180.05,-71.31C199.74,-73.57 224.34,-76.4 246.7,-78.96"/>
<polygon fill="midnightblue" stroke="midnightblue" points="246.46,-82.46 256.79,-80.12 247.26,-75.5 246.46,-82.46"/>
</g>
<!-- Node22 -->
<g id="node22" class="node">
<title>Node22</title>
<g id="a_node22"><a target="_blank" xlink:href="http://en.cppreference.com/w/cpp/io/basic_ofstream/is_open.html#" target="_top" xlink:title=" ">
<polygon fill="white" stroke="black" points="252,-38.5 252,-57.5 366,-57.5 366,-38.5 252,-38.5"/>
<text text-anchor="middle" x="309" y="-45.5" font-family="Helvetica,sans-Serif" font-size="10.00">std::ofstream::is_open</text>
</a>
</g>
</g>
<!-- Node20&#45;&gt;Node22 -->
<g id="edge23" class="edge">
<title>Node20&#45;&gt;Node22</title>
<path fill="none" stroke="midnightblue" d="M180.05,-62.69C198.25,-60.6 220.65,-58.03 241.59,-55.62"/>
<polygon fill="midnightblue" stroke="midnightblue" points="242.2,-59.08 251.73,-54.46 241.4,-52.12 242.2,-59.08"/>
</g>
<!-- Node23 -->
<g id="node23" class="node">
<title>Node23</title>
<g id="a_node23"><a target="_blank" xlink:href="http://en.cppreference.com/w/cpp/io/basic_ofstream/open.html#" target="_top" xlink:title=" ">
<polygon fill="white" stroke="black" points="258.5,-0.5 258.5,-19.5 359.5,-19.5 359.5,-0.5 258.5,-0.5"/>
<text text-anchor="middle" x="309" y="-7.5" font-family="Helvetica,sans-Serif" font-size="10.00">std::ofstream::open</text>
</a>
</g>
</g>
<!-- Node20&#45;&gt;Node23 -->
<g id="edge24" class="edge">
<title>Node20&#45;&gt;Node23</title>
<path fill="none" stroke="midnightblue" d="M167.2,-57.35C187.87,-49.4 218.19,-38 245,-29 251.48,-26.83 258.36,-24.63 265.12,-22.54"/>
<polygon fill="midnightblue" stroke="midnightblue" points="266.31,-25.84 274.85,-19.58 264.27,-19.14 266.31,-25.84"/>
</g>
<!-- Node24&#45;&gt;Node2 -->
<g id="edge26" class="edge">
<title>Node24&#45;&gt;Node2</title>
<path fill="none" stroke="midnightblue" d="M184.26,-221.59C211.31,-227.8 246.18,-235.81 272.01,-241.74"/>
<polygon fill="midnightblue" stroke="midnightblue" points="271.25,-245.15 281.78,-243.98 272.81,-238.33 271.25,-245.15"/>
</g>
</g>
</svg>
