<?xml version="1.0" encoding="UTF-8" standalone="no"?>
<!DOCTYPE svg PUBLIC "-//W3C//DTD SVG 1.1//EN"
 "http://www.w3.org/Graphics/SVG/1.1/DTD/svg11.dtd">
<!-- Generated by graphviz version 2.44.1 (20200629.0846)
 -->
<!-- Title: string_search::rabin_karp Pages: 1 -->
<svg width="650pt" height="154pt"
 viewBox="0.00 0.00 650.00 153.50" xmlns="http://www.w3.org/2000/svg" xmlns:xlink="http://www.w3.org/1999/xlink">
<g id="graph0" class="graph" transform="scale(1 1) rotate(0) translate(4 149.5)">
<title>string_search::rabin_karp</title>
<polygon fill="white" stroke="transparent" points="-4,4 -4,-149.5 646,-149.5 646,4 -4,4"/>
<!-- Node1 -->
<g id="node1" class="node">
<title>Node1</title>
<g id="a_node1"><a xlink:title=" ">
<polygon fill="#bfbfbf" stroke="black" points="0,-57.5 0,-76.5 126,-76.5 126,-57.5 0,-57.5"/>
<text text-anchor="middle" x="63" y="-64.5" font-family="Helvetica,sans-Serif" font-size="10.00">string_search::rabin_karp</text>
</a>
</g>
</g>
<!-- Node2 -->
<g id="node2" class="node">
<title>Node2</title>
<g id="a_node2"><a xlink:href="../../d9/d03/namespacestring__search.html#aebe07cea289a13142503d98be7df11fd" target="_top" xlink:title=" ">
<polygon fill="white" stroke="black" points="186,-115 186,-145 293,-145 293,-115 186,-115"/>
<text text-anchor="start" x="194" y="-133" font-family="Helvetica,sans-Serif" font-size="10.00">string_search::check</text>
<text text-anchor="middle" x="239.5" y="-122" font-family="Helvetica,sans-Serif" font-size="10.00">_if_equal</text>
</a>
</g>
</g>
<!-- Node1&#45;&gt;Node2 -->
<g id="edge1" class="edge">
<title>Node1&#45;&gt;Node2</title>
<path fill="none" stroke="midnightblue" d="M87.63,-76.58C107.4,-84.49 136.39,-95.86 162,-105 168.28,-107.24 174.87,-109.51 181.45,-111.73"/>
<polygon fill="midnightblue" stroke="midnightblue" points="180.43,-115.08 191.03,-114.93 182.65,-108.44 180.43,-115.08"/>
</g>
<!-- Node3 -->
<g id="node3" class="node">
<title>Node3</title>
<g id="a_node3"><a xlink:href="../../d9/d03/namespacestring__search.html#a8fb0bc932ba8b582c9f4c71338d050f8" target="_top" xlink:title=" ">
<polygon fill="white" stroke="black" points="172.5,-76.5 172.5,-95.5 306.5,-95.5 306.5,-76.5 172.5,-76.5"/>
<text text-anchor="middle" x="239.5" y="-83.5" font-family="Helvetica,sans-Serif" font-size="10.00">string_search::create_hash</text>
</a>
</g>
</g>
<!-- Node1&#45;&gt;Node3 -->
<g id="edge2" class="edge">
<title>Node1&#45;&gt;Node3</title>
<path fill="none" stroke="midnightblue" d="M126.01,-73.75C137.72,-75.03 150.1,-76.37 162.18,-77.69"/>
<polygon fill="midnightblue" stroke="midnightblue" points="161.93,-81.18 172.25,-78.79 162.69,-74.22 161.93,-81.18"/>
</g>
<!-- Node8 -->
<g id="node8" class="node">
<title>Node8</title>
<g id="a_node8"><a xlink:href="../../d9/d03/namespacestring__search.html#aed769d565b705a9b3e0eb1ec74088893" target="_top" xlink:title=" ">
<polygon fill="white" stroke="black" points="162,-38.5 162,-57.5 317,-57.5 317,-38.5 162,-38.5"/>
<text text-anchor="middle" x="239.5" y="-45.5" font-family="Helvetica,sans-Serif" font-size="10.00">string_search::recalculate_hash</text>
</a>
</g>
</g>
<!-- Node1&#45;&gt;Node8 -->
<g id="edge8" class="edge">
<title>Node1&#45;&gt;Node8</title>
<path fill="none" stroke="midnightblue" d="M126.01,-60.25C134.32,-59.34 142.96,-58.4 151.6,-57.46"/>
<polygon fill="midnightblue" stroke="midnightblue" points="152.16,-60.92 161.72,-56.36 151.4,-53.96 152.16,-60.92"/>
</g>
<!-- Node9 -->
<g id="node9" class="node">
<title>Node9</title>
<g id="a_node9"><a target="_blank" xlink:href="http://en.cppreference.com/w/cpp/string/basic_string/size.html#" target="_top" xlink:title=" ">
<polygon fill="white" stroke="black" points="197.5,-0.5 197.5,-19.5 281.5,-19.5 281.5,-0.5 197.5,-0.5"/>
<text text-anchor="middle" x="239.5" y="-7.5" font-family="Helvetica,sans-Serif" font-size="10.00">std::string::size</text>
</a>
</g>
</g>
<!-- Node1&#45;&gt;Node9 -->
<g id="edge9" class="edge">
<title>Node1&#45;&gt;Node9</title>
<path fill="none" stroke="midnightblue" d="M86.29,-57.43C105.97,-49.2 135.56,-37.37 162,-29 170.16,-26.42 178.89,-23.96 187.44,-21.73"/>
<polygon fill="midnightblue" stroke="midnightblue" points="188.51,-25.07 197.34,-19.21 186.79,-18.28 188.51,-25.07"/>
</g>
<!-- Node4 -->
<g id="node4" class="node">
<title>Node4</title>
<g id="a_node4"><a xlink:href="../../dd/d47/namespacemath.html#a8d79d452a81ed27ba095d2ecb32dc4b4" target="_top" xlink:title=" ">
<polygon fill="white" stroke="black" points="353,-76.5 353,-95.5 421,-95.5 421,-76.5 353,-76.5"/>
<text text-anchor="middle" x="387" y="-83.5" font-family="Helvetica,sans-Serif" font-size="10.00">math::result</text>
</a>
</g>
</g>
<!-- Node3&#45;&gt;Node4 -->
<g id="edge3" class="edge">
<title>Node3&#45;&gt;Node4</title>
<path fill="none" stroke="midnightblue" d="M306.86,-86C318.9,-86 331.18,-86 342.36,-86"/>
<polygon fill="midnightblue" stroke="midnightblue" points="342.7,-89.5 352.7,-86 342.7,-82.5 342.7,-89.5"/>
</g>
<!-- Node5 -->
<g id="node5" class="node">
<title>Node5</title>
<g id="a_node5"><a xlink:href="../../d7/d35/matrix__exponentiation_8cpp.html#ad8389ed58fd0ec66df248014775ad1fa" target="_top" xlink:title=" ">
<polygon fill="white" stroke="black" points="476.5,-114.5 476.5,-133.5 508.5,-133.5 508.5,-114.5 476.5,-114.5"/>
<text text-anchor="middle" x="492.5" y="-121.5" font-family="Helvetica,sans-Serif" font-size="10.00">ans</text>
</a>
</g>
</g>
<!-- Node4&#45;&gt;Node5 -->
<g id="edge4" class="edge">
<title>Node4&#45;&gt;Node5</title>
<path fill="none" stroke="midnightblue" d="M414.12,-95.59C430.23,-101.5 450.78,-109.05 466.65,-114.88"/>
<polygon fill="midnightblue" stroke="midnightblue" points="465.72,-118.26 476.31,-118.42 468.13,-111.69 465.72,-118.26"/>
</g>
<!-- Node6 -->
<g id="node6" class="node">
<title>Node6</title>
<g id="a_node6"><a xlink:href="../../dd/d47/namespacemath.html#a4a55bb9ec6c59485d3fdb18bd88ca5b6" target="_top" xlink:title=" ">
<polygon fill="white" stroke="black" points="457,-76.5 457,-95.5 528,-95.5 528,-76.5 457,-76.5"/>
<text text-anchor="middle" x="492.5" y="-83.5" font-family="Helvetica,sans-Serif" font-size="10.00">math::power</text>
</a>
</g>
</g>
<!-- Node4&#45;&gt;Node6 -->
<g id="edge5" class="edge">
<title>Node4&#45;&gt;Node6</title>
<path fill="none" stroke="midnightblue" d="M421.03,-86C429.28,-86 438.26,-86 446.97,-86"/>
<polygon fill="midnightblue" stroke="midnightblue" points="447,-89.5 457,-86 447,-82.5 447,-89.5"/>
</g>
<!-- Node7 -->
<g id="node7" class="node">
<title>Node7</title>
<g id="a_node7"><a xlink:href="../../dd/d47/namespacemath.html#ab65d9997885347702dc0c3ec09d5dc21" target="_top" xlink:title=" ">
<polygon fill="white" stroke="black" points="564,-57.5 564,-76.5 642,-76.5 642,-57.5 564,-57.5"/>
<text text-anchor="middle" x="603" y="-64.5" font-family="Helvetica,sans-Serif" font-size="10.00">math::multiply</text>
</a>
</g>
</g>
<!-- Node6&#45;&gt;Node7 -->
<g id="edge6" class="edge">
<title>Node6&#45;&gt;Node7</title>
<path fill="none" stroke="midnightblue" d="M528.13,-79.94C536.33,-78.5 545.22,-76.94 553.9,-75.42"/>
<polygon fill="midnightblue" stroke="midnightblue" points="554.7,-78.84 563.94,-73.66 553.49,-71.94 554.7,-78.84"/>
</g>
<!-- Node7&#45;&gt;Node4 -->
<g id="edge7" class="edge">
<title>Node7&#45;&gt;Node4</title>
<path fill="none" stroke="midnightblue" d="M563.96,-64.23C534.6,-62.76 493.05,-62.13 457,-67 446.66,-68.4 435.67,-70.92 425.58,-73.69"/>
<polygon fill="midnightblue" stroke="midnightblue" points="424.48,-70.36 415.84,-76.5 426.42,-77.09 424.48,-70.36"/>
</g>
</g>
</svg>
