<?xml version="1.0" encoding="UTF-8" standalone="no"?>
<!DOCTYPE svg PUBLIC "-//W3C//DTD SVG 1.1//EN"
 "http://www.w3.org/Graphics/SVG/1.1/DTD/svg11.dtd">
<!-- Generated by graphviz version 2.44.1 (20200629.0846)
 -->
<!-- Title: main Pages: 1 -->
<svg width="724pt" height="154pt"
 viewBox="0.00 0.00 724.00 153.50" xmlns="http://www.w3.org/2000/svg" xmlns:xlink="http://www.w3.org/1999/xlink">
<g id="graph0" class="graph" transform="scale(1 1) rotate(0) translate(4 149.5)">
<title>main</title>
<polygon fill="white" stroke="transparent" points="-4,4 -4,-149.5 720,-149.5 720,4 -4,4"/>
<!-- Node1 -->
<g id="node1" class="node">
<title>Node1</title>
<g id="a_node1"><a xlink:title=" ">
<polygon fill="#bfbfbf" stroke="black" points="0,-57.5 0,-76.5 38,-76.5 38,-57.5 0,-57.5"/>
<text text-anchor="middle" x="19" y="-64.5" font-family="Helvetica,sans-Serif" font-size="10.00">main</text>
</a>
</g>
</g>
<!-- Node2 -->
<g id="node2" class="node">
<title>Node2</title>
<g id="a_node2"><a xlink:href="../../d9/d03/namespacestring__search.html#a21c673d56cbf67b1d2ee4d869185b7d9" target="_top" xlink:title=" ">
<polygon fill="white" stroke="black" points="74,-57.5 74,-76.5 200,-76.5 200,-57.5 74,-57.5"/>
<text text-anchor="middle" x="137" y="-64.5" font-family="Helvetica,sans-Serif" font-size="10.00">string_search::rabin_karp</text>
</a>
</g>
</g>
<!-- Node1&#45;&gt;Node2 -->
<g id="edge1" class="edge">
<title>Node1&#45;&gt;Node2</title>
<path fill="none" stroke="midnightblue" d="M38.12,-67C45.33,-67 54.13,-67 63.46,-67"/>
<polygon fill="midnightblue" stroke="midnightblue" points="63.76,-70.5 73.76,-67 63.76,-63.5 63.76,-70.5"/>
</g>
<!-- Node3 -->
<g id="node3" class="node">
<title>Node3</title>
<g id="a_node3"><a xlink:href="../../d9/d03/namespacestring__search.html#aebe07cea289a13142503d98be7df11fd" target="_top" xlink:title=" ">
<polygon fill="white" stroke="black" points="260,-115 260,-145 367,-145 367,-115 260,-115"/>
<text text-anchor="start" x="268" y="-133" font-family="Helvetica,sans-Serif" font-size="10.00">string_search::check</text>
<text text-anchor="middle" x="313.5" y="-122" font-family="Helvetica,sans-Serif" font-size="10.00">_if_equal</text>
</a>
</g>
</g>
<!-- Node2&#45;&gt;Node3 -->
<g id="edge2" class="edge">
<title>Node2&#45;&gt;Node3</title>
<path fill="none" stroke="midnightblue" d="M161.63,-76.58C181.4,-84.49 210.39,-95.86 236,-105 242.28,-107.24 248.87,-109.51 255.45,-111.73"/>
<polygon fill="midnightblue" stroke="midnightblue" points="254.43,-115.08 265.03,-114.93 256.65,-108.44 254.43,-115.08"/>
</g>
<!-- Node4 -->
<g id="node4" class="node">
<title>Node4</title>
<g id="a_node4"><a xlink:href="../../d9/d03/namespacestring__search.html#a8fb0bc932ba8b582c9f4c71338d050f8" target="_top" xlink:title=" ">
<polygon fill="white" stroke="black" points="246.5,-76.5 246.5,-95.5 380.5,-95.5 380.5,-76.5 246.5,-76.5"/>
<text text-anchor="middle" x="313.5" y="-83.5" font-family="Helvetica,sans-Serif" font-size="10.00">string_search::create_hash</text>
</a>
</g>
</g>
<!-- Node2&#45;&gt;Node4 -->
<g id="edge3" class="edge">
<title>Node2&#45;&gt;Node4</title>
<path fill="none" stroke="midnightblue" d="M200.01,-73.75C211.72,-75.03 224.1,-76.37 236.18,-77.69"/>
<polygon fill="midnightblue" stroke="midnightblue" points="235.93,-81.18 246.25,-78.79 236.69,-74.22 235.93,-81.18"/>
</g>
<!-- Node9 -->
<g id="node9" class="node">
<title>Node9</title>
<g id="a_node9"><a xlink:href="../../d9/d03/namespacestring__search.html#aed769d565b705a9b3e0eb1ec74088893" target="_top" xlink:title=" ">
<polygon fill="white" stroke="black" points="236,-38.5 236,-57.5 391,-57.5 391,-38.5 236,-38.5"/>
<text text-anchor="middle" x="313.5" y="-45.5" font-family="Helvetica,sans-Serif" font-size="10.00">string_search::recalculate_hash</text>
</a>
</g>
</g>
<!-- Node2&#45;&gt;Node9 -->
<g id="edge9" class="edge">
<title>Node2&#45;&gt;Node9</title>
<path fill="none" stroke="midnightblue" d="M200.01,-60.25C208.32,-59.34 216.96,-58.4 225.6,-57.46"/>
<polygon fill="midnightblue" stroke="midnightblue" points="226.16,-60.92 235.72,-56.36 225.4,-53.96 226.16,-60.92"/>
</g>
<!-- Node10 -->
<g id="node10" class="node">
<title>Node10</title>
<g id="a_node10"><a target="_blank" xlink:href="http://en.cppreference.com/w/cpp/string/basic_string/size.html#" target="_top" xlink:title=" ">
<polygon fill="white" stroke="black" points="271.5,-0.5 271.5,-19.5 355.5,-19.5 355.5,-0.5 271.5,-0.5"/>
<text text-anchor="middle" x="313.5" y="-7.5" font-family="Helvetica,sans-Serif" font-size="10.00">std::string::size</text>
</a>
</g>
</g>
<!-- Node2&#45;&gt;Node10 -->
<g id="edge10" class="edge">
<title>Node2&#45;&gt;Node10</title>
<path fill="none" stroke="midnightblue" d="M160.29,-57.43C179.97,-49.2 209.56,-37.37 236,-29 244.16,-26.42 252.89,-23.96 261.44,-21.73"/>
<polygon fill="midnightblue" stroke="midnightblue" points="262.51,-25.07 271.34,-19.21 260.79,-18.28 262.51,-25.07"/>
</g>
<!-- Node5 -->
<g id="node5" class="node">
<title>Node5</title>
<g id="a_node5"><a xlink:href="../../dd/d47/namespacemath.html#a8d79d452a81ed27ba095d2ecb32dc4b4" target="_top" xlink:title=" ">
<polygon fill="white" stroke="black" points="427,-76.5 427,-95.5 495,-95.5 495,-76.5 427,-76.5"/>
<text text-anchor="middle" x="461" y="-83.5" font-family="Helvetica,sans-Serif" font-size="10.00">math::result</text>
</a>
</g>
</g>
<!-- Node4&#45;&gt;Node5 -->
<g id="edge4" class="edge">
<title>Node4&#45;&gt;Node5</title>
<path fill="none" stroke="midnightblue" d="M380.86,-86C392.9,-86 405.18,-86 416.36,-86"/>
<polygon fill="midnightblue" stroke="midnightblue" points="416.7,-89.5 426.7,-86 416.7,-82.5 416.7,-89.5"/>
</g>
<!-- Node6 -->
<g id="node6" class="node">
<title>Node6</title>
<g id="a_node6"><a xlink:href="../../d7/d35/matrix__exponentiation_8cpp.html#ad8389ed58fd0ec66df248014775ad1fa" target="_top" xlink:title=" ">
<polygon fill="white" stroke="black" points="550.5,-114.5 550.5,-133.5 582.5,-133.5 582.5,-114.5 550.5,-114.5"/>
<text text-anchor="middle" x="566.5" y="-121.5" font-family="Helvetica,sans-Serif" font-size="10.00">ans</text>
</a>
</g>
</g>
<!-- Node5&#45;&gt;Node6 -->
<g id="edge5" class="edge">
<title>Node5&#45;&gt;Node6</title>
<path fill="none" stroke="midnightblue" d="M488.12,-95.59C504.23,-101.5 524.78,-109.05 540.65,-114.88"/>
<polygon fill="midnightblue" stroke="midnightblue" points="539.72,-118.26 550.31,-118.42 542.13,-111.69 539.72,-118.26"/>
</g>
<!-- Node7 -->
<g id="node7" class="node">
<title>Node7</title>
<g id="a_node7"><a xlink:href="../../dd/d47/namespacemath.html#a4a55bb9ec6c59485d3fdb18bd88ca5b6" target="_top" xlink:title=" ">
<polygon fill="white" stroke="black" points="531,-76.5 531,-95.5 602,-95.5 602,-76.5 531,-76.5"/>
<text text-anchor="middle" x="566.5" y="-83.5" font-family="Helvetica,sans-Serif" font-size="10.00">math::power</text>
</a>
</g>
</g>
<!-- Node5&#45;&gt;Node7 -->
<g id="edge6" class="edge">
<title>Node5&#45;&gt;Node7</title>
<path fill="none" stroke="midnightblue" d="M495.03,-86C503.28,-86 512.26,-86 520.97,-86"/>
<polygon fill="midnightblue" stroke="midnightblue" points="521,-89.5 531,-86 521,-82.5 521,-89.5"/>
</g>
<!-- Node8 -->
<g id="node8" class="node">
<title>Node8</title>
<g id="a_node8"><a xlink:href="../../dd/d47/namespacemath.html#ab65d9997885347702dc0c3ec09d5dc21" target="_top" xlink:title=" ">
<polygon fill="white" stroke="black" points="638,-57.5 638,-76.5 716,-76.5 716,-57.5 638,-57.5"/>
<text text-anchor="middle" x="677" y="-64.5" font-family="Helvetica,sans-Serif" font-size="10.00">math::multiply</text>
</a>
</g>
</g>
<!-- Node7&#45;&gt;Node8 -->
<g id="edge7" class="edge">
<title>Node7&#45;&gt;Node8</title>
<path fill="none" stroke="midnightblue" d="M602.13,-79.94C610.33,-78.5 619.22,-76.94 627.9,-75.42"/>
<polygon fill="midnightblue" stroke="midnightblue" points="628.7,-78.84 637.94,-73.66 627.49,-71.94 628.7,-78.84"/>
</g>
<!-- Node8&#45;&gt;Node5 -->
<g id="edge8" class="edge">
<title>Node8&#45;&gt;Node5</title>
<path fill="none" stroke="midnightblue" d="M637.96,-64.23C608.6,-62.76 567.05,-62.13 531,-67 520.66,-68.4 509.67,-70.92 499.58,-73.69"/>
<polygon fill="midnightblue" stroke="midnightblue" points="498.48,-70.36 489.84,-76.5 500.42,-77.09 498.48,-70.36"/>
</g>
</g>
</svg>
