<?xml version="1.0" encoding="UTF-8" standalone="no"?>
<!DOCTYPE svg PUBLIC "-//W3C//DTD SVG 1.1//EN"
 "http://www.w3.org/Graphics/SVG/1.1/DTD/svg11.dtd">
<!-- Generated by graphviz version 2.44.1 (20200629.0846)
 -->
<!-- Title: determinant_lu Pages: 1 -->
<svg width="453pt" height="123pt"
 viewBox="0.00 0.00 453.00 123.00" xmlns="http://www.w3.org/2000/svg" xmlns:xlink="http://www.w3.org/1999/xlink">
<g id="graph0" class="graph" transform="scale(1 1) rotate(0) translate(4 119)">
<title>determinant_lu</title>
<polygon fill="white" stroke="transparent" points="-4,4 -4,-119 449,-119 449,4 -4,4"/>
<!-- Node1 -->
<g id="node1" class="node">
<title>Node1</title>
<g id="a_node1"><a xlink:title=" ">
<polygon fill="#bfbfbf" stroke="black" points="0,-57.5 0,-76.5 80,-76.5 80,-57.5 0,-57.5"/>
<text text-anchor="middle" x="40" y="-64.5" font-family="Helvetica,sans-Serif" font-size="10.00">determinant_lu</text>
</a>
</g>
</g>
<!-- Node2 -->
<g id="node2" class="node">
<title>Node2</title>
<g id="a_node2"><a xlink:href="../../d1/dbe/lu__decomposition_8h.html#a75b8a228c6419ecda6077255d6d60509" target="_top" xlink:title=" ">
<polygon fill="white" stroke="black" points="116,-95.5 116,-114.5 208,-114.5 208,-95.5 116,-95.5"/>
<text text-anchor="middle" x="162" y="-102.5" font-family="Helvetica,sans-Serif" font-size="10.00">lu_decomposition</text>
</a>
</g>
</g>
<!-- Node1&#45;&gt;Node2 -->
<g id="edge1" class="edge">
<title>Node1&#45;&gt;Node2</title>
<path fill="none" stroke="midnightblue" d="M71.28,-76.59C86.35,-81.36 104.75,-87.19 120.97,-92.32"/>
<polygon fill="midnightblue" stroke="midnightblue" points="120.14,-95.73 130.73,-95.41 122.25,-89.06 120.14,-95.73"/>
</g>
<!-- Node3 -->
<g id="node3" class="node">
<title>Node3</title>
<g id="a_node3"><a target="_blank" xlink:href="http://en.cppreference.com/w/cpp/container/vector/size.html#" target="_top" xlink:title=" ">
<polygon fill="white" stroke="black" points="244,-95.5 244,-114.5 331,-114.5 331,-95.5 244,-95.5"/>
<text text-anchor="middle" x="287.5" y="-102.5" font-family="Helvetica,sans-Serif" font-size="10.00">std::vector::size</text>
</a>
</g>
</g>
<!-- Node1&#45;&gt;Node3 -->
<g id="edge8" class="edge">
<title>Node1&#45;&gt;Node3</title>
<path fill="none" stroke="midnightblue" d="M80,-70.06C113.97,-73.05 164.47,-78.29 208,-86 218.89,-87.93 230.52,-90.47 241.4,-93.07"/>
<polygon fill="midnightblue" stroke="midnightblue" points="240.59,-96.48 251.14,-95.45 242.25,-89.68 240.59,-96.48"/>
</g>
<!-- Node4 -->
<g id="node4" class="node">
<title>Node4</title>
<g id="a_node4"><a xlink:href="../../dd/d47/namespacemath.html#a8d79d452a81ed27ba095d2ecb32dc4b4" target="_top" xlink:title=" ">
<polygon fill="white" stroke="black" points="128,-19.5 128,-38.5 196,-38.5 196,-19.5 128,-19.5"/>
<text text-anchor="middle" x="162" y="-26.5" font-family="Helvetica,sans-Serif" font-size="10.00">math::result</text>
</a>
</g>
</g>
<!-- Node1&#45;&gt;Node4 -->
<g id="edge3" class="edge">
<title>Node1&#45;&gt;Node4</title>
<path fill="none" stroke="midnightblue" d="M71.28,-57.41C86.35,-52.64 104.75,-46.81 120.97,-41.68"/>
<polygon fill="midnightblue" stroke="midnightblue" points="122.25,-44.94 130.73,-38.59 120.14,-38.27 122.25,-44.94"/>
</g>
<!-- Node2&#45;&gt;Node3 -->
<g id="edge2" class="edge">
<title>Node2&#45;&gt;Node3</title>
<path fill="none" stroke="midnightblue" d="M208.29,-105C216.51,-105 225.15,-105 233.57,-105"/>
<polygon fill="midnightblue" stroke="midnightblue" points="233.68,-108.5 243.68,-105 233.68,-101.5 233.68,-108.5"/>
</g>
<!-- Node5 -->
<g id="node5" class="node">
<title>Node5</title>
<g id="a_node5"><a xlink:href="../../d7/d35/matrix__exponentiation_8cpp.html#ad8389ed58fd0ec66df248014775ad1fa" target="_top" xlink:title=" ">
<polygon fill="white" stroke="black" points="271.5,-57.5 271.5,-76.5 303.5,-76.5 303.5,-57.5 271.5,-57.5"/>
<text text-anchor="middle" x="287.5" y="-64.5" font-family="Helvetica,sans-Serif" font-size="10.00">ans</text>
</a>
</g>
</g>
<!-- Node4&#45;&gt;Node5 -->
<g id="edge4" class="edge">
<title>Node4&#45;&gt;Node5</title>
<path fill="none" stroke="midnightblue" d="M194.16,-38.59C215.12,-45.04 242.37,-53.42 261.82,-59.41"/>
<polygon fill="midnightblue" stroke="midnightblue" points="260.89,-62.78 271.47,-62.38 262.94,-56.09 260.89,-62.78"/>
</g>
<!-- Node6 -->
<g id="node6" class="node">
<title>Node6</title>
<g id="a_node6"><a xlink:href="../../dd/d47/namespacemath.html#a4a55bb9ec6c59485d3fdb18bd88ca5b6" target="_top" xlink:title=" ">
<polygon fill="white" stroke="black" points="252,-19.5 252,-38.5 323,-38.5 323,-19.5 252,-19.5"/>
<text text-anchor="middle" x="287.5" y="-26.5" font-family="Helvetica,sans-Serif" font-size="10.00">math::power</text>
</a>
</g>
</g>
<!-- Node4&#45;&gt;Node6 -->
<g id="edge5" class="edge">
<title>Node4&#45;&gt;Node6</title>
<path fill="none" stroke="midnightblue" d="M196.1,-29C210.03,-29 226.46,-29 241.47,-29"/>
<polygon fill="midnightblue" stroke="midnightblue" points="241.58,-32.5 251.58,-29 241.58,-25.5 241.58,-32.5"/>
</g>
<!-- Node7 -->
<g id="node7" class="node">
<title>Node7</title>
<g id="a_node7"><a xlink:href="../../dd/d47/namespacemath.html#ab65d9997885347702dc0c3ec09d5dc21" target="_top" xlink:title=" ">
<polygon fill="white" stroke="black" points="367,-0.5 367,-19.5 445,-19.5 445,-0.5 367,-0.5"/>
<text text-anchor="middle" x="406" y="-7.5" font-family="Helvetica,sans-Serif" font-size="10.00">math::multiply</text>
</a>
</g>
</g>
<!-- Node6&#45;&gt;Node7 -->
<g id="edge6" class="edge">
<title>Node6&#45;&gt;Node7</title>
<path fill="none" stroke="midnightblue" d="M323.14,-23.35C333.61,-21.64 345.32,-19.73 356.52,-17.91"/>
<polygon fill="midnightblue" stroke="midnightblue" points="357.32,-21.32 366.62,-16.26 356.19,-14.41 357.32,-21.32"/>
</g>
<!-- Node7&#45;&gt;Node4 -->
<g id="edge7" class="edge">
<title>Node7&#45;&gt;Node4</title>
<path fill="none" stroke="midnightblue" d="M366.8,-7.54C334.09,-6.01 285.79,-5.16 244,-10 231.45,-11.45 218.01,-14.13 205.76,-17.03"/>
<polygon fill="midnightblue" stroke="midnightblue" points="204.67,-13.7 195.8,-19.49 206.35,-20.49 204.67,-13.7"/>
</g>
</g>
</svg>
