<?xml version="1.0" encoding="UTF-8" standalone="no"?>
<!DOCTYPE svg PUBLIC "-//W3C//DTD SVG 1.1//EN"
 "http://www.w3.org/Graphics/SVG/1.1/DTD/svg11.dtd">
<!-- Generated by graphviz version 2.44.1 (20200629.0846)
 -->
<!-- Title: main Pages: 1 -->
<!--zoomable 199 -->
<svg id="main" version="1.1" xmlns="http://www.w3.org/2000/svg" xmlns:xlink="http://www.w3.org/1999/xlink" xml:space="preserve" onload="init(evt)">
<style type="text/css"><![CDATA[
.edge:hover path { stroke: red; }
.edge:hover polygon { stroke: red; fill: red; }
]]></style>
<script type="text/javascript"><![CDATA[
var edges = document.getElementsByTagName('g');
if (edges && edges.length) {
  for (var i=0;i<edges.length;i++) {
    if (edges[i].id.substr(0,4)=='edge') {
      edges[i].setAttribute('class','edge');
    }
  }
}
]]></script>
        <defs>
                <circle id="rim" cx="0" cy="0" r="7"/>
                <circle id="rim2" cx="0" cy="0" r="3.5"/>
                <g id="zoomPlus">
                        <use xlink:href="#rim" fill="#404040">
                                <set attributeName="fill" to="#808080" begin="zoomplus.mouseover" end="zoomplus.mouseout"/>
                        </use>
                        <path d="M-4,0h8M0,-4v8" fill="none" stroke="white" stroke-width="1.5" pointer-events="none"/>
                </g>
                <g id="zoomMin">
                        <use xlink:href="#rim" fill="#404040">
                                <set attributeName="fill" to="#808080" begin="zoomminus.mouseover" end="zoomminus.mouseout"/>
                        </use>
                        <path d="M-4,0h8" fill="none" stroke="white" stroke-width="1.5" pointer-events="none"/>
                </g>
                <g id="dirArrow">
                        <path fill="none" stroke="white" stroke-width="1.5" d="M0,-3.0v7 M-2.5,-0.5L0,-3.0L2.5,-0.5"/>
                </g>
               <g id="resetDef">
                       <use xlink:href="#rim2" fill="#404040">
                               <set attributeName="fill" to="#808080" begin="reset.mouseover" end="reset.mouseout"/>
                       </use>
               </g>
        </defs>

<script type="text/javascript">
var viewWidth = 762;
var viewHeight = 199;
var sectionId = 'dynsection-4';
</script>
<script xlink:href="../../svgpan.js"/>
<svg id="graph" class="graph">
<g id="viewport">
<title>main</title>
<polygon fill="white" stroke="transparent" points="-4,4 -4,-195 758,-195 758,4 -4,4"/>
<!-- Node1 -->
<g id="node1" class="node">
<title>Node1</title>
<g id="a_node1"><a xlink:title=" ">
<polygon fill="#bfbfbf" stroke="black" points="0,-57.5 0,-76.5 38,-76.5 38,-57.5 0,-57.5"/>
<text text-anchor="middle" x="19" y="-64.5" font-family="Helvetica,sans-Serif" font-size="10.00">main</text>
</a>
</g>
</g>
<!-- Node2 -->
<g id="node2" class="node">
<title>Node2</title>
<g id="a_node2"><a target="_blank" xlink:href="http://en.cppreference.com/w/cpp/io/manip/endl.html#" target="_top" xlink:title=" ">
<polygon fill="white" stroke="black" points="472,-171.5 472,-190.5 526,-190.5 526,-171.5 472,-171.5"/>
<text text-anchor="middle" x="499" y="-178.5" font-family="Helvetica,sans-Serif" font-size="10.00">std::endl</text>
</a>
</g>
</g>
<!-- Node1&#45;&gt;Node2 -->
<g id="edge1" class="edge">
<title>Node1&#45;&gt;Node2</title>
<path fill="none" stroke="midnightblue" d="M38.37,-74.52C48.76,-78.67 62.03,-83.83 74,-88 178.99,-124.62 204.05,-139.77 313,-162 363.82,-172.37 423.71,-177.21 461.27,-179.37"/>
<polygon fill="midnightblue" stroke="midnightblue" points="461.54,-182.89 471.71,-179.94 461.92,-175.9 461.54,-182.89"/>
</g>
<!-- Node3 -->
<g id="node3" class="node">
<title>Node3</title>
<g id="a_node3"><a xlink:href="../../dc/d38/ordinary__least__squares__regressor_8cpp.html#a38ff1d954e9b7de93eb20e2dd101a045" target="_top" xlink:title=" ">
<polygon fill="white" stroke="black" points="171.5,-76.5 171.5,-95.5 266.5,-95.5 266.5,-76.5 171.5,-76.5"/>
<text text-anchor="middle" x="219" y="-83.5" font-family="Helvetica,sans-Serif" font-size="10.00">fit_OLS_regressor</text>
</a>
</g>
</g>
<!-- Node1&#45;&gt;Node3 -->
<g id="edge2" class="edge">
<title>Node1&#45;&gt;Node3</title>
<path fill="none" stroke="midnightblue" d="M38.27,-68.75C65.96,-71.41 119.69,-76.57 161.23,-80.55"/>
<polygon fill="midnightblue" stroke="midnightblue" points="160.94,-84.04 171.23,-81.51 161.61,-77.07 160.94,-84.04"/>
</g>
<!-- Node13 -->
<g id="node13" class="node">
<title>Node13</title>
<g id="a_node13"><a xlink:href="../../dc/d38/ordinary__least__squares__regressor_8cpp.html#a4261f3c3c3dfdb86f3004eb8aaffea8d" target="_top" xlink:title=" ">
<polygon fill="white" stroke="black" points="74,-38.5 74,-57.5 125,-57.5 125,-38.5 74,-38.5"/>
<text text-anchor="middle" x="99.5" y="-45.5" font-family="Helvetica,sans-Serif" font-size="10.00">ols_test</text>
</a>
</g>
</g>
<!-- Node1&#45;&gt;Node13 -->
<g id="edge14" class="edge">
<title>Node1&#45;&gt;Node13</title>
<path fill="none" stroke="midnightblue" d="M38.21,-62.59C45.91,-60.73 55.14,-58.49 64.04,-56.34"/>
<polygon fill="midnightblue" stroke="midnightblue" points="64.95,-59.72 73.85,-53.97 63.31,-52.92 64.95,-59.72"/>
</g>
<!-- Node14 -->
<g id="node14" class="node">
<title>Node14</title>
<g id="a_node14"><a xlink:href="../../dc/d38/ordinary__least__squares__regressor_8cpp.html#a4bcaaf41c66da4d3a471dacef133def7" target="_top" xlink:title=" ">
<polygon fill="white" stroke="black" points="161,-0.5 161,-19.5 277,-19.5 277,-0.5 161,-0.5"/>
<text text-anchor="middle" x="219" y="-7.5" font-family="Helvetica,sans-Serif" font-size="10.00">predict_OLS_regressor</text>
</a>
</g>
</g>
<!-- Node1&#45;&gt;Node14 -->
<g id="edge20" class="edge">
<title>Node1&#45;&gt;Node14</title>
<path fill="none" stroke="midnightblue" d="M30.26,-57.45C40.51,-48.52 57.13,-35.59 74,-29 98.05,-19.61 125.9,-14.69 150.66,-12.17"/>
<polygon fill="midnightblue" stroke="midnightblue" points="151.06,-15.65 160.7,-11.26 150.43,-8.68 151.06,-15.65"/>
</g>
<!-- Node4 -->
<g id="node4" class="node">
<title>Node4</title>
<g id="a_node4"><a xlink:href="../../dc/d38/ordinary__least__squares__regressor_8cpp.html#a98ab8f75d981088369b89b8be2182483" target="_top" xlink:title=" ">
<polygon fill="white" stroke="black" points="337.5,-133.5 337.5,-152.5 404.5,-152.5 404.5,-133.5 337.5,-133.5"/>
<text text-anchor="middle" x="371" y="-140.5" font-family="Helvetica,sans-Serif" font-size="10.00">get_inverse</text>
</a>
</g>
</g>
<!-- Node3&#45;&gt;Node4 -->
<g id="edge3" class="edge">
<title>Node3&#45;&gt;Node4</title>
<path fill="none" stroke="midnightblue" d="M242.39,-95.63C261.12,-103.58 288.63,-114.97 313,-124 318.58,-126.07 324.5,-128.15 330.33,-130.15"/>
<polygon fill="midnightblue" stroke="midnightblue" points="329.4,-133.53 339.99,-133.41 331.63,-126.9 329.4,-133.53"/>
</g>
<!-- Node6 -->
<g id="node6" class="node">
<title>Node6</title>
<g id="a_node6"><a xlink:href="../../dc/d38/ordinary__least__squares__regressor_8cpp.html#a889f9de199fa793497c864d8e493af05" target="_top" xlink:title=" ">
<polygon fill="white" stroke="black" points="332,-57.5 332,-76.5 410,-76.5 410,-57.5 332,-57.5"/>
<text text-anchor="middle" x="371" y="-64.5" font-family="Helvetica,sans-Serif" font-size="10.00">get_transpose</text>
</a>
</g>
</g>
<!-- Node3&#45;&gt;Node6 -->
<g id="edge6" class="edge">
<title>Node3&#45;&gt;Node6</title>
<path fill="none" stroke="midnightblue" d="M266.64,-80.09C284.18,-77.87 304.15,-75.34 321.83,-73.1"/>
<polygon fill="midnightblue" stroke="midnightblue" points="322.46,-76.55 331.94,-71.82 321.58,-69.61 322.46,-76.55"/>
</g>
<!-- Node11 -->
<g id="node11" class="node">
<title>Node11</title>
<g id="a_node11"><a target="_blank" xlink:href="http://en.cppreference.com/w/cpp/container/vector/push_back.html#" target="_top" xlink:title=" ">
<polygon fill="white" stroke="black" points="313,-95.5 313,-114.5 429,-114.5 429,-95.5 313,-95.5"/>
<text text-anchor="middle" x="371" y="-102.5" font-family="Helvetica,sans-Serif" font-size="10.00">std::vector::push_back</text>
</a>
</g>
</g>
<!-- Node3&#45;&gt;Node11 -->
<g id="edge12" class="edge">
<title>Node3&#45;&gt;Node11</title>
<path fill="none" stroke="midnightblue" d="M266.64,-91.91C278.06,-93.35 290.51,-94.93 302.69,-96.47"/>
<polygon fill="midnightblue" stroke="midnightblue" points="302.47,-99.97 312.83,-97.76 303.35,-93.03 302.47,-99.97"/>
</g>
<!-- Node12 -->
<g id="node12" class="node">
<title>Node12</title>
<g id="a_node12"><a target="_blank" xlink:href="http://en.cppreference.com/w/cpp/container/vector/size.html#" target="_top" xlink:title=" ">
<polygon fill="white" stroke="black" points="327.5,-19.5 327.5,-38.5 414.5,-38.5 414.5,-19.5 327.5,-19.5"/>
<text text-anchor="middle" x="371" y="-26.5" font-family="Helvetica,sans-Serif" font-size="10.00">std::vector::size</text>
</a>
</g>
</g>
<!-- Node3&#45;&gt;Node12 -->
<g id="edge13" class="edge">
<title>Node3&#45;&gt;Node12</title>
<path fill="none" stroke="midnightblue" d="M242.39,-76.37C261.12,-68.42 288.63,-57.03 313,-48 318.58,-45.93 324.5,-43.85 330.33,-41.85"/>
<polygon fill="midnightblue" stroke="midnightblue" points="331.63,-45.1 339.99,-38.59 329.4,-38.47 331.63,-45.1"/>
</g>
<!-- Node4&#45;&gt;Node2 -->
<g id="edge4" class="edge">
<title>Node4&#45;&gt;Node2</title>
<path fill="none" stroke="midnightblue" d="M403.8,-152.59C421.51,-157.93 443.63,-164.6 461.98,-170.14"/>
<polygon fill="midnightblue" stroke="midnightblue" points="461.15,-173.54 471.74,-173.08 463.18,-166.84 461.15,-173.54"/>
</g>
<!-- Node5 -->
<g id="node5" class="node">
<title>Node5</title>
<g id="a_node5"><a xlink:href="../../dc/d38/ordinary__least__squares__regressor_8cpp.html#a4921874435266592b222e3f2eda0e01f" target="_top" xlink:title=" ">
<polygon fill="white" stroke="black" points="469.5,-133.5 469.5,-152.5 528.5,-152.5 528.5,-133.5 469.5,-133.5"/>
<text text-anchor="middle" x="499" y="-140.5" font-family="Helvetica,sans-Serif" font-size="10.00">is_square</text>
</a>
</g>
</g>
<!-- Node4&#45;&gt;Node5 -->
<g id="edge5" class="edge">
<title>Node4&#45;&gt;Node5</title>
<path fill="none" stroke="midnightblue" d="M404.78,-143C421.32,-143 441.51,-143 458.87,-143"/>
<polygon fill="midnightblue" stroke="midnightblue" points="459.25,-146.5 469.25,-143 459.25,-139.5 459.25,-146.5"/>
</g>
<!-- Node7 -->
<g id="node7" class="node">
<title>Node7</title>
<g id="a_node7"><a xlink:href="../../dd/d47/namespacemath.html#a8d79d452a81ed27ba095d2ecb32dc4b4" target="_top" xlink:title=" ">
<polygon fill="white" stroke="black" points="465,-19.5 465,-38.5 533,-38.5 533,-19.5 465,-19.5"/>
<text text-anchor="middle" x="499" y="-26.5" font-family="Helvetica,sans-Serif" font-size="10.00">math::result</text>
</a>
</g>
</g>
<!-- Node6&#45;&gt;Node7 -->
<g id="edge7" class="edge">
<title>Node6&#45;&gt;Node7</title>
<path fill="none" stroke="midnightblue" d="M403.8,-57.41C419.76,-52.6 439.31,-46.7 456.45,-41.53"/>
<polygon fill="midnightblue" stroke="midnightblue" points="457.65,-44.82 466.22,-38.59 455.63,-38.12 457.65,-44.82"/>
</g>
<!-- Node8 -->
<g id="node8" class="node">
<title>Node8</title>
<g id="a_node8"><a xlink:href="../../d7/d35/matrix__exponentiation_8cpp.html#ad8389ed58fd0ec66df248014775ad1fa" target="_top" xlink:title=" ">
<polygon fill="white" stroke="black" points="588.5,-57.5 588.5,-76.5 620.5,-76.5 620.5,-57.5 588.5,-57.5"/>
<text text-anchor="middle" x="604.5" y="-64.5" font-family="Helvetica,sans-Serif" font-size="10.00">ans</text>
</a>
</g>
</g>
<!-- Node7&#45;&gt;Node8 -->
<g id="edge8" class="edge">
<title>Node7&#45;&gt;Node8</title>
<path fill="none" stroke="midnightblue" d="M526.12,-38.59C542.23,-44.5 562.78,-52.05 578.65,-57.88"/>
<polygon fill="midnightblue" stroke="midnightblue" points="577.72,-61.26 588.31,-61.42 580.13,-54.69 577.72,-61.26"/>
</g>
<!-- Node9 -->
<g id="node9" class="node">
<title>Node9</title>
<g id="a_node9"><a xlink:href="../../dd/d47/namespacemath.html#a4a55bb9ec6c59485d3fdb18bd88ca5b6" target="_top" xlink:title=" ">
<polygon fill="white" stroke="black" points="569,-19.5 569,-38.5 640,-38.5 640,-19.5 569,-19.5"/>
<text text-anchor="middle" x="604.5" y="-26.5" font-family="Helvetica,sans-Serif" font-size="10.00">math::power</text>
</a>
</g>
</g>
<!-- Node7&#45;&gt;Node9 -->
<g id="edge9" class="edge">
<title>Node7&#45;&gt;Node9</title>
<path fill="none" stroke="midnightblue" d="M533.03,-29C541.28,-29 550.26,-29 558.97,-29"/>
<polygon fill="midnightblue" stroke="midnightblue" points="559,-32.5 569,-29 559,-25.5 559,-32.5"/>
</g>
<!-- Node10 -->
<g id="node10" class="node">
<title>Node10</title>
<g id="a_node10"><a xlink:href="../../dd/d47/namespacemath.html#ab65d9997885347702dc0c3ec09d5dc21" target="_top" xlink:title=" ">
<polygon fill="white" stroke="black" points="676,-0.5 676,-19.5 754,-19.5 754,-0.5 676,-0.5"/>
<text text-anchor="middle" x="715" y="-7.5" font-family="Helvetica,sans-Serif" font-size="10.00">math::multiply</text>
</a>
</g>
</g>
<!-- Node9&#45;&gt;Node10 -->
<g id="edge10" class="edge">
<title>Node9&#45;&gt;Node10</title>
<path fill="none" stroke="midnightblue" d="M640.13,-22.94C648.33,-21.5 657.22,-19.94 665.9,-18.42"/>
<polygon fill="midnightblue" stroke="midnightblue" points="666.7,-21.84 675.94,-16.66 665.49,-14.94 666.7,-21.84"/>
</g>
<!-- Node10&#45;&gt;Node7 -->
<g id="edge11" class="edge">
<title>Node10&#45;&gt;Node7</title>
<path fill="none" stroke="midnightblue" d="M675.96,-7.23C646.6,-5.76 605.05,-5.13 569,-10 558.66,-11.4 547.67,-13.92 537.58,-16.69"/>
<polygon fill="midnightblue" stroke="midnightblue" points="536.48,-13.36 527.84,-19.5 538.42,-20.09 536.48,-13.36"/>
</g>
<!-- Node13&#45;&gt;Node2 -->
<g id="edge15" class="edge">
<title>Node13&#45;&gt;Node2</title>
<path fill="none" stroke="midnightblue" d="M108.59,-57.71C119.4,-70.16 139.69,-91.72 161,-105 257.68,-165.24 396.4,-177.93 461.56,-180.46"/>
<polygon fill="midnightblue" stroke="midnightblue" points="461.63,-183.97 471.74,-180.8 461.86,-176.97 461.63,-183.97"/>
</g>
<!-- Node13&#45;&gt;Node3 -->
<g id="edge16" class="edge">
<title>Node13&#45;&gt;Node3</title>
<path fill="none" stroke="midnightblue" d="M125.13,-55.97C140.69,-61 161.13,-67.61 178.88,-73.35"/>
<polygon fill="midnightblue" stroke="midnightblue" points="177.82,-76.68 188.41,-76.43 179.97,-70.02 177.82,-76.68"/>
</g>
<!-- Node13&#45;&gt;Node12 -->
<g id="edge19" class="edge">
<title>Node13&#45;&gt;Node12</title>
<path fill="none" stroke="midnightblue" d="M125.37,-46.25C168.76,-43.19 259.19,-36.81 317.12,-32.73"/>
<polygon fill="midnightblue" stroke="midnightblue" points="317.46,-36.21 327.19,-32.02 316.96,-29.23 317.46,-36.21"/>
</g>
<!-- Node13&#45;&gt;Node14 -->
<g id="edge17" class="edge">
<title>Node13&#45;&gt;Node14</title>
<path fill="none" stroke="midnightblue" d="M125.13,-40.03C140.69,-35 161.13,-28.39 178.88,-22.65"/>
<polygon fill="midnightblue" stroke="midnightblue" points="179.97,-25.98 188.41,-19.57 177.82,-19.32 179.97,-25.98"/>
</g>
<!-- Node14&#45;&gt;Node7 -->
<g id="edge18" class="edge">
<title>Node14&#45;&gt;Node7</title>
<path fill="none" stroke="midnightblue" d="M277.05,-5.89C319.22,-3.85 377.94,-3.1 429,-10 439.34,-11.4 450.33,-13.92 460.42,-16.69"/>
<polygon fill="midnightblue" stroke="midnightblue" points="459.58,-20.09 470.16,-19.5 461.52,-13.36 459.58,-20.09"/>
</g>
</g>
</svg>
        <g id="navigator" transform="translate(0 0)" fill="#404254">
                <rect fill="#f2f5e9" fill-opacity="0.5" stroke="#606060" stroke-width=".5" x="0" y="0" width="60" height="60"/>
                <use id="zoomplus" xlink:href="#zoomPlus" x="17" y="9" onmousedown="handleZoom(evt,'in')"/>
                <use id="zoomminus" xlink:href="#zoomMin" x="42" y="9" onmousedown="handleZoom(evt,'out')"/>
                <use id="reset" xlink:href="#resetDef" x="30" y="36" onmousedown="handleReset()"/>
                <g id="arrowUp" xlink:href="#dirArrow" transform="translate(30 24)" onmousedown="handlePan(0,-1)">
                  <use xlink:href="#rim" fill="#404040">
                        <set attributeName="fill" to="#808080" begin="arrowUp.mouseover" end="arrowUp.mouseout"/>
                  </use>
                  <path fill="none" stroke="white" stroke-width="1.5" d="M0,-3.0v7 M-2.5,-0.5L0,-3.0L2.5,-0.5"/>
                </g>
                <g id="arrowRight" xlink:href="#dirArrow" transform="rotate(90) translate(36 -43)" onmousedown="handlePan(1,0)">
                  <use xlink:href="#rim" fill="#404040">
                        <set attributeName="fill" to="#808080" begin="arrowRight.mouseover" end="arrowRight.mouseout"/>
                  </use>
                  <path fill="none" stroke="white" stroke-width="1.5" d="M0,-3.0v7 M-2.5,-0.5L0,-3.0L2.5,-0.5"/>
                </g>
                <g id="arrowDown" xlink:href="#dirArrow" transform="rotate(180) translate(-30 -48)" onmousedown="handlePan(0,1)">
                  <use xlink:href="#rim" fill="#404040">
                        <set attributeName="fill" to="#808080" begin="arrowDown.mouseover" end="arrowDown.mouseout"/>
                  </use>
                  <path fill="none" stroke="white" stroke-width="1.5" d="M0,-3.0v7 M-2.5,-0.5L0,-3.0L2.5,-0.5"/>
                </g>
                <g id="arrowLeft" xlink:href="#dirArrow" transform="rotate(270) translate(-36 17)" onmousedown="handlePan(-1,0)">
                  <use xlink:href="#rim" fill="#404040">
                        <set attributeName="fill" to="#808080" begin="arrowLeft.mouseover" end="arrowLeft.mouseout"/>
                  </use>
                  <path fill="none" stroke="white" stroke-width="1.5" d="M0,-3.0v7 M-2.5,-0.5L0,-3.0L2.5,-0.5"/>
                </g>
        </g>
        <svg viewBox="0 0 15 15" width="100%" height="30px" preserveAspectRatio="xMaxYMin meet">
         <g id="arrow_out" transform="scale(0.3 0.3)">
          <a xlink:href="ordinary__least__squares__regressor_8cpp_ae66f6b31b5ad750f1fe042a706a4e3d4_cgraph_org.svg" target="_base">
           <rect id="button" ry="5" rx="5" y="6" x="6" height="38" width="38"
                fill="#f2f5e9" fill-opacity="0.5" stroke="#606060" stroke-width="1.0"/>
           <path id="arrow"
             d="M 11.500037,31.436501 C 11.940474,20.09759 22.043105,11.32322 32.158766,21.979434 L 37.068811,17.246167 C 37.068811,17.246167 37.088388,32 37.088388,32 L 22.160133,31.978069 C 22.160133,31.978069 26.997745,27.140456 26.997745,27.140456 C 18.528582,18.264221 13.291696,25.230495 11.500037,31.436501 z"
             style="fill:#404040;"/>
          </a>
         </g>
        </svg>
</svg>
