<?xml version="1.0" encoding="UTF-8" standalone="no"?>
<!DOCTYPE svg PUBLIC "-//W3C//DTD SVG 1.1//EN"
 "http://www.w3.org/Graphics/SVG/1.1/DTD/svg11.dtd">
<!-- Generated by graphviz version 2.44.1 (20200629.0846)
 -->
<!-- Title: get_transpose Pages: 1 -->
<svg width="411pt" height="85pt"
 viewBox="0.00 0.00 411.00 85.00" xmlns="http://www.w3.org/2000/svg" xmlns:xlink="http://www.w3.org/1999/xlink">
<g id="graph0" class="graph" transform="scale(1 1) rotate(0) translate(4 81)">
<title>get_transpose</title>
<polygon fill="white" stroke="transparent" points="-4,4 -4,-81 407,-81 407,4 -4,4"/>
<!-- Node1 -->
<g id="node1" class="node">
<title>Node1</title>
<g id="a_node1"><a xlink:title=" ">
<polygon fill="#bfbfbf" stroke="black" points="0,-19.5 0,-38.5 78,-38.5 78,-19.5 0,-19.5"/>
<text text-anchor="middle" x="39" y="-26.5" font-family="Helvetica,sans-Serif" font-size="10.00">get_transpose</text>
</a>
</g>
</g>
<!-- Node2 -->
<g id="node2" class="node">
<title>Node2</title>
<g id="a_node2"><a xlink:href="../../dd/d47/namespacemath.html#a8d79d452a81ed27ba095d2ecb32dc4b4" target="_top" xlink:title=" ">
<polygon fill="white" stroke="black" points="114,-19.5 114,-38.5 182,-38.5 182,-19.5 114,-19.5"/>
<text text-anchor="middle" x="148" y="-26.5" font-family="Helvetica,sans-Serif" font-size="10.00">math::result</text>
</a>
</g>
</g>
<!-- Node1&#45;&gt;Node2 -->
<g id="edge1" class="edge">
<title>Node1&#45;&gt;Node2</title>
<path fill="none" stroke="midnightblue" d="M78.03,-29C86.31,-29 95.14,-29 103.61,-29"/>
<polygon fill="midnightblue" stroke="midnightblue" points="103.72,-32.5 113.72,-29 103.72,-25.5 103.72,-32.5"/>
</g>
<!-- Node3 -->
<g id="node3" class="node">
<title>Node3</title>
<g id="a_node3"><a xlink:href="../../d7/d35/matrix__exponentiation_8cpp.html#ad8389ed58fd0ec66df248014775ad1fa" target="_top" xlink:title=" ">
<polygon fill="white" stroke="black" points="237.5,-57.5 237.5,-76.5 269.5,-76.5 269.5,-57.5 237.5,-57.5"/>
<text text-anchor="middle" x="253.5" y="-64.5" font-family="Helvetica,sans-Serif" font-size="10.00">ans</text>
</a>
</g>
</g>
<!-- Node2&#45;&gt;Node3 -->
<g id="edge2" class="edge">
<title>Node2&#45;&gt;Node3</title>
<path fill="none" stroke="midnightblue" d="M175.12,-38.59C191.23,-44.5 211.78,-52.05 227.65,-57.88"/>
<polygon fill="midnightblue" stroke="midnightblue" points="226.72,-61.26 237.31,-61.42 229.13,-54.69 226.72,-61.26"/>
</g>
<!-- Node4 -->
<g id="node4" class="node">
<title>Node4</title>
<g id="a_node4"><a xlink:href="../../dd/d47/namespacemath.html#a4a55bb9ec6c59485d3fdb18bd88ca5b6" target="_top" xlink:title=" ">
<polygon fill="white" stroke="black" points="218,-19.5 218,-38.5 289,-38.5 289,-19.5 218,-19.5"/>
<text text-anchor="middle" x="253.5" y="-26.5" font-family="Helvetica,sans-Serif" font-size="10.00">math::power</text>
</a>
</g>
</g>
<!-- Node2&#45;&gt;Node4 -->
<g id="edge3" class="edge">
<title>Node2&#45;&gt;Node4</title>
<path fill="none" stroke="midnightblue" d="M182.03,-29C190.28,-29 199.26,-29 207.97,-29"/>
<polygon fill="midnightblue" stroke="midnightblue" points="208,-32.5 218,-29 208,-25.5 208,-32.5"/>
</g>
<!-- Node5 -->
<g id="node5" class="node">
<title>Node5</title>
<g id="a_node5"><a xlink:href="../../dd/d47/namespacemath.html#ab65d9997885347702dc0c3ec09d5dc21" target="_top" xlink:title=" ">
<polygon fill="white" stroke="black" points="325,-0.5 325,-19.5 403,-19.5 403,-0.5 325,-0.5"/>
<text text-anchor="middle" x="364" y="-7.5" font-family="Helvetica,sans-Serif" font-size="10.00">math::multiply</text>
</a>
</g>
</g>
<!-- Node4&#45;&gt;Node5 -->
<g id="edge4" class="edge">
<title>Node4&#45;&gt;Node5</title>
<path fill="none" stroke="midnightblue" d="M289.13,-22.94C297.33,-21.5 306.22,-19.94 314.9,-18.42"/>
<polygon fill="midnightblue" stroke="midnightblue" points="315.7,-21.84 324.94,-16.66 314.49,-14.94 315.7,-21.84"/>
</g>
<!-- Node5&#45;&gt;Node2 -->
<g id="edge5" class="edge">
<title>Node5&#45;&gt;Node2</title>
<path fill="none" stroke="midnightblue" d="M324.96,-7.23C295.6,-5.76 254.05,-5.13 218,-10 207.66,-11.4 196.67,-13.92 186.58,-16.69"/>
<polygon fill="midnightblue" stroke="midnightblue" points="185.48,-13.36 176.84,-19.5 187.42,-20.09 185.48,-13.36"/>
</g>
</g>
</svg>
