<?xml version="1.0" encoding="UTF-8" standalone="no"?>
<!DOCTYPE svg PUBLIC "-//W3C//DTD SVG 1.1//EN"
 "http://www.w3.org/Graphics/SVG/1.1/DTD/svg11.dtd">
<!-- Generated by graphviz version 2.44.1 (20200629.0846)
 -->
<!-- Title: fit_OLS_regressor Pages: 1 -->
<svg width="580pt" height="180pt"
 viewBox="0.00 0.00 580.00 180.00" xmlns="http://www.w3.org/2000/svg" xmlns:xlink="http://www.w3.org/1999/xlink">
<g id="graph0" class="graph" transform="scale(1 1) rotate(0) translate(4 176)">
<title>fit_OLS_regressor</title>
<polygon fill="white" stroke="transparent" points="-4,4 -4,-176 576,-176 576,4 -4,4"/>
<!-- Node1 -->
<g id="node1" class="node">
<title>Node1</title>
<g id="a_node1"><a xlink:title=" ">
<polygon fill="#bfbfbf" stroke="black" points="0,-57.5 0,-76.5 95,-76.5 95,-57.5 0,-57.5"/>
<text text-anchor="middle" x="47.5" y="-64.5" font-family="Helvetica,sans-Serif" font-size="10.00">fit_OLS_regressor</text>
</a>
</g>
</g>
<!-- Node2 -->
<g id="node2" class="node">
<title>Node2</title>
<g id="a_node2"><a xlink:href="../../dc/d38/ordinary__least__squares__regressor_8cpp.html#a98ab8f75d981088369b89b8be2182483" target="_top" xlink:title=" ">
<polygon fill="white" stroke="black" points="155.5,-114.5 155.5,-133.5 222.5,-133.5 222.5,-114.5 155.5,-114.5"/>
<text text-anchor="middle" x="189" y="-121.5" font-family="Helvetica,sans-Serif" font-size="10.00">get_inverse</text>
</a>
</g>
</g>
<!-- Node1&#45;&gt;Node2 -->
<g id="edge1" class="edge">
<title>Node1&#45;&gt;Node2</title>
<path fill="none" stroke="midnightblue" d="M67.58,-76.51C84.13,-84.59 108.86,-96.24 131,-105 136.27,-107.09 141.88,-109.14 147.44,-111.09"/>
<polygon fill="midnightblue" stroke="midnightblue" points="146.71,-114.54 157.31,-114.46 148.97,-107.92 146.71,-114.54"/>
</g>
<!-- Node5 -->
<g id="node5" class="node">
<title>Node5</title>
<g id="a_node5"><a xlink:href="../../dc/d38/ordinary__least__squares__regressor_8cpp.html#a889f9de199fa793497c864d8e493af05" target="_top" xlink:title=" ">
<polygon fill="white" stroke="black" points="150,-76.5 150,-95.5 228,-95.5 228,-76.5 150,-76.5"/>
<text text-anchor="middle" x="189" y="-83.5" font-family="Helvetica,sans-Serif" font-size="10.00">get_transpose</text>
</a>
</g>
</g>
<!-- Node1&#45;&gt;Node5 -->
<g id="edge4" class="edge">
<title>Node1&#45;&gt;Node5</title>
<path fill="none" stroke="midnightblue" d="M95.34,-73.38C109.61,-75.32 125.31,-77.46 139.68,-79.42"/>
<polygon fill="midnightblue" stroke="midnightblue" points="139.48,-82.92 149.86,-80.81 140.42,-75.99 139.48,-82.92"/>
</g>
<!-- Node10 -->
<g id="node10" class="node">
<title>Node10</title>
<g id="a_node10"><a target="_blank" xlink:href="http://en.cppreference.com/w/cpp/container/vector/push_back.html#" target="_top" xlink:title=" ">
<polygon fill="white" stroke="black" points="131,-38.5 131,-57.5 247,-57.5 247,-38.5 131,-38.5"/>
<text text-anchor="middle" x="189" y="-45.5" font-family="Helvetica,sans-Serif" font-size="10.00">std::vector::push_back</text>
</a>
</g>
</g>
<!-- Node1&#45;&gt;Node10 -->
<g id="edge10" class="edge">
<title>Node1&#45;&gt;Node10</title>
<path fill="none" stroke="midnightblue" d="M95.34,-60.62C103.53,-59.5 112.2,-58.32 120.81,-57.15"/>
<polygon fill="midnightblue" stroke="midnightblue" points="121.43,-60.6 130.87,-55.78 120.49,-53.66 121.43,-60.6"/>
</g>
<!-- Node11 -->
<g id="node11" class="node">
<title>Node11</title>
<g id="a_node11"><a target="_blank" xlink:href="http://en.cppreference.com/w/cpp/container/vector/size.html#" target="_top" xlink:title=" ">
<polygon fill="white" stroke="black" points="145.5,-0.5 145.5,-19.5 232.5,-19.5 232.5,-0.5 145.5,-0.5"/>
<text text-anchor="middle" x="189" y="-7.5" font-family="Helvetica,sans-Serif" font-size="10.00">std::vector::size</text>
</a>
</g>
</g>
<!-- Node1&#45;&gt;Node11 -->
<g id="edge11" class="edge">
<title>Node1&#45;&gt;Node11</title>
<path fill="none" stroke="midnightblue" d="M67.58,-57.49C84.13,-49.41 108.86,-37.76 131,-29 136.27,-26.91 141.88,-24.86 147.44,-22.91"/>
<polygon fill="midnightblue" stroke="midnightblue" points="148.97,-26.08 157.31,-19.54 146.71,-19.46 148.97,-26.08"/>
</g>
<!-- Node3 -->
<g id="node3" class="node">
<title>Node3</title>
<g id="a_node3"><a target="_blank" xlink:href="http://en.cppreference.com/w/cpp/io/manip/endl.html#" target="_top" xlink:title=" ">
<polygon fill="white" stroke="black" points="290,-152.5 290,-171.5 344,-171.5 344,-152.5 290,-152.5"/>
<text text-anchor="middle" x="317" y="-159.5" font-family="Helvetica,sans-Serif" font-size="10.00">std::endl</text>
</a>
</g>
</g>
<!-- Node2&#45;&gt;Node3 -->
<g id="edge2" class="edge">
<title>Node2&#45;&gt;Node3</title>
<path fill="none" stroke="midnightblue" d="M221.8,-133.59C239.51,-138.93 261.63,-145.6 279.98,-151.14"/>
<polygon fill="midnightblue" stroke="midnightblue" points="279.15,-154.54 289.74,-154.08 281.18,-147.84 279.15,-154.54"/>
</g>
<!-- Node4 -->
<g id="node4" class="node">
<title>Node4</title>
<g id="a_node4"><a xlink:href="../../dc/d38/ordinary__least__squares__regressor_8cpp.html#a4921874435266592b222e3f2eda0e01f" target="_top" xlink:title=" ">
<polygon fill="white" stroke="black" points="287.5,-114.5 287.5,-133.5 346.5,-133.5 346.5,-114.5 287.5,-114.5"/>
<text text-anchor="middle" x="317" y="-121.5" font-family="Helvetica,sans-Serif" font-size="10.00">is_square</text>
</a>
</g>
</g>
<!-- Node2&#45;&gt;Node4 -->
<g id="edge3" class="edge">
<title>Node2&#45;&gt;Node4</title>
<path fill="none" stroke="midnightblue" d="M222.78,-124C239.32,-124 259.51,-124 276.87,-124"/>
<polygon fill="midnightblue" stroke="midnightblue" points="277.25,-127.5 287.25,-124 277.25,-120.5 277.25,-127.5"/>
</g>
<!-- Node6 -->
<g id="node6" class="node">
<title>Node6</title>
<g id="a_node6"><a xlink:href="../../dd/d47/namespacemath.html#a8d79d452a81ed27ba095d2ecb32dc4b4" target="_top" xlink:title=" ">
<polygon fill="white" stroke="black" points="283,-76.5 283,-95.5 351,-95.5 351,-76.5 283,-76.5"/>
<text text-anchor="middle" x="317" y="-83.5" font-family="Helvetica,sans-Serif" font-size="10.00">math::result</text>
</a>
</g>
</g>
<!-- Node5&#45;&gt;Node6 -->
<g id="edge5" class="edge">
<title>Node5&#45;&gt;Node6</title>
<path fill="none" stroke="midnightblue" d="M228.15,-86C242.13,-86 258.07,-86 272.49,-86"/>
<polygon fill="midnightblue" stroke="midnightblue" points="272.68,-89.5 282.68,-86 272.68,-82.5 272.68,-89.5"/>
</g>
<!-- Node7 -->
<g id="node7" class="node">
<title>Node7</title>
<g id="a_node7"><a xlink:href="../../d7/d35/matrix__exponentiation_8cpp.html#ad8389ed58fd0ec66df248014775ad1fa" target="_top" xlink:title=" ">
<polygon fill="white" stroke="black" points="406.5,-114.5 406.5,-133.5 438.5,-133.5 438.5,-114.5 406.5,-114.5"/>
<text text-anchor="middle" x="422.5" y="-121.5" font-family="Helvetica,sans-Serif" font-size="10.00">ans</text>
</a>
</g>
</g>
<!-- Node6&#45;&gt;Node7 -->
<g id="edge6" class="edge">
<title>Node6&#45;&gt;Node7</title>
<path fill="none" stroke="midnightblue" d="M344.12,-95.59C360.23,-101.5 380.78,-109.05 396.65,-114.88"/>
<polygon fill="midnightblue" stroke="midnightblue" points="395.72,-118.26 406.31,-118.42 398.13,-111.69 395.72,-118.26"/>
</g>
<!-- Node8 -->
<g id="node8" class="node">
<title>Node8</title>
<g id="a_node8"><a xlink:href="../../dd/d47/namespacemath.html#a4a55bb9ec6c59485d3fdb18bd88ca5b6" target="_top" xlink:title=" ">
<polygon fill="white" stroke="black" points="387,-76.5 387,-95.5 458,-95.5 458,-76.5 387,-76.5"/>
<text text-anchor="middle" x="422.5" y="-83.5" font-family="Helvetica,sans-Serif" font-size="10.00">math::power</text>
</a>
</g>
</g>
<!-- Node6&#45;&gt;Node8 -->
<g id="edge7" class="edge">
<title>Node6&#45;&gt;Node8</title>
<path fill="none" stroke="midnightblue" d="M351.03,-86C359.28,-86 368.26,-86 376.97,-86"/>
<polygon fill="midnightblue" stroke="midnightblue" points="377,-89.5 387,-86 377,-82.5 377,-89.5"/>
</g>
<!-- Node9 -->
<g id="node9" class="node">
<title>Node9</title>
<g id="a_node9"><a xlink:href="../../dd/d47/namespacemath.html#ab65d9997885347702dc0c3ec09d5dc21" target="_top" xlink:title=" ">
<polygon fill="white" stroke="black" points="494,-57.5 494,-76.5 572,-76.5 572,-57.5 494,-57.5"/>
<text text-anchor="middle" x="533" y="-64.5" font-family="Helvetica,sans-Serif" font-size="10.00">math::multiply</text>
</a>
</g>
</g>
<!-- Node8&#45;&gt;Node9 -->
<g id="edge8" class="edge">
<title>Node8&#45;&gt;Node9</title>
<path fill="none" stroke="midnightblue" d="M458.13,-79.94C466.33,-78.5 475.22,-76.94 483.9,-75.42"/>
<polygon fill="midnightblue" stroke="midnightblue" points="484.7,-78.84 493.94,-73.66 483.49,-71.94 484.7,-78.84"/>
</g>
<!-- Node9&#45;&gt;Node6 -->
<g id="edge9" class="edge">
<title>Node9&#45;&gt;Node6</title>
<path fill="none" stroke="midnightblue" d="M493.96,-64.23C464.6,-62.76 423.05,-62.13 387,-67 376.66,-68.4 365.67,-70.92 355.58,-73.69"/>
<polygon fill="midnightblue" stroke="midnightblue" points="354.48,-70.36 345.84,-76.5 356.42,-77.09 354.48,-70.36"/>
</g>
</g>
</svg>
