<?xml version="1.0" encoding="UTF-8" standalone="no"?>
<!DOCTYPE svg PUBLIC "-//W3C//DTD SVG 1.1//EN"
 "http://www.w3.org/Graphics/SVG/1.1/DTD/svg11.dtd">
<!-- Generated by graphviz version 2.44.1 (20200629.0846)
 -->
<!-- Title: operator+ Pages: 1 -->
<svg width="410pt" height="104pt"
 viewBox="0.00 0.00 410.00 104.00" xmlns="http://www.w3.org/2000/svg" xmlns:xlink="http://www.w3.org/1999/xlink">
<g id="graph0" class="graph" transform="scale(1 1) rotate(0) translate(4 100)">
<title>operator+</title>
<polygon fill="white" stroke="transparent" points="-4,4 -4,-100 406,-100 406,4 -4,4"/>
<!-- Node1 -->
<g id="node1" class="node">
<title>Node1</title>
<g id="a_node1"><a xlink:title=" ">
<polygon fill="#bfbfbf" stroke="black" points="0,-38.5 0,-57.5 58,-57.5 58,-38.5 0,-38.5"/>
<text text-anchor="middle" x="29" y="-45.5" font-family="Helvetica,sans-Serif" font-size="10.00">operator+</text>
</a>
</g>
</g>
<!-- Node2 -->
<g id="node2" class="node">
<title>Node2</title>
<g id="a_node2"><a target="_blank" xlink:href="http://en.cppreference.com/w/cpp/io/manip/endl.html#" target="_top" xlink:title=" ">
<polygon fill="white" stroke="black" points="110.5,-76.5 110.5,-95.5 164.5,-95.5 164.5,-76.5 110.5,-76.5"/>
<text text-anchor="middle" x="137.5" y="-83.5" font-family="Helvetica,sans-Serif" font-size="10.00">std::endl</text>
</a>
</g>
</g>
<!-- Node1&#45;&gt;Node2 -->
<g id="edge1" class="edge">
<title>Node1&#45;&gt;Node2</title>
<path fill="none" stroke="midnightblue" d="M56.87,-57.59C70.19,-62.34 86.45,-68.14 100.8,-73.26"/>
<polygon fill="midnightblue" stroke="midnightblue" points="99.78,-76.61 110.37,-76.68 102.13,-70.02 99.78,-76.61"/>
</g>
<!-- Node3 -->
<g id="node3" class="node">
<title>Node3</title>
<g id="a_node3"><a xlink:href="../../dd/d47/namespacemath.html#a8d79d452a81ed27ba095d2ecb32dc4b4" target="_top" xlink:title=" ">
<polygon fill="white" stroke="black" points="103.5,-38.5 103.5,-57.5 171.5,-57.5 171.5,-38.5 103.5,-38.5"/>
<text text-anchor="middle" x="137.5" y="-45.5" font-family="Helvetica,sans-Serif" font-size="10.00">math::result</text>
</a>
</g>
</g>
<!-- Node1&#45;&gt;Node3 -->
<g id="edge2" class="edge">
<title>Node1&#45;&gt;Node3</title>
<path fill="none" stroke="midnightblue" d="M58.26,-48C68.94,-48 81.35,-48 93.09,-48"/>
<polygon fill="midnightblue" stroke="midnightblue" points="93.19,-51.5 103.19,-48 93.19,-44.5 93.19,-51.5"/>
</g>
<!-- Node7 -->
<g id="node7" class="node">
<title>Node7</title>
<g id="a_node7"><a target="_blank" xlink:href="http://en.cppreference.com/w/cpp/container/vector/size.html#" target="_top" xlink:title=" ">
<polygon fill="white" stroke="black" points="94,-0.5 94,-19.5 181,-19.5 181,-0.5 94,-0.5"/>
<text text-anchor="middle" x="137.5" y="-7.5" font-family="Helvetica,sans-Serif" font-size="10.00">std::vector::size</text>
</a>
</g>
</g>
<!-- Node1&#45;&gt;Node7 -->
<g id="edge7" class="edge">
<title>Node1&#45;&gt;Node7</title>
<path fill="none" stroke="midnightblue" d="M56.87,-38.41C69.99,-33.73 85.97,-28.03 100.15,-22.97"/>
<polygon fill="midnightblue" stroke="midnightblue" points="101.39,-26.24 109.63,-19.59 99.04,-19.65 101.39,-26.24"/>
</g>
<!-- Node4 -->
<g id="node4" class="node">
<title>Node4</title>
<g id="a_node4"><a xlink:href="../../d7/d35/matrix__exponentiation_8cpp.html#ad8389ed58fd0ec66df248014775ad1fa" target="_top" xlink:title=" ">
<polygon fill="white" stroke="black" points="236.5,-76.5 236.5,-95.5 268.5,-95.5 268.5,-76.5 236.5,-76.5"/>
<text text-anchor="middle" x="252.5" y="-83.5" font-family="Helvetica,sans-Serif" font-size="10.00">ans</text>
</a>
</g>
</g>
<!-- Node3&#45;&gt;Node4 -->
<g id="edge3" class="edge">
<title>Node3&#45;&gt;Node4</title>
<path fill="none" stroke="midnightblue" d="M167.01,-57.59C185.38,-63.76 209.02,-71.71 226.62,-77.63"/>
<polygon fill="midnightblue" stroke="midnightblue" points="225.61,-80.99 236.2,-80.86 227.84,-74.35 225.61,-80.99"/>
</g>
<!-- Node5 -->
<g id="node5" class="node">
<title>Node5</title>
<g id="a_node5"><a xlink:href="../../dd/d47/namespacemath.html#a4a55bb9ec6c59485d3fdb18bd88ca5b6" target="_top" xlink:title=" ">
<polygon fill="white" stroke="black" points="217,-38.5 217,-57.5 288,-57.5 288,-38.5 217,-38.5"/>
<text text-anchor="middle" x="252.5" y="-45.5" font-family="Helvetica,sans-Serif" font-size="10.00">math::power</text>
</a>
</g>
</g>
<!-- Node3&#45;&gt;Node5 -->
<g id="edge4" class="edge">
<title>Node3&#45;&gt;Node5</title>
<path fill="none" stroke="midnightblue" d="M171.79,-48C182.77,-48 195.16,-48 206.84,-48"/>
<polygon fill="midnightblue" stroke="midnightblue" points="206.88,-51.5 216.88,-48 206.88,-44.5 206.88,-51.5"/>
</g>
<!-- Node6 -->
<g id="node6" class="node">
<title>Node6</title>
<g id="a_node6"><a xlink:href="../../dd/d47/namespacemath.html#ab65d9997885347702dc0c3ec09d5dc21" target="_top" xlink:title=" ">
<polygon fill="white" stroke="black" points="324,-19.5 324,-38.5 402,-38.5 402,-19.5 324,-19.5"/>
<text text-anchor="middle" x="363" y="-26.5" font-family="Helvetica,sans-Serif" font-size="10.00">math::multiply</text>
</a>
</g>
</g>
<!-- Node5&#45;&gt;Node6 -->
<g id="edge5" class="edge">
<title>Node5&#45;&gt;Node6</title>
<path fill="none" stroke="midnightblue" d="M288.13,-41.94C296.33,-40.5 305.22,-38.94 313.9,-37.42"/>
<polygon fill="midnightblue" stroke="midnightblue" points="314.7,-40.84 323.94,-35.66 313.49,-33.94 314.7,-40.84"/>
</g>
<!-- Node6&#45;&gt;Node3 -->
<g id="edge6" class="edge">
<title>Node6&#45;&gt;Node3</title>
<path fill="none" stroke="midnightblue" d="M324,-26.55C294.66,-25.25 253.12,-24.69 217,-29 204.94,-30.44 192.05,-33.08 180.28,-35.94"/>
<polygon fill="midnightblue" stroke="midnightblue" points="179.1,-32.63 170.27,-38.49 180.82,-39.42 179.1,-32.63"/>
</g>
</g>
</svg>
