<?xml version="1.0" encoding="UTF-8" standalone="no"?>
<!DOCTYPE svg PUBLIC "-//W3C//DTD SVG 1.1//EN"
 "http://www.w3.org/Graphics/SVG/1.1/DTD/svg11.dtd">
<!-- Generated by graphviz version 2.44.1 (20200629.0846)
 -->
<!-- Title: predict_OLS_regressor Pages: 1 -->
<svg width="449pt" height="85pt"
 viewBox="0.00 0.00 449.00 85.00" xmlns="http://www.w3.org/2000/svg" xmlns:xlink="http://www.w3.org/1999/xlink">
<g id="graph0" class="graph" transform="scale(1 1) rotate(0) translate(4 81)">
<title>predict_OLS_regressor</title>
<polygon fill="white" stroke="transparent" points="-4,4 -4,-81 445,-81 445,4 -4,4"/>
<!-- Node1 -->
<g id="node1" class="node">
<title>Node1</title>
<g id="a_node1"><a xlink:title=" ">
<polygon fill="#bfbfbf" stroke="black" points="0,-19.5 0,-38.5 116,-38.5 116,-19.5 0,-19.5"/>
<text text-anchor="middle" x="58" y="-26.5" font-family="Helvetica,sans-Serif" font-size="10.00">predict_OLS_regressor</text>
</a>
</g>
</g>
<!-- Node2 -->
<g id="node2" class="node">
<title>Node2</title>
<g id="a_node2"><a xlink:href="../../dd/d47/namespacemath.html#a8d79d452a81ed27ba095d2ecb32dc4b4" target="_top" xlink:title=" ">
<polygon fill="white" stroke="black" points="152,-19.5 152,-38.5 220,-38.5 220,-19.5 152,-19.5"/>
<text text-anchor="middle" x="186" y="-26.5" font-family="Helvetica,sans-Serif" font-size="10.00">math::result</text>
</a>
</g>
</g>
<!-- Node1&#45;&gt;Node2 -->
<g id="edge1" class="edge">
<title>Node1&#45;&gt;Node2</title>
<path fill="none" stroke="midnightblue" d="M116.1,-29C124.71,-29 133.46,-29 141.72,-29"/>
<polygon fill="midnightblue" stroke="midnightblue" points="141.85,-32.5 151.85,-29 141.85,-25.5 141.85,-32.5"/>
</g>
<!-- Node3 -->
<g id="node3" class="node">
<title>Node3</title>
<g id="a_node3"><a xlink:href="../../d7/d35/matrix__exponentiation_8cpp.html#ad8389ed58fd0ec66df248014775ad1fa" target="_top" xlink:title=" ">
<polygon fill="white" stroke="black" points="275.5,-57.5 275.5,-76.5 307.5,-76.5 307.5,-57.5 275.5,-57.5"/>
<text text-anchor="middle" x="291.5" y="-64.5" font-family="Helvetica,sans-Serif" font-size="10.00">ans</text>
</a>
</g>
</g>
<!-- Node2&#45;&gt;Node3 -->
<g id="edge2" class="edge">
<title>Node2&#45;&gt;Node3</title>
<path fill="none" stroke="midnightblue" d="M213.12,-38.59C229.23,-44.5 249.78,-52.05 265.65,-57.88"/>
<polygon fill="midnightblue" stroke="midnightblue" points="264.72,-61.26 275.31,-61.42 267.13,-54.69 264.72,-61.26"/>
</g>
<!-- Node4 -->
<g id="node4" class="node">
<title>Node4</title>
<g id="a_node4"><a xlink:href="../../dd/d47/namespacemath.html#a4a55bb9ec6c59485d3fdb18bd88ca5b6" target="_top" xlink:title=" ">
<polygon fill="white" stroke="black" points="256,-19.5 256,-38.5 327,-38.5 327,-19.5 256,-19.5"/>
<text text-anchor="middle" x="291.5" y="-26.5" font-family="Helvetica,sans-Serif" font-size="10.00">math::power</text>
</a>
</g>
</g>
<!-- Node2&#45;&gt;Node4 -->
<g id="edge3" class="edge">
<title>Node2&#45;&gt;Node4</title>
<path fill="none" stroke="midnightblue" d="M220.03,-29C228.28,-29 237.26,-29 245.97,-29"/>
<polygon fill="midnightblue" stroke="midnightblue" points="246,-32.5 256,-29 246,-25.5 246,-32.5"/>
</g>
<!-- Node5 -->
<g id="node5" class="node">
<title>Node5</title>
<g id="a_node5"><a xlink:href="../../dd/d47/namespacemath.html#ab65d9997885347702dc0c3ec09d5dc21" target="_top" xlink:title=" ">
<polygon fill="white" stroke="black" points="363,-0.5 363,-19.5 441,-19.5 441,-0.5 363,-0.5"/>
<text text-anchor="middle" x="402" y="-7.5" font-family="Helvetica,sans-Serif" font-size="10.00">math::multiply</text>
</a>
</g>
</g>
<!-- Node4&#45;&gt;Node5 -->
<g id="edge4" class="edge">
<title>Node4&#45;&gt;Node5</title>
<path fill="none" stroke="midnightblue" d="M327.13,-22.94C335.33,-21.5 344.22,-19.94 352.9,-18.42"/>
<polygon fill="midnightblue" stroke="midnightblue" points="353.7,-21.84 362.94,-16.66 352.49,-14.94 353.7,-21.84"/>
</g>
<!-- Node5&#45;&gt;Node2 -->
<g id="edge5" class="edge">
<title>Node5&#45;&gt;Node2</title>
<path fill="none" stroke="midnightblue" d="M362.96,-7.23C333.6,-5.76 292.05,-5.13 256,-10 245.66,-11.4 234.67,-13.92 224.58,-16.69"/>
<polygon fill="midnightblue" stroke="midnightblue" points="223.48,-13.36 214.84,-19.5 225.42,-20.09 223.48,-13.36"/>
</g>
</g>
</svg>
