<?xml version="1.0" encoding="UTF-8" standalone="no"?>
<!DOCTYPE svg PUBLIC "-//W3C//DTD SVG 1.1//EN"
 "http://www.w3.org/Graphics/SVG/1.1/DTD/svg11.dtd">
<!-- Generated by graphviz version 2.44.1 (20200629.0846)
 -->
<!-- Title: ciphers::HillCipher::rand_range Pages: 1 -->
<svg width="586pt" height="141pt"
 viewBox="0.00 0.00 586.00 141.03" xmlns="http://www.w3.org/2000/svg" xmlns:xlink="http://www.w3.org/1999/xlink">
<g id="graph0" class="graph" transform="scale(1 1) rotate(0) translate(4 137.03)">
<title>ciphers::HillCipher::rand_range</title>
<polygon fill="white" stroke="transparent" points="-4,4 -4,-137.03 582,-137.03 582,4 -4,4"/>
<!-- Node1 -->
<g id="node1" class="node">
<title>Node1</title>
<g id="a_node1"><a xlink:title="Function overload to fill a matrix with random integers in a given interval.">
<polygon fill="#bfbfbf" stroke="black" points="0,-0.5 0,-30.5 97,-30.5 97,-0.5 0,-0.5"/>
<text text-anchor="start" x="8" y="-18.5" font-family="Helvetica,sans-Serif" font-size="10.00">ciphers::HillCipher</text>
<text text-anchor="middle" x="48.5" y="-7.5" font-family="Helvetica,sans-Serif" font-size="10.00">::rand_range</text>
</a>
</g>
</g>
<!-- Node2 -->
<g id="node2" class="node">
<title>Node2</title>
<g id="a_node2"><a xlink:href="../../d1/dbe/lu__decomposition_8h.html#a3108d43bd32c6fb3b3c158476c51ba7f" target="_top" xlink:title=" ">
<polygon fill="white" stroke="black" points="133,-44 133,-63 213,-63 213,-44 133,-44"/>
<text text-anchor="middle" x="173" y="-51" font-family="Helvetica,sans-Serif" font-size="10.00">determinant_lu</text>
</a>
</g>
</g>
<!-- Node1&#45;&gt;Node2 -->
<g id="edge1" class="edge">
<title>Node1&#45;&gt;Node2</title>
<path fill="none" stroke="midnightblue" d="M97.21,-30.3C108.53,-33.81 120.49,-37.52 131.45,-40.92"/>
<polygon fill="midnightblue" stroke="midnightblue" points="130.6,-44.32 141.19,-43.94 132.68,-37.64 130.6,-44.32"/>
</g>
<!-- Node4 -->
<g id="node4" class="node">
<title>Node4</title>
<g id="a_node4"><a target="_blank" xlink:href="http://en.cppreference.com/w/cpp/container/vector/size.html#" target="_top" xlink:title=" ">
<polygon fill="white" stroke="black" points="377,-25 377,-44 464,-44 464,-25 377,-25"/>
<text text-anchor="middle" x="420.5" y="-32" font-family="Helvetica,sans-Serif" font-size="10.00">std::vector::size</text>
</a>
</g>
</g>
<!-- Node1&#45;&gt;Node4 -->
<g id="edge10" class="edge">
<title>Node1&#45;&gt;Node4</title>
<path fill="none" stroke="midnightblue" d="M97.11,-17.95C166.41,-21.5 294.62,-28.09 366.72,-31.79"/>
<polygon fill="midnightblue" stroke="midnightblue" points="366.77,-35.3 376.94,-32.31 367.13,-28.31 366.77,-35.3"/>
</g>
<!-- Node3 -->
<g id="node3" class="node">
<title>Node3</title>
<g id="a_node3"><a xlink:href="../../d1/dbe/lu__decomposition_8h.html#a75b8a228c6419ecda6077255d6d60509" target="_top" xlink:title=" ">
<polygon fill="white" stroke="black" points="249,-63 249,-82 341,-82 341,-63 249,-63"/>
<text text-anchor="middle" x="295" y="-70" font-family="Helvetica,sans-Serif" font-size="10.00">lu_decomposition</text>
</a>
</g>
</g>
<!-- Node2&#45;&gt;Node3 -->
<g id="edge2" class="edge">
<title>Node2&#45;&gt;Node3</title>
<path fill="none" stroke="midnightblue" d="M213.29,-59.72C221.45,-61.01 230.19,-62.4 238.79,-63.76"/>
<polygon fill="midnightblue" stroke="midnightblue" points="238.36,-67.23 248.79,-65.34 239.46,-60.32 238.36,-67.23"/>
</g>
<!-- Node2&#45;&gt;Node4 -->
<g id="edge9" class="edge">
<title>Node2&#45;&gt;Node4</title>
<path fill="none" stroke="midnightblue" d="M213.17,-50.47C254.7,-47.25 320.55,-42.16 366.65,-38.59"/>
<polygon fill="midnightblue" stroke="midnightblue" points="367.06,-42.07 376.76,-37.81 366.52,-35.09 367.06,-42.07"/>
</g>
<!-- Node5 -->
<g id="node5" class="node">
<title>Node5</title>
<g id="a_node5"><a xlink:href="../../dd/d47/namespacemath.html#a8d79d452a81ed27ba095d2ecb32dc4b4" target="_top" xlink:title=" ">
<polygon fill="white" stroke="black" points="261,-101 261,-120 329,-120 329,-101 261,-101"/>
<text text-anchor="middle" x="295" y="-108" font-family="Helvetica,sans-Serif" font-size="10.00">math::result</text>
</a>
</g>
</g>
<!-- Node2&#45;&gt;Node5 -->
<g id="edge4" class="edge">
<title>Node2&#45;&gt;Node5</title>
<path fill="none" stroke="midnightblue" d="M192.01,-63.07C207.1,-70.98 229.27,-82.35 249,-91.5 252.89,-93.31 257.01,-95.14 261.1,-96.92"/>
<polygon fill="midnightblue" stroke="midnightblue" points="259.94,-100.23 270.51,-100.94 262.69,-93.79 259.94,-100.23"/>
</g>
<!-- Node3&#45;&gt;Node4 -->
<g id="edge3" class="edge">
<title>Node3&#45;&gt;Node4</title>
<path fill="none" stroke="midnightblue" d="M327.16,-62.91C342.81,-58.1 361.97,-52.2 378.77,-47.03"/>
<polygon fill="midnightblue" stroke="midnightblue" points="379.82,-50.37 388.35,-44.09 377.76,-43.68 379.82,-50.37"/>
</g>
<!-- Node6 -->
<g id="node6" class="node">
<title>Node6</title>
<g id="a_node6"><a xlink:href="../../d7/d35/matrix__exponentiation_8cpp.html#ad8389ed58fd0ec66df248014775ad1fa" target="_top" xlink:title=" ">
<polygon fill="white" stroke="black" points="404.5,-101 404.5,-120 436.5,-120 436.5,-101 404.5,-101"/>
<text text-anchor="middle" x="420.5" y="-108" font-family="Helvetica,sans-Serif" font-size="10.00">ans</text>
</a>
</g>
</g>
<!-- Node5&#45;&gt;Node6 -->
<g id="edge5" class="edge">
<title>Node5&#45;&gt;Node6</title>
<path fill="none" stroke="midnightblue" d="M329.1,-110.5C349.52,-110.5 375.32,-110.5 394.13,-110.5"/>
<polygon fill="midnightblue" stroke="midnightblue" points="394.3,-114 404.3,-110.5 394.3,-107 394.3,-114"/>
</g>
<!-- Node7 -->
<g id="node7" class="node">
<title>Node7</title>
<g id="a_node7"><a xlink:href="../../dd/d47/namespacemath.html#a4a55bb9ec6c59485d3fdb18bd88ca5b6" target="_top" xlink:title=" ">
<polygon fill="white" stroke="black" points="385,-63 385,-82 456,-82 456,-63 385,-63"/>
<text text-anchor="middle" x="420.5" y="-70" font-family="Helvetica,sans-Serif" font-size="10.00">math::power</text>
</a>
</g>
</g>
<!-- Node5&#45;&gt;Node7 -->
<g id="edge6" class="edge">
<title>Node5&#45;&gt;Node7</title>
<path fill="none" stroke="midnightblue" d="M327.16,-100.91C342.81,-96.1 361.97,-90.2 378.77,-85.03"/>
<polygon fill="midnightblue" stroke="midnightblue" points="379.82,-88.37 388.35,-82.09 377.76,-81.68 379.82,-88.37"/>
</g>
<!-- Node8 -->
<g id="node8" class="node">
<title>Node8</title>
<g id="a_node8"><a xlink:href="../../dd/d47/namespacemath.html#ab65d9997885347702dc0c3ec09d5dc21" target="_top" xlink:title=" ">
<polygon fill="white" stroke="black" points="500,-101 500,-120 578,-120 578,-101 500,-101"/>
<text text-anchor="middle" x="539" y="-108" font-family="Helvetica,sans-Serif" font-size="10.00">math::multiply</text>
</a>
</g>
</g>
<!-- Node7&#45;&gt;Node8 -->
<g id="edge7" class="edge">
<title>Node7&#45;&gt;Node8</title>
<path fill="none" stroke="midnightblue" d="M450.9,-82.09C465.39,-86.81 483.06,-92.58 498.69,-97.68"/>
<polygon fill="midnightblue" stroke="midnightblue" points="498.02,-101.14 508.61,-100.91 500.19,-94.49 498.02,-101.14"/>
</g>
<!-- Node8&#45;&gt;Node5 -->
<g id="edge8" class="edge">
<title>Node8&#45;&gt;Node5</title>
<path fill="none" stroke="midnightblue" d="M508.09,-120C494.74,-123.77 478.74,-127.64 464,-129.5 425.64,-134.35 415.41,-133.94 377,-129.5 364.45,-128.05 351.01,-125.37 338.76,-122.47"/>
<polygon fill="midnightblue" stroke="midnightblue" points="339.35,-119.01 328.8,-120.01 337.67,-125.8 339.35,-119.01"/>
</g>
</g>
</svg>
