<?xml version="1.0" encoding="UTF-8" standalone="no"?>
<!DOCTYPE svg PUBLIC "-//W3C//DTD SVG 1.1//EN"
 "http://www.w3.org/Graphics/SVG/1.1/DTD/svg11.dtd">
<!-- Generated by graphviz version 2.44.1 (20200629.0846)
 -->
<!-- Title: Complex::operator/ Pages: 1 -->
<svg width="466pt" height="180pt"
 viewBox="0.00 0.00 466.00 180.00" xmlns="http://www.w3.org/2000/svg" xmlns:xlink="http://www.w3.org/1999/xlink">
<g id="graph0" class="graph" transform="scale(1 1) rotate(0) translate(4 176)">
<title>Complex::operator/</title>
<polygon fill="white" stroke="transparent" points="-4,4 -4,-176 462,-176 462,4 -4,4"/>
<!-- Node1 -->
<g id="node1" class="node">
<title>Node1</title>
<g id="a_node1"><a xlink:title="Operator overload of &#39;/&#39; on Complex class. Operator overload to be able to divide two complex numbers...">
<polygon fill="#bfbfbf" stroke="black" points="0,-76.5 0,-95.5 100,-95.5 100,-76.5 0,-76.5"/>
<text text-anchor="middle" x="50" y="-83.5" font-family="Helvetica,sans-Serif" font-size="10.00">Complex::operator/</text>
</a>
</g>
</g>
<!-- Node2 -->
<g id="node2" class="node">
<title>Node2</title>
<g id="a_node2"><a xlink:href="../../da/d5a/class_complex.html#a3cfc522c782726f49ee20af17b77f867" target="_top" xlink:title="Complex Constructor which initialises our complex number.">
<polygon fill="white" stroke="black" points="136,-133.5 136,-152.5 237,-152.5 237,-133.5 136,-133.5"/>
<text text-anchor="middle" x="186.5" y="-140.5" font-family="Helvetica,sans-Serif" font-size="10.00">Complex::Complex</text>
</a>
</g>
</g>
<!-- Node1&#45;&gt;Node2 -->
<g id="edge1" class="edge">
<title>Node1&#45;&gt;Node2</title>
<path fill="none" stroke="midnightblue" d="M71.48,-95.53C88.61,-103.41 113.76,-114.77 136,-124 140.59,-125.91 145.45,-127.86 150.26,-129.74"/>
<polygon fill="midnightblue" stroke="midnightblue" points="149.37,-133.15 159.96,-133.5 151.9,-126.62 149.37,-133.15"/>
</g>
<!-- Node5 -->
<g id="node5" class="node">
<title>Node5</title>
<g id="a_node5"><a xlink:href="../../da/d5a/class_complex.html#af8aacf982e2e6c142921bc850f6dc974" target="_top" xlink:title="Member function to get imaginary value of our complex number. Member function (getter) to access the ...">
<polygon fill="white" stroke="black" points="145,-95.5 145,-114.5 228,-114.5 228,-95.5 145,-95.5"/>
<text text-anchor="middle" x="186.5" y="-102.5" font-family="Helvetica,sans-Serif" font-size="10.00">Complex::imag</text>
</a>
</g>
</g>
<!-- Node1&#45;&gt;Node5 -->
<g id="edge4" class="edge">
<title>Node1&#45;&gt;Node5</title>
<path fill="none" stroke="midnightblue" d="M100.32,-92.97C111.45,-94.54 123.3,-96.21 134.5,-97.8"/>
<polygon fill="midnightblue" stroke="midnightblue" points="134.18,-101.29 144.57,-99.22 135.16,-94.35 134.18,-101.29"/>
</g>
<!-- Node6 -->
<g id="node6" class="node">
<title>Node6</title>
<g id="a_node6"><a xlink:href="../../da/d5a/class_complex.html#a312e4b19146128408fb06e0150b0faf6" target="_top" xlink:title="Member function to get real value of our complex number. Member function (getter) to access the class...">
<polygon fill="white" stroke="black" points="148,-57.5 148,-76.5 225,-76.5 225,-57.5 148,-57.5"/>
<text text-anchor="middle" x="186.5" y="-64.5" font-family="Helvetica,sans-Serif" font-size="10.00">Complex::real</text>
</a>
</g>
</g>
<!-- Node1&#45;&gt;Node6 -->
<g id="edge5" class="edge">
<title>Node1&#45;&gt;Node6</title>
<path fill="none" stroke="midnightblue" d="M100.32,-79.03C112.62,-77.3 125.78,-75.44 137.99,-73.71"/>
<polygon fill="midnightblue" stroke="midnightblue" points="138.57,-77.16 147.99,-72.3 137.6,-70.23 138.57,-77.16"/>
</g>
<!-- Node7 -->
<g id="node7" class="node">
<title>Node7</title>
<g id="a_node7"><a xlink:href="../../dd/d47/namespacemath.html#a8d79d452a81ed27ba095d2ecb32dc4b4" target="_top" xlink:title=" ">
<polygon fill="white" stroke="black" points="152.5,-19.5 152.5,-38.5 220.5,-38.5 220.5,-19.5 152.5,-19.5"/>
<text text-anchor="middle" x="186.5" y="-26.5" font-family="Helvetica,sans-Serif" font-size="10.00">math::result</text>
</a>
</g>
</g>
<!-- Node1&#45;&gt;Node7 -->
<g id="edge6" class="edge">
<title>Node1&#45;&gt;Node7</title>
<path fill="none" stroke="midnightblue" d="M71.48,-76.47C88.61,-68.59 113.76,-57.23 136,-48 140.59,-46.09 145.45,-44.14 150.26,-42.26"/>
<polygon fill="midnightblue" stroke="midnightblue" points="151.9,-45.38 159.96,-38.5 149.37,-38.85 151.9,-45.38"/>
</g>
<!-- Node3 -->
<g id="node3" class="node">
<title>Node3</title>
<g id="a_node3"><a target="_blank" xlink:href="http://en.cppreference.com/w/cpp/numeric/math/cos.html#" target="_top" xlink:title=" ">
<polygon fill="white" stroke="black" points="282.5,-152.5 282.5,-171.5 334.5,-171.5 334.5,-152.5 282.5,-152.5"/>
<text text-anchor="middle" x="308.5" y="-159.5" font-family="Helvetica,sans-Serif" font-size="10.00">std::cos</text>
</a>
</g>
</g>
<!-- Node2&#45;&gt;Node3 -->
<g id="edge2" class="edge">
<title>Node2&#45;&gt;Node3</title>
<path fill="none" stroke="midnightblue" d="M237,-150.84C248.84,-152.71 261.24,-154.68 272.29,-156.42"/>
<polygon fill="midnightblue" stroke="midnightblue" points="271.97,-159.92 282.4,-158.03 273.07,-153 271.97,-159.92"/>
</g>
<!-- Node4 -->
<g id="node4" class="node">
<title>Node4</title>
<g id="a_node4"><a target="_blank" xlink:href="http://en.cppreference.com/w/cpp/numeric/math/sin.html#" target="_top" xlink:title=" ">
<polygon fill="white" stroke="black" points="284,-114.5 284,-133.5 333,-133.5 333,-114.5 284,-114.5"/>
<text text-anchor="middle" x="308.5" y="-121.5" font-family="Helvetica,sans-Serif" font-size="10.00">std::sin</text>
</a>
</g>
</g>
<!-- Node2&#45;&gt;Node4 -->
<g id="edge3" class="edge">
<title>Node2&#45;&gt;Node4</title>
<path fill="none" stroke="midnightblue" d="M237,-135.16C249.36,-133.21 262.33,-131.15 273.73,-129.35"/>
<polygon fill="midnightblue" stroke="midnightblue" points="274.36,-132.79 283.69,-127.77 273.27,-125.88 274.36,-132.79"/>
</g>
<!-- Node8 -->
<g id="node8" class="node">
<title>Node8</title>
<g id="a_node8"><a xlink:href="../../d7/d35/matrix__exponentiation_8cpp.html#ad8389ed58fd0ec66df248014775ad1fa" target="_top" xlink:title=" ">
<polygon fill="white" stroke="black" points="292.5,-57.5 292.5,-76.5 324.5,-76.5 324.5,-57.5 292.5,-57.5"/>
<text text-anchor="middle" x="308.5" y="-64.5" font-family="Helvetica,sans-Serif" font-size="10.00">ans</text>
</a>
</g>
</g>
<!-- Node7&#45;&gt;Node8 -->
<g id="edge7" class="edge">
<title>Node7&#45;&gt;Node8</title>
<path fill="none" stroke="midnightblue" d="M217.78,-38.59C237.82,-44.93 263.77,-53.15 282.6,-59.12"/>
<polygon fill="midnightblue" stroke="midnightblue" points="281.66,-62.49 292.25,-62.17 283.77,-55.81 281.66,-62.49"/>
</g>
<!-- Node9 -->
<g id="node9" class="node">
<title>Node9</title>
<g id="a_node9"><a xlink:href="../../dd/d47/namespacemath.html#a4a55bb9ec6c59485d3fdb18bd88ca5b6" target="_top" xlink:title=" ">
<polygon fill="white" stroke="black" points="273,-19.5 273,-38.5 344,-38.5 344,-19.5 273,-19.5"/>
<text text-anchor="middle" x="308.5" y="-26.5" font-family="Helvetica,sans-Serif" font-size="10.00">math::power</text>
</a>
</g>
</g>
<!-- Node7&#45;&gt;Node9 -->
<g id="edge8" class="edge">
<title>Node7&#45;&gt;Node9</title>
<path fill="none" stroke="midnightblue" d="M220.61,-29C233.54,-29 248.58,-29 262.48,-29"/>
<polygon fill="midnightblue" stroke="midnightblue" points="262.83,-32.5 272.83,-29 262.82,-25.5 262.83,-32.5"/>
</g>
<!-- Node10 -->
<g id="node10" class="node">
<title>Node10</title>
<g id="a_node10"><a xlink:href="../../dd/d47/namespacemath.html#ab65d9997885347702dc0c3ec09d5dc21" target="_top" xlink:title=" ">
<polygon fill="white" stroke="black" points="380,-0.5 380,-19.5 458,-19.5 458,-0.5 380,-0.5"/>
<text text-anchor="middle" x="419" y="-7.5" font-family="Helvetica,sans-Serif" font-size="10.00">math::multiply</text>
</a>
</g>
</g>
<!-- Node9&#45;&gt;Node10 -->
<g id="edge9" class="edge">
<title>Node9&#45;&gt;Node10</title>
<path fill="none" stroke="midnightblue" d="M344.13,-22.94C352.33,-21.5 361.22,-19.94 369.9,-18.42"/>
<polygon fill="midnightblue" stroke="midnightblue" points="370.7,-21.84 379.94,-16.66 369.49,-14.94 370.7,-21.84"/>
</g>
<!-- Node10&#45;&gt;Node7 -->
<g id="edge10" class="edge">
<title>Node10&#45;&gt;Node7</title>
<path fill="none" stroke="midnightblue" d="M379.71,-7.73C350.41,-6.54 309.03,-6.04 273,-10 259.03,-11.53 244,-14.44 230.5,-17.52"/>
<polygon fill="midnightblue" stroke="midnightblue" points="229.43,-14.18 220.51,-19.89 231.05,-20.99 229.43,-14.18"/>
</g>
</g>
</svg>
