<?xml version="1.0" encoding="UTF-8" standalone="no"?>
<!DOCTYPE svg PUBLIC "-//W3C//DTD SVG 1.1//EN"
 "http://www.w3.org/Graphics/SVG/1.1/DTD/svg11.dtd">
<!-- Generated by graphviz version 2.44.1 (20200629.0846)
 -->
<!-- Title: Complex::operator~ Pages: 1 -->
<svg width="436pt" height="85pt"
 viewBox="0.00 0.00 436.00 85.00" xmlns="http://www.w3.org/2000/svg" xmlns:xlink="http://www.w3.org/1999/xlink">
<g id="graph0" class="graph" transform="scale(1 1) rotate(0) translate(4 81)">
<title>Complex::operator~</title>
<polygon fill="white" stroke="transparent" points="-4,4 -4,-81 432,-81 432,4 -4,4"/>
<!-- Node1 -->
<g id="node1" class="node">
<title>Node1</title>
<g id="a_node1"><a xlink:title="Operator overload of &#39;~&#39; on Complex class. Operator overload of the BITWISE NOT which gives us the co...">
<polygon fill="#bfbfbf" stroke="black" points="0,-19.5 0,-38.5 103,-38.5 103,-19.5 0,-19.5"/>
<text text-anchor="middle" x="51.5" y="-26.5" font-family="Helvetica,sans-Serif" font-size="10.00">Complex::operator~</text>
</a>
</g>
</g>
<!-- Node2 -->
<g id="node2" class="node">
<title>Node2</title>
<g id="a_node2"><a xlink:href="../../dd/d47/namespacemath.html#a8d79d452a81ed27ba095d2ecb32dc4b4" target="_top" xlink:title=" ">
<polygon fill="white" stroke="black" points="139,-19.5 139,-38.5 207,-38.5 207,-19.5 139,-19.5"/>
<text text-anchor="middle" x="173" y="-26.5" font-family="Helvetica,sans-Serif" font-size="10.00">math::result</text>
</a>
</g>
</g>
<!-- Node1&#45;&gt;Node2 -->
<g id="edge1" class="edge">
<title>Node1&#45;&gt;Node2</title>
<path fill="none" stroke="midnightblue" d="M103.18,-29C111.68,-29 120.43,-29 128.72,-29"/>
<polygon fill="midnightblue" stroke="midnightblue" points="128.92,-32.5 138.92,-29 128.92,-25.5 128.92,-32.5"/>
</g>
<!-- Node3 -->
<g id="node3" class="node">
<title>Node3</title>
<g id="a_node3"><a xlink:href="../../d7/d35/matrix__exponentiation_8cpp.html#ad8389ed58fd0ec66df248014775ad1fa" target="_top" xlink:title=" ">
<polygon fill="white" stroke="black" points="262.5,-57.5 262.5,-76.5 294.5,-76.5 294.5,-57.5 262.5,-57.5"/>
<text text-anchor="middle" x="278.5" y="-64.5" font-family="Helvetica,sans-Serif" font-size="10.00">ans</text>
</a>
</g>
</g>
<!-- Node2&#45;&gt;Node3 -->
<g id="edge2" class="edge">
<title>Node2&#45;&gt;Node3</title>
<path fill="none" stroke="midnightblue" d="M200.12,-38.59C216.23,-44.5 236.78,-52.05 252.65,-57.88"/>
<polygon fill="midnightblue" stroke="midnightblue" points="251.72,-61.26 262.31,-61.42 254.13,-54.69 251.72,-61.26"/>
</g>
<!-- Node4 -->
<g id="node4" class="node">
<title>Node4</title>
<g id="a_node4"><a xlink:href="../../dd/d47/namespacemath.html#a4a55bb9ec6c59485d3fdb18bd88ca5b6" target="_top" xlink:title=" ">
<polygon fill="white" stroke="black" points="243,-19.5 243,-38.5 314,-38.5 314,-19.5 243,-19.5"/>
<text text-anchor="middle" x="278.5" y="-26.5" font-family="Helvetica,sans-Serif" font-size="10.00">math::power</text>
</a>
</g>
</g>
<!-- Node2&#45;&gt;Node4 -->
<g id="edge3" class="edge">
<title>Node2&#45;&gt;Node4</title>
<path fill="none" stroke="midnightblue" d="M207.03,-29C215.28,-29 224.26,-29 232.97,-29"/>
<polygon fill="midnightblue" stroke="midnightblue" points="233,-32.5 243,-29 233,-25.5 233,-32.5"/>
</g>
<!-- Node5 -->
<g id="node5" class="node">
<title>Node5</title>
<g id="a_node5"><a xlink:href="../../dd/d47/namespacemath.html#ab65d9997885347702dc0c3ec09d5dc21" target="_top" xlink:title=" ">
<polygon fill="white" stroke="black" points="350,-0.5 350,-19.5 428,-19.5 428,-0.5 350,-0.5"/>
<text text-anchor="middle" x="389" y="-7.5" font-family="Helvetica,sans-Serif" font-size="10.00">math::multiply</text>
</a>
</g>
</g>
<!-- Node4&#45;&gt;Node5 -->
<g id="edge4" class="edge">
<title>Node4&#45;&gt;Node5</title>
<path fill="none" stroke="midnightblue" d="M314.13,-22.94C322.33,-21.5 331.22,-19.94 339.9,-18.42"/>
<polygon fill="midnightblue" stroke="midnightblue" points="340.7,-21.84 349.94,-16.66 339.49,-14.94 340.7,-21.84"/>
</g>
<!-- Node5&#45;&gt;Node2 -->
<g id="edge5" class="edge">
<title>Node5&#45;&gt;Node2</title>
<path fill="none" stroke="midnightblue" d="M349.96,-7.23C320.6,-5.76 279.05,-5.13 243,-10 232.66,-11.4 221.67,-13.92 211.58,-16.69"/>
<polygon fill="midnightblue" stroke="midnightblue" points="210.48,-13.36 201.84,-19.5 212.42,-20.09 210.48,-13.36"/>
</g>
</g>
</svg>
