<?xml version="1.0" encoding="UTF-8" standalone="no"?>
<!DOCTYPE svg PUBLIC "-//W3C//DTD SVG 1.1//EN"
 "http://www.w3.org/Graphics/SVG/1.1/DTD/svg11.dtd">
<!-- Generated by graphviz version 2.44.1 (20200629.0846)
 -->
<!-- Title: Complex::operator* Pages: 1 -->
<svg width="434pt" height="85pt"
 viewBox="0.00 0.00 434.00 85.00" xmlns="http://www.w3.org/2000/svg" xmlns:xlink="http://www.w3.org/1999/xlink">
<g id="graph0" class="graph" transform="scale(1 1) rotate(0) translate(4 81)">
<title>Complex::operator*</title>
<polygon fill="white" stroke="transparent" points="-4,4 -4,-81 430,-81 430,4 -4,4"/>
<!-- Node1 -->
<g id="node1" class="node">
<title>Node1</title>
<g id="a_node1"><a xlink:title="Operator overload of &#39;*&#39; on Complex class. Operator overload to be able to multiple two complex numbe...">
<polygon fill="#bfbfbf" stroke="black" points="0,-19.5 0,-38.5 101,-38.5 101,-19.5 0,-19.5"/>
<text text-anchor="middle" x="50.5" y="-26.5" font-family="Helvetica,sans-Serif" font-size="10.00">Complex::operator*</text>
</a>
</g>
</g>
<!-- Node2 -->
<g id="node2" class="node">
<title>Node2</title>
<g id="a_node2"><a xlink:href="../../dd/d47/namespacemath.html#a8d79d452a81ed27ba095d2ecb32dc4b4" target="_top" xlink:title=" ">
<polygon fill="white" stroke="black" points="137,-19.5 137,-38.5 205,-38.5 205,-19.5 137,-19.5"/>
<text text-anchor="middle" x="171" y="-26.5" font-family="Helvetica,sans-Serif" font-size="10.00">math::result</text>
</a>
</g>
</g>
<!-- Node1&#45;&gt;Node2 -->
<g id="edge1" class="edge">
<title>Node1&#45;&gt;Node2</title>
<path fill="none" stroke="midnightblue" d="M101.07,-29C109.54,-29 118.29,-29 126.58,-29"/>
<polygon fill="midnightblue" stroke="midnightblue" points="126.8,-32.5 136.8,-29 126.8,-25.5 126.8,-32.5"/>
</g>
<!-- Node3 -->
<g id="node3" class="node">
<title>Node3</title>
<g id="a_node3"><a xlink:href="../../d7/d35/matrix__exponentiation_8cpp.html#ad8389ed58fd0ec66df248014775ad1fa" target="_top" xlink:title=" ">
<polygon fill="white" stroke="black" points="260.5,-57.5 260.5,-76.5 292.5,-76.5 292.5,-57.5 260.5,-57.5"/>
<text text-anchor="middle" x="276.5" y="-64.5" font-family="Helvetica,sans-Serif" font-size="10.00">ans</text>
</a>
</g>
</g>
<!-- Node2&#45;&gt;Node3 -->
<g id="edge2" class="edge">
<title>Node2&#45;&gt;Node3</title>
<path fill="none" stroke="midnightblue" d="M198.12,-38.59C214.23,-44.5 234.78,-52.05 250.65,-57.88"/>
<polygon fill="midnightblue" stroke="midnightblue" points="249.72,-61.26 260.31,-61.42 252.13,-54.69 249.72,-61.26"/>
</g>
<!-- Node4 -->
<g id="node4" class="node">
<title>Node4</title>
<g id="a_node4"><a xlink:href="../../dd/d47/namespacemath.html#a4a55bb9ec6c59485d3fdb18bd88ca5b6" target="_top" xlink:title=" ">
<polygon fill="white" stroke="black" points="241,-19.5 241,-38.5 312,-38.5 312,-19.5 241,-19.5"/>
<text text-anchor="middle" x="276.5" y="-26.5" font-family="Helvetica,sans-Serif" font-size="10.00">math::power</text>
</a>
</g>
</g>
<!-- Node2&#45;&gt;Node4 -->
<g id="edge3" class="edge">
<title>Node2&#45;&gt;Node4</title>
<path fill="none" stroke="midnightblue" d="M205.03,-29C213.28,-29 222.26,-29 230.97,-29"/>
<polygon fill="midnightblue" stroke="midnightblue" points="231,-32.5 241,-29 231,-25.5 231,-32.5"/>
</g>
<!-- Node5 -->
<g id="node5" class="node">
<title>Node5</title>
<g id="a_node5"><a xlink:href="../../dd/d47/namespacemath.html#ab65d9997885347702dc0c3ec09d5dc21" target="_top" xlink:title=" ">
<polygon fill="white" stroke="black" points="348,-0.5 348,-19.5 426,-19.5 426,-0.5 348,-0.5"/>
<text text-anchor="middle" x="387" y="-7.5" font-family="Helvetica,sans-Serif" font-size="10.00">math::multiply</text>
</a>
</g>
</g>
<!-- Node4&#45;&gt;Node5 -->
<g id="edge4" class="edge">
<title>Node4&#45;&gt;Node5</title>
<path fill="none" stroke="midnightblue" d="M312.13,-22.94C320.33,-21.5 329.22,-19.94 337.9,-18.42"/>
<polygon fill="midnightblue" stroke="midnightblue" points="338.7,-21.84 347.94,-16.66 337.49,-14.94 338.7,-21.84"/>
</g>
<!-- Node5&#45;&gt;Node2 -->
<g id="edge5" class="edge">
<title>Node5&#45;&gt;Node2</title>
<path fill="none" stroke="midnightblue" d="M347.96,-7.23C318.6,-5.76 277.05,-5.13 241,-10 230.66,-11.4 219.67,-13.92 209.58,-16.69"/>
<polygon fill="midnightblue" stroke="midnightblue" points="208.48,-13.36 199.84,-19.5 210.42,-20.09 208.48,-13.36"/>
</g>
</g>
</svg>
