<?xml version="1.0" encoding="UTF-8" standalone="no"?>
<!DOCTYPE svg PUBLIC "-//W3C//DTD SVG 1.1//EN"
 "http://www.w3.org/Graphics/SVG/1.1/DTD/svg11.dtd">
<!-- Generated by graphviz version 2.44.1 (20200629.0846)
 -->
<!-- Title: Complex::operator&#45; Pages: 1 -->
<svg width="433pt" height="85pt"
 viewBox="0.00 0.00 433.00 85.00" xmlns="http://www.w3.org/2000/svg" xmlns:xlink="http://www.w3.org/1999/xlink">
<g id="graph0" class="graph" transform="scale(1 1) rotate(0) translate(4 81)">
<title>Complex::operator&#45;</title>
<polygon fill="white" stroke="transparent" points="-4,4 -4,-81 429,-81 429,4 -4,4"/>
<!-- Node1 -->
<g id="node1" class="node">
<title>Node1</title>
<g id="a_node1"><a xlink:title="Operator overload of &#39;&#45;&#39; on Complex class. Operator overload to be able to subtract two complex numbe...">
<polygon fill="#bfbfbf" stroke="black" points="0,-19.5 0,-38.5 100,-38.5 100,-19.5 0,-19.5"/>
<text text-anchor="middle" x="50" y="-26.5" font-family="Helvetica,sans-Serif" font-size="10.00">Complex::operator&#45;</text>
</a>
</g>
</g>
<!-- Node2 -->
<g id="node2" class="node">
<title>Node2</title>
<g id="a_node2"><a xlink:href="../../dd/d47/namespacemath.html#a8d79d452a81ed27ba095d2ecb32dc4b4" target="_top" xlink:title=" ">
<polygon fill="white" stroke="black" points="136,-19.5 136,-38.5 204,-38.5 204,-19.5 136,-19.5"/>
<text text-anchor="middle" x="170" y="-26.5" font-family="Helvetica,sans-Serif" font-size="10.00">math::result</text>
</a>
</g>
</g>
<!-- Node1&#45;&gt;Node2 -->
<g id="edge1" class="edge">
<title>Node1&#45;&gt;Node2</title>
<path fill="none" stroke="midnightblue" d="M100.02,-29C108.48,-29 117.22,-29 125.52,-29"/>
<polygon fill="midnightblue" stroke="midnightblue" points="125.74,-32.5 135.74,-29 125.74,-25.5 125.74,-32.5"/>
</g>
<!-- Node3 -->
<g id="node3" class="node">
<title>Node3</title>
<g id="a_node3"><a xlink:href="../../d7/d35/matrix__exponentiation_8cpp.html#ad8389ed58fd0ec66df248014775ad1fa" target="_top" xlink:title=" ">
<polygon fill="white" stroke="black" points="259.5,-57.5 259.5,-76.5 291.5,-76.5 291.5,-57.5 259.5,-57.5"/>
<text text-anchor="middle" x="275.5" y="-64.5" font-family="Helvetica,sans-Serif" font-size="10.00">ans</text>
</a>
</g>
</g>
<!-- Node2&#45;&gt;Node3 -->
<g id="edge2" class="edge">
<title>Node2&#45;&gt;Node3</title>
<path fill="none" stroke="midnightblue" d="M197.12,-38.59C213.23,-44.5 233.78,-52.05 249.65,-57.88"/>
<polygon fill="midnightblue" stroke="midnightblue" points="248.72,-61.26 259.31,-61.42 251.13,-54.69 248.72,-61.26"/>
</g>
<!-- Node4 -->
<g id="node4" class="node">
<title>Node4</title>
<g id="a_node4"><a xlink:href="../../dd/d47/namespacemath.html#a4a55bb9ec6c59485d3fdb18bd88ca5b6" target="_top" xlink:title=" ">
<polygon fill="white" stroke="black" points="240,-19.5 240,-38.5 311,-38.5 311,-19.5 240,-19.5"/>
<text text-anchor="middle" x="275.5" y="-26.5" font-family="Helvetica,sans-Serif" font-size="10.00">math::power</text>
</a>
</g>
</g>
<!-- Node2&#45;&gt;Node4 -->
<g id="edge3" class="edge">
<title>Node2&#45;&gt;Node4</title>
<path fill="none" stroke="midnightblue" d="M204.03,-29C212.28,-29 221.26,-29 229.97,-29"/>
<polygon fill="midnightblue" stroke="midnightblue" points="230,-32.5 240,-29 230,-25.5 230,-32.5"/>
</g>
<!-- Node5 -->
<g id="node5" class="node">
<title>Node5</title>
<g id="a_node5"><a xlink:href="../../dd/d47/namespacemath.html#ab65d9997885347702dc0c3ec09d5dc21" target="_top" xlink:title=" ">
<polygon fill="white" stroke="black" points="347,-0.5 347,-19.5 425,-19.5 425,-0.5 347,-0.5"/>
<text text-anchor="middle" x="386" y="-7.5" font-family="Helvetica,sans-Serif" font-size="10.00">math::multiply</text>
</a>
</g>
</g>
<!-- Node4&#45;&gt;Node5 -->
<g id="edge4" class="edge">
<title>Node4&#45;&gt;Node5</title>
<path fill="none" stroke="midnightblue" d="M311.13,-22.94C319.33,-21.5 328.22,-19.94 336.9,-18.42"/>
<polygon fill="midnightblue" stroke="midnightblue" points="337.7,-21.84 346.94,-16.66 336.49,-14.94 337.7,-21.84"/>
</g>
<!-- Node5&#45;&gt;Node2 -->
<g id="edge5" class="edge">
<title>Node5&#45;&gt;Node2</title>
<path fill="none" stroke="midnightblue" d="M346.96,-7.23C317.6,-5.76 276.05,-5.13 240,-10 229.66,-11.4 218.67,-13.92 208.58,-16.69"/>
<polygon fill="midnightblue" stroke="midnightblue" points="207.48,-13.36 198.84,-19.5 209.42,-20.09 207.48,-13.36"/>
</g>
</g>
</svg>
