<?xml version="1.0" encoding="UTF-8" standalone="no"?>
<!DOCTYPE svg PUBLIC "-//W3C//DTD SVG 1.1//EN"
 "http://www.w3.org/Graphics/SVG/1.1/DTD/svg11.dtd">
<!-- Generated by graphviz version 2.44.1 (20200629.0846)
 -->
<!-- Title: get_min_2d Pages: 1 -->
<svg width="424pt" height="199pt"
 viewBox="0.00 0.00 424.00 199.00" xmlns="http://www.w3.org/2000/svg" xmlns:xlink="http://www.w3.org/1999/xlink">
<g id="graph0" class="graph" transform="scale(1 1) rotate(0) translate(4 195)">
<title>get_min_2d</title>
<polygon fill="white" stroke="transparent" points="-4,4 -4,-195 420,-195 420,4 -4,4"/>
<!-- Node1 -->
<g id="node1" class="node">
<title>Node1</title>
<g id="a_node1"><a xlink:title=" ">
<polygon fill="#bfbfbf" stroke="black" points="0,-95.5 0,-114.5 67,-114.5 67,-95.5 0,-95.5"/>
<text text-anchor="middle" x="33.5" y="-102.5" font-family="Helvetica,sans-Serif" font-size="10.00">get_min_2d</text>
</a>
</g>
</g>
<!-- Node2 -->
<g id="node2" class="node">
<title>Node2</title>
<g id="a_node2"><a target="_blank" xlink:href="http://en.cppreference.com/w/cpp/iterator/begin.html#" target="_top" xlink:title=" ">
<polygon fill="white" stroke="black" points="119.5,-171.5 119.5,-190.5 178.5,-190.5 178.5,-171.5 119.5,-171.5"/>
<text text-anchor="middle" x="149" y="-178.5" font-family="Helvetica,sans-Serif" font-size="10.00">std::begin</text>
</a>
</g>
</g>
<!-- Node1&#45;&gt;Node2 -->
<g id="edge1" class="edge">
<title>Node1&#45;&gt;Node2</title>
<path fill="none" stroke="midnightblue" d="M44.44,-114.91C57.16,-127.19 80.27,-148.16 103,-162 105.99,-163.82 109.18,-165.54 112.44,-167.16"/>
<polygon fill="midnightblue" stroke="midnightblue" points="111.11,-170.4 121.65,-171.41 114.04,-164.04 111.11,-170.4"/>
</g>
<!-- Node3 -->
<g id="node3" class="node">
<title>Node3</title>
<g id="a_node3"><a target="_blank" xlink:href="http://en.cppreference.com/w/cpp/iterator/distance.html#" target="_top" xlink:title=" ">
<polygon fill="white" stroke="black" points="112.5,-133.5 112.5,-152.5 185.5,-152.5 185.5,-133.5 112.5,-133.5"/>
<text text-anchor="middle" x="149" y="-140.5" font-family="Helvetica,sans-Serif" font-size="10.00">std::distance</text>
</a>
</g>
</g>
<!-- Node1&#45;&gt;Node3 -->
<g id="edge2" class="edge">
<title>Node1&#45;&gt;Node3</title>
<path fill="none" stroke="midnightblue" d="M63.14,-114.59C77.25,-119.31 94.47,-125.08 109.7,-130.18"/>
<polygon fill="midnightblue" stroke="midnightblue" points="108.77,-133.56 119.37,-133.41 111,-126.92 108.77,-133.56"/>
</g>
<!-- Node4 -->
<g id="node4" class="node">
<title>Node4</title>
<g id="a_node4"><a target="_blank" xlink:href="http://en.cppreference.com/w/cpp/iterator/end.html#" target="_top" xlink:title=" ">
<polygon fill="white" stroke="black" points="123,-95.5 123,-114.5 175,-114.5 175,-95.5 123,-95.5"/>
<text text-anchor="middle" x="149" y="-102.5" font-family="Helvetica,sans-Serif" font-size="10.00">std::end</text>
</a>
</g>
</g>
<!-- Node1&#45;&gt;Node4 -->
<g id="edge3" class="edge">
<title>Node1&#45;&gt;Node4</title>
<path fill="none" stroke="midnightblue" d="M67.02,-105C81.26,-105 97.99,-105 112.54,-105"/>
<polygon fill="midnightblue" stroke="midnightblue" points="112.68,-108.5 122.68,-105 112.68,-101.5 112.68,-108.5"/>
</g>
<!-- Node5 -->
<g id="node5" class="node">
<title>Node5</title>
<g id="a_node5"><a target="_blank" xlink:href="http://en.cppreference.com/w/cpp/algorithm/min_element.html#" target="_top" xlink:title=" ">
<polygon fill="white" stroke="black" points="103,-57.5 103,-76.5 195,-76.5 195,-57.5 103,-57.5"/>
<text text-anchor="middle" x="149" y="-64.5" font-family="Helvetica,sans-Serif" font-size="10.00">std::min_element</text>
</a>
</g>
</g>
<!-- Node1&#45;&gt;Node5 -->
<g id="edge4" class="edge">
<title>Node1&#45;&gt;Node5</title>
<path fill="none" stroke="midnightblue" d="M63.14,-95.41C77.25,-90.69 94.47,-84.92 109.7,-79.82"/>
<polygon fill="midnightblue" stroke="midnightblue" points="111,-83.08 119.37,-76.59 108.77,-76.44 111,-83.08"/>
</g>
<!-- Node6 -->
<g id="node6" class="node">
<title>Node6</title>
<g id="a_node6"><a xlink:href="../../dd/d47/namespacemath.html#a8d79d452a81ed27ba095d2ecb32dc4b4" target="_top" xlink:title=" ">
<polygon fill="white" stroke="black" points="115,-19.5 115,-38.5 183,-38.5 183,-19.5 115,-19.5"/>
<text text-anchor="middle" x="149" y="-26.5" font-family="Helvetica,sans-Serif" font-size="10.00">math::result</text>
</a>
</g>
</g>
<!-- Node1&#45;&gt;Node6 -->
<g id="edge5" class="edge">
<title>Node1&#45;&gt;Node6</title>
<path fill="none" stroke="midnightblue" d="M44.44,-95.09C57.16,-82.81 80.27,-61.84 103,-48 105.99,-46.18 109.18,-44.46 112.44,-42.84"/>
<polygon fill="midnightblue" stroke="midnightblue" points="114.04,-45.96 121.65,-38.59 111.11,-39.6 114.04,-45.96"/>
</g>
<!-- Node7 -->
<g id="node7" class="node">
<title>Node7</title>
<g id="a_node7"><a xlink:href="../../d7/d35/matrix__exponentiation_8cpp.html#ad8389ed58fd0ec66df248014775ad1fa" target="_top" xlink:title=" ">
<polygon fill="white" stroke="black" points="250.5,-57.5 250.5,-76.5 282.5,-76.5 282.5,-57.5 250.5,-57.5"/>
<text text-anchor="middle" x="266.5" y="-64.5" font-family="Helvetica,sans-Serif" font-size="10.00">ans</text>
</a>
</g>
</g>
<!-- Node6&#45;&gt;Node7 -->
<g id="edge6" class="edge">
<title>Node6&#45;&gt;Node7</title>
<path fill="none" stroke="midnightblue" d="M179.15,-38.59C198.12,-44.83 222.6,-52.88 240.64,-58.82"/>
<polygon fill="midnightblue" stroke="midnightblue" points="239.59,-62.16 250.18,-61.96 241.78,-55.51 239.59,-62.16"/>
</g>
<!-- Node8 -->
<g id="node8" class="node">
<title>Node8</title>
<g id="a_node8"><a xlink:href="../../dd/d47/namespacemath.html#a4a55bb9ec6c59485d3fdb18bd88ca5b6" target="_top" xlink:title=" ">
<polygon fill="white" stroke="black" points="231,-19.5 231,-38.5 302,-38.5 302,-19.5 231,-19.5"/>
<text text-anchor="middle" x="266.5" y="-26.5" font-family="Helvetica,sans-Serif" font-size="10.00">math::power</text>
</a>
</g>
</g>
<!-- Node6&#45;&gt;Node8 -->
<g id="edge7" class="edge">
<title>Node6&#45;&gt;Node8</title>
<path fill="none" stroke="midnightblue" d="M183.1,-29C194.76,-29 208.08,-29 220.56,-29"/>
<polygon fill="midnightblue" stroke="midnightblue" points="220.79,-32.5 230.79,-29 220.79,-25.5 220.79,-32.5"/>
</g>
<!-- Node9 -->
<g id="node9" class="node">
<title>Node9</title>
<g id="a_node9"><a xlink:href="../../dd/d47/namespacemath.html#ab65d9997885347702dc0c3ec09d5dc21" target="_top" xlink:title=" ">
<polygon fill="white" stroke="black" points="338,-0.5 338,-19.5 416,-19.5 416,-0.5 338,-0.5"/>
<text text-anchor="middle" x="377" y="-7.5" font-family="Helvetica,sans-Serif" font-size="10.00">math::multiply</text>
</a>
</g>
</g>
<!-- Node8&#45;&gt;Node9 -->
<g id="edge8" class="edge">
<title>Node8&#45;&gt;Node9</title>
<path fill="none" stroke="midnightblue" d="M302.13,-22.94C310.33,-21.5 319.22,-19.94 327.9,-18.42"/>
<polygon fill="midnightblue" stroke="midnightblue" points="328.7,-21.84 337.94,-16.66 327.49,-14.94 328.7,-21.84"/>
</g>
<!-- Node9&#45;&gt;Node6 -->
<g id="edge9" class="edge">
<title>Node9&#45;&gt;Node6</title>
<path fill="none" stroke="midnightblue" d="M337.7,-7.61C308.39,-6.35 267.01,-5.83 231,-10 218.45,-11.45 205.01,-14.13 192.76,-17.03"/>
<polygon fill="midnightblue" stroke="midnightblue" points="191.67,-13.7 182.8,-19.49 193.35,-20.49 191.67,-13.7"/>
</g>
</g>
</svg>
