<?xml version="1.0" encoding="UTF-8" standalone="no"?>
<!DOCTYPE svg PUBLIC "-//W3C//DTD SVG 1.1//EN"
 "http://www.w3.org/Graphics/SVG/1.1/DTD/svg11.dtd">
<!-- Generated by graphviz version 2.44.1 (20200629.0846)
 -->
<!-- Title: main Pages: 1 -->
<svg width="477pt" height="256pt"
 viewBox="0.00 0.00 477.00 256.00" xmlns="http://www.w3.org/2000/svg" xmlns:xlink="http://www.w3.org/1999/xlink">
<g id="graph0" class="graph" transform="scale(1 1) rotate(0) translate(4 252)">
<title>main</title>
<polygon fill="white" stroke="transparent" points="-4,4 -4,-252 473,-252 473,4 -4,4"/>
<!-- Node1 -->
<g id="node1" class="node">
<title>Node1</title>
<g id="a_node1"><a xlink:title=" ">
<polygon fill="#bfbfbf" stroke="black" points="0,-114.5 0,-133.5 38,-133.5 38,-114.5 0,-114.5"/>
<text text-anchor="middle" x="19" y="-121.5" font-family="Helvetica,sans-Serif" font-size="10.00">main</text>
</a>
</g>
</g>
<!-- Node2 -->
<g id="node2" class="node">
<title>Node2</title>
<g id="a_node2"><a xlink:href="../../d5/d67/complex__numbers_8cpp.html#a88ec9ad42717780d6caaff9d3d6977f9" target="_top" xlink:title=" ">
<polygon fill="white" stroke="black" points="74,-114.5 74,-133.5 112,-133.5 112,-114.5 74,-114.5"/>
<text text-anchor="middle" x="93" y="-121.5" font-family="Helvetica,sans-Serif" font-size="10.00">tests</text>
</a>
</g>
</g>
<!-- Node1&#45;&gt;Node2 -->
<g id="edge1" class="edge">
<title>Node1&#45;&gt;Node2</title>
<path fill="none" stroke="midnightblue" d="M38.17,-124C45.87,-124 55.03,-124 63.58,-124"/>
<polygon fill="midnightblue" stroke="midnightblue" points="63.59,-127.5 73.59,-124 63.59,-120.5 63.59,-127.5"/>
</g>
<!-- Node3 -->
<g id="node3" class="node">
<title>Node3</title>
<g id="a_node3"><a target="_blank" xlink:href="http://en.cppreference.com/w/cpp/io/manip/endl.html#" target="_top" xlink:title=" ">
<polygon fill="white" stroke="black" points="171,-228.5 171,-247.5 225,-247.5 225,-228.5 171,-228.5"/>
<text text-anchor="middle" x="198" y="-235.5" font-family="Helvetica,sans-Serif" font-size="10.00">std::endl</text>
</a>
</g>
</g>
<!-- Node2&#45;&gt;Node3 -->
<g id="edge2" class="edge">
<title>Node2&#45;&gt;Node3</title>
<path fill="none" stroke="midnightblue" d="M97.06,-133.79C103.49,-152.8 120.13,-194.96 148,-219 151.96,-222.41 156.6,-225.25 161.41,-227.6"/>
<polygon fill="midnightblue" stroke="midnightblue" points="160.19,-230.88 170.77,-231.54 162.91,-224.43 160.19,-230.88"/>
</g>
<!-- Node4 -->
<g id="node4" class="node">
<title>Node4</title>
<g id="a_node4"><a xlink:href="../../d5/d67/complex__numbers_8cpp.html#a5d4d5b8250b50703de888514c8e7a7a0" target="_top" xlink:title="Function to get random numbers to generate our complex numbers for test.">
<polygon fill="white" stroke="black" points="171,-190.5 171,-209.5 225,-209.5 225,-190.5 171,-190.5"/>
<text text-anchor="middle" x="198" y="-197.5" font-family="Helvetica,sans-Serif" font-size="10.00">get_rand</text>
</a>
</g>
</g>
<!-- Node2&#45;&gt;Node4 -->
<g id="edge3" class="edge">
<title>Node2&#45;&gt;Node4</title>
<path fill="none" stroke="midnightblue" d="M101.01,-133.73C110.44,-146.2 128.31,-167.78 148,-181 152.09,-183.75 156.64,-186.18 161.27,-188.31"/>
<polygon fill="midnightblue" stroke="midnightblue" points="160.19,-191.65 170.76,-192.26 162.88,-185.19 160.19,-191.65"/>
</g>
<!-- Node6 -->
<g id="node6" class="node">
<title>Node6</title>
<g id="a_node6"><a target="_blank" xlink:href="http://en.cppreference.com/w/cpp/numeric/complex/imag.html#" target="_top" xlink:title=" ">
<polygon fill="white" stroke="black" points="148,-152.5 148,-171.5 248,-171.5 248,-152.5 148,-152.5"/>
<text text-anchor="middle" x="198" y="-159.5" font-family="Helvetica,sans-Serif" font-size="10.00">std::complex::imag</text>
</a>
</g>
</g>
<!-- Node2&#45;&gt;Node6 -->
<g id="edge5" class="edge">
<title>Node2&#45;&gt;Node6</title>
<path fill="none" stroke="midnightblue" d="M112.41,-130.79C126.05,-135.83 145.07,-142.84 161.61,-148.94"/>
<polygon fill="midnightblue" stroke="midnightblue" points="160.41,-152.23 171.01,-152.41 162.84,-145.67 160.41,-152.23"/>
</g>
<!-- Node7 -->
<g id="node7" class="node">
<title>Node7</title>
<g id="a_node7"><a target="_blank" xlink:href="http://en.cppreference.com/w/cpp/numeric/complex/real.html#" target="_top" xlink:title=" ">
<polygon fill="white" stroke="black" points="150.5,-114.5 150.5,-133.5 245.5,-133.5 245.5,-114.5 150.5,-114.5"/>
<text text-anchor="middle" x="198" y="-121.5" font-family="Helvetica,sans-Serif" font-size="10.00">std::complex::real</text>
</a>
</g>
</g>
<!-- Node2&#45;&gt;Node7 -->
<g id="edge6" class="edge">
<title>Node2&#45;&gt;Node7</title>
<path fill="none" stroke="midnightblue" d="M112.41,-124C120.4,-124 130.23,-124 140.32,-124"/>
<polygon fill="midnightblue" stroke="midnightblue" points="140.44,-127.5 150.44,-124 140.44,-120.5 140.44,-127.5"/>
</g>
<!-- Node8 -->
<g id="node8" class="node">
<title>Node8</title>
<g id="a_node8"><a xlink:href="../../dd/d47/namespacemath.html#a8d79d452a81ed27ba095d2ecb32dc4b4" target="_top" xlink:title=" ">
<polygon fill="white" stroke="black" points="164,-76.5 164,-95.5 232,-95.5 232,-76.5 164,-76.5"/>
<text text-anchor="middle" x="198" y="-83.5" font-family="Helvetica,sans-Serif" font-size="10.00">math::result</text>
</a>
</g>
</g>
<!-- Node2&#45;&gt;Node8 -->
<g id="edge7" class="edge">
<title>Node2&#45;&gt;Node8</title>
<path fill="none" stroke="midnightblue" d="M112.41,-117.21C126.05,-112.17 145.07,-105.16 161.61,-99.06"/>
<polygon fill="midnightblue" stroke="midnightblue" points="162.84,-102.33 171.01,-95.59 160.41,-95.77 162.84,-102.33"/>
</g>
<!-- Node12 -->
<g id="node12" class="node">
<title>Node12</title>
<g id="a_node12"><a target="_blank" xlink:href="http://en.cppreference.com/w/cpp/numeric/random/srand.html#" target="_top" xlink:title=" ">
<polygon fill="white" stroke="black" points="168,-38.5 168,-57.5 228,-57.5 228,-38.5 168,-38.5"/>
<text text-anchor="middle" x="198" y="-45.5" font-family="Helvetica,sans-Serif" font-size="10.00">std::srand</text>
</a>
</g>
</g>
<!-- Node2&#45;&gt;Node12 -->
<g id="edge12" class="edge">
<title>Node2&#45;&gt;Node12</title>
<path fill="none" stroke="midnightblue" d="M101.01,-114.27C110.44,-101.8 128.31,-80.22 148,-67 151.31,-64.78 154.93,-62.76 158.64,-60.94"/>
<polygon fill="midnightblue" stroke="midnightblue" points="160.22,-64.06 167.96,-56.82 157.4,-57.66 160.22,-64.06"/>
</g>
<!-- Node13 -->
<g id="node13" class="node">
<title>Node13</title>
<g id="a_node13"><a target="_blank" xlink:href="http://en.cppreference.com/w/cpp/chrono/c/time.html#" target="_top" xlink:title=" ">
<polygon fill="white" stroke="black" points="170.5,-0.5 170.5,-19.5 225.5,-19.5 225.5,-0.5 170.5,-0.5"/>
<text text-anchor="middle" x="198" y="-7.5" font-family="Helvetica,sans-Serif" font-size="10.00">std::time</text>
</a>
</g>
</g>
<!-- Node2&#45;&gt;Node13 -->
<g id="edge13" class="edge">
<title>Node2&#45;&gt;Node13</title>
<path fill="none" stroke="midnightblue" d="M97.06,-114.21C103.49,-95.2 120.13,-53.04 148,-29 151.77,-25.74 156.17,-23.01 160.75,-20.73"/>
<polygon fill="midnightblue" stroke="midnightblue" points="162.45,-23.81 170.26,-16.65 159.69,-17.37 162.45,-23.81"/>
</g>
<!-- Node5 -->
<g id="node5" class="node">
<title>Node5</title>
<g id="a_node5"><a target="_blank" xlink:href="http://en.cppreference.com/w/cpp/numeric/random/rand.html#" target="_top" xlink:title=" ">
<polygon fill="white" stroke="black" points="292,-190.5 292,-209.5 347,-209.5 347,-190.5 292,-190.5"/>
<text text-anchor="middle" x="319.5" y="-197.5" font-family="Helvetica,sans-Serif" font-size="10.00">std::rand</text>
</a>
</g>
</g>
<!-- Node4&#45;&gt;Node5 -->
<g id="edge4" class="edge">
<title>Node4&#45;&gt;Node5</title>
<path fill="none" stroke="midnightblue" d="M225.22,-200C241.84,-200 263.58,-200 281.88,-200"/>
<polygon fill="midnightblue" stroke="midnightblue" points="281.92,-203.5 291.92,-200 281.92,-196.5 281.92,-203.5"/>
</g>
<!-- Node9 -->
<g id="node9" class="node">
<title>Node9</title>
<g id="a_node9"><a xlink:href="../../d7/d35/matrix__exponentiation_8cpp.html#ad8389ed58fd0ec66df248014775ad1fa" target="_top" xlink:title=" ">
<polygon fill="white" stroke="black" points="303.5,-114.5 303.5,-133.5 335.5,-133.5 335.5,-114.5 303.5,-114.5"/>
<text text-anchor="middle" x="319.5" y="-121.5" font-family="Helvetica,sans-Serif" font-size="10.00">ans</text>
</a>
</g>
</g>
<!-- Node8&#45;&gt;Node9 -->
<g id="edge8" class="edge">
<title>Node8&#45;&gt;Node9</title>
<path fill="none" stroke="midnightblue" d="M229.15,-95.59C249.11,-101.93 274.95,-110.15 293.7,-116.12"/>
<polygon fill="midnightblue" stroke="midnightblue" points="292.72,-119.48 303.31,-119.17 294.84,-112.8 292.72,-119.48"/>
</g>
<!-- Node10 -->
<g id="node10" class="node">
<title>Node10</title>
<g id="a_node10"><a xlink:href="../../dd/d47/namespacemath.html#a4a55bb9ec6c59485d3fdb18bd88ca5b6" target="_top" xlink:title=" ">
<polygon fill="white" stroke="black" points="284,-76.5 284,-95.5 355,-95.5 355,-76.5 284,-76.5"/>
<text text-anchor="middle" x="319.5" y="-83.5" font-family="Helvetica,sans-Serif" font-size="10.00">math::power</text>
</a>
</g>
</g>
<!-- Node8&#45;&gt;Node10 -->
<g id="edge9" class="edge">
<title>Node8&#45;&gt;Node10</title>
<path fill="none" stroke="midnightblue" d="M232.29,-86C245.06,-86 259.84,-86 273.53,-86"/>
<polygon fill="midnightblue" stroke="midnightblue" points="273.72,-89.5 283.72,-86 273.72,-82.5 273.72,-89.5"/>
</g>
<!-- Node11 -->
<g id="node11" class="node">
<title>Node11</title>
<g id="a_node11"><a xlink:href="../../dd/d47/namespacemath.html#ab65d9997885347702dc0c3ec09d5dc21" target="_top" xlink:title=" ">
<polygon fill="white" stroke="black" points="391,-57.5 391,-76.5 469,-76.5 469,-57.5 391,-57.5"/>
<text text-anchor="middle" x="430" y="-64.5" font-family="Helvetica,sans-Serif" font-size="10.00">math::multiply</text>
</a>
</g>
</g>
<!-- Node10&#45;&gt;Node11 -->
<g id="edge10" class="edge">
<title>Node10&#45;&gt;Node11</title>
<path fill="none" stroke="midnightblue" d="M355.13,-79.94C363.33,-78.5 372.22,-76.94 380.9,-75.42"/>
<polygon fill="midnightblue" stroke="midnightblue" points="381.7,-78.84 390.94,-73.66 380.49,-71.94 381.7,-78.84"/>
</g>
<!-- Node11&#45;&gt;Node8 -->
<g id="edge11" class="edge">
<title>Node11&#45;&gt;Node8</title>
<path fill="none" stroke="midnightblue" d="M390.71,-64.72C361.41,-63.52 320.03,-63.02 284,-67 270.23,-68.52 255.42,-71.39 242.09,-74.44"/>
<polygon fill="midnightblue" stroke="midnightblue" points="241.14,-71.07 232.22,-76.79 242.76,-77.88 241.14,-71.07"/>
</g>
</g>
</svg>
