<?xml version="1.0" encoding="UTF-8" standalone="no"?>
<!DOCTYPE svg PUBLIC "-//W3C//DTD SVG 1.1//EN"
 "http://www.w3.org/Graphics/SVG/1.1/DTD/svg11.dtd">
<!-- Generated by graphviz version 2.44.1 (20200629.0846)
 -->
<!-- Title: tests Pages: 1 -->
<svg width="403pt" height="256pt"
 viewBox="0.00 0.00 403.00 256.00" xmlns="http://www.w3.org/2000/svg" xmlns:xlink="http://www.w3.org/1999/xlink">
<g id="graph0" class="graph" transform="scale(1 1) rotate(0) translate(4 252)">
<title>tests</title>
<polygon fill="white" stroke="transparent" points="-4,4 -4,-252 399,-252 399,4 -4,4"/>
<!-- Node1 -->
<g id="node1" class="node">
<title>Node1</title>
<g id="a_node1"><a xlink:title=" ">
<polygon fill="#bfbfbf" stroke="black" points="0,-114.5 0,-133.5 38,-133.5 38,-114.5 0,-114.5"/>
<text text-anchor="middle" x="19" y="-121.5" font-family="Helvetica,sans-Serif" font-size="10.00">tests</text>
</a>
</g>
</g>
<!-- Node2 -->
<g id="node2" class="node">
<title>Node2</title>
<g id="a_node2"><a target="_blank" xlink:href="http://en.cppreference.com/w/cpp/io/manip/endl.html#" target="_top" xlink:title=" ">
<polygon fill="white" stroke="black" points="97,-228.5 97,-247.5 151,-247.5 151,-228.5 97,-228.5"/>
<text text-anchor="middle" x="124" y="-235.5" font-family="Helvetica,sans-Serif" font-size="10.00">std::endl</text>
</a>
</g>
</g>
<!-- Node1&#45;&gt;Node2 -->
<g id="edge1" class="edge">
<title>Node1&#45;&gt;Node2</title>
<path fill="none" stroke="midnightblue" d="M23.06,-133.79C29.49,-152.8 46.13,-194.96 74,-219 77.96,-222.41 82.6,-225.25 87.41,-227.6"/>
<polygon fill="midnightblue" stroke="midnightblue" points="86.19,-230.88 96.77,-231.54 88.91,-224.43 86.19,-230.88"/>
</g>
<!-- Node3 -->
<g id="node3" class="node">
<title>Node3</title>
<g id="a_node3"><a xlink:href="../../d5/d67/complex__numbers_8cpp.html#a5d4d5b8250b50703de888514c8e7a7a0" target="_top" xlink:title="Function to get random numbers to generate our complex numbers for test.">
<polygon fill="white" stroke="black" points="97,-190.5 97,-209.5 151,-209.5 151,-190.5 97,-190.5"/>
<text text-anchor="middle" x="124" y="-197.5" font-family="Helvetica,sans-Serif" font-size="10.00">get_rand</text>
</a>
</g>
</g>
<!-- Node1&#45;&gt;Node3 -->
<g id="edge2" class="edge">
<title>Node1&#45;&gt;Node3</title>
<path fill="none" stroke="midnightblue" d="M27.01,-133.73C36.44,-146.2 54.31,-167.78 74,-181 78.09,-183.75 82.64,-186.18 87.27,-188.31"/>
<polygon fill="midnightblue" stroke="midnightblue" points="86.19,-191.65 96.76,-192.26 88.88,-185.19 86.19,-191.65"/>
</g>
<!-- Node5 -->
<g id="node5" class="node">
<title>Node5</title>
<g id="a_node5"><a target="_blank" xlink:href="http://en.cppreference.com/w/cpp/numeric/complex/imag.html#" target="_top" xlink:title=" ">
<polygon fill="white" stroke="black" points="74,-152.5 74,-171.5 174,-171.5 174,-152.5 74,-152.5"/>
<text text-anchor="middle" x="124" y="-159.5" font-family="Helvetica,sans-Serif" font-size="10.00">std::complex::imag</text>
</a>
</g>
</g>
<!-- Node1&#45;&gt;Node5 -->
<g id="edge4" class="edge">
<title>Node1&#45;&gt;Node5</title>
<path fill="none" stroke="midnightblue" d="M38.41,-130.79C52.05,-135.83 71.07,-142.84 87.61,-148.94"/>
<polygon fill="midnightblue" stroke="midnightblue" points="86.41,-152.23 97.01,-152.41 88.84,-145.67 86.41,-152.23"/>
</g>
<!-- Node6 -->
<g id="node6" class="node">
<title>Node6</title>
<g id="a_node6"><a target="_blank" xlink:href="http://en.cppreference.com/w/cpp/numeric/complex/real.html#" target="_top" xlink:title=" ">
<polygon fill="white" stroke="black" points="76.5,-114.5 76.5,-133.5 171.5,-133.5 171.5,-114.5 76.5,-114.5"/>
<text text-anchor="middle" x="124" y="-121.5" font-family="Helvetica,sans-Serif" font-size="10.00">std::complex::real</text>
</a>
</g>
</g>
<!-- Node1&#45;&gt;Node6 -->
<g id="edge5" class="edge">
<title>Node1&#45;&gt;Node6</title>
<path fill="none" stroke="midnightblue" d="M38.41,-124C46.4,-124 56.23,-124 66.32,-124"/>
<polygon fill="midnightblue" stroke="midnightblue" points="66.44,-127.5 76.44,-124 66.44,-120.5 66.44,-127.5"/>
</g>
<!-- Node7 -->
<g id="node7" class="node">
<title>Node7</title>
<g id="a_node7"><a xlink:href="../../dd/d47/namespacemath.html#a8d79d452a81ed27ba095d2ecb32dc4b4" target="_top" xlink:title=" ">
<polygon fill="white" stroke="black" points="90,-76.5 90,-95.5 158,-95.5 158,-76.5 90,-76.5"/>
<text text-anchor="middle" x="124" y="-83.5" font-family="Helvetica,sans-Serif" font-size="10.00">math::result</text>
</a>
</g>
</g>
<!-- Node1&#45;&gt;Node7 -->
<g id="edge6" class="edge">
<title>Node1&#45;&gt;Node7</title>
<path fill="none" stroke="midnightblue" d="M38.41,-117.21C52.05,-112.17 71.07,-105.16 87.61,-99.06"/>
<polygon fill="midnightblue" stroke="midnightblue" points="88.84,-102.33 97.01,-95.59 86.41,-95.77 88.84,-102.33"/>
</g>
<!-- Node11 -->
<g id="node11" class="node">
<title>Node11</title>
<g id="a_node11"><a target="_blank" xlink:href="http://en.cppreference.com/w/cpp/numeric/random/srand.html#" target="_top" xlink:title=" ">
<polygon fill="white" stroke="black" points="94,-38.5 94,-57.5 154,-57.5 154,-38.5 94,-38.5"/>
<text text-anchor="middle" x="124" y="-45.5" font-family="Helvetica,sans-Serif" font-size="10.00">std::srand</text>
</a>
</g>
</g>
<!-- Node1&#45;&gt;Node11 -->
<g id="edge11" class="edge">
<title>Node1&#45;&gt;Node11</title>
<path fill="none" stroke="midnightblue" d="M27.01,-114.27C36.44,-101.8 54.31,-80.22 74,-67 77.31,-64.78 80.93,-62.76 84.64,-60.94"/>
<polygon fill="midnightblue" stroke="midnightblue" points="86.22,-64.06 93.96,-56.82 83.4,-57.66 86.22,-64.06"/>
</g>
<!-- Node12 -->
<g id="node12" class="node">
<title>Node12</title>
<g id="a_node12"><a target="_blank" xlink:href="http://en.cppreference.com/w/cpp/chrono/c/time.html#" target="_top" xlink:title=" ">
<polygon fill="white" stroke="black" points="96.5,-0.5 96.5,-19.5 151.5,-19.5 151.5,-0.5 96.5,-0.5"/>
<text text-anchor="middle" x="124" y="-7.5" font-family="Helvetica,sans-Serif" font-size="10.00">std::time</text>
</a>
</g>
</g>
<!-- Node1&#45;&gt;Node12 -->
<g id="edge12" class="edge">
<title>Node1&#45;&gt;Node12</title>
<path fill="none" stroke="midnightblue" d="M23.06,-114.21C29.49,-95.2 46.13,-53.04 74,-29 77.77,-25.74 82.17,-23.01 86.75,-20.73"/>
<polygon fill="midnightblue" stroke="midnightblue" points="88.45,-23.81 96.26,-16.65 85.69,-17.37 88.45,-23.81"/>
</g>
<!-- Node4 -->
<g id="node4" class="node">
<title>Node4</title>
<g id="a_node4"><a target="_blank" xlink:href="http://en.cppreference.com/w/cpp/numeric/random/rand.html#" target="_top" xlink:title=" ">
<polygon fill="white" stroke="black" points="218,-190.5 218,-209.5 273,-209.5 273,-190.5 218,-190.5"/>
<text text-anchor="middle" x="245.5" y="-197.5" font-family="Helvetica,sans-Serif" font-size="10.00">std::rand</text>
</a>
</g>
</g>
<!-- Node3&#45;&gt;Node4 -->
<g id="edge3" class="edge">
<title>Node3&#45;&gt;Node4</title>
<path fill="none" stroke="midnightblue" d="M151.22,-200C167.84,-200 189.58,-200 207.88,-200"/>
<polygon fill="midnightblue" stroke="midnightblue" points="207.92,-203.5 217.92,-200 207.92,-196.5 207.92,-203.5"/>
</g>
<!-- Node8 -->
<g id="node8" class="node">
<title>Node8</title>
<g id="a_node8"><a xlink:href="../../d7/d35/matrix__exponentiation_8cpp.html#ad8389ed58fd0ec66df248014775ad1fa" target="_top" xlink:title=" ">
<polygon fill="white" stroke="black" points="229.5,-114.5 229.5,-133.5 261.5,-133.5 261.5,-114.5 229.5,-114.5"/>
<text text-anchor="middle" x="245.5" y="-121.5" font-family="Helvetica,sans-Serif" font-size="10.00">ans</text>
</a>
</g>
</g>
<!-- Node7&#45;&gt;Node8 -->
<g id="edge7" class="edge">
<title>Node7&#45;&gt;Node8</title>
<path fill="none" stroke="midnightblue" d="M155.15,-95.59C175.11,-101.93 200.95,-110.15 219.7,-116.12"/>
<polygon fill="midnightblue" stroke="midnightblue" points="218.72,-119.48 229.31,-119.17 220.84,-112.8 218.72,-119.48"/>
</g>
<!-- Node9 -->
<g id="node9" class="node">
<title>Node9</title>
<g id="a_node9"><a xlink:href="../../dd/d47/namespacemath.html#a4a55bb9ec6c59485d3fdb18bd88ca5b6" target="_top" xlink:title=" ">
<polygon fill="white" stroke="black" points="210,-76.5 210,-95.5 281,-95.5 281,-76.5 210,-76.5"/>
<text text-anchor="middle" x="245.5" y="-83.5" font-family="Helvetica,sans-Serif" font-size="10.00">math::power</text>
</a>
</g>
</g>
<!-- Node7&#45;&gt;Node9 -->
<g id="edge8" class="edge">
<title>Node7&#45;&gt;Node9</title>
<path fill="none" stroke="midnightblue" d="M158.29,-86C171.06,-86 185.84,-86 199.53,-86"/>
<polygon fill="midnightblue" stroke="midnightblue" points="199.72,-89.5 209.72,-86 199.72,-82.5 199.72,-89.5"/>
</g>
<!-- Node10 -->
<g id="node10" class="node">
<title>Node10</title>
<g id="a_node10"><a xlink:href="../../dd/d47/namespacemath.html#ab65d9997885347702dc0c3ec09d5dc21" target="_top" xlink:title=" ">
<polygon fill="white" stroke="black" points="317,-57.5 317,-76.5 395,-76.5 395,-57.5 317,-57.5"/>
<text text-anchor="middle" x="356" y="-64.5" font-family="Helvetica,sans-Serif" font-size="10.00">math::multiply</text>
</a>
</g>
</g>
<!-- Node9&#45;&gt;Node10 -->
<g id="edge9" class="edge">
<title>Node9&#45;&gt;Node10</title>
<path fill="none" stroke="midnightblue" d="M281.13,-79.94C289.33,-78.5 298.22,-76.94 306.9,-75.42"/>
<polygon fill="midnightblue" stroke="midnightblue" points="307.7,-78.84 316.94,-73.66 306.49,-71.94 307.7,-78.84"/>
</g>
<!-- Node10&#45;&gt;Node7 -->
<g id="edge10" class="edge">
<title>Node10&#45;&gt;Node7</title>
<path fill="none" stroke="midnightblue" d="M316.71,-64.72C287.41,-63.52 246.03,-63.02 210,-67 196.23,-68.52 181.42,-71.39 168.09,-74.44"/>
<polygon fill="midnightblue" stroke="midnightblue" points="167.14,-71.07 158.22,-76.79 168.76,-77.88 167.14,-71.07"/>
</g>
</g>
</svg>
