<?xml version="1.0" encoding="UTF-8" standalone="no"?>
<!DOCTYPE svg PUBLIC "-//W3C//DTD SVG 1.1//EN"
 "http://www.w3.org/Graphics/SVG/1.1/DTD/svg11.dtd">
<!-- Generated by graphviz version 2.44.1 (20200629.0846)
 -->
<!-- Title: math::result Pages: 1 -->
<svg width="297pt" height="85pt"
 viewBox="0.00 0.00 297.00 85.00" xmlns="http://www.w3.org/2000/svg" xmlns:xlink="http://www.w3.org/1999/xlink">
<g id="graph0" class="graph" transform="scale(1 1) rotate(0) translate(4 81)">
<title>math::result</title>
<polygon fill="white" stroke="transparent" points="-4,4 -4,-81 293,-81 293,4 -4,4"/>
<!-- Node1 -->
<g id="node1" class="node">
<title>Node1</title>
<g id="a_node1"><a xlink:title=" ">
<polygon fill="#bfbfbf" stroke="black" points="0,-19.5 0,-38.5 68,-38.5 68,-19.5 0,-19.5"/>
<text text-anchor="middle" x="34" y="-26.5" font-family="Helvetica,sans-Serif" font-size="10.00">math::result</text>
</a>
</g>
</g>
<!-- Node2 -->
<g id="node2" class="node">
<title>Node2</title>
<g id="a_node2"><a xlink:href="../../d7/d35/matrix__exponentiation_8cpp.html#ad8389ed58fd0ec66df248014775ad1fa" target="_top" xlink:title=" ">
<polygon fill="white" stroke="black" points="123.5,-57.5 123.5,-76.5 155.5,-76.5 155.5,-57.5 123.5,-57.5"/>
<text text-anchor="middle" x="139.5" y="-64.5" font-family="Helvetica,sans-Serif" font-size="10.00">ans</text>
</a>
</g>
</g>
<!-- Node1&#45;&gt;Node2 -->
<g id="edge1" class="edge">
<title>Node1&#45;&gt;Node2</title>
<path fill="none" stroke="midnightblue" d="M61.12,-38.59C77.23,-44.5 97.78,-52.05 113.65,-57.88"/>
<polygon fill="midnightblue" stroke="midnightblue" points="112.72,-61.26 123.31,-61.42 115.13,-54.69 112.72,-61.26"/>
</g>
<!-- Node3 -->
<g id="node3" class="node">
<title>Node3</title>
<g id="a_node3"><a xlink:href="../../dd/d47/namespacemath.html#a4a55bb9ec6c59485d3fdb18bd88ca5b6" target="_top" xlink:title=" ">
<polygon fill="white" stroke="black" points="104,-19.5 104,-38.5 175,-38.5 175,-19.5 104,-19.5"/>
<text text-anchor="middle" x="139.5" y="-26.5" font-family="Helvetica,sans-Serif" font-size="10.00">math::power</text>
</a>
</g>
</g>
<!-- Node1&#45;&gt;Node3 -->
<g id="edge2" class="edge">
<title>Node1&#45;&gt;Node3</title>
<path fill="none" stroke="midnightblue" d="M68.03,-29C76.28,-29 85.26,-29 93.97,-29"/>
<polygon fill="midnightblue" stroke="midnightblue" points="94,-32.5 104,-29 94,-25.5 94,-32.5"/>
</g>
<!-- Node4 -->
<g id="node4" class="node">
<title>Node4</title>
<g id="a_node4"><a xlink:href="../../dd/d47/namespacemath.html#ab65d9997885347702dc0c3ec09d5dc21" target="_top" xlink:title=" ">
<polygon fill="white" stroke="black" points="211,-0.5 211,-19.5 289,-19.5 289,-0.5 211,-0.5"/>
<text text-anchor="middle" x="250" y="-7.5" font-family="Helvetica,sans-Serif" font-size="10.00">math::multiply</text>
</a>
</g>
</g>
<!-- Node3&#45;&gt;Node4 -->
<g id="edge3" class="edge">
<title>Node3&#45;&gt;Node4</title>
<path fill="none" stroke="midnightblue" d="M175.13,-22.94C183.33,-21.5 192.22,-19.94 200.9,-18.42"/>
<polygon fill="midnightblue" stroke="midnightblue" points="201.7,-21.84 210.94,-16.66 200.49,-14.94 201.7,-21.84"/>
</g>
<!-- Node4&#45;&gt;Node1 -->
<g id="edge4" class="edge">
<title>Node4&#45;&gt;Node1</title>
<path fill="none" stroke="midnightblue" d="M210.96,-7.23C181.6,-5.76 140.05,-5.13 104,-10 93.66,-11.4 82.67,-13.92 72.58,-16.69"/>
<polygon fill="midnightblue" stroke="midnightblue" points="71.48,-13.36 62.84,-19.5 73.42,-20.09 71.48,-13.36"/>
</g>
</g>
</svg>
