<?xml version="1.0" encoding="UTF-8" standalone="no"?>
<!DOCTYPE svg PUBLIC "-//W3C//DTD SVG 1.1//EN"
 "http://www.w3.org/Graphics/SVG/1.1/DTD/svg11.dtd">
<!-- Generated by graphviz version 2.44.1 (20200629.0846)
 -->
<!-- Title: main Pages: 1 -->
<svg width="461pt" height="104pt"
 viewBox="0.00 0.00 461.00 104.00" xmlns="http://www.w3.org/2000/svg" xmlns:xlink="http://www.w3.org/1999/xlink">
<g id="graph0" class="graph" transform="scale(1 1) rotate(0) translate(4 100)">
<title>main</title>
<polygon fill="white" stroke="transparent" points="-4,4 -4,-100 457,-100 457,4 -4,4"/>
<!-- Node1 -->
<g id="node1" class="node">
<title>Node1</title>
<g id="a_node1"><a xlink:title=" ">
<polygon fill="#bfbfbf" stroke="black" points="0,-38.5 0,-57.5 38,-57.5 38,-38.5 0,-38.5"/>
<text text-anchor="middle" x="19" y="-45.5" font-family="Helvetica,sans-Serif" font-size="10.00">main</text>
</a>
</g>
</g>
<!-- Node2 -->
<g id="node2" class="node">
<title>Node2</title>
<g id="a_node2"><a target="_blank" xlink:href="http://en.cppreference.com/w/cpp/io/manip/endl.html#" target="_top" xlink:title=" ">
<polygon fill="white" stroke="black" points="74,-76.5 74,-95.5 128,-95.5 128,-76.5 74,-76.5"/>
<text text-anchor="middle" x="101" y="-83.5" font-family="Helvetica,sans-Serif" font-size="10.00">std::endl</text>
</a>
</g>
</g>
<!-- Node1&#45;&gt;Node2 -->
<g id="edge1" class="edge">
<title>Node1&#45;&gt;Node2</title>
<path fill="none" stroke="midnightblue" d="M38.15,-56.62C47.78,-61.2 59.84,-66.93 70.75,-72.11"/>
<polygon fill="midnightblue" stroke="midnightblue" points="69.42,-75.35 79.95,-76.48 72.42,-69.03 69.42,-75.35"/>
</g>
<!-- Node3 -->
<g id="node3" class="node">
<title>Node3</title>
<g id="a_node3"><a xlink:href="../../db/d93/check__prime_8cpp.html#aa18b3517017d99bb4024853bddba5532" target="_top" xlink:title=" ">
<polygon fill="white" stroke="black" points="74.5,-38.5 74.5,-57.5 127.5,-57.5 127.5,-38.5 74.5,-38.5"/>
<text text-anchor="middle" x="101" y="-45.5" font-family="Helvetica,sans-Serif" font-size="10.00">is_prime</text>
</a>
</g>
</g>
<!-- Node1&#45;&gt;Node3 -->
<g id="edge2" class="edge">
<title>Node1&#45;&gt;Node3</title>
<path fill="none" stroke="midnightblue" d="M38.15,-48C45.84,-48 55.08,-48 64.05,-48"/>
<polygon fill="midnightblue" stroke="midnightblue" points="64.34,-51.5 74.34,-48 64.34,-44.5 64.34,-51.5"/>
</g>
<!-- Node4 -->
<g id="node4" class="node">
<title>Node4</title>
<g id="a_node4"><a xlink:href="../../dd/d47/namespacemath.html#a8d79d452a81ed27ba095d2ecb32dc4b4" target="_top" xlink:title=" ">
<polygon fill="white" stroke="black" points="164,-19.5 164,-38.5 232,-38.5 232,-19.5 164,-19.5"/>
<text text-anchor="middle" x="198" y="-26.5" font-family="Helvetica,sans-Serif" font-size="10.00">math::result</text>
</a>
</g>
</g>
<!-- Node1&#45;&gt;Node4 -->
<g id="edge8" class="edge">
<title>Node1&#45;&gt;Node4</title>
<path fill="none" stroke="midnightblue" d="M38.08,-39.91C48.38,-35.74 61.66,-31.11 74,-29 100.22,-24.52 130.05,-24.4 153.76,-25.46"/>
<polygon fill="midnightblue" stroke="midnightblue" points="153.68,-28.96 163.86,-25.99 154.06,-21.97 153.68,-28.96"/>
</g>
<!-- Node3&#45;&gt;Node4 -->
<g id="edge3" class="edge">
<title>Node3&#45;&gt;Node4</title>
<path fill="none" stroke="midnightblue" d="M127.96,-42.81C136.02,-41.2 145.14,-39.37 154.03,-37.59"/>
<polygon fill="midnightblue" stroke="midnightblue" points="154.8,-41.01 163.92,-35.62 153.43,-34.14 154.8,-41.01"/>
</g>
<!-- Node5 -->
<g id="node5" class="node">
<title>Node5</title>
<g id="a_node5"><a xlink:href="../../d7/d35/matrix__exponentiation_8cpp.html#ad8389ed58fd0ec66df248014775ad1fa" target="_top" xlink:title=" ">
<polygon fill="white" stroke="black" points="287.5,-57.5 287.5,-76.5 319.5,-76.5 319.5,-57.5 287.5,-57.5"/>
<text text-anchor="middle" x="303.5" y="-64.5" font-family="Helvetica,sans-Serif" font-size="10.00">ans</text>
</a>
</g>
</g>
<!-- Node4&#45;&gt;Node5 -->
<g id="edge4" class="edge">
<title>Node4&#45;&gt;Node5</title>
<path fill="none" stroke="midnightblue" d="M225.12,-38.59C241.23,-44.5 261.78,-52.05 277.65,-57.88"/>
<polygon fill="midnightblue" stroke="midnightblue" points="276.72,-61.26 287.31,-61.42 279.13,-54.69 276.72,-61.26"/>
</g>
<!-- Node6 -->
<g id="node6" class="node">
<title>Node6</title>
<g id="a_node6"><a xlink:href="../../dd/d47/namespacemath.html#a4a55bb9ec6c59485d3fdb18bd88ca5b6" target="_top" xlink:title=" ">
<polygon fill="white" stroke="black" points="268,-19.5 268,-38.5 339,-38.5 339,-19.5 268,-19.5"/>
<text text-anchor="middle" x="303.5" y="-26.5" font-family="Helvetica,sans-Serif" font-size="10.00">math::power</text>
</a>
</g>
</g>
<!-- Node4&#45;&gt;Node6 -->
<g id="edge5" class="edge">
<title>Node4&#45;&gt;Node6</title>
<path fill="none" stroke="midnightblue" d="M232.03,-29C240.28,-29 249.26,-29 257.97,-29"/>
<polygon fill="midnightblue" stroke="midnightblue" points="258,-32.5 268,-29 258,-25.5 258,-32.5"/>
</g>
<!-- Node7 -->
<g id="node7" class="node">
<title>Node7</title>
<g id="a_node7"><a xlink:href="../../dd/d47/namespacemath.html#ab65d9997885347702dc0c3ec09d5dc21" target="_top" xlink:title=" ">
<polygon fill="white" stroke="black" points="375,-0.5 375,-19.5 453,-19.5 453,-0.5 375,-0.5"/>
<text text-anchor="middle" x="414" y="-7.5" font-family="Helvetica,sans-Serif" font-size="10.00">math::multiply</text>
</a>
</g>
</g>
<!-- Node6&#45;&gt;Node7 -->
<g id="edge6" class="edge">
<title>Node6&#45;&gt;Node7</title>
<path fill="none" stroke="midnightblue" d="M339.13,-22.94C347.33,-21.5 356.22,-19.94 364.9,-18.42"/>
<polygon fill="midnightblue" stroke="midnightblue" points="365.7,-21.84 374.94,-16.66 364.49,-14.94 365.7,-21.84"/>
</g>
<!-- Node7&#45;&gt;Node4 -->
<g id="edge7" class="edge">
<title>Node7&#45;&gt;Node4</title>
<path fill="none" stroke="midnightblue" d="M374.96,-7.23C345.6,-5.76 304.05,-5.13 268,-10 257.66,-11.4 246.67,-13.92 236.58,-16.69"/>
<polygon fill="midnightblue" stroke="midnightblue" points="235.48,-13.36 226.84,-19.5 237.42,-20.09 235.48,-13.36"/>
</g>
</g>
</svg>
