<?xml version="1.0" encoding="UTF-8" standalone="no"?>
<!DOCTYPE svg PUBLIC "-//W3C//DTD SVG 1.1//EN"
 "http://www.w3.org/Graphics/SVG/1.1/DTD/svg11.dtd">
<!-- Generated by graphviz version 2.44.1 (20200629.0846)
 -->
<!-- Title: tests Pages: 1 -->
<svg width="771pt" height="204pt"
 viewBox="0.00 0.00 771.00 204.00" xmlns="http://www.w3.org/2000/svg" xmlns:xlink="http://www.w3.org/1999/xlink">
<g id="graph0" class="graph" transform="scale(1 1) rotate(0) translate(4 200)">
<title>tests</title>
<polygon fill="white" stroke="transparent" points="-4,4 -4,-200 767,-200 767,4 -4,4"/>
<!-- Node1 -->
<g id="node1" class="node">
<title>Node1</title>
<g id="a_node1"><a xlink:title=" ">
<polygon fill="#bfbfbf" stroke="black" points="0,-76.5 0,-95.5 38,-95.5 38,-76.5 0,-76.5"/>
<text text-anchor="middle" x="19" y="-83.5" font-family="Helvetica,sans-Serif" font-size="10.00">tests</text>
</a>
</g>
</g>
<!-- Node2 -->
<g id="node2" class="node">
<title>Node2</title>
<g id="a_node2"><a target="_blank" xlink:href="http://en.cppreference.com/w/cpp/io/manip/endl.html#" target="_top" xlink:title=" ">
<polygon fill="white" stroke="black" points="112,-95.5 112,-114.5 166,-114.5 166,-95.5 112,-95.5"/>
<text text-anchor="middle" x="139" y="-102.5" font-family="Helvetica,sans-Serif" font-size="10.00">std::endl</text>
</a>
</g>
</g>
<!-- Node1&#45;&gt;Node2 -->
<g id="edge1" class="edge">
<title>Node1&#45;&gt;Node2</title>
<path fill="none" stroke="midnightblue" d="M38.18,-88.93C55.07,-91.65 80.71,-95.78 101.78,-99.17"/>
<polygon fill="midnightblue" stroke="midnightblue" points="101.26,-102.63 111.69,-100.76 102.38,-95.72 101.26,-102.63"/>
</g>
<!-- Node3 -->
<g id="node3" class="node">
<title>Node3</title>
<g id="a_node3"><a xlink:href="../../d6/d42/miller__rabin_8cpp.html#a901288288ef5ebe8e97414cc30797cce" target="_top" xlink:title=" ">
<polygon fill="white" stroke="black" points="74,-57.5 74,-76.5 204,-76.5 204,-57.5 74,-57.5"/>
<text text-anchor="middle" x="139" y="-64.5" font-family="Helvetica,sans-Serif" font-size="10.00">miller_rabin_primality_test</text>
</a>
</g>
</g>
<!-- Node1&#45;&gt;Node3 -->
<g id="edge2" class="edge">
<title>Node1&#45;&gt;Node3</title>
<path fill="none" stroke="midnightblue" d="M38.18,-83.07C46.73,-81.7 57.52,-79.96 68.83,-78.14"/>
<polygon fill="midnightblue" stroke="midnightblue" points="69.54,-81.57 78.86,-76.52 68.43,-74.66 69.54,-81.57"/>
</g>
<!-- Node4 -->
<g id="node4" class="node">
<title>Node4</title>
<g id="a_node4"><a xlink:href="../../d6/d42/miller__rabin_8cpp.html#a6f9c31c1047aa3191676d64571d4c506" target="_top" xlink:title=" ">
<polygon fill="white" stroke="black" points="240,-57.5 240,-76.5 302,-76.5 302,-57.5 240,-57.5"/>
<text text-anchor="middle" x="271" y="-64.5" font-family="Helvetica,sans-Serif" font-size="10.00">miller_test</text>
</a>
</g>
</g>
<!-- Node3&#45;&gt;Node4 -->
<g id="edge3" class="edge">
<title>Node3&#45;&gt;Node4</title>
<path fill="none" stroke="midnightblue" d="M204.24,-67C212.87,-67 221.51,-67 229.57,-67"/>
<polygon fill="midnightblue" stroke="midnightblue" points="229.77,-70.5 239.77,-67 229.77,-63.5 229.77,-70.5"/>
</g>
<!-- Node5 -->
<g id="node5" class="node">
<title>Node5</title>
<g id="a_node5"><a xlink:href="../../d6/d42/miller__rabin_8cpp.html#ad6c2c67ea416d0e80003a88623f98b29" target="_top" xlink:title=" ">
<polygon fill="white" stroke="black" points="338,-104.5 338,-123.5 457,-123.5 457,-104.5 338,-104.5"/>
<text text-anchor="middle" x="397.5" y="-111.5" font-family="Helvetica,sans-Serif" font-size="10.00">modular_exponentiation</text>
</a>
</g>
</g>
<!-- Node4&#45;&gt;Node5 -->
<g id="edge4" class="edge">
<title>Node4&#45;&gt;Node5</title>
<path fill="none" stroke="midnightblue" d="M297.19,-76.51C315.63,-83.47 340.9,-93.01 361.33,-100.72"/>
<polygon fill="midnightblue" stroke="midnightblue" points="360.32,-104.08 370.92,-104.34 362.8,-97.54 360.32,-104.08"/>
</g>
<!-- Node9 -->
<g id="node9" class="node">
<title>Node9</title>
<g id="a_node9"><a xlink:href="../../dd/d47/namespacemath.html#a4a55bb9ec6c59485d3fdb18bd88ca5b6" target="_top" xlink:title=" ">
<polygon fill="white" stroke="black" points="362,-57.5 362,-76.5 433,-76.5 433,-57.5 362,-57.5"/>
<text text-anchor="middle" x="397.5" y="-64.5" font-family="Helvetica,sans-Serif" font-size="10.00">math::power</text>
</a>
</g>
</g>
<!-- Node4&#45;&gt;Node9 -->
<g id="edge8" class="edge">
<title>Node4&#45;&gt;Node9</title>
<path fill="none" stroke="midnightblue" d="M302.14,-67C316.9,-67 334.97,-67 351.34,-67"/>
<polygon fill="midnightblue" stroke="midnightblue" points="351.79,-70.5 361.79,-67 351.79,-63.5 351.79,-70.5"/>
</g>
<!-- Node13 -->
<g id="node13" class="node">
<title>Node13</title>
<g id="a_node13"><a xlink:href="../../d6/d42/miller__rabin_8cpp.html#a798398d5bfd375a3c0ce68100842f6f5" target="_top" xlink:title=" ">
<polygon fill="white" stroke="black" points="357.5,-0.5 357.5,-19.5 437.5,-19.5 437.5,-0.5 357.5,-0.5"/>
<text text-anchor="middle" x="397.5" y="-7.5" font-family="Helvetica,sans-Serif" font-size="10.00">reverse_binary</text>
</a>
</g>
</g>
<!-- Node4&#45;&gt;Node13 -->
<g id="edge13" class="edge">
<title>Node4&#45;&gt;Node13</title>
<path fill="none" stroke="midnightblue" d="M292.84,-57.46C312.95,-48.25 343.61,-34.22 366.37,-23.79"/>
<polygon fill="midnightblue" stroke="midnightblue" points="367.96,-26.92 375.59,-19.57 365.04,-20.55 367.96,-26.92"/>
</g>
<!-- Node6 -->
<g id="node6" class="node">
<title>Node6</title>
<g id="a_node6"><a target="_blank" xlink:href="http://en.cppreference.com/w/cpp/container/vector/begin.html#" target="_top" xlink:title=" ">
<polygon fill="white" stroke="black" points="493,-176.5 493,-195.5 591,-195.5 591,-176.5 493,-176.5"/>
<text text-anchor="middle" x="542" y="-183.5" font-family="Helvetica,sans-Serif" font-size="10.00">std::vector::cbegin</text>
</a>
</g>
</g>
<!-- Node5&#45;&gt;Node6 -->
<g id="edge5" class="edge">
<title>Node5&#45;&gt;Node6</title>
<path fill="none" stroke="midnightblue" d="M414.21,-123.67C432.68,-134.84 464.46,-153.42 493,-167 497.07,-168.94 501.39,-170.85 505.72,-172.66"/>
<polygon fill="midnightblue" stroke="midnightblue" points="504.49,-175.94 515.07,-176.47 507.13,-169.46 504.49,-175.94"/>
</g>
<!-- Node7 -->
<g id="node7" class="node">
<title>Node7</title>
<g id="a_node7"><a target="_blank" xlink:href="http://en.cppreference.com/w/cpp/container/vector/end.html#" target="_top" xlink:title=" ">
<polygon fill="white" stroke="black" points="497,-138.5 497,-157.5 587,-157.5 587,-138.5 497,-138.5"/>
<text text-anchor="middle" x="542" y="-145.5" font-family="Helvetica,sans-Serif" font-size="10.00">std::vector::cend</text>
</a>
</g>
</g>
<!-- Node5&#45;&gt;Node7 -->
<g id="edge6" class="edge">
<title>Node5&#45;&gt;Node7</title>
<path fill="none" stroke="midnightblue" d="M438.57,-123.56C454.81,-127.44 473.75,-131.95 490.88,-136.04"/>
<polygon fill="midnightblue" stroke="midnightblue" points="490.19,-139.48 500.73,-138.39 491.82,-132.67 490.19,-139.48"/>
</g>
<!-- Node8 -->
<g id="node8" class="node">
<title>Node8</title>
<g id="a_node8"><a target="_blank" xlink:href="http://en.cppreference.com/w/cpp/container/vector/size.html#" target="_top" xlink:title=" ">
<polygon fill="white" stroke="black" points="498.5,-100.5 498.5,-119.5 585.5,-119.5 585.5,-100.5 498.5,-100.5"/>
<text text-anchor="middle" x="542" y="-107.5" font-family="Helvetica,sans-Serif" font-size="10.00">std::vector::size</text>
</a>
</g>
</g>
<!-- Node5&#45;&gt;Node8 -->
<g id="edge7" class="edge">
<title>Node5&#45;&gt;Node8</title>
<path fill="none" stroke="midnightblue" d="M457.28,-112.35C467.53,-112.06 478.12,-111.76 488.19,-111.48"/>
<polygon fill="midnightblue" stroke="midnightblue" points="488.56,-114.97 498.46,-111.19 488.36,-107.98 488.56,-114.97"/>
</g>
<!-- Node10 -->
<g id="node10" class="node">
<title>Node10</title>
<g id="a_node10"><a xlink:href="../../dd/d47/namespacemath.html#ab65d9997885347702dc0c3ec09d5dc21" target="_top" xlink:title=" ">
<polygon fill="white" stroke="black" points="503,-62.5 503,-81.5 581,-81.5 581,-62.5 503,-62.5"/>
<text text-anchor="middle" x="542" y="-69.5" font-family="Helvetica,sans-Serif" font-size="10.00">math::multiply</text>
</a>
</g>
</g>
<!-- Node9&#45;&gt;Node10 -->
<g id="edge9" class="edge">
<title>Node9&#45;&gt;Node10</title>
<path fill="none" stroke="midnightblue" d="M433.36,-68.22C451.24,-68.85 473.3,-69.62 492.78,-70.31"/>
<polygon fill="midnightblue" stroke="midnightblue" points="492.88,-73.81 503,-70.67 493.13,-66.82 492.88,-73.81"/>
</g>
<!-- Node11 -->
<g id="node11" class="node">
<title>Node11</title>
<g id="a_node11"><a xlink:href="../../dd/d47/namespacemath.html#a8d79d452a81ed27ba095d2ecb32dc4b4" target="_top" xlink:title=" ">
<polygon fill="white" stroke="black" points="627,-24.5 627,-43.5 695,-43.5 695,-24.5 627,-24.5"/>
<text text-anchor="middle" x="661" y="-31.5" font-family="Helvetica,sans-Serif" font-size="10.00">math::result</text>
</a>
</g>
</g>
<!-- Node10&#45;&gt;Node11 -->
<g id="edge10" class="edge">
<title>Node10&#45;&gt;Node11</title>
<path fill="none" stroke="midnightblue" d="M572.52,-62.41C587.21,-57.64 605.16,-51.81 620.97,-46.68"/>
<polygon fill="midnightblue" stroke="midnightblue" points="622.06,-50 630.49,-43.59 619.89,-43.35 622.06,-50"/>
</g>
<!-- Node11&#45;&gt;Node9 -->
<g id="edge12" class="edge">
<title>Node11&#45;&gt;Node9</title>
<path fill="none" stroke="midnightblue" d="M626.69,-37.45C592.95,-41.03 539.29,-46.94 493,-53 476.68,-55.14 458.81,-57.72 443.04,-60.09"/>
<polygon fill="midnightblue" stroke="midnightblue" points="442.39,-56.64 433.02,-61.6 443.43,-63.57 442.39,-56.64"/>
</g>
<!-- Node12 -->
<g id="node12" class="node">
<title>Node12</title>
<g id="a_node12"><a xlink:href="../../d7/d35/matrix__exponentiation_8cpp.html#ad8389ed58fd0ec66df248014775ad1fa" target="_top" xlink:title=" ">
<polygon fill="white" stroke="black" points="731,-24.5 731,-43.5 763,-43.5 763,-24.5 731,-24.5"/>
<text text-anchor="middle" x="747" y="-31.5" font-family="Helvetica,sans-Serif" font-size="10.00">ans</text>
</a>
</g>
</g>
<!-- Node11&#45;&gt;Node12 -->
<g id="edge11" class="edge">
<title>Node11&#45;&gt;Node12</title>
<path fill="none" stroke="midnightblue" d="M695.2,-34C703.65,-34 712.6,-34 720.59,-34"/>
<polygon fill="midnightblue" stroke="midnightblue" points="720.76,-37.5 730.76,-34 720.76,-30.5 720.76,-37.5"/>
</g>
<!-- Node13&#45;&gt;Node11 -->
<g id="edge14" class="edge">
<title>Node13&#45;&gt;Node11</title>
<path fill="none" stroke="midnightblue" d="M437.73,-10.34C476.74,-11.07 538.21,-13.31 591,-20 599.45,-21.07 608.42,-22.6 616.99,-24.25"/>
<polygon fill="midnightblue" stroke="midnightblue" points="616.33,-27.69 626.82,-26.23 617.71,-20.83 616.33,-27.69"/>
</g>
</g>
</svg>
