<?xml version="1.0" encoding="UTF-8" standalone="no"?>
<!DOCTYPE svg PUBLIC "-//W3C//DTD SVG 1.1//EN"
 "http://www.w3.org/Graphics/SVG/1.1/DTD/svg11.dtd">
<!-- Generated by graphviz version 2.44.1 (20200629.0846)
 -->
<!-- Title: miller_rabin_primality_test Pages: 1 -->
<svg width="697pt" height="204pt"
 viewBox="0.00 0.00 697.00 204.00" xmlns="http://www.w3.org/2000/svg" xmlns:xlink="http://www.w3.org/1999/xlink">
<g id="graph0" class="graph" transform="scale(1 1) rotate(0) translate(4 200)">
<title>miller_rabin_primality_test</title>
<polygon fill="white" stroke="transparent" points="-4,4 -4,-200 693,-200 693,4 -4,4"/>
<!-- Node1 -->
<g id="node1" class="node">
<title>Node1</title>
<g id="a_node1"><a xlink:title=" ">
<polygon fill="#bfbfbf" stroke="black" points="0,-57.5 0,-76.5 130,-76.5 130,-57.5 0,-57.5"/>
<text text-anchor="middle" x="65" y="-64.5" font-family="Helvetica,sans-Serif" font-size="10.00">miller_rabin_primality_test</text>
</a>
</g>
</g>
<!-- Node2 -->
<g id="node2" class="node">
<title>Node2</title>
<g id="a_node2"><a xlink:href="../../d6/d42/miller__rabin_8cpp.html#a6f9c31c1047aa3191676d64571d4c506" target="_top" xlink:title=" ">
<polygon fill="white" stroke="black" points="166,-57.5 166,-76.5 228,-76.5 228,-57.5 166,-57.5"/>
<text text-anchor="middle" x="197" y="-64.5" font-family="Helvetica,sans-Serif" font-size="10.00">miller_test</text>
</a>
</g>
</g>
<!-- Node1&#45;&gt;Node2 -->
<g id="edge1" class="edge">
<title>Node1&#45;&gt;Node2</title>
<path fill="none" stroke="midnightblue" d="M130.24,-67C138.87,-67 147.51,-67 155.57,-67"/>
<polygon fill="midnightblue" stroke="midnightblue" points="155.77,-70.5 165.77,-67 155.77,-63.5 155.77,-70.5"/>
</g>
<!-- Node3 -->
<g id="node3" class="node">
<title>Node3</title>
<g id="a_node3"><a xlink:href="../../d6/d42/miller__rabin_8cpp.html#ad6c2c67ea416d0e80003a88623f98b29" target="_top" xlink:title=" ">
<polygon fill="white" stroke="black" points="264,-104.5 264,-123.5 383,-123.5 383,-104.5 264,-104.5"/>
<text text-anchor="middle" x="323.5" y="-111.5" font-family="Helvetica,sans-Serif" font-size="10.00">modular_exponentiation</text>
</a>
</g>
</g>
<!-- Node2&#45;&gt;Node3 -->
<g id="edge2" class="edge">
<title>Node2&#45;&gt;Node3</title>
<path fill="none" stroke="midnightblue" d="M223.19,-76.51C241.63,-83.47 266.9,-93.01 287.33,-100.72"/>
<polygon fill="midnightblue" stroke="midnightblue" points="286.32,-104.08 296.92,-104.34 288.8,-97.54 286.32,-104.08"/>
</g>
<!-- Node7 -->
<g id="node7" class="node">
<title>Node7</title>
<g id="a_node7"><a xlink:href="../../dd/d47/namespacemath.html#a4a55bb9ec6c59485d3fdb18bd88ca5b6" target="_top" xlink:title=" ">
<polygon fill="white" stroke="black" points="288,-57.5 288,-76.5 359,-76.5 359,-57.5 288,-57.5"/>
<text text-anchor="middle" x="323.5" y="-64.5" font-family="Helvetica,sans-Serif" font-size="10.00">math::power</text>
</a>
</g>
</g>
<!-- Node2&#45;&gt;Node7 -->
<g id="edge6" class="edge">
<title>Node2&#45;&gt;Node7</title>
<path fill="none" stroke="midnightblue" d="M228.14,-67C242.9,-67 260.97,-67 277.34,-67"/>
<polygon fill="midnightblue" stroke="midnightblue" points="277.79,-70.5 287.79,-67 277.79,-63.5 277.79,-70.5"/>
</g>
<!-- Node11 -->
<g id="node11" class="node">
<title>Node11</title>
<g id="a_node11"><a xlink:href="../../d6/d42/miller__rabin_8cpp.html#a798398d5bfd375a3c0ce68100842f6f5" target="_top" xlink:title=" ">
<polygon fill="white" stroke="black" points="283.5,-0.5 283.5,-19.5 363.5,-19.5 363.5,-0.5 283.5,-0.5"/>
<text text-anchor="middle" x="323.5" y="-7.5" font-family="Helvetica,sans-Serif" font-size="10.00">reverse_binary</text>
</a>
</g>
</g>
<!-- Node2&#45;&gt;Node11 -->
<g id="edge11" class="edge">
<title>Node2&#45;&gt;Node11</title>
<path fill="none" stroke="midnightblue" d="M218.84,-57.46C238.95,-48.25 269.61,-34.22 292.37,-23.79"/>
<polygon fill="midnightblue" stroke="midnightblue" points="293.96,-26.92 301.59,-19.57 291.04,-20.55 293.96,-26.92"/>
</g>
<!-- Node4 -->
<g id="node4" class="node">
<title>Node4</title>
<g id="a_node4"><a target="_blank" xlink:href="http://en.cppreference.com/w/cpp/container/vector/begin.html#" target="_top" xlink:title=" ">
<polygon fill="white" stroke="black" points="419,-176.5 419,-195.5 517,-195.5 517,-176.5 419,-176.5"/>
<text text-anchor="middle" x="468" y="-183.5" font-family="Helvetica,sans-Serif" font-size="10.00">std::vector::cbegin</text>
</a>
</g>
</g>
<!-- Node3&#45;&gt;Node4 -->
<g id="edge3" class="edge">
<title>Node3&#45;&gt;Node4</title>
<path fill="none" stroke="midnightblue" d="M340.21,-123.67C358.68,-134.84 390.46,-153.42 419,-167 423.07,-168.94 427.39,-170.85 431.72,-172.66"/>
<polygon fill="midnightblue" stroke="midnightblue" points="430.49,-175.94 441.07,-176.47 433.13,-169.46 430.49,-175.94"/>
</g>
<!-- Node5 -->
<g id="node5" class="node">
<title>Node5</title>
<g id="a_node5"><a target="_blank" xlink:href="http://en.cppreference.com/w/cpp/container/vector/end.html#" target="_top" xlink:title=" ">
<polygon fill="white" stroke="black" points="423,-138.5 423,-157.5 513,-157.5 513,-138.5 423,-138.5"/>
<text text-anchor="middle" x="468" y="-145.5" font-family="Helvetica,sans-Serif" font-size="10.00">std::vector::cend</text>
</a>
</g>
</g>
<!-- Node3&#45;&gt;Node5 -->
<g id="edge4" class="edge">
<title>Node3&#45;&gt;Node5</title>
<path fill="none" stroke="midnightblue" d="M364.57,-123.56C380.81,-127.44 399.75,-131.95 416.88,-136.04"/>
<polygon fill="midnightblue" stroke="midnightblue" points="416.19,-139.48 426.73,-138.39 417.82,-132.67 416.19,-139.48"/>
</g>
<!-- Node6 -->
<g id="node6" class="node">
<title>Node6</title>
<g id="a_node6"><a target="_blank" xlink:href="http://en.cppreference.com/w/cpp/container/vector/size.html#" target="_top" xlink:title=" ">
<polygon fill="white" stroke="black" points="424.5,-100.5 424.5,-119.5 511.5,-119.5 511.5,-100.5 424.5,-100.5"/>
<text text-anchor="middle" x="468" y="-107.5" font-family="Helvetica,sans-Serif" font-size="10.00">std::vector::size</text>
</a>
</g>
</g>
<!-- Node3&#45;&gt;Node6 -->
<g id="edge5" class="edge">
<title>Node3&#45;&gt;Node6</title>
<path fill="none" stroke="midnightblue" d="M383.28,-112.35C393.53,-112.06 404.12,-111.76 414.19,-111.48"/>
<polygon fill="midnightblue" stroke="midnightblue" points="414.56,-114.97 424.46,-111.19 414.36,-107.98 414.56,-114.97"/>
</g>
<!-- Node8 -->
<g id="node8" class="node">
<title>Node8</title>
<g id="a_node8"><a xlink:href="../../dd/d47/namespacemath.html#ab65d9997885347702dc0c3ec09d5dc21" target="_top" xlink:title=" ">
<polygon fill="white" stroke="black" points="429,-62.5 429,-81.5 507,-81.5 507,-62.5 429,-62.5"/>
<text text-anchor="middle" x="468" y="-69.5" font-family="Helvetica,sans-Serif" font-size="10.00">math::multiply</text>
</a>
</g>
</g>
<!-- Node7&#45;&gt;Node8 -->
<g id="edge7" class="edge">
<title>Node7&#45;&gt;Node8</title>
<path fill="none" stroke="midnightblue" d="M359.36,-68.22C377.24,-68.85 399.3,-69.62 418.78,-70.31"/>
<polygon fill="midnightblue" stroke="midnightblue" points="418.88,-73.81 429,-70.67 419.13,-66.82 418.88,-73.81"/>
</g>
<!-- Node9 -->
<g id="node9" class="node">
<title>Node9</title>
<g id="a_node9"><a xlink:href="../../dd/d47/namespacemath.html#a8d79d452a81ed27ba095d2ecb32dc4b4" target="_top" xlink:title=" ">
<polygon fill="white" stroke="black" points="553,-24.5 553,-43.5 621,-43.5 621,-24.5 553,-24.5"/>
<text text-anchor="middle" x="587" y="-31.5" font-family="Helvetica,sans-Serif" font-size="10.00">math::result</text>
</a>
</g>
</g>
<!-- Node8&#45;&gt;Node9 -->
<g id="edge8" class="edge">
<title>Node8&#45;&gt;Node9</title>
<path fill="none" stroke="midnightblue" d="M498.52,-62.41C513.21,-57.64 531.16,-51.81 546.97,-46.68"/>
<polygon fill="midnightblue" stroke="midnightblue" points="548.06,-50 556.49,-43.59 545.89,-43.35 548.06,-50"/>
</g>
<!-- Node9&#45;&gt;Node7 -->
<g id="edge10" class="edge">
<title>Node9&#45;&gt;Node7</title>
<path fill="none" stroke="midnightblue" d="M552.69,-37.45C518.95,-41.03 465.29,-46.94 419,-53 402.68,-55.14 384.81,-57.72 369.04,-60.09"/>
<polygon fill="midnightblue" stroke="midnightblue" points="368.39,-56.64 359.02,-61.6 369.43,-63.57 368.39,-56.64"/>
</g>
<!-- Node10 -->
<g id="node10" class="node">
<title>Node10</title>
<g id="a_node10"><a xlink:href="../../d7/d35/matrix__exponentiation_8cpp.html#ad8389ed58fd0ec66df248014775ad1fa" target="_top" xlink:title=" ">
<polygon fill="white" stroke="black" points="657,-24.5 657,-43.5 689,-43.5 689,-24.5 657,-24.5"/>
<text text-anchor="middle" x="673" y="-31.5" font-family="Helvetica,sans-Serif" font-size="10.00">ans</text>
</a>
</g>
</g>
<!-- Node9&#45;&gt;Node10 -->
<g id="edge9" class="edge">
<title>Node9&#45;&gt;Node10</title>
<path fill="none" stroke="midnightblue" d="M621.2,-34C629.65,-34 638.6,-34 646.59,-34"/>
<polygon fill="midnightblue" stroke="midnightblue" points="646.76,-37.5 656.76,-34 646.76,-30.5 646.76,-37.5"/>
</g>
<!-- Node11&#45;&gt;Node9 -->
<g id="edge12" class="edge">
<title>Node11&#45;&gt;Node9</title>
<path fill="none" stroke="midnightblue" d="M363.73,-10.34C402.74,-11.07 464.21,-13.31 517,-20 525.45,-21.07 534.42,-22.6 542.99,-24.25"/>
<polygon fill="midnightblue" stroke="midnightblue" points="542.33,-27.69 552.82,-26.23 543.71,-20.83 542.33,-27.69"/>
</g>
</g>
</svg>
