<?xml version="1.0" encoding="UTF-8" standalone="no"?>
<!DOCTYPE svg PUBLIC "-//W3C//DTD SVG 1.1//EN"
 "http://www.w3.org/Graphics/SVG/1.1/DTD/svg11.dtd">
<!-- Generated by graphviz version 2.44.1 (20200629.0846)
 -->
<!-- Title: miller_test Pages: 1 -->
<svg width="531pt" height="204pt"
 viewBox="0.00 0.00 531.00 204.00" xmlns="http://www.w3.org/2000/svg" xmlns:xlink="http://www.w3.org/1999/xlink">
<g id="graph0" class="graph" transform="scale(1 1) rotate(0) translate(4 200)">
<title>miller_test</title>
<polygon fill="white" stroke="transparent" points="-4,4 -4,-200 527,-200 527,4 -4,4"/>
<!-- Node1 -->
<g id="node1" class="node">
<title>Node1</title>
<g id="a_node1"><a xlink:title=" ">
<polygon fill="#bfbfbf" stroke="black" points="0,-57.5 0,-76.5 62,-76.5 62,-57.5 0,-57.5"/>
<text text-anchor="middle" x="31" y="-64.5" font-family="Helvetica,sans-Serif" font-size="10.00">miller_test</text>
</a>
</g>
</g>
<!-- Node2 -->
<g id="node2" class="node">
<title>Node2</title>
<g id="a_node2"><a xlink:href="../../d6/d42/miller__rabin_8cpp.html#ad6c2c67ea416d0e80003a88623f98b29" target="_top" xlink:title=" ">
<polygon fill="white" stroke="black" points="98,-104.5 98,-123.5 217,-123.5 217,-104.5 98,-104.5"/>
<text text-anchor="middle" x="157.5" y="-111.5" font-family="Helvetica,sans-Serif" font-size="10.00">modular_exponentiation</text>
</a>
</g>
</g>
<!-- Node1&#45;&gt;Node2 -->
<g id="edge1" class="edge">
<title>Node1&#45;&gt;Node2</title>
<path fill="none" stroke="midnightblue" d="M57.19,-76.51C75.63,-83.47 100.9,-93.01 121.33,-100.72"/>
<polygon fill="midnightblue" stroke="midnightblue" points="120.32,-104.08 130.92,-104.34 122.8,-97.54 120.32,-104.08"/>
</g>
<!-- Node6 -->
<g id="node6" class="node">
<title>Node6</title>
<g id="a_node6"><a xlink:href="../../dd/d47/namespacemath.html#a4a55bb9ec6c59485d3fdb18bd88ca5b6" target="_top" xlink:title=" ">
<polygon fill="white" stroke="black" points="122,-57.5 122,-76.5 193,-76.5 193,-57.5 122,-57.5"/>
<text text-anchor="middle" x="157.5" y="-64.5" font-family="Helvetica,sans-Serif" font-size="10.00">math::power</text>
</a>
</g>
</g>
<!-- Node1&#45;&gt;Node6 -->
<g id="edge5" class="edge">
<title>Node1&#45;&gt;Node6</title>
<path fill="none" stroke="midnightblue" d="M62.14,-67C76.9,-67 94.97,-67 111.34,-67"/>
<polygon fill="midnightblue" stroke="midnightblue" points="111.79,-70.5 121.79,-67 111.79,-63.5 111.79,-70.5"/>
</g>
<!-- Node10 -->
<g id="node10" class="node">
<title>Node10</title>
<g id="a_node10"><a xlink:href="../../d6/d42/miller__rabin_8cpp.html#a798398d5bfd375a3c0ce68100842f6f5" target="_top" xlink:title=" ">
<polygon fill="white" stroke="black" points="117.5,-0.5 117.5,-19.5 197.5,-19.5 197.5,-0.5 117.5,-0.5"/>
<text text-anchor="middle" x="157.5" y="-7.5" font-family="Helvetica,sans-Serif" font-size="10.00">reverse_binary</text>
</a>
</g>
</g>
<!-- Node1&#45;&gt;Node10 -->
<g id="edge10" class="edge">
<title>Node1&#45;&gt;Node10</title>
<path fill="none" stroke="midnightblue" d="M52.84,-57.46C72.95,-48.25 103.61,-34.22 126.37,-23.79"/>
<polygon fill="midnightblue" stroke="midnightblue" points="127.96,-26.92 135.59,-19.57 125.04,-20.55 127.96,-26.92"/>
</g>
<!-- Node3 -->
<g id="node3" class="node">
<title>Node3</title>
<g id="a_node3"><a target="_blank" xlink:href="http://en.cppreference.com/w/cpp/container/vector/begin.html#" target="_top" xlink:title=" ">
<polygon fill="white" stroke="black" points="253,-176.5 253,-195.5 351,-195.5 351,-176.5 253,-176.5"/>
<text text-anchor="middle" x="302" y="-183.5" font-family="Helvetica,sans-Serif" font-size="10.00">std::vector::cbegin</text>
</a>
</g>
</g>
<!-- Node2&#45;&gt;Node3 -->
<g id="edge2" class="edge">
<title>Node2&#45;&gt;Node3</title>
<path fill="none" stroke="midnightblue" d="M174.21,-123.67C192.68,-134.84 224.46,-153.42 253,-167 257.07,-168.94 261.39,-170.85 265.72,-172.66"/>
<polygon fill="midnightblue" stroke="midnightblue" points="264.49,-175.94 275.07,-176.47 267.13,-169.46 264.49,-175.94"/>
</g>
<!-- Node4 -->
<g id="node4" class="node">
<title>Node4</title>
<g id="a_node4"><a target="_blank" xlink:href="http://en.cppreference.com/w/cpp/container/vector/end.html#" target="_top" xlink:title=" ">
<polygon fill="white" stroke="black" points="257,-138.5 257,-157.5 347,-157.5 347,-138.5 257,-138.5"/>
<text text-anchor="middle" x="302" y="-145.5" font-family="Helvetica,sans-Serif" font-size="10.00">std::vector::cend</text>
</a>
</g>
</g>
<!-- Node2&#45;&gt;Node4 -->
<g id="edge3" class="edge">
<title>Node2&#45;&gt;Node4</title>
<path fill="none" stroke="midnightblue" d="M198.57,-123.56C214.81,-127.44 233.75,-131.95 250.88,-136.04"/>
<polygon fill="midnightblue" stroke="midnightblue" points="250.19,-139.48 260.73,-138.39 251.82,-132.67 250.19,-139.48"/>
</g>
<!-- Node5 -->
<g id="node5" class="node">
<title>Node5</title>
<g id="a_node5"><a target="_blank" xlink:href="http://en.cppreference.com/w/cpp/container/vector/size.html#" target="_top" xlink:title=" ">
<polygon fill="white" stroke="black" points="258.5,-100.5 258.5,-119.5 345.5,-119.5 345.5,-100.5 258.5,-100.5"/>
<text text-anchor="middle" x="302" y="-107.5" font-family="Helvetica,sans-Serif" font-size="10.00">std::vector::size</text>
</a>
</g>
</g>
<!-- Node2&#45;&gt;Node5 -->
<g id="edge4" class="edge">
<title>Node2&#45;&gt;Node5</title>
<path fill="none" stroke="midnightblue" d="M217.28,-112.35C227.53,-112.06 238.12,-111.76 248.19,-111.48"/>
<polygon fill="midnightblue" stroke="midnightblue" points="248.56,-114.97 258.46,-111.19 248.36,-107.98 248.56,-114.97"/>
</g>
<!-- Node7 -->
<g id="node7" class="node">
<title>Node7</title>
<g id="a_node7"><a xlink:href="../../dd/d47/namespacemath.html#ab65d9997885347702dc0c3ec09d5dc21" target="_top" xlink:title=" ">
<polygon fill="white" stroke="black" points="263,-62.5 263,-81.5 341,-81.5 341,-62.5 263,-62.5"/>
<text text-anchor="middle" x="302" y="-69.5" font-family="Helvetica,sans-Serif" font-size="10.00">math::multiply</text>
</a>
</g>
</g>
<!-- Node6&#45;&gt;Node7 -->
<g id="edge6" class="edge">
<title>Node6&#45;&gt;Node7</title>
<path fill="none" stroke="midnightblue" d="M193.36,-68.22C211.24,-68.85 233.3,-69.62 252.78,-70.31"/>
<polygon fill="midnightblue" stroke="midnightblue" points="252.88,-73.81 263,-70.67 253.13,-66.82 252.88,-73.81"/>
</g>
<!-- Node8 -->
<g id="node8" class="node">
<title>Node8</title>
<g id="a_node8"><a xlink:href="../../dd/d47/namespacemath.html#a8d79d452a81ed27ba095d2ecb32dc4b4" target="_top" xlink:title=" ">
<polygon fill="white" stroke="black" points="387,-24.5 387,-43.5 455,-43.5 455,-24.5 387,-24.5"/>
<text text-anchor="middle" x="421" y="-31.5" font-family="Helvetica,sans-Serif" font-size="10.00">math::result</text>
</a>
</g>
</g>
<!-- Node7&#45;&gt;Node8 -->
<g id="edge7" class="edge">
<title>Node7&#45;&gt;Node8</title>
<path fill="none" stroke="midnightblue" d="M332.52,-62.41C347.21,-57.64 365.16,-51.81 380.97,-46.68"/>
<polygon fill="midnightblue" stroke="midnightblue" points="382.06,-50 390.49,-43.59 379.89,-43.35 382.06,-50"/>
</g>
<!-- Node8&#45;&gt;Node6 -->
<g id="edge9" class="edge">
<title>Node8&#45;&gt;Node6</title>
<path fill="none" stroke="midnightblue" d="M386.69,-37.45C352.95,-41.03 299.29,-46.94 253,-53 236.68,-55.14 218.81,-57.72 203.04,-60.09"/>
<polygon fill="midnightblue" stroke="midnightblue" points="202.39,-56.64 193.02,-61.6 203.43,-63.57 202.39,-56.64"/>
</g>
<!-- Node9 -->
<g id="node9" class="node">
<title>Node9</title>
<g id="a_node9"><a xlink:href="../../d7/d35/matrix__exponentiation_8cpp.html#ad8389ed58fd0ec66df248014775ad1fa" target="_top" xlink:title=" ">
<polygon fill="white" stroke="black" points="491,-24.5 491,-43.5 523,-43.5 523,-24.5 491,-24.5"/>
<text text-anchor="middle" x="507" y="-31.5" font-family="Helvetica,sans-Serif" font-size="10.00">ans</text>
</a>
</g>
</g>
<!-- Node8&#45;&gt;Node9 -->
<g id="edge8" class="edge">
<title>Node8&#45;&gt;Node9</title>
<path fill="none" stroke="midnightblue" d="M455.2,-34C463.65,-34 472.6,-34 480.59,-34"/>
<polygon fill="midnightblue" stroke="midnightblue" points="480.76,-37.5 490.76,-34 480.76,-30.5 480.76,-37.5"/>
</g>
<!-- Node10&#45;&gt;Node8 -->
<g id="edge11" class="edge">
<title>Node10&#45;&gt;Node8</title>
<path fill="none" stroke="midnightblue" d="M197.73,-10.34C236.74,-11.07 298.21,-13.31 351,-20 359.45,-21.07 368.42,-22.6 376.99,-24.25"/>
<polygon fill="midnightblue" stroke="midnightblue" points="376.33,-27.69 386.82,-26.23 377.71,-20.83 376.33,-27.69"/>
</g>
</g>
</svg>
