<?xml version="1.0" encoding="UTF-8" standalone="no"?>
<!DOCTYPE svg PUBLIC "-//W3C//DTD SVG 1.1//EN"
 "http://www.w3.org/Graphics/SVG/1.1/DTD/svg11.dtd">
<!-- Generated by graphviz version 2.44.1 (20200629.0846)
 -->
<!-- Title: main Pages: 1 -->
<svg width="845pt" height="204pt"
 viewBox="0.00 0.00 845.00 204.00" xmlns="http://www.w3.org/2000/svg" xmlns:xlink="http://www.w3.org/1999/xlink">
<g id="graph0" class="graph" transform="scale(1 1) rotate(0) translate(4 200)">
<title>main</title>
<polygon fill="white" stroke="transparent" points="-4,4 -4,-200 841,-200 841,4 -4,4"/>
<!-- Node1 -->
<g id="node1" class="node">
<title>Node1</title>
<g id="a_node1"><a xlink:title=" ">
<polygon fill="#bfbfbf" stroke="black" points="0,-76.5 0,-95.5 38,-95.5 38,-76.5 0,-76.5"/>
<text text-anchor="middle" x="19" y="-83.5" font-family="Helvetica,sans-Serif" font-size="10.00">main</text>
</a>
</g>
</g>
<!-- Node2 -->
<g id="node2" class="node">
<title>Node2</title>
<g id="a_node2"><a xlink:href="../../d6/d42/miller__rabin_8cpp.html#a88ec9ad42717780d6caaff9d3d6977f9" target="_top" xlink:title=" ">
<polygon fill="white" stroke="black" points="74,-76.5 74,-95.5 112,-95.5 112,-76.5 74,-76.5"/>
<text text-anchor="middle" x="93" y="-83.5" font-family="Helvetica,sans-Serif" font-size="10.00">tests</text>
</a>
</g>
</g>
<!-- Node1&#45;&gt;Node2 -->
<g id="edge1" class="edge">
<title>Node1&#45;&gt;Node2</title>
<path fill="none" stroke="midnightblue" d="M38.17,-86C45.87,-86 55.03,-86 63.58,-86"/>
<polygon fill="midnightblue" stroke="midnightblue" points="63.59,-89.5 73.59,-86 63.59,-82.5 63.59,-89.5"/>
</g>
<!-- Node3 -->
<g id="node3" class="node">
<title>Node3</title>
<g id="a_node3"><a target="_blank" xlink:href="http://en.cppreference.com/w/cpp/io/manip/endl.html#" target="_top" xlink:title=" ">
<polygon fill="white" stroke="black" points="186,-95.5 186,-114.5 240,-114.5 240,-95.5 186,-95.5"/>
<text text-anchor="middle" x="213" y="-102.5" font-family="Helvetica,sans-Serif" font-size="10.00">std::endl</text>
</a>
</g>
</g>
<!-- Node2&#45;&gt;Node3 -->
<g id="edge2" class="edge">
<title>Node2&#45;&gt;Node3</title>
<path fill="none" stroke="midnightblue" d="M112.18,-88.93C129.07,-91.65 154.71,-95.78 175.78,-99.17"/>
<polygon fill="midnightblue" stroke="midnightblue" points="175.26,-102.63 185.69,-100.76 176.38,-95.72 175.26,-102.63"/>
</g>
<!-- Node4 -->
<g id="node4" class="node">
<title>Node4</title>
<g id="a_node4"><a xlink:href="../../d6/d42/miller__rabin_8cpp.html#a901288288ef5ebe8e97414cc30797cce" target="_top" xlink:title=" ">
<polygon fill="white" stroke="black" points="148,-57.5 148,-76.5 278,-76.5 278,-57.5 148,-57.5"/>
<text text-anchor="middle" x="213" y="-64.5" font-family="Helvetica,sans-Serif" font-size="10.00">miller_rabin_primality_test</text>
</a>
</g>
</g>
<!-- Node2&#45;&gt;Node4 -->
<g id="edge3" class="edge">
<title>Node2&#45;&gt;Node4</title>
<path fill="none" stroke="midnightblue" d="M112.18,-83.07C120.73,-81.7 131.52,-79.96 142.83,-78.14"/>
<polygon fill="midnightblue" stroke="midnightblue" points="143.54,-81.57 152.86,-76.52 142.43,-74.66 143.54,-81.57"/>
</g>
<!-- Node5 -->
<g id="node5" class="node">
<title>Node5</title>
<g id="a_node5"><a xlink:href="../../d6/d42/miller__rabin_8cpp.html#a6f9c31c1047aa3191676d64571d4c506" target="_top" xlink:title=" ">
<polygon fill="white" stroke="black" points="314,-57.5 314,-76.5 376,-76.5 376,-57.5 314,-57.5"/>
<text text-anchor="middle" x="345" y="-64.5" font-family="Helvetica,sans-Serif" font-size="10.00">miller_test</text>
</a>
</g>
</g>
<!-- Node4&#45;&gt;Node5 -->
<g id="edge4" class="edge">
<title>Node4&#45;&gt;Node5</title>
<path fill="none" stroke="midnightblue" d="M278.24,-67C286.87,-67 295.51,-67 303.57,-67"/>
<polygon fill="midnightblue" stroke="midnightblue" points="303.77,-70.5 313.77,-67 303.77,-63.5 303.77,-70.5"/>
</g>
<!-- Node6 -->
<g id="node6" class="node">
<title>Node6</title>
<g id="a_node6"><a xlink:href="../../d6/d42/miller__rabin_8cpp.html#ad6c2c67ea416d0e80003a88623f98b29" target="_top" xlink:title=" ">
<polygon fill="white" stroke="black" points="412,-104.5 412,-123.5 531,-123.5 531,-104.5 412,-104.5"/>
<text text-anchor="middle" x="471.5" y="-111.5" font-family="Helvetica,sans-Serif" font-size="10.00">modular_exponentiation</text>
</a>
</g>
</g>
<!-- Node5&#45;&gt;Node6 -->
<g id="edge5" class="edge">
<title>Node5&#45;&gt;Node6</title>
<path fill="none" stroke="midnightblue" d="M371.19,-76.51C389.63,-83.47 414.9,-93.01 435.33,-100.72"/>
<polygon fill="midnightblue" stroke="midnightblue" points="434.32,-104.08 444.92,-104.34 436.8,-97.54 434.32,-104.08"/>
</g>
<!-- Node10 -->
<g id="node10" class="node">
<title>Node10</title>
<g id="a_node10"><a xlink:href="../../dd/d47/namespacemath.html#a4a55bb9ec6c59485d3fdb18bd88ca5b6" target="_top" xlink:title=" ">
<polygon fill="white" stroke="black" points="436,-57.5 436,-76.5 507,-76.5 507,-57.5 436,-57.5"/>
<text text-anchor="middle" x="471.5" y="-64.5" font-family="Helvetica,sans-Serif" font-size="10.00">math::power</text>
</a>
</g>
</g>
<!-- Node5&#45;&gt;Node10 -->
<g id="edge9" class="edge">
<title>Node5&#45;&gt;Node10</title>
<path fill="none" stroke="midnightblue" d="M376.14,-67C390.9,-67 408.97,-67 425.34,-67"/>
<polygon fill="midnightblue" stroke="midnightblue" points="425.79,-70.5 435.79,-67 425.79,-63.5 425.79,-70.5"/>
</g>
<!-- Node14 -->
<g id="node14" class="node">
<title>Node14</title>
<g id="a_node14"><a xlink:href="../../d6/d42/miller__rabin_8cpp.html#a798398d5bfd375a3c0ce68100842f6f5" target="_top" xlink:title=" ">
<polygon fill="white" stroke="black" points="431.5,-0.5 431.5,-19.5 511.5,-19.5 511.5,-0.5 431.5,-0.5"/>
<text text-anchor="middle" x="471.5" y="-7.5" font-family="Helvetica,sans-Serif" font-size="10.00">reverse_binary</text>
</a>
</g>
</g>
<!-- Node5&#45;&gt;Node14 -->
<g id="edge14" class="edge">
<title>Node5&#45;&gt;Node14</title>
<path fill="none" stroke="midnightblue" d="M366.84,-57.46C386.95,-48.25 417.61,-34.22 440.37,-23.79"/>
<polygon fill="midnightblue" stroke="midnightblue" points="441.96,-26.92 449.59,-19.57 439.04,-20.55 441.96,-26.92"/>
</g>
<!-- Node7 -->
<g id="node7" class="node">
<title>Node7</title>
<g id="a_node7"><a target="_blank" xlink:href="http://en.cppreference.com/w/cpp/container/vector/begin.html#" target="_top" xlink:title=" ">
<polygon fill="white" stroke="black" points="567,-176.5 567,-195.5 665,-195.5 665,-176.5 567,-176.5"/>
<text text-anchor="middle" x="616" y="-183.5" font-family="Helvetica,sans-Serif" font-size="10.00">std::vector::cbegin</text>
</a>
</g>
</g>
<!-- Node6&#45;&gt;Node7 -->
<g id="edge6" class="edge">
<title>Node6&#45;&gt;Node7</title>
<path fill="none" stroke="midnightblue" d="M488.21,-123.67C506.68,-134.84 538.46,-153.42 567,-167 571.07,-168.94 575.39,-170.85 579.72,-172.66"/>
<polygon fill="midnightblue" stroke="midnightblue" points="578.49,-175.94 589.07,-176.47 581.13,-169.46 578.49,-175.94"/>
</g>
<!-- Node8 -->
<g id="node8" class="node">
<title>Node8</title>
<g id="a_node8"><a target="_blank" xlink:href="http://en.cppreference.com/w/cpp/container/vector/end.html#" target="_top" xlink:title=" ">
<polygon fill="white" stroke="black" points="571,-138.5 571,-157.5 661,-157.5 661,-138.5 571,-138.5"/>
<text text-anchor="middle" x="616" y="-145.5" font-family="Helvetica,sans-Serif" font-size="10.00">std::vector::cend</text>
</a>
</g>
</g>
<!-- Node6&#45;&gt;Node8 -->
<g id="edge7" class="edge">
<title>Node6&#45;&gt;Node8</title>
<path fill="none" stroke="midnightblue" d="M512.57,-123.56C528.81,-127.44 547.75,-131.95 564.88,-136.04"/>
<polygon fill="midnightblue" stroke="midnightblue" points="564.19,-139.48 574.73,-138.39 565.82,-132.67 564.19,-139.48"/>
</g>
<!-- Node9 -->
<g id="node9" class="node">
<title>Node9</title>
<g id="a_node9"><a target="_blank" xlink:href="http://en.cppreference.com/w/cpp/container/vector/size.html#" target="_top" xlink:title=" ">
<polygon fill="white" stroke="black" points="572.5,-100.5 572.5,-119.5 659.5,-119.5 659.5,-100.5 572.5,-100.5"/>
<text text-anchor="middle" x="616" y="-107.5" font-family="Helvetica,sans-Serif" font-size="10.00">std::vector::size</text>
</a>
</g>
</g>
<!-- Node6&#45;&gt;Node9 -->
<g id="edge8" class="edge">
<title>Node6&#45;&gt;Node9</title>
<path fill="none" stroke="midnightblue" d="M531.28,-112.35C541.53,-112.06 552.12,-111.76 562.19,-111.48"/>
<polygon fill="midnightblue" stroke="midnightblue" points="562.56,-114.97 572.46,-111.19 562.36,-107.98 562.56,-114.97"/>
</g>
<!-- Node11 -->
<g id="node11" class="node">
<title>Node11</title>
<g id="a_node11"><a xlink:href="../../dd/d47/namespacemath.html#ab65d9997885347702dc0c3ec09d5dc21" target="_top" xlink:title=" ">
<polygon fill="white" stroke="black" points="577,-62.5 577,-81.5 655,-81.5 655,-62.5 577,-62.5"/>
<text text-anchor="middle" x="616" y="-69.5" font-family="Helvetica,sans-Serif" font-size="10.00">math::multiply</text>
</a>
</g>
</g>
<!-- Node10&#45;&gt;Node11 -->
<g id="edge10" class="edge">
<title>Node10&#45;&gt;Node11</title>
<path fill="none" stroke="midnightblue" d="M507.36,-68.22C525.24,-68.85 547.3,-69.62 566.78,-70.31"/>
<polygon fill="midnightblue" stroke="midnightblue" points="566.88,-73.81 577,-70.67 567.13,-66.82 566.88,-73.81"/>
</g>
<!-- Node12 -->
<g id="node12" class="node">
<title>Node12</title>
<g id="a_node12"><a xlink:href="../../dd/d47/namespacemath.html#a8d79d452a81ed27ba095d2ecb32dc4b4" target="_top" xlink:title=" ">
<polygon fill="white" stroke="black" points="701,-24.5 701,-43.5 769,-43.5 769,-24.5 701,-24.5"/>
<text text-anchor="middle" x="735" y="-31.5" font-family="Helvetica,sans-Serif" font-size="10.00">math::result</text>
</a>
</g>
</g>
<!-- Node11&#45;&gt;Node12 -->
<g id="edge11" class="edge">
<title>Node11&#45;&gt;Node12</title>
<path fill="none" stroke="midnightblue" d="M646.52,-62.41C661.21,-57.64 679.16,-51.81 694.97,-46.68"/>
<polygon fill="midnightblue" stroke="midnightblue" points="696.06,-50 704.49,-43.59 693.89,-43.35 696.06,-50"/>
</g>
<!-- Node12&#45;&gt;Node10 -->
<g id="edge13" class="edge">
<title>Node12&#45;&gt;Node10</title>
<path fill="none" stroke="midnightblue" d="M700.69,-37.45C666.95,-41.03 613.29,-46.94 567,-53 550.68,-55.14 532.81,-57.72 517.04,-60.09"/>
<polygon fill="midnightblue" stroke="midnightblue" points="516.39,-56.64 507.02,-61.6 517.43,-63.57 516.39,-56.64"/>
</g>
<!-- Node13 -->
<g id="node13" class="node">
<title>Node13</title>
<g id="a_node13"><a xlink:href="../../d7/d35/matrix__exponentiation_8cpp.html#ad8389ed58fd0ec66df248014775ad1fa" target="_top" xlink:title=" ">
<polygon fill="white" stroke="black" points="805,-24.5 805,-43.5 837,-43.5 837,-24.5 805,-24.5"/>
<text text-anchor="middle" x="821" y="-31.5" font-family="Helvetica,sans-Serif" font-size="10.00">ans</text>
</a>
</g>
</g>
<!-- Node12&#45;&gt;Node13 -->
<g id="edge12" class="edge">
<title>Node12&#45;&gt;Node13</title>
<path fill="none" stroke="midnightblue" d="M769.2,-34C777.65,-34 786.6,-34 794.59,-34"/>
<polygon fill="midnightblue" stroke="midnightblue" points="794.76,-37.5 804.76,-34 794.76,-30.5 794.76,-37.5"/>
</g>
<!-- Node14&#45;&gt;Node12 -->
<g id="edge15" class="edge">
<title>Node14&#45;&gt;Node12</title>
<path fill="none" stroke="midnightblue" d="M511.73,-10.34C550.74,-11.07 612.21,-13.31 665,-20 673.45,-21.07 682.42,-22.6 690.99,-24.25"/>
<polygon fill="midnightblue" stroke="midnightblue" points="690.33,-27.69 700.82,-26.23 691.71,-20.83 690.33,-27.69"/>
</g>
</g>
</svg>
