<?xml version="1.0" encoding="UTF-8" standalone="no"?>
<!DOCTYPE svg PUBLIC "-//W3C//DTD SVG 1.1//EN"
 "http://www.w3.org/Graphics/SVG/1.1/DTD/svg11.dtd">
<!-- Generated by graphviz version 2.44.1 (20200629.0846)
 -->
<!-- Title: main Pages: 1 -->
<!--zoomable 251 -->
<svg id="main" version="1.1" xmlns="http://www.w3.org/2000/svg" xmlns:xlink="http://www.w3.org/1999/xlink" xml:space="preserve" onload="init(evt)">
<style type="text/css"><![CDATA[
.edge:hover path { stroke: red; }
.edge:hover polygon { stroke: red; fill: red; }
]]></style>
<script type="text/javascript"><![CDATA[
var edges = document.getElementsByTagName('g');
if (edges && edges.length) {
  for (var i=0;i<edges.length;i++) {
    if (edges[i].id.substr(0,4)=='edge') {
      edges[i].setAttribute('class','edge');
    }
  }
}
]]></script>
        <defs>
                <circle id="rim" cx="0" cy="0" r="7"/>
                <circle id="rim2" cx="0" cy="0" r="3.5"/>
                <g id="zoomPlus">
                        <use xlink:href="#rim" fill="#404040">
                                <set attributeName="fill" to="#808080" begin="zoomplus.mouseover" end="zoomplus.mouseout"/>
                        </use>
                        <path d="M-4,0h8M0,-4v8" fill="none" stroke="white" stroke-width="1.5" pointer-events="none"/>
                </g>
                <g id="zoomMin">
                        <use xlink:href="#rim" fill="#404040">
                                <set attributeName="fill" to="#808080" begin="zoomminus.mouseover" end="zoomminus.mouseout"/>
                        </use>
                        <path d="M-4,0h8" fill="none" stroke="white" stroke-width="1.5" pointer-events="none"/>
                </g>
                <g id="dirArrow">
                        <path fill="none" stroke="white" stroke-width="1.5" d="M0,-3.0v7 M-2.5,-0.5L0,-3.0L2.5,-0.5"/>
                </g>
               <g id="resetDef">
                       <use xlink:href="#rim2" fill="#404040">
                               <set attributeName="fill" to="#808080" begin="reset.mouseover" end="reset.mouseout"/>
                       </use>
               </g>
        </defs>

<script type="text/javascript">
var viewWidth = 790;
var viewHeight = 251;
var sectionId = 'dynsection-2';
</script>
<script xlink:href="../../svgpan.js"/>
<svg id="graph" class="graph">
<g id="viewport">
<title>main</title>
<polygon fill="white" stroke="transparent" points="-4,4 -4,-247 786,-247 786,4 -4,4"/>
<!-- Node1 -->
<g id="node1" class="node">
<title>Node1</title>
<g id="a_node1"><a xlink:title=" ">
<polygon fill="#bfbfbf" stroke="black" points="0,-95.5 0,-114.5 38,-114.5 38,-95.5 0,-95.5"/>
<text text-anchor="middle" x="19" y="-102.5" font-family="Helvetica,sans-Serif" font-size="10.00">main</text>
</a>
</g>
</g>
<!-- Node2 -->
<g id="node2" class="node">
<title>Node2</title>
<g id="a_node2"><a xlink:href="../../de/d75/qr__eigen__values_8cpp.html#a33cb0a68c36aa26fd599c7c66da86ed7" target="_top" xlink:title=" ">
<polygon fill="white" stroke="black" points="74,-193.5 74,-212.5 150,-212.5 150,-193.5 74,-193.5"/>
<text text-anchor="middle" x="112" y="-200.5" font-family="Helvetica,sans-Serif" font-size="10.00">create_matrix</text>
</a>
</g>
</g>
<!-- Node1&#45;&gt;Node2 -->
<g id="edge1" class="edge">
<title>Node1&#45;&gt;Node2</title>
<path fill="none" stroke="midnightblue" d="M26.19,-114.9C35.48,-129.31 54.09,-156.49 74,-176 78.12,-180.04 82.87,-183.95 87.57,-187.49"/>
<polygon fill="midnightblue" stroke="midnightblue" points="85.65,-190.42 95.82,-193.4 89.73,-184.73 85.65,-190.42"/>
</g>
<!-- Node4 -->
<g id="node4" class="node">
<title>Node4</title>
<g id="a_node4"><a xlink:href="../../d2/d3b/namespaceqr__algorithm.html#a763896dbb4a7e95c4a1e614ac0819d66" target="_top" xlink:title=" ">
<polygon fill="white" stroke="black" points="186,-145 186,-175 285,-175 285,-145 186,-145"/>
<text text-anchor="start" x="194" y="-163" font-family="Helvetica,sans-Serif" font-size="10.00">qr_algorithm::eigen</text>
<text text-anchor="middle" x="235.5" y="-152" font-family="Helvetica,sans-Serif" font-size="10.00">_values</text>
</a>
</g>
</g>
<!-- Node1&#45;&gt;Node4 -->
<g id="edge3" class="edge">
<title>Node1&#45;&gt;Node4</title>
<path fill="none" stroke="midnightblue" d="M30.23,-114.64C40.45,-123.65 57.04,-136.63 74,-143 106.29,-155.13 144.63,-159.52 175.74,-160.82"/>
<polygon fill="midnightblue" stroke="midnightblue" points="175.89,-164.33 185.99,-161.15 176.11,-157.33 175.89,-164.33"/>
</g>
<!-- Node12 -->
<g id="node12" class="node">
<title>Node12</title>
<g id="a_node12"><a target="_blank" xlink:href="http://en.cppreference.com/w/cpp/numeric/random/srand.html#" target="_top" xlink:title=" ">
<polygon fill="white" stroke="black" points="82,-38.5 82,-57.5 142,-57.5 142,-38.5 82,-38.5"/>
<text text-anchor="middle" x="112" y="-45.5" font-family="Helvetica,sans-Serif" font-size="10.00">std::srand</text>
</a>
</g>
</g>
<!-- Node1&#45;&gt;Node12 -->
<g id="edge12" class="edge">
<title>Node1&#45;&gt;Node12</title>
<path fill="none" stroke="midnightblue" d="M32.54,-95.43C43.27,-87.41 59.29,-75.9 74,-67 76.63,-65.41 79.42,-63.82 82.23,-62.28"/>
<polygon fill="midnightblue" stroke="midnightblue" points="83.93,-65.33 91.14,-57.56 80.66,-59.14 83.93,-65.33"/>
</g>
<!-- Node13 -->
<g id="node13" class="node">
<title>Node13</title>
<g id="a_node13"><a xlink:href="../../de/d75/qr__eigen__values_8cpp.html#a1440a7779ac56f47a3f355ce4a8c7da0" target="_top" xlink:title=" ">
<polygon fill="white" stroke="black" points="93,-114.5 93,-133.5 131,-133.5 131,-114.5 93,-114.5"/>
<text text-anchor="middle" x="112" y="-121.5" font-family="Helvetica,sans-Serif" font-size="10.00">test1</text>
</a>
</g>
</g>
<!-- Node1&#45;&gt;Node13 -->
<g id="edge13" class="edge">
<title>Node1&#45;&gt;Node13</title>
<path fill="none" stroke="midnightblue" d="M38.42,-108.84C51.2,-111.51 68.48,-115.12 82.97,-118.15"/>
<polygon fill="midnightblue" stroke="midnightblue" points="82.42,-121.61 92.92,-120.23 83.85,-114.76 82.42,-121.61"/>
</g>
<!-- Node19 -->
<g id="node19" class="node">
<title>Node19</title>
<g id="a_node19"><a xlink:href="../../de/d75/qr__eigen__values_8cpp.html#a0283886819c7c140a023582b7269e2d0" target="_top" xlink:title=" ">
<polygon fill="white" stroke="black" points="93,-76.5 93,-95.5 131,-95.5 131,-76.5 93,-76.5"/>
<text text-anchor="middle" x="112" y="-83.5" font-family="Helvetica,sans-Serif" font-size="10.00">test2</text>
</a>
</g>
</g>
<!-- Node1&#45;&gt;Node19 -->
<g id="edge21" class="edge">
<title>Node1&#45;&gt;Node19</title>
<path fill="none" stroke="midnightblue" d="M38.42,-101.16C51.2,-98.49 68.48,-94.88 82.97,-91.85"/>
<polygon fill="midnightblue" stroke="midnightblue" points="83.85,-95.24 92.92,-89.77 82.42,-88.39 83.85,-95.24"/>
</g>
<!-- Node20 -->
<g id="node20" class="node">
<title>Node20</title>
<g id="a_node20"><a target="_blank" xlink:href="http://en.cppreference.com/w/cpp/chrono/c/time.html#" target="_top" xlink:title=" ">
<polygon fill="white" stroke="black" points="84.5,-0.5 84.5,-19.5 139.5,-19.5 139.5,-0.5 84.5,-0.5"/>
<text text-anchor="middle" x="112" y="-7.5" font-family="Helvetica,sans-Serif" font-size="10.00">std::time</text>
</a>
</g>
</g>
<!-- Node1&#45;&gt;Node20 -->
<g id="edge25" class="edge">
<title>Node1&#45;&gt;Node20</title>
<path fill="none" stroke="midnightblue" d="M24.8,-95.48C33.05,-79.9 51.24,-48.71 74,-29 75.69,-27.54 77.5,-26.16 79.39,-24.85"/>
<polygon fill="midnightblue" stroke="midnightblue" points="81.26,-27.82 88,-19.64 77.63,-21.83 81.26,-27.82"/>
</g>
<!-- Node3 -->
<g id="node3" class="node">
<title>Node3</title>
<g id="a_node3"><a target="_blank" xlink:href="http://en.cppreference.com/w/cpp/numeric/random/rand.html#" target="_top" xlink:title=" ">
<polygon fill="white" stroke="black" points="208,-194.5 208,-213.5 263,-213.5 263,-194.5 208,-194.5"/>
<text text-anchor="middle" x="235.5" y="-201.5" font-family="Helvetica,sans-Serif" font-size="10.00">std::rand</text>
</a>
</g>
</g>
<!-- Node2&#45;&gt;Node3 -->
<g id="edge2" class="edge">
<title>Node2&#45;&gt;Node3</title>
<path fill="none" stroke="midnightblue" d="M150.11,-203.31C165.05,-203.43 182.25,-203.57 197.2,-203.69"/>
<polygon fill="midnightblue" stroke="midnightblue" points="197.61,-207.2 207.63,-203.78 197.66,-200.2 197.61,-207.2"/>
</g>
<!-- Node5 -->
<g id="node5" class="node">
<title>Node5</title>
<g id="a_node5"><a xlink:href="../../de/d75/qr__eigen__values_8cpp.html#a7558fd7779bf207157ced66f275951a0" target="_top" xlink:title=" ">
<polygon fill="white" stroke="black" points="364,-147.5 364,-166.5 418,-166.5 418,-147.5 364,-147.5"/>
<text text-anchor="middle" x="391" y="-154.5" font-family="Helvetica,sans-Serif" font-size="10.00">mat_mul</text>
</a>
</g>
</g>
<!-- Node4&#45;&gt;Node5 -->
<g id="edge4" class="edge">
<title>Node4&#45;&gt;Node5</title>
<path fill="none" stroke="midnightblue" d="M285.07,-159.05C307.21,-158.62 332.98,-158.11 353.44,-157.71"/>
<polygon fill="midnightblue" stroke="midnightblue" points="353.68,-161.21 363.61,-157.52 353.55,-154.21 353.68,-161.21"/>
</g>
<!-- Node6 -->
<g id="node6" class="node">
<title>Node6</title>
<g id="a_node6"><a xlink:href="../../d2/d3b/namespaceqr__algorithm.html#ab1ac74497ffb2101040cc1efe3546de8" target="_top" xlink:title=" ">
<polygon fill="white" stroke="black" points="321,-185.5 321,-204.5 461,-204.5 461,-185.5 321,-185.5"/>
<text text-anchor="middle" x="391" y="-192.5" font-family="Helvetica,sans-Serif" font-size="10.00">qr_algorithm::qr_decompose</text>
</a>
</g>
</g>
<!-- Node4&#45;&gt;Node6 -->
<g id="edge5" class="edge">
<title>Node4&#45;&gt;Node6</title>
<path fill="none" stroke="midnightblue" d="M285.07,-171.07C302.03,-174.94 321.12,-179.29 338.33,-183.22"/>
<polygon fill="midnightblue" stroke="midnightblue" points="337.68,-186.66 348.21,-185.47 339.24,-179.84 337.68,-186.66"/>
</g>
<!-- Node7 -->
<g id="node7" class="node">
<title>Node7</title>
<g id="a_node7"><a xlink:href="../../d8/d77/namespacemachine__learning.html#a5305cc18d11943d3dc0d66e70d7e9c44" target="_top" xlink:title=" ">
<polygon fill="white" stroke="black" points="502,-223.5 502,-242.5 619,-242.5 619,-223.5 502,-223.5"/>
<text text-anchor="middle" x="560.5" y="-230.5" font-family="Helvetica,sans-Serif" font-size="10.00">machine_learning::sum</text>
</a>
</g>
</g>
<!-- Node6&#45;&gt;Node7 -->
<g id="edge6" class="edge">
<title>Node6&#45;&gt;Node7</title>
<path fill="none" stroke="midnightblue" d="M434.27,-204.59C456.57,-209.65 484.12,-215.9 507.7,-221.25"/>
<polygon fill="midnightblue" stroke="midnightblue" points="507.01,-224.68 517.54,-223.48 508.56,-217.85 507.01,-224.68"/>
</g>
<!-- Node8 -->
<g id="node8" class="node">
<title>Node8</title>
<g id="a_node8"><a xlink:href="../../d2/d3b/namespaceqr__algorithm.html#ad16da2183db22378435042f26af43d5f" target="_top" xlink:title=" ">
<polygon fill="white" stroke="black" points="497,-185.5 497,-204.5 624,-204.5 624,-185.5 497,-185.5"/>
<text text-anchor="middle" x="560.5" y="-192.5" font-family="Helvetica,sans-Serif" font-size="10.00">qr_algorithm::vector_mag</text>
</a>
</g>
</g>
<!-- Node6&#45;&gt;Node8 -->
<g id="edge7" class="edge">
<title>Node6&#45;&gt;Node8</title>
<path fill="none" stroke="midnightblue" d="M461.1,-195C469.49,-195 478.08,-195 486.53,-195"/>
<polygon fill="midnightblue" stroke="midnightblue" points="486.74,-198.5 496.74,-195 486.74,-191.5 486.74,-198.5"/>
</g>
<!-- Node11 -->
<g id="node11" class="node">
<title>Node11</title>
<g id="a_node11"><a xlink:href="../../d2/d3b/namespaceqr__algorithm.html#a5422c76bfa322620de611083bd518d71" target="_top" xlink:title=" ">
<polygon fill="white" stroke="black" points="498.5,-147.5 498.5,-166.5 622.5,-166.5 622.5,-147.5 498.5,-147.5"/>
<text text-anchor="middle" x="560.5" y="-154.5" font-family="Helvetica,sans-Serif" font-size="10.00">qr_algorithm::vector_proj</text>
</a>
</g>
</g>
<!-- Node6&#45;&gt;Node11 -->
<g id="edge10" class="edge">
<title>Node6&#45;&gt;Node11</title>
<path fill="none" stroke="midnightblue" d="M434.27,-185.41C456.57,-180.35 484.12,-174.1 507.7,-168.75"/>
<polygon fill="midnightblue" stroke="midnightblue" points="508.56,-172.15 517.54,-166.52 507.01,-165.32 508.56,-172.15"/>
</g>
<!-- Node9 -->
<g id="node9" class="node">
<title>Node9</title>
<g id="a_node9"><a target="_blank" xlink:href="http://en.cppreference.com/w/cpp/numeric/math/sqrt.html#" target="_top" xlink:title=" ">
<polygon fill="white" stroke="black" points="694.5,-185.5 694.5,-204.5 747.5,-204.5 747.5,-185.5 694.5,-185.5"/>
<text text-anchor="middle" x="721" y="-192.5" font-family="Helvetica,sans-Serif" font-size="10.00">std::sqrt</text>
</a>
</g>
</g>
<!-- Node8&#45;&gt;Node9 -->
<g id="edge8" class="edge">
<title>Node8&#45;&gt;Node9</title>
<path fill="none" stroke="midnightblue" d="M624.14,-195C644.35,-195 666.07,-195 683.71,-195"/>
<polygon fill="midnightblue" stroke="midnightblue" points="684.12,-198.5 694.12,-195 684.12,-191.5 684.12,-198.5"/>
</g>
<!-- Node10 -->
<g id="node10" class="node">
<title>Node10</title>
<g id="a_node10"><a xlink:href="../../d2/d3b/namespaceqr__algorithm.html#a8ea313a1a1b5f9d0e3e332c29c6446ec" target="_top" xlink:title=" ">
<polygon fill="white" stroke="black" points="660,-147.5 660,-166.5 782,-166.5 782,-147.5 660,-147.5"/>
<text text-anchor="middle" x="721" y="-154.5" font-family="Helvetica,sans-Serif" font-size="10.00">qr_algorithm::vector_dot</text>
</a>
</g>
</g>
<!-- Node8&#45;&gt;Node10 -->
<g id="edge9" class="edge">
<title>Node8&#45;&gt;Node10</title>
<path fill="none" stroke="midnightblue" d="M601.5,-185.41C622.41,-180.4 648.21,-174.21 670.39,-168.89"/>
<polygon fill="midnightblue" stroke="midnightblue" points="671.38,-172.26 680.29,-166.52 669.75,-165.45 671.38,-172.26"/>
</g>
<!-- Node11&#45;&gt;Node10 -->
<g id="edge11" class="edge">
<title>Node11&#45;&gt;Node10</title>
<path fill="none" stroke="midnightblue" d="M622.78,-157C631.64,-157 640.82,-157 649.84,-157"/>
<polygon fill="midnightblue" stroke="midnightblue" points="649.93,-160.5 659.93,-157 649.93,-153.5 649.93,-160.5"/>
</g>
<!-- Node13&#45;&gt;Node4 -->
<g id="edge14" class="edge">
<title>Node13&#45;&gt;Node4</title>
<path fill="none" stroke="midnightblue" d="M131.19,-129.39C143.31,-132.98 159.97,-137.92 176.37,-142.78"/>
<polygon fill="midnightblue" stroke="midnightblue" points="175.39,-146.13 185.97,-145.62 177.37,-139.42 175.39,-146.13"/>
</g>
<!-- Node14 -->
<g id="node14" class="node">
<title>Node14</title>
<g id="a_node14"><a target="_blank" xlink:href="http://en.cppreference.com/w/cpp/io/manip/endl.html#" target="_top" xlink:title=" ">
<polygon fill="white" stroke="black" points="208.5,-106.5 208.5,-125.5 262.5,-125.5 262.5,-106.5 208.5,-106.5"/>
<text text-anchor="middle" x="235.5" y="-113.5" font-family="Helvetica,sans-Serif" font-size="10.00">std::endl</text>
</a>
</g>
</g>
<!-- Node13&#45;&gt;Node14 -->
<g id="edge15" class="edge">
<title>Node13&#45;&gt;Node14</title>
<path fill="none" stroke="midnightblue" d="M131.19,-122.8C148.79,-121.64 175.97,-119.85 198.04,-118.4"/>
<polygon fill="midnightblue" stroke="midnightblue" points="198.33,-121.89 208.08,-117.74 197.87,-114.9 198.33,-121.89"/>
</g>
<!-- Node15 -->
<g id="node15" class="node">
<title>Node15</title>
<g id="a_node15"><a xlink:href="../../dd/d47/namespacemath.html#a8d79d452a81ed27ba095d2ecb32dc4b4" target="_top" xlink:title=" ">
<polygon fill="white" stroke="black" points="201.5,-68.5 201.5,-87.5 269.5,-87.5 269.5,-68.5 201.5,-68.5"/>
<text text-anchor="middle" x="235.5" y="-75.5" font-family="Helvetica,sans-Serif" font-size="10.00">math::result</text>
</a>
</g>
</g>
<!-- Node13&#45;&gt;Node15 -->
<g id="edge16" class="edge">
<title>Node13&#45;&gt;Node15</title>
<path fill="none" stroke="midnightblue" d="M131.19,-117.11C149.18,-110.3 177.18,-99.7 199.5,-91.25"/>
<polygon fill="midnightblue" stroke="midnightblue" points="200.87,-94.48 208.98,-87.66 198.39,-87.93 200.87,-94.48"/>
</g>
<!-- Node16 -->
<g id="node16" class="node">
<title>Node16</title>
<g id="a_node16"><a xlink:href="../../d7/d35/matrix__exponentiation_8cpp.html#ad8389ed58fd0ec66df248014775ad1fa" target="_top" xlink:title=" ">
<polygon fill="white" stroke="black" points="375,-106.5 375,-125.5 407,-125.5 407,-106.5 375,-106.5"/>
<text text-anchor="middle" x="391" y="-113.5" font-family="Helvetica,sans-Serif" font-size="10.00">ans</text>
</a>
</g>
</g>
<!-- Node15&#45;&gt;Node16 -->
<g id="edge17" class="edge">
<title>Node15&#45;&gt;Node16</title>
<path fill="none" stroke="midnightblue" d="M269.81,-86.25C298.48,-93.34 339.22,-103.43 365.13,-109.84"/>
<polygon fill="midnightblue" stroke="midnightblue" points="364.37,-113.26 374.92,-112.27 366.06,-106.47 364.37,-113.26"/>
</g>
<!-- Node17 -->
<g id="node17" class="node">
<title>Node17</title>
<g id="a_node17"><a xlink:href="../../dd/d47/namespacemath.html#a4a55bb9ec6c59485d3fdb18bd88ca5b6" target="_top" xlink:title=" ">
<polygon fill="white" stroke="black" points="355.5,-30.5 355.5,-49.5 426.5,-49.5 426.5,-30.5 355.5,-30.5"/>
<text text-anchor="middle" x="391" y="-37.5" font-family="Helvetica,sans-Serif" font-size="10.00">math::power</text>
</a>
</g>
</g>
<!-- Node15&#45;&gt;Node17 -->
<g id="edge18" class="edge">
<title>Node15&#45;&gt;Node17</title>
<path fill="none" stroke="midnightblue" d="M269.81,-69.75C291.95,-64.27 321.29,-57.01 345.43,-51.03"/>
<polygon fill="midnightblue" stroke="midnightblue" points="346.56,-54.36 355.43,-48.56 344.88,-47.56 346.56,-54.36"/>
</g>
<!-- Node18 -->
<g id="node18" class="node">
<title>Node18</title>
<g id="a_node18"><a xlink:href="../../dd/d47/namespacemath.html#ab65d9997885347702dc0c3ec09d5dc21" target="_top" xlink:title=" ">
<polygon fill="white" stroke="black" points="521.5,-49.5 521.5,-68.5 599.5,-68.5 599.5,-49.5 521.5,-49.5"/>
<text text-anchor="middle" x="560.5" y="-56.5" font-family="Helvetica,sans-Serif" font-size="10.00">math::multiply</text>
</a>
</g>
</g>
<!-- Node17&#45;&gt;Node18 -->
<g id="edge19" class="edge">
<title>Node17&#45;&gt;Node18</title>
<path fill="none" stroke="midnightblue" d="M426.71,-43.94C451.18,-46.71 484.27,-50.47 511.3,-53.53"/>
<polygon fill="midnightblue" stroke="midnightblue" points="511,-57.02 521.33,-54.67 511.79,-50.07 511,-57.02"/>
</g>
<!-- Node18&#45;&gt;Node15 -->
<g id="edge20" class="edge">
<title>Node18&#45;&gt;Node15</title>
<path fill="none" stroke="midnightblue" d="M521.28,-61.25C460.73,-64.81 343.12,-71.73 279.63,-75.46"/>
<polygon fill="midnightblue" stroke="midnightblue" points="279.33,-71.97 269.55,-76.06 279.74,-78.96 279.33,-71.97"/>
</g>
<!-- Node19&#45;&gt;Node4 -->
<g id="edge22" class="edge">
<title>Node19&#45;&gt;Node4</title>
<path fill="none" stroke="midnightblue" d="M131.14,-94.32C137.29,-97.4 144.1,-101.09 150,-105 167.37,-116.49 168.64,-123.49 186,-135 188.56,-136.7 191.25,-138.37 194,-139.99"/>
<polygon fill="midnightblue" stroke="midnightblue" points="192.45,-143.13 202.88,-144.97 195.87,-137.03 192.45,-143.13"/>
</g>
<!-- Node19&#45;&gt;Node14 -->
<g id="edge23" class="edge">
<title>Node19&#45;&gt;Node14</title>
<path fill="none" stroke="midnightblue" d="M131.19,-90.49C148.87,-94.86 176.22,-101.61 198.34,-107.07"/>
<polygon fill="midnightblue" stroke="midnightblue" points="197.53,-110.48 208.08,-109.48 199.21,-103.68 197.53,-110.48"/>
</g>
<!-- Node19&#45;&gt;Node15 -->
<g id="edge24" class="edge">
<title>Node19&#45;&gt;Node15</title>
<path fill="none" stroke="midnightblue" d="M131.19,-84.8C146.93,-83.77 170.34,-82.22 190.9,-80.87"/>
<polygon fill="midnightblue" stroke="midnightblue" points="191.27,-84.35 201.02,-80.2 190.81,-77.37 191.27,-84.35"/>
</g>
</g>
</svg>
        <g id="navigator" transform="translate(0 0)" fill="#404254">
                <rect fill="#f2f5e9" fill-opacity="0.5" stroke="#606060" stroke-width=".5" x="0" y="0" width="60" height="60"/>
                <use id="zoomplus" xlink:href="#zoomPlus" x="17" y="9" onmousedown="handleZoom(evt,'in')"/>
                <use id="zoomminus" xlink:href="#zoomMin" x="42" y="9" onmousedown="handleZoom(evt,'out')"/>
                <use id="reset" xlink:href="#resetDef" x="30" y="36" onmousedown="handleReset()"/>
                <g id="arrowUp" xlink:href="#dirArrow" transform="translate(30 24)" onmousedown="handlePan(0,-1)">
                  <use xlink:href="#rim" fill="#404040">
                        <set attributeName="fill" to="#808080" begin="arrowUp.mouseover" end="arrowUp.mouseout"/>
                  </use>
                  <path fill="none" stroke="white" stroke-width="1.5" d="M0,-3.0v7 M-2.5,-0.5L0,-3.0L2.5,-0.5"/>
                </g>
                <g id="arrowRight" xlink:href="#dirArrow" transform="rotate(90) translate(36 -43)" onmousedown="handlePan(1,0)">
                  <use xlink:href="#rim" fill="#404040">
                        <set attributeName="fill" to="#808080" begin="arrowRight.mouseover" end="arrowRight.mouseout"/>
                  </use>
                  <path fill="none" stroke="white" stroke-width="1.5" d="M0,-3.0v7 M-2.5,-0.5L0,-3.0L2.5,-0.5"/>
                </g>
                <g id="arrowDown" xlink:href="#dirArrow" transform="rotate(180) translate(-30 -48)" onmousedown="handlePan(0,1)">
                  <use xlink:href="#rim" fill="#404040">
                        <set attributeName="fill" to="#808080" begin="arrowDown.mouseover" end="arrowDown.mouseout"/>
                  </use>
                  <path fill="none" stroke="white" stroke-width="1.5" d="M0,-3.0v7 M-2.5,-0.5L0,-3.0L2.5,-0.5"/>
                </g>
                <g id="arrowLeft" xlink:href="#dirArrow" transform="rotate(270) translate(-36 17)" onmousedown="handlePan(-1,0)">
                  <use xlink:href="#rim" fill="#404040">
                        <set attributeName="fill" to="#808080" begin="arrowLeft.mouseover" end="arrowLeft.mouseout"/>
                  </use>
                  <path fill="none" stroke="white" stroke-width="1.5" d="M0,-3.0v7 M-2.5,-0.5L0,-3.0L2.5,-0.5"/>
                </g>
        </g>
        <svg viewBox="0 0 15 15" width="100%" height="30px" preserveAspectRatio="xMaxYMin meet">
         <g id="arrow_out" transform="scale(0.3 0.3)">
          <a xlink:href="qr__eigen__values_8cpp_a3c04138a5bfe5d72780bb7e82a18e627_cgraph_org.svg" target="_base">
           <rect id="button" ry="5" rx="5" y="6" x="6" height="38" width="38"
                fill="#f2f5e9" fill-opacity="0.5" stroke="#606060" stroke-width="1.0"/>
           <path id="arrow"
             d="M 11.500037,31.436501 C 11.940474,20.09759 22.043105,11.32322 32.158766,21.979434 L 37.068811,17.246167 C 37.068811,17.246167 37.088388,32 37.088388,32 L 22.160133,31.978069 C 22.160133,31.978069 26.997745,27.140456 26.997745,27.140456 C 18.528582,18.264221 13.291696,25.230495 11.500037,31.436501 z"
             style="fill:#404040;"/>
          </a>
         </g>
        </svg>
</svg>
