<?xml version="1.0" encoding="UTF-8" standalone="no"?>
<!DOCTYPE svg PUBLIC "-//W3C//DTD SVG 1.1//EN"
 "http://www.w3.org/Graphics/SVG/1.1/DTD/svg11.dtd">
<!-- Generated by graphviz version 2.44.1 (20200629.0846)
 -->
<!-- Title: graph::HKGraph::hopcroftKarpAlgorithm Pages: 1 -->
<svg width="514pt" height="123pt"
 viewBox="0.00 0.00 514.00 123.00" xmlns="http://www.w3.org/2000/svg" xmlns:xlink="http://www.w3.org/1999/xlink">
<g id="graph0" class="graph" transform="scale(1 1) rotate(0) translate(4 119)">
<title>graph::HKGraph::hopcroftKarpAlgorithm</title>
<polygon fill="white" stroke="transparent" points="-4,4 -4,-119 510,-119 510,4 -4,4"/>
<!-- Node1 -->
<g id="node1" class="node">
<title>Node1</title>
<g id="a_node1"><a xlink:title="This function counts the number of augmenting paths between left and right sides of the Bipartite gra...">
<polygon fill="#bfbfbf" stroke="black" points="0,-52 0,-82 128,-82 128,-52 0,-52"/>
<text text-anchor="start" x="8" y="-70" font-family="Helvetica,sans-Serif" font-size="10.00">graph::HKGraph::hopcroft</text>
<text text-anchor="middle" x="64" y="-59" font-family="Helvetica,sans-Serif" font-size="10.00">KarpAlgorithm</text>
</a>
</g>
</g>
<!-- Node2 -->
<g id="node2" class="node">
<title>Node2</title>
<g id="a_node2"><a xlink:href="../../d8/d69/classgraph_1_1_h_k_graph.html#a7491add14d9fc04f679114ca6d6f0f93" target="_top" xlink:title="This function checks for the possibility of augmented path availability.">
<polygon fill="white" stroke="black" points="164,-95.5 164,-114.5 271,-114.5 271,-95.5 164,-95.5"/>
<text text-anchor="middle" x="217.5" y="-102.5" font-family="Helvetica,sans-Serif" font-size="10.00">graph::HKGraph::bfs</text>
</a>
</g>
</g>
<!-- Node1&#45;&gt;Node2 -->
<g id="edge1" class="edge">
<title>Node1&#45;&gt;Node2</title>
<path fill="none" stroke="midnightblue" d="M124.88,-82.02C139.39,-85.66 154.71,-89.5 168.58,-92.98"/>
<polygon fill="midnightblue" stroke="midnightblue" points="167.85,-96.41 178.4,-95.44 169.55,-89.62 167.85,-96.41"/>
</g>
<!-- Node4 -->
<g id="node4" class="node">
<title>Node4</title>
<g id="a_node4"><a xlink:href="../../d8/d69/classgraph_1_1_h_k_graph.html#ae794950cb3407b6b47d3dc986cf714c0" target="_top" xlink:title="This functions checks whether an augmenting path is available exists beginning with free vertex u.">
<polygon fill="white" stroke="black" points="164,-57.5 164,-76.5 271,-76.5 271,-57.5 164,-57.5"/>
<text text-anchor="middle" x="217.5" y="-64.5" font-family="Helvetica,sans-Serif" font-size="10.00">graph::HKGraph::dfs</text>
</a>
</g>
</g>
<!-- Node1&#45;&gt;Node4 -->
<g id="edge3" class="edge">
<title>Node1&#45;&gt;Node4</title>
<path fill="none" stroke="midnightblue" d="M128.37,-67C136.79,-67 145.41,-67 153.82,-67"/>
<polygon fill="midnightblue" stroke="midnightblue" points="153.93,-70.5 163.93,-67 153.93,-63.5 153.93,-70.5"/>
</g>
<!-- Node5 -->
<g id="node5" class="node">
<title>Node5</title>
<g id="a_node5"><a xlink:href="../../dd/d47/namespacemath.html#a8d79d452a81ed27ba095d2ecb32dc4b4" target="_top" xlink:title=" ">
<polygon fill="white" stroke="black" points="183.5,-19.5 183.5,-38.5 251.5,-38.5 251.5,-19.5 183.5,-19.5"/>
<text text-anchor="middle" x="217.5" y="-26.5" font-family="Helvetica,sans-Serif" font-size="10.00">math::result</text>
</a>
</g>
</g>
<!-- Node1&#45;&gt;Node5 -->
<g id="edge5" class="edge">
<title>Node1&#45;&gt;Node5</title>
<path fill="none" stroke="midnightblue" d="M124.88,-51.98C141.01,-47.94 158.14,-43.64 173.17,-39.87"/>
<polygon fill="midnightblue" stroke="midnightblue" points="174.36,-43.18 183.21,-37.35 172.65,-36.39 174.36,-43.18"/>
</g>
<!-- Node3 -->
<g id="node3" class="node">
<title>Node3</title>
<g id="a_node3"><a target="_blank" xlink:href="http://en.cppreference.com/w/cpp/container/vector/end.html#" target="_top" xlink:title=" ">
<polygon fill="white" stroke="black" points="307,-95.5 307,-114.5 392,-114.5 392,-95.5 307,-95.5"/>
<text text-anchor="middle" x="349.5" y="-102.5" font-family="Helvetica,sans-Serif" font-size="10.00">std::vector::end</text>
</a>
</g>
</g>
<!-- Node2&#45;&gt;Node3 -->
<g id="edge2" class="edge">
<title>Node2&#45;&gt;Node3</title>
<path fill="none" stroke="midnightblue" d="M271,-105C279.52,-105 288.33,-105 296.83,-105"/>
<polygon fill="midnightblue" stroke="midnightblue" points="296.99,-108.5 306.99,-105 296.99,-101.5 296.99,-108.5"/>
</g>
<!-- Node4&#45;&gt;Node3 -->
<g id="edge4" class="edge">
<title>Node4&#45;&gt;Node3</title>
<path fill="none" stroke="midnightblue" d="M251.3,-76.59C267.78,-81.4 287.94,-87.3 305.63,-92.47"/>
<polygon fill="midnightblue" stroke="midnightblue" points="305.13,-95.97 315.71,-95.41 307.09,-89.25 305.13,-95.97"/>
</g>
<!-- Node6 -->
<g id="node6" class="node">
<title>Node6</title>
<g id="a_node6"><a xlink:href="../../d7/d35/matrix__exponentiation_8cpp.html#ad8389ed58fd0ec66df248014775ad1fa" target="_top" xlink:title=" ">
<polygon fill="white" stroke="black" points="333.5,-57.5 333.5,-76.5 365.5,-76.5 365.5,-57.5 333.5,-57.5"/>
<text text-anchor="middle" x="349.5" y="-64.5" font-family="Helvetica,sans-Serif" font-size="10.00">ans</text>
</a>
</g>
</g>
<!-- Node5&#45;&gt;Node6 -->
<g id="edge6" class="edge">
<title>Node5&#45;&gt;Node6</title>
<path fill="none" stroke="midnightblue" d="M251.3,-38.59C273.72,-45.14 302.98,-53.69 323.51,-59.7"/>
<polygon fill="midnightblue" stroke="midnightblue" points="322.79,-63.13 333.37,-62.58 324.76,-56.41 322.79,-63.13"/>
</g>
<!-- Node7 -->
<g id="node7" class="node">
<title>Node7</title>
<g id="a_node7"><a xlink:href="../../dd/d47/namespacemath.html#a4a55bb9ec6c59485d3fdb18bd88ca5b6" target="_top" xlink:title=" ">
<polygon fill="white" stroke="black" points="314,-19.5 314,-38.5 385,-38.5 385,-19.5 314,-19.5"/>
<text text-anchor="middle" x="349.5" y="-26.5" font-family="Helvetica,sans-Serif" font-size="10.00">math::power</text>
</a>
</g>
</g>
<!-- Node5&#45;&gt;Node7 -->
<g id="edge7" class="edge">
<title>Node5&#45;&gt;Node7</title>
<path fill="none" stroke="midnightblue" d="M251.64,-29C267.34,-29 286.33,-29 303.33,-29"/>
<polygon fill="midnightblue" stroke="midnightblue" points="303.6,-32.5 313.6,-29 303.6,-25.5 303.6,-32.5"/>
</g>
<!-- Node8 -->
<g id="node8" class="node">
<title>Node8</title>
<g id="a_node8"><a xlink:href="../../dd/d47/namespacemath.html#ab65d9997885347702dc0c3ec09d5dc21" target="_top" xlink:title=" ">
<polygon fill="white" stroke="black" points="428,-0.5 428,-19.5 506,-19.5 506,-0.5 428,-0.5"/>
<text text-anchor="middle" x="467" y="-7.5" font-family="Helvetica,sans-Serif" font-size="10.00">math::multiply</text>
</a>
</g>
</g>
<!-- Node7&#45;&gt;Node8 -->
<g id="edge8" class="edge">
<title>Node7&#45;&gt;Node8</title>
<path fill="none" stroke="midnightblue" d="M385.15,-23.3C395.43,-21.61 406.88,-19.73 417.84,-17.92"/>
<polygon fill="midnightblue" stroke="midnightblue" points="418.44,-21.37 427.74,-16.29 417.3,-14.46 418.44,-21.37"/>
</g>
<!-- Node8&#45;&gt;Node5 -->
<g id="edge9" class="edge">
<title>Node8&#45;&gt;Node5</title>
<path fill="none" stroke="midnightblue" d="M427.97,-7.75C395.69,-6.38 348.17,-5.63 307,-10 292.16,-11.57 276.16,-14.6 261.89,-17.77"/>
<polygon fill="midnightblue" stroke="midnightblue" points="260.8,-14.43 251.85,-20.1 262.38,-21.25 260.8,-14.43"/>
</g>
</g>
</svg>
